<svg fill="none" stroke-linecap="square" stroke-miterlimit="10" viewBox="0 0 794.49343832 465.3648294" xmlns="http://www.w3.org/2000/svg" xmlns:xlink="http://www.w3.org/1999/xlink"><clipPath id="a"><path d="m0 0h794.4934v465.36484h-794.4934z"/></clipPath><g clip-path="url(#a)"><g fill="none"><path d="m0 0h794.4934v465.36484h-794.4934z"/><path d="m123.44883 99.83465c0 13.933228-.94122314 25.228348-2.1022797 25.228348h-27.574974c-1.1610565 0-2.1022797-11.29512-2.1022797-25.228348z"/><path d="m123.44883 99.83465c0 13.933228-.94122314 25.228348-2.1022797 25.228348h-27.574974c-1.1610565 0-2.1022797-11.29512-2.1022797-25.228348"/></g><path d="m123.44883 99.83465c0 13.933228-.94122314 25.228348-2.1022797 25.228348h-27.574974c-1.1610565 0-2.1022797-11.29512-2.1022797-25.228348" fill-rule="evenodd" stroke="#b7b7b7" stroke-linecap="butt" stroke-linejoin="round" stroke-width="4"/><path d="m82.198166 58.732285h638.55115" fill="none"/><path d="m82.198166 58.732285h611.1345" fill-rule="evenodd" stroke="#999" stroke-linecap="butt" stroke-linejoin="round" stroke-width="8"/><path d="m693.33264 58.732285-8.996643 8.996666 24.71814-8.996666-24.71814-8.99667z" fill="#999" fill-rule="evenodd" stroke="#999" stroke-linecap="butt" stroke-width="8"/><path d="m82.77034 10.984252h157.5433v43.74803h-157.5433z" fill="none"/><path d="m93.23909 37.90425v-13.359377h9.65625v1.578125h-7.875v4.09375h7.375v1.5625h-7.375v4.546877h8.1875v1.578125zm14.896698 0-3.6875-9.671877h1.734375l2.078125 5.796877q.328125.9375.625 1.9375.203125-.765625.609375-1.828125l2.140625-5.906252h1.6875l-3.65625 9.671877zm13.265625-3.109375 1.6875.203125q-.40625 1.484375-1.484375 2.3125-1.078125.8125-2.765625.8125-2.125 0-3.375-1.296875-1.234375-1.3125-1.234375-3.671875 0-2.453127 1.25-3.796877 1.265625-1.34375 3.265625-1.34375 1.9375 0 3.15625 1.328125 1.234375 1.3125 1.234375 3.703127 0 .15625 0 .4375h-7.21875q.09375 1.59375.90625 2.453125.8125.84375 2.015625.84375.90625 0 1.546875-.46875.640625-.484375 1.015625-1.515625zm-5.390625-2.65625h5.40625q-.109375-1.2187519-.625-1.8281269-.78125-.953125-2.03125-.953125-1.125 0-1.90625.765625-.765625.75-.84375 2.015627zm9.141342 5.765625v-9.671877h1.46875v1.375q1.0625-1.59375 3.078125-1.59375.875 0 1.609375.3125.734375.3125 1.09375.828125.375.5.515625 1.203125.09375.453125.09375 1.59375v5.953127h-1.640625v-5.890625q0-1.0000019-.203125-1.4843769-.1875-.5-.671875-.796875-.484375-.296875-1.140625-.296875-1.046875 0-1.8125.671875-.75.65625-.75 2.515627v5.28125h-1.640625zm13.953842-1.46875.234375 1.453125q-.6875.140625-1.234375.140625-.890625 0-1.390625-.28125-.484375-.28125-.6875-.734375-.203125-.46875-.203125-1.9375v-5.578127h-1.203125v-1.265625h1.203125v-2.390625l1.625-.984375v3.375h1.65625v1.265625h-1.65625v5.671877q0 .6875.078125.890625.09375.203125.28125.328125.203125.109375.578125.109375.265625 0 .71875-.0625zm10.060623 1.46875v-11.781252h-4.40625v-1.578125h10.578125v1.578125h-4.40625v11.781252zm7.0939026-11.468752v-1.890625h1.640625v1.890625zm0 11.468752v-9.671877h1.640625v9.671877zm4.144821 0v-9.671877h1.46875v1.359375q.453125-.71875 1.203125-1.140625.765625-.4375 1.71875-.4375 1.078125 0 1.765625.453125.6875.4375.96875 1.234375 1.15625-1.6875 2.984375-1.6875 1.453125 0 2.21875.796875.78125.796875.78125 2.453125v6.640627h-1.640625v-6.093752q0-.984375-.15625-1.40625-.15625-.4375-.578125-.703125-.421875-.265625-.984375-.265625-1.015625 0-1.6875.6875-.671875.671875-.671875 2.156252v5.625h-1.640625v-6.281252q0-1.09375-.40625-1.640625-.40625-.546875-1.3125-.546875-.6875 0-1.28125.359375-.59375.359375-.859375 1.0625-.25.703125-.25 2.031252v5.015625zm22.165802-3.109375 1.6875.203125q-.40625 1.484375-1.484375 2.3125-1.078125.8125-2.765625.8125-2.125 0-3.375-1.296875-1.234375-1.3125-1.234375-3.671875 0-2.453127 1.25-3.796877 1.265625-1.34375 3.265625-1.34375 1.9375 0 3.15625 1.328125 1.234375 1.3125 1.234375 3.703127 0 .15625 0 .4375h-7.21875q.09375 1.59375.90625 2.453125.8125.84375 2.015625.84375.90625 0 1.546875-.46875.640625-.484375 1.015625-1.515625zm-5.390625-2.65625h5.40625q-.109375-1.2187519-.625-1.8281269-.78125-.953125-2.03125-.953125-1.125 0-1.90625.765625-.765625.75-.84375 2.015627z" fill="#000"/><path d="m154.79155 100.13914c0 13.933228-.94122314 25.228348-2.1022797 25.228348h-26.724579c-1.1610565 0-2.1022797-11.29512-2.1022797-25.228348z" fill="none"/><path d="m154.79155 100.13914c0 13.933228-.94122314 25.228348-2.1022797 25.228348h-26.724579c-1.1610565 0-2.1022797-11.29512-2.1022797-25.228348" fill="none"/><path d="m154.79155 100.13914c0 13.933228-.94122314 25.228348-2.1022797 25.228348h-26.724579c-1.1610565 0-2.1022797-11.29512-2.1022797-25.228348" fill-rule="evenodd" stroke="#b7b7b7" stroke-linecap="butt" stroke-linejoin="round" stroke-width="4"/><path d="m186.13426 100.13914c0 13.933228-.94122314 25.228348-2.1022797 25.228348h-26.724564c-1.1610565 0-2.1022797-11.29512-2.1022797-25.228348z" fill="none"/><path d="m186.13426 100.13914c0 13.933228-.94122314 25.228348-2.1022797 25.228348h-26.724564c-1.1610565 0-2.1022797-11.29512-2.1022797-25.228348" fill="none"/><path d="m186.13426 100.13914c0 13.933228-.94122314 25.228348-2.1022797 25.228348h-26.724564c-1.1610565 0-2.1022797-11.29512-2.1022797-25.228348" fill-rule="evenodd" stroke="#b7b7b7" stroke-linecap="butt" stroke-linejoin="round" stroke-width="4"/><path d="m217.47699 100.13914c0 13.933228-.94122314 25.228348-2.1022797 25.228348h-26.724579c-1.1610565 0-2.1022797-11.29512-2.1022797-25.228348z" fill="none"/><path d="m217.47699 100.13914c0 13.933228-.94122314 25.228348-2.1022797 25.228348h-26.724579c-1.1610565 0-2.1022797-11.29512-2.1022797-25.228348" fill="none"/><path d="m217.47699 100.13914c0 13.933228-.94122314 25.228348-2.1022797 25.228348h-26.724579c-1.1610565 0-2.1022797-11.29512-2.1022797-25.228348" fill-rule="evenodd" stroke="#b7b7b7" stroke-linecap="butt" stroke-linejoin="round" stroke-width="4"/><path d="m249.25363 99.83465c0 13.933228-.9412079 25.228348-2.1022644 25.228348h-27.574982c-1.1610565 0-2.1022797-11.29512-2.1022797-25.228348z" fill="none"/><path d="m249.25363 99.83465c0 13.933228-.9412079 25.228348-2.1022644 25.228348h-27.574982c-1.1610565 0-2.1022797-11.29512-2.1022797-25.228348" fill="none"/><path d="m249.25363 99.83465c0 13.933228-.9412079 25.228348-2.1022644 25.228348h-27.574982c-1.1610565 0-2.1022797-11.29512-2.1022797-25.228348" fill-rule="evenodd" stroke="#b7b7b7" stroke-linecap="butt" stroke-linejoin="round" stroke-width="4"/><path d="m280.59634 100.13914c0 13.933228-.94122314 25.228348-2.1022644 25.228348h-26.724579c-1.1610565 0-2.1022797-11.29512-2.1022797-25.228348z" fill="none"/><path d="m280.59634 100.13914c0 13.933228-.94122314 25.228348-2.1022644 25.228348h-26.724579c-1.1610565 0-2.1022797-11.29512-2.1022797-25.228348" fill="none"/><path d="m280.59634 100.13914c0 13.933228-.94122314 25.228348-2.1022644 25.228348h-26.724579c-1.1610565 0-2.1022797-11.29512-2.1022797-25.228348" fill-rule="evenodd" stroke="#b7b7b7" stroke-linecap="butt" stroke-linejoin="round" stroke-width="4"/><path d="m311.9391 100.13914c0 13.933228-.94122314 25.228348-2.102295 25.228348h-26.724579c-1.1610413 0-2.1022644-11.29512-2.1022644-25.228348z" fill="none"/><path d="m311.9391 100.13914c0 13.933228-.94122314 25.228348-2.102295 25.228348h-26.724579c-1.1610413 0-2.1022644-11.29512-2.1022644-25.228348" fill="none"/><path d="m311.9391 100.13914c0 13.933228-.94122314 25.228348-2.102295 25.228348h-26.724579c-1.1610413 0-2.1022644-11.29512-2.1022644-25.228348" fill-rule="evenodd" stroke="#b7b7b7" stroke-linecap="butt" stroke-linejoin="round" stroke-width="4"/><path d="m343.2818 100.13914c0 13.933228-.94122314 25.228348-2.1022644 25.228348h-26.724579c-1.1610718 0-2.102295-11.29512-2.102295-25.228348z" fill="none"/><path d="m343.2818 100.13914c0 13.933228-.94122314 25.228348-2.1022644 25.228348h-26.724579c-1.1610718 0-2.102295-11.29512-2.102295-25.228348" fill="none"/><path d="m343.2818 100.13914c0 13.933228-.94122314 25.228348-2.1022644 25.228348h-26.724579c-1.1610718 0-2.102295-11.29512-2.102295-25.228348" fill-rule="evenodd" stroke="#b7b7b7" stroke-linecap="butt" stroke-linejoin="round" stroke-width="4"/><path d="m375.05844 99.98645c0 13.933228-.94122314 25.228348-2.1022644 25.228348h-27.574982c-1.1610413 0-2.1022644-11.29512-2.1022644-25.228348z" fill="none"/><path d="m375.05844 99.98645c0 13.933228-.94122314 25.228348-2.1022644 25.228348h-27.574982c-1.1610413 0-2.1022644-11.29512-2.1022644-25.228348" fill="none"/><path d="m375.05844 99.98645c0 13.933228-.94122314 25.228348-2.1022644 25.228348h-27.574982c-1.1610413 0-2.1022644-11.29512-2.1022644-25.228348" fill-rule="evenodd" stroke="#b7b7b7" stroke-linecap="butt" stroke-linejoin="round" stroke-width="4"/><path d="m406.40118 100.29094c0 13.933228-.94122314 25.228348-2.102295 25.228348h-26.724579c-1.1610413 0-2.1022644-11.29512-2.1022644-25.228348z" fill="none"/><path d="m406.40118 100.29094c0 13.933228-.94122314 25.228348-2.102295 25.228348h-26.724579c-1.1610413 0-2.1022644-11.29512-2.1022644-25.228348" fill="none"/><path d="m406.40118 100.29094c0 13.933228-.94122314 25.228348-2.102295 25.228348h-26.724579c-1.1610413 0-2.1022644-11.29512-2.1022644-25.228348" fill-rule="evenodd" stroke="#b7b7b7" stroke-linecap="butt" stroke-linejoin="round" stroke-width="4"/><path d="m437.7439 100.29094c0 13.933228-.94122314 25.228348-2.102295 25.228348h-26.724579c-1.1610413 0-2.1022644-11.29512-2.1022644-25.228348z" fill="none"/><path d="m437.7439 100.29094c0 13.933228-.94122314 25.228348-2.102295 25.228348h-26.724579c-1.1610413 0-2.1022644-11.29512-2.1022644-25.228348" fill="none"/><path d="m437.7439 100.29094c0 13.933228-.94122314 25.228348-2.102295 25.228348h-26.724579c-1.1610413 0-2.1022644-11.29512-2.1022644-25.228348" fill-rule="evenodd" stroke="#b7b7b7" stroke-linecap="butt" stroke-linejoin="round" stroke-width="4"/><path d="m469.0866 100.29094c0 13.933228-.94122314 25.228348-2.1022644 25.228348h-26.724579c-1.1610718 0-2.102295-11.29512-2.102295-25.228348z" fill="none"/><path d="m469.0866 100.29094c0 13.933228-.94122314 25.228348-2.1022644 25.228348h-26.724579c-1.1610718 0-2.102295-11.29512-2.102295-25.228348" fill="none"/><path d="m469.0866 100.29094c0 13.933228-.94122314 25.228348-2.1022644 25.228348h-26.724579c-1.1610718 0-2.102295-11.29512-2.102295-25.228348" fill-rule="evenodd" stroke="#b7b7b7" stroke-linecap="butt" stroke-linejoin="round" stroke-width="4"/><path d="m500.0152 99.83467c0 13.933235-.94122314 25.228348-2.102295 25.228348h-26.724548c-1.1610718 0-2.102295-11.295113-2.102295-25.228348z" fill="none"/><path d="m500.0152 99.83467c0 13.933235-.94122314 25.228348-2.102295 25.228348h-26.724548c-1.1610718 0-2.102295-11.295113-2.102295-25.228348" fill="none"/><path d="m500.0152 99.83467c0 13.933235-.94122314 25.228348-2.102295 25.228348h-26.724548c-1.1610718 0-2.102295-11.295113-2.102295-25.228348" fill-rule="evenodd" stroke="#b7b7b7" stroke-linecap="butt" stroke-linejoin="round" stroke-width="4"/><path d="m531.3579 99.83467c0 13.933235-.94122314 25.228348-2.102295 25.228348h-26.724548c-1.1610718 0-2.102295-11.295113-2.102295-25.228348z" fill="none"/><path d="m531.3579 99.83467c0 13.933235-.94122314 25.228348-2.102295 25.228348h-26.724548c-1.1610718 0-2.102295-11.295113-2.102295-25.228348" fill="none"/><path d="m531.3579 99.83467c0 13.933235-.94122314 25.228348-2.102295 25.228348h-26.724548c-1.1610718 0-2.102295-11.295113-2.102295-25.228348" fill-rule="evenodd" stroke="#b7b7b7" stroke-linecap="butt" stroke-linejoin="round" stroke-width="4"/><path d="m563.1346 99.681984c0 13.933235-.94122314 25.228348-2.102295 25.228348h-27.574951c-1.1610718 0-2.102295-11.295113-2.102295-25.228348z" fill="none"/><path d="m563.1346 99.681984c0 13.933235-.94122314 25.228348-2.102295 25.228348h-27.574951c-1.1610718 0-2.102295-11.295113-2.102295-25.228348" fill="none"/><path d="m563.1346 99.681984c0 13.933235-.94122314 25.228348-2.102295 25.228348h-27.574951c-1.1610718 0-2.102295-11.295113-2.102295-25.228348" fill-rule="evenodd" stroke="#b7b7b7" stroke-linecap="butt" stroke-linejoin="round" stroke-width="4"/><path d="m594.4773 99.98647c0 13.933235-.94122314 25.228348-2.102295 25.228348h-26.724548c-1.1610718 0-2.102295-11.295113-2.102295-25.228348z" fill="none"/><path d="m594.4773 99.98647c0 13.933235-.94122314 25.228348-2.102295 25.228348h-26.724548c-1.1610718 0-2.102295-11.295113-2.102295-25.228348" fill="none"/><path d="m594.4773 99.98647c0 13.933235-.94122314 25.228348-2.102295 25.228348h-26.724548c-1.1610718 0-2.102295-11.295113-2.102295-25.228348" fill-rule="evenodd" stroke="#b7b7b7" stroke-linecap="butt" stroke-linejoin="round" stroke-width="4"/><path d="m625.82 99.98647c0 13.933235-.94122314 25.228348-2.102295 25.228348h-26.724548c-1.1610718 0-2.102295-11.295113-2.102295-25.228348z" fill="none"/><path d="m625.82 99.98647c0 13.933235-.94122314 25.228348-2.102295 25.228348h-26.724548c-1.1610718 0-2.102295-11.295113-2.102295-25.228348" fill="none"/><path d="m625.82 99.98647c0 13.933235-.94122314 25.228348-2.102295 25.228348h-26.724548c-1.1610718 0-2.102295-11.295113-2.102295-25.228348" fill-rule="evenodd" stroke="#b7b7b7" stroke-linecap="butt" stroke-linejoin="round" stroke-width="4"/><path d="m657.1627 99.98647c0 13.933235-.94122314 25.228348-2.102295 25.228348h-26.724548c-1.1610718 0-2.102295-11.295113-2.102295-25.228348z" fill="none"/><path d="m657.1627 99.98647c0 13.933235-.94122314 25.228348-2.102295 25.228348h-26.724548c-1.1610718 0-2.102295-11.295113-2.102295-25.228348" fill="none"/><path d="m657.1627 99.98647c0 13.933235-.94122314 25.228348-2.102295 25.228348h-26.724548c-1.1610718 0-2.102295-11.295113-2.102295-25.228348" fill-rule="evenodd" stroke="#b7b7b7" stroke-linecap="butt" stroke-linejoin="round" stroke-width="4"/><path d="m592.7113 205.56299c0 13.933228-.94122314 25.228348-2.102295 25.228348h-496.8348c-1.1610565 0-2.1022797-11.29512-2.1022797-25.228348z" fill="none"/><path d="m592.7113 205.56299c0 13.933228-.94122314 25.228348-2.102295 25.228348h-496.8348c-1.1610565 0-2.1022797-11.29512-2.1022797-25.228348" fill="none"/><path d="m592.7113 205.56299c0 13.933228-.94122314 25.228348-2.102295 25.228348h-496.8348c-1.1610565 0-2.1022797-11.29512-2.1022797-25.228348" fill-rule="evenodd" stroke="#b7b7b7" stroke-linecap="butt" stroke-linejoin="round" stroke-width="4"/><path d="m624.72705 311.2651c0 13.933228-.94122314 25.228333-2.102295 25.228333h-496.6458c-1.1610565 0-2.1022797-11.295105-2.1022797-25.228333z" fill="none"/><path d="m624.72705 311.2651c0 13.933228-.94122314 25.228333-2.102295 25.228333h-496.6458c-1.1610565 0-2.1022797-11.295105-2.1022797-25.228333" fill="none"/><path d="m624.72705 311.2651c0 13.933228-.94122314 25.228333-2.102295 25.228333h-496.6458c-1.1610565 0-2.1022797-11.295105-2.1022797-25.228333" fill-rule="evenodd" stroke="#b7b7b7" stroke-linecap="butt" stroke-linejoin="round" stroke-width="4"/><path d="m651.53284 416.96588c0 13.933228-.94122314 25.228333-2.102295 25.228333h-492.55136c-1.1610565 0-2.1022797-11.295105-2.1022797-25.228333z" fill="none"/><path d="m651.53284 416.96588c0 13.933228-.94122314 25.228333-2.102295 25.228333h-492.55136c-1.1610565 0-2.1022797-11.295105-2.1022797-25.228333" fill="none"/><path d="m651.53284 416.96588c0 13.933228-.94122314 25.228333-2.102295 25.228333h-492.55136c-1.1610565 0-2.1022797-11.295105-2.1022797-25.228333" fill-rule="evenodd" stroke="#b7b7b7" stroke-linecap="butt" stroke-linejoin="round" stroke-width="4"/><path d="m113.19948 129.55643 153.38582 44.692917" fill="none"/><path d="m113.19948 129.55643 153.38582 44.692917" fill-rule="evenodd" stroke="#000" stroke-dasharray="1 3" stroke-linecap="butt" stroke-linejoin="round"/><path d="m147.45145 128.81364 125.82678 37.984253" fill="none"/><path d="m147.45145 128.81364 125.82678 37.984253" fill-rule="evenodd" stroke="#000" stroke-dasharray="1 3" stroke-linecap="butt" stroke-linejoin="round"/><path d="m206.27296 127.32284 62.551193 26.047234" fill="none"/><path d="m206.27296 127.32284 62.551193 26.047234" fill-rule="evenodd" stroke="#000" stroke-dasharray="1 3" stroke-linecap="butt" stroke-linejoin="round"/><path d="m236.80052 127.32284 60.314957 28.283455" fill="none"/><path d="m236.80052 127.32284 60.314957 28.283455" fill-rule="evenodd" stroke="#000" stroke-dasharray="1 3" stroke-linecap="butt" stroke-linejoin="round"/><path d="m273.2861 128.81364 42.456665 26.803146" fill="none"/><path d="m273.2861 128.81364 42.456665 26.803146" fill-rule="evenodd" stroke="#000" stroke-dasharray="1 3" stroke-linecap="butt" stroke-linejoin="round"/><path d="m299.34647 128.81364 23.086609 23.84253" fill="none"/><path d="m299.34647 128.81364 23.086609 23.84253" fill-rule="evenodd" stroke="#000" stroke-dasharray="1 3" stroke-linecap="butt" stroke-linejoin="round"/><path d="m329.1286 130.30183 5.952759 17.133865" fill="none"/><path d="m329.1286 130.30183 5.952759 17.133865" fill-rule="evenodd" stroke="#000" stroke-dasharray="1 3" stroke-linecap="butt" stroke-linejoin="round"/><path d="m361.88977 128.81364-2.2362366 17.858276" fill="none"/><path d="m361.88977 128.81364-2.2362366 17.858276" fill-rule="evenodd" stroke="#000" stroke-dasharray="1 3" stroke-linecap="butt" stroke-linejoin="round"/><path d="m393.16272 128.81364-5.2283325 12.661423" fill="none"/><path d="m393.16272 128.81364-5.2283325 12.661423" fill-rule="evenodd" stroke="#000" stroke-dasharray="1 3" stroke-linecap="butt" stroke-linejoin="round"/><path d="m424.4357 130.30183-21.606293 25.32283" fill="none"/><path d="m424.4357 130.30183-21.606293 25.32283" fill-rule="evenodd" stroke="#000" stroke-dasharray="1 3" stroke-linecap="butt" stroke-linejoin="round"/><path d="m452.72964 129.55643-30.519684 29.039368" fill="none"/><path d="m452.72964 129.55643-30.519684 29.039368" fill-rule="evenodd" stroke="#000" stroke-dasharray="1 3" stroke-linecap="butt" stroke-linejoin="round"/><path d="m485.4908 128.81364-55.08661 37.984253" fill="none"/><path d="m485.4908 128.81364-55.08661 37.984253" fill-rule="evenodd" stroke="#000" stroke-dasharray="1 3" stroke-linecap="butt" stroke-linejoin="round"/><path d="m509.3176 131.79002-65.51181 40.220474" fill="none"/><path d="m509.3176 131.79002-65.51181 40.220474" fill-rule="evenodd" stroke="#000" stroke-dasharray="1 3" stroke-linecap="butt" stroke-linejoin="round"/><path d="m541.3333 131.04724-93.07083 52.157486" fill="none"/><path d="m541.3333 131.04724-93.07083 52.157486" fill-rule="evenodd" stroke="#000" stroke-dasharray="1 3" stroke-linecap="butt" stroke-linejoin="round"/><path d="m575.5853 128.81364-122.11026 60.314972" fill="none"/><path d="m575.5853 128.81364-122.11026 60.314972" fill-rule="evenodd" stroke="#000" stroke-dasharray="1 3" stroke-linecap="butt" stroke-linejoin="round"/><path d="m109.47769 130.30183 189.13385 129.54332" fill="none"/><path d="m109.47769 130.30183 189.13385 129.54332" fill-rule="evenodd" stroke="#000" stroke-dasharray="1 3" stroke-linecap="butt" stroke-linejoin="round"/><path d="m141.49344 129.55643 163.81104 125.10237" fill="none"/><path d="m141.49344 129.55643 163.81104 125.10237" fill-rule="evenodd" stroke="#000" stroke-dasharray="1 3" stroke-linecap="butt" stroke-linejoin="round"/><path d="m178.72179 130.30183 77.44881 25.32283" fill="none"/><path d="m178.72179 130.30183 77.44881 25.32283" fill-rule="evenodd" stroke="#000" stroke-dasharray="1 3" stroke-linecap="butt" stroke-linejoin="round"/><path d="m170.5328 129.55643 150.3937 125.10237" fill="none"/><path d="m170.5328 129.55643 150.3937 125.10237" fill-rule="evenodd" stroke="#000" stroke-dasharray="1 3" stroke-linecap="butt" stroke-linejoin="round"/><path d="m202.54855 128.81364 131.77954 128.8189" fill="none"/><path d="m202.54855 128.81364 131.77954 128.8189" fill-rule="evenodd" stroke="#000" stroke-dasharray="1 3" stroke-linecap="butt" stroke-linejoin="round"/><path d="m230.84251 127.32284 115.401566 131.05511" fill="none"/><path d="m230.84251 127.32284 115.401566 131.05511" fill-rule="evenodd" stroke="#000" stroke-dasharray="1 3" stroke-linecap="butt" stroke-linejoin="round"/><path d="m266.58267 128.81364 90.11023 128.8189" fill="none"/><path d="m266.58267 128.81364 90.11023 128.8189" fill-rule="evenodd" stroke="#000" stroke-dasharray="1 3" stroke-linecap="butt" stroke-linejoin="round"/><path d="m296.36746 128.81364 71.49606 129.54332" fill="none"/><path d="m296.36746 128.81364 71.49606 129.54332" fill-rule="evenodd" stroke="#000" stroke-dasharray="1 3" stroke-linecap="butt" stroke-linejoin="round"/><path d="m332.8504 127.32284 42.456696 132.53543" fill="none"/><path d="m332.8504 127.32284 42.456696 132.53543" fill-rule="evenodd" stroke="#000" stroke-dasharray="1 3" stroke-linecap="butt" stroke-linejoin="round"/><path d="m366.35696 130.30183 13.417328 125.82677" fill="none"/><path d="m366.35696 130.30183 13.417328 125.82677" fill-rule="evenodd" stroke="#000" stroke-dasharray="1 3" stroke-linecap="butt" stroke-linejoin="round"/><path d="m396.88452 130.30183-8.188995 126.58269" fill="none"/><path d="m396.88452 130.30183-8.188995 126.58269" fill-rule="evenodd" stroke="#000" stroke-dasharray="1 3" stroke-linecap="butt" stroke-linejoin="round"/><path d="m427.41208 131.04724-23.086609 125.102356" fill="none"/><path d="m427.41208 131.04724-23.086609 125.102356" fill-rule="evenodd" stroke="#000" stroke-dasharray="1 3" stroke-linecap="butt" stroke-linejoin="round"/><path d="m457.19684 131.04724-31.275574 119.14961" fill="none"/><path d="m457.19684 131.04724-31.275574 119.14961" fill-rule="evenodd" stroke="#000" stroke-dasharray="1 3" stroke-linecap="butt" stroke-linejoin="round"/><path d="m489.958 128.06824-51.370087 128.81891" fill="none"/><path d="m489.958 128.06824-51.370087 128.81891" fill-rule="evenodd" stroke="#000" stroke-dasharray="1 3" stroke-linecap="butt" stroke-linejoin="round"/><path d="m518.25195 128.06824-64.031494 134.01575" fill="none"/><path d="m518.25195 128.06824-64.031494 134.01575" fill-rule="evenodd" stroke="#000" stroke-dasharray="1 3" stroke-linecap="butt" stroke-linejoin="round"/><path d="m547.2913 129.55643-85.63779 137.00787" fill="none"/><path d="m547.2913 129.55643-85.63779 137.00787" fill-rule="evenodd" stroke="#000" stroke-dasharray="1 3" stroke-linecap="butt" stroke-linejoin="round"/><path d="m579.30707 128.81364-105.73227 143.71654" fill="none"/><path d="m579.30707 128.81364-105.73227 143.71654" fill-rule="evenodd" stroke="#000" stroke-dasharray="1 3" stroke-linecap="butt" stroke-linejoin="round"/><path d="m403.1546 377.12515 30.801727-21.610718-3.03714 19.840881 34.964386-3.2341614-13.886444 10.648865 36.371216 3.0627441-28.881805 8.711365 33.044434 10.488647-39.416656-1.2966614 10.824493 19.200012-34.13681-13.555145-6.3970337 19.673218-22.468231-17.892181-16.940125 24.83368-6.372223-22.25531-24.437805 7.4147034 7.4894104-13.711609-45.78058 2.421875 29.68454-10.4774475-30.801727-11.774109 38.291138-3.7185364-35.229187-19.829681 57.449158 14.99707 8.606598-14.99707z" fill="#fce5cd" fill-rule="evenodd"/><path d="m403.1546 377.12515 30.801727-21.610718-3.03714 19.840881 34.964386-3.2341614-13.886444 10.648865 36.371216 3.0627441-28.881805 8.711365 33.044434 10.488647-39.416656-1.2966614 10.824493 19.200012-34.13681-13.555145-6.3970337 19.673218-22.468231-17.892181-16.940125 24.83368-6.372223-22.25531-24.437805 7.4147034 7.4894104-13.711609-45.78058 2.421875 29.68454-10.4774475-30.801727-11.774109 38.291138-3.7185364-35.229187-19.829681 57.449158 14.99707 8.606598-14.99707z" fill-rule="evenodd" stroke="#ccc" stroke-linecap="butt" stroke-linejoin="round"/><path d="m372.03812 395.48557 1.765625.453125q-.5625 2.171875-2 3.328125-1.4375 1.140625-3.53125 1.140625-2.15625 0-3.515625-.875-1.34375-.890625-2.0625-2.546875-.703125-1.671875-.703125-3.59375 0-2.078125.796875-3.625.796875-1.5625 2.265625-2.359375 1.484375-.8125 3.25-.8125 2 0 3.359375 1.015625 1.375 1.015625 1.90625 2.875l-1.734375.40625q-.46875-1.453125-1.359375-2.109375-.875-.671875-2.203125-.671875-1.546875 0-2.578125.734375-1.03125.734375-1.453125 1.984375-.421875 1.234375-.421875 2.5625 0 1.703125.5 2.96875.5 1.265625 1.546875 1.90625 1.046875.625 2.265625.625 1.484375 0 2.515625-.859375 1.03125-.859375 1.390625-2.546875zm3.1292114-.15625q0-2.6875 1.484375-3.96875 1.25-1.078125 3.046875-1.078125 2 0 3.265625 1.3125 1.265625 1.296875 1.265625 3.609375 0 1.859375-.5625 2.9375-.5625 1.0625-1.640625 1.65625-1.0625.59375-2.328125.59375-2.03125 0-3.28125-1.296875-1.25-1.3125-1.25-3.765625zm1.6875 0q0 1.859375.796875 2.796875.8125.921875 2.046875.921875 1.21875 0 2.03125-.921875.8125-.9375.8125-2.84375 0-1.796875-.8125-2.71875-.8125-.921875-2.03125-.921875-1.234375 0-2.046875.921875-.796875.90625-.796875 2.765625zm9.297577 4.84375v-9.671875h1.46875v1.359375q.453125-.71875 1.203125-1.140625.765625-.4375 1.71875-.4375 1.078125 0 1.765625.453125.6875.4375.96875 1.234375 1.15625-1.6875 2.984375-1.6875 1.453125 0 2.21875.796875.78125.796875.78125 2.453125v6.640625h-1.640625v-6.09375q0-.984375-.15625-1.40625-.15625-.4375-.578125-.703125-.421875-.265625-.984375-.265625-1.015625 0-1.6875.6875-.671875.671875-.671875 2.15625v5.625h-1.640625v-6.28125q0-1.09375-.40625-1.640625-.40625-.546875-1.3125-.546875-.6875 0-1.28125.359375-.59375.359375-.859375 1.0625-.25.703125-.25 2.03125v5.015625zm17.040802 0h-1.515625v-13.359375h1.640625v4.765625q1.046875-1.296875 2.65625-1.296875.890625 0 1.6875.359375.796875.359375 1.3125 1.015625.515625.640625.796875 1.5625.296875.921875.296875 1.96875 0 2.484375-1.234375 3.84375-1.21875 1.359375-2.953125 1.359375-1.703125 0-2.6875-1.4375zm-.015625-4.90625q0 1.734375.484375 2.515625.765625 1.265625 2.09375 1.265625 1.078125 0 1.859375-.9375.78125-.9375.78125-2.78125 0-1.890625-.75-2.796875-.75-.90625-1.828125-.90625-1.0625 0-1.859375.9375-.78125.9375-.78125 2.703125zm8.891357-6.5625v-1.890625h1.640625v1.890625zm0 11.46875v-9.671875h1.640625v9.671875zm4.144806 0v-9.671875h1.46875v1.375q1.0625-1.59375 3.078125-1.59375.875 0 1.609375.3125.734375.3125 1.09375.828125.375.5.515625 1.203125.09375.453125.09375 1.59375v5.953125h-1.640625v-5.890625q0-1-.203125-1.484375-.1875-.5-.671875-.796875-.484375-.296875-1.140625-.296875-1.046875 0-1.8125.671875-.75.65625-.75 2.515625v5.28125zm17.000732-3.109375 1.6875.203125q-.40625 1.484375-1.484375 2.3125-1.078125.8125-2.765625.8125-2.125 0-3.375-1.296875-1.234375-1.3125-1.234375-3.671875 0-2.453125 1.25-3.796875 1.265625-1.34375 3.265625-1.34375 1.9375 0 3.15625 1.328125 1.234375 1.3125 1.234375 3.703125 0 .15625 0 .4375h-7.21875q.09375 1.59375.90625 2.453125.8125.84375 2.015625.84375.90625 0 1.546875-.46875.640625-.484375 1.015625-1.515625zm-5.390625-2.65625h5.40625q-.109375-1.21875-.625-1.828125-.78125-.953125-2.03125-.953125-1.125 0-1.90625.765625-.765625.75-.84375 2.015625zm10.016327 2.453125-.5-7.078125v-2.96875h2.03125v2.96875l-.484375 7.078125zm-.4375 3.3125v-1.875h1.890625v1.875z" fill="#000"/><path d="m105.75328 131.04724 205.51183 247.93701" fill="none"/><path d="m105.75328 131.04724 205.51183 247.93701" fill-rule="evenodd" stroke="#000" stroke-dasharray="1 3" stroke-linecap="butt" stroke-linejoin="round"/><path d="m135.53806 128.81364 174.23624 237.51183" fill="none"/><path d="m135.53806 128.81364 174.23624 237.51183" fill-rule="evenodd" stroke="#000" stroke-dasharray="1 3" stroke-linecap="butt" stroke-linejoin="round"/><path d="m169.04462 128.81364 148.91339 234.5512" fill="none"/><path d="m169.04462 128.81364 148.91339 234.5512" fill-rule="evenodd" stroke="#000" stroke-dasharray="1 3" stroke-linecap="butt" stroke-linejoin="round"/><path d="m198.82677 128.81364 128.063 233.03938" fill="none"/><path d="m198.82677 128.81364 128.063 233.03938" fill-rule="evenodd" stroke="#000" stroke-dasharray="1 3" stroke-linecap="butt" stroke-linejoin="round"/><path d="m230.09973 128.81364 107.968506 236.03151" fill="none"/><path d="m230.09973 128.81364 107.968506 236.03151" fill-rule="evenodd" stroke="#000" stroke-dasharray="1 3" stroke-linecap="butt" stroke-linejoin="round"/><path d="m264.3491 127.32284 81.165344 236.78738" fill="none"/><path d="m264.3491 127.32284 81.165344 236.78738" fill-rule="evenodd" stroke="#000" stroke-dasharray="1 3" stroke-linecap="butt" stroke-linejoin="round"/><path d="m293.38846 128.06824 63.275574 239.02362" fill="none"/><path d="m293.38846 128.06824 63.275574 239.02362" fill-rule="evenodd" stroke="#000" stroke-dasharray="1 3" stroke-linecap="butt" stroke-linejoin="round"/><path d="m323.91602 129.55643 41.700775 236.0315" fill="none"/><path d="m323.91602 129.55643 41.700775 236.0315" fill-rule="evenodd" stroke="#000" stroke-dasharray="1 3" stroke-linecap="butt" stroke-linejoin="round"/><path d="m355.18896 128.06824 20.094513 232.31497" fill="none"/><path d="m355.18896 128.06824 20.094513 232.31497" fill-rule="evenodd" stroke="#000" stroke-dasharray="1 3" stroke-linecap="butt" stroke-linejoin="round"/><path d="m401.3517 128.81364-13.417328 230.83464" fill="none"/><path d="m401.3517 128.81364-13.417328 230.83464" fill-rule="evenodd" stroke="#000" stroke-dasharray="1 3" stroke-linecap="butt" stroke-linejoin="round"/><path d="m431.13647 128.81364-34.236206 230.83464" fill="none"/><path d="m431.13647 128.81364-34.236206 230.83464" fill-rule="evenodd" stroke="#000" stroke-dasharray="1 3" stroke-linecap="butt" stroke-linejoin="round"/><path d="m462.40945 128.81364-50.64566 231.55907" fill="none"/><path d="m462.40945 128.81364-50.64566 231.55907" fill-rule="evenodd" stroke="#000" stroke-dasharray="1 3" stroke-linecap="butt" stroke-linejoin="round"/><path d="m494.4252 128.81364-64.787415 225.60631" fill="none"/><path d="m494.4252 128.81364-64.787415 225.60631" fill-rule="evenodd" stroke="#000" stroke-dasharray="1 3" stroke-linecap="butt" stroke-linejoin="round"/><path d="m521.9764 128.81364-78.17322 233.79527" fill="none"/><path d="m521.9764 128.81364-78.17322 233.79527" fill-rule="evenodd" stroke="#000" stroke-dasharray="1 3" stroke-linecap="butt" stroke-linejoin="round"/><path d="m556.2257 128.81364-101.25983 233.79527" fill="none"/><path d="m556.2257 128.81364-101.25983 233.79527" fill-rule="evenodd" stroke="#000" stroke-dasharray="1 3" stroke-linecap="butt" stroke-linejoin="round"/><path d="m587.49866 128.06824-117.63776 238.26773" fill="none"/><path d="m587.49866 128.06824-117.63776 238.26773" fill-rule="evenodd" stroke="#000" stroke-dasharray="1 3" stroke-linecap="butt" stroke-linejoin="round"/><path d="m390.54828 271.81018 30.801758-21.610703-3.03714 19.840866 34.964386-3.2341614-13.886444 10.648865 36.371216 3.0627747-28.881805 8.711334 33.044434 10.488647-39.416656-1.2966309 10.824493 19.199982-34.13681-13.555115-6.3970337 19.673187-22.468231-17.892181-16.940155 24.83368-6.3721924-22.25528-24.437805 7.4147034 7.4894104-13.711639-45.78058 2.4219055 29.68454-10.477478-30.801758-11.774109 38.29117-3.7185364-35.229187-19.829681 57.449158 14.99707 8.606598-14.99707z" fill="#fce5cd" fill-rule="evenodd"/><path d="m390.54828 271.81018 30.801758-21.610703-3.03714 19.840866 34.964386-3.2341614-13.886444 10.648865 36.371216 3.0627747-28.881805 8.711334 33.044434 10.488647-39.416656-1.2966309 10.824493 19.199982-34.13681-13.555115-6.3970337 19.673187-22.468231-17.892181-16.940155 24.83368-6.3721924-22.25528-24.437805 7.4147034 7.4894104-13.711639-45.78058 2.4219055 29.68454-10.477478-30.801758-11.774109 38.29117-3.7185364-35.229187-19.829681 57.449158 14.99707 8.606598-14.99707z" fill-rule="evenodd" stroke="#ccc" stroke-linecap="butt" stroke-linejoin="round"/><path d="m359.43182 290.1706 1.765625.453125q-.5625 2.171875-2 3.328125-1.4375 1.140625-3.53125 1.140625-2.15625 0-3.515625-.875-1.34375-.890625-2.0625-2.546875-.703125-1.671875-.703125-3.59375 0-2.078125.796875-3.625.796875-1.5625 2.265625-2.359375 1.484375-.8125 3.25-.8125 2 0 3.359375 1.015625 1.375 1.015625 1.90625 2.875l-1.734375.40625q-.46875-1.453125-1.359375-2.109375-.875-.671875-2.203125-.671875-1.546875 0-2.578125.734375-1.03125.734375-1.453125 1.984375-.421875 1.234375-.421875 2.5625 0 1.703125.5 2.96875.5 1.265625 1.546875 1.90625 1.046875.625 2.265625.625 1.484375 0 2.515625-.859375 1.03125-.859375 1.390625-2.546875zm3.129181-.15625q0-2.6875 1.484375-3.96875 1.25-1.078125 3.046875-1.078125 2 0 3.265625 1.3125 1.265625 1.296875 1.265625 3.609375 0 1.859375-.5625 2.9375-.5625 1.0625-1.640625 1.65625-1.0625.59375-2.328125.59375-2.03125 0-3.28125-1.296875-1.25-1.3125-1.25-3.765625zm1.6875 0q0 1.859375.796875 2.796875.8125.921875 2.046875.921875 1.21875 0 2.03125-.921875.8125-.9375.8125-2.84375 0-1.796875-.8125-2.71875-.8125-.921875-2.03125-.921875-1.234375 0-2.046875.921875-.796875.90625-.796875 2.765625zm9.297607 4.84375v-9.671875h1.46875v1.359375q.453125-.71875 1.203125-1.140625.765625-.4375 1.71875-.4375 1.078125 0 1.765625.453125.6875.4375.96875 1.234375 1.15625-1.6875 2.984375-1.6875 1.453125 0 2.21875.796875.78125.796875.78125 2.453125v6.640625h-1.640625v-6.09375q0-.984375-.15625-1.40625-.15625-.4375-.578125-.703125-.421875-.265625-.984375-.265625-1.015625 0-1.6875.6875-.671875.671875-.671875 2.15625v5.625h-1.640625v-6.28125q0-1.09375-.40625-1.640625-.40625-.546875-1.3125-.546875-.6875 0-1.28125.359375-.59375.359375-.859375 1.0625-.25.703125-.25 2.03125v5.015625zm17.040802 0h-1.515625v-13.359375h1.640625v4.765625q1.046875-1.296875 2.65625-1.296875.890625 0 1.6875.359375.796875.359375 1.3125 1.015625.515625.640625.796875 1.5625.296875.921875.296875 1.96875 0 2.484375-1.234375 3.84375-1.21875 1.359375-2.953125 1.359375-1.703125 0-2.6875-1.4375zm-.015625-4.90625q0 1.734375.484375 2.515625.765625 1.265625 2.09375 1.265625 1.078125 0 1.859375-.9375.78125-.9375.78125-2.78125 0-1.890625-.75-2.796875-.75-.90625-1.828125-.90625-1.0625 0-1.859375.9375-.78125.9375-.78125 2.703125zm8.891327-6.5625v-1.890625h1.640625v1.890625zm0 11.46875v-9.671875h1.640625v9.671875zm4.1448364 0v-9.671875h1.46875v1.375q1.0625-1.59375 3.078125-1.59375.875 0 1.609375.3125.734375.3125 1.09375.828125.375.5.515625 1.203125.09375.453125.09375 1.59375v5.953125h-1.640625v-5.890625q0-1-.203125-1.484375-.1875-.5-.671875-.796875-.484375-.296875-1.140625-.296875-1.046875 0-1.8125.671875-.75.65625-.75 2.515625v5.28125zm17.000702-3.109375 1.6875.203125q-.40625 1.484375-1.484375 2.3125-1.078125.8125-2.765625.8125-2.125 0-3.375-1.296875-1.234375-1.3125-1.234375-3.671875 0-2.453125 1.25-3.796875 1.265625-1.34375 3.265625-1.34375 1.9375 0 3.15625 1.328125 1.234375 1.3125 1.234375 3.703125 0 .15625 0 .4375h-7.21875q.09375 1.59375.90625 2.453125.8125.84375 2.015625.84375.90625 0 1.546875-.46875.640625-.484375 1.015625-1.515625zm-5.390625-2.65625h5.40625q-.109375-1.21875-.625-1.828125-.78125-.953125-2.03125-.953125-1.125 0-1.90625.765625-.765625.75-.84375 2.015625zm10.016357 2.453125-.5-7.078125v-2.96875h2.03125v2.96875l-.484375 7.078125zm-.4375 3.3125v-1.875h1.890625v1.875z" fill="#000"/><path d="m359.16772 166.49522 30.801727-21.610703-3.03714 19.840866 34.964386-3.2341614-13.886444 10.648865 36.371216 3.0627594-28.881805 8.7113495 33.044434 10.488647-39.416626-1.2966461 10.824463 19.199997-34.13681-13.55513-6.3970337 19.673203-22.468231-17.892181-16.940125 24.83368-6.372223-22.255295-24.437805 7.4147034 7.4894104-13.711624-45.78058 2.4218903 29.68454-10.477463-30.801727-11.774109 38.291138-3.7185364-35.229187-19.829681 57.449158 14.997086 8.606598-14.997086z" fill="#fce5cd" fill-rule="evenodd"/><path d="m359.16772 166.49522 30.801727-21.610703-3.03714 19.840866 34.964386-3.2341614-13.886444 10.648865 36.371216 3.0627594-28.881805 8.7113495 33.044434 10.488647-39.416626-1.2966461 10.824463 19.199997-34.13681-13.55513-6.3970337 19.673203-22.468231-17.892181-16.940125 24.83368-6.372223-22.255295-24.437805 7.4147034 7.4894104-13.711624-45.78058 2.4218903 29.68454-10.477463-30.801727-11.774109 38.291138-3.7185364-35.229187-19.829681 57.449158 14.997086 8.606598-14.997086z" fill-rule="evenodd" stroke="#ccc" stroke-linecap="butt" stroke-linejoin="round"/><path d="m328.05124 184.85564 1.765625.453125q-.5625 2.171875-2 3.328125-1.4375 1.140625-3.53125 1.140625-2.15625 0-3.515625-.875-1.34375-.890625-2.0625-2.546875-.703125-1.671875-.703125-3.59375 0-2.078125.796875-3.625.796875-1.5625 2.265625-2.359375 1.484375-.8125 3.25-.8125 2 0 3.359375 1.015625 1.375 1.015625 1.90625 2.875l-1.734375.40625q-.46875-1.453125-1.359375-2.109375-.875-.671875-2.203125-.671875-1.546875 0-2.578125.734375-1.03125.734375-1.453125 1.984375-.421875 1.234375-.421875 2.5625 0 1.703125.5 2.96875.5 1.265625 1.546875 1.90625 1.046875.625 2.265625.625 1.484375 0 2.515625-.859375 1.03125-.859375 1.390625-2.546875zm3.1292114-.15625q0-2.6875 1.484375-3.96875 1.25-1.078125 3.046875-1.078125 2 0 3.265625 1.3125 1.265625 1.296875 1.265625 3.609375 0 1.859375-.5625 2.9375-.5625 1.0625-1.640625 1.65625-1.0625.59375-2.328125.59375-2.03125 0-3.28125-1.296875-1.25-1.3125-1.25-3.765625zm1.6875 0q0 1.859375.796875 2.796875.8125.921875 2.046875.921875 1.21875 0 2.03125-.921875.8125-.9375.8125-2.84375 0-1.796875-.8125-2.71875-.8125-.921875-2.03125-.921875-1.234375 0-2.046875.921875-.796875.90625-.796875 2.765625zm9.297577 4.84375v-9.671875h1.46875v1.359375q.453125-.71875 1.203125-1.140625.765625-.4375 1.71875-.4375 1.078125 0 1.765625.453125.6875.4375.96875 1.234375 1.15625-1.6875 2.984375-1.6875 1.453125 0 2.21875.796875.78125.796875.78125 2.453125v6.640625h-1.640625v-6.09375q0-.984375-.15625-1.40625-.15625-.4375-.578125-.703125-.421875-.265625-.984375-.265625-1.015625 0-1.6875.6875-.671875.671875-.671875 2.15625v5.625h-1.640625v-6.28125q0-1.09375-.40625-1.640625-.40625-.546875-1.3125-.546875-.6875 0-1.28125.359375-.59375.359375-.859375 1.0625-.25.703125-.25 2.03125v5.015625zm17.040802 0h-1.515625v-13.359375h1.640625v4.765625q1.046875-1.296875 2.65625-1.296875.890625 0 1.6875.359375.796875.359375 1.3125 1.015625.515625.640625.796875 1.5625.296875.921875.296875 1.96875 0 2.484375-1.234375 3.84375-1.21875 1.359375-2.953125 1.359375-1.703125 0-2.6875-1.4375zm-.015625-4.90625q0 1.734375.484375 2.515625.765625 1.265625 2.09375 1.265625 1.078125 0 1.859375-.9375.78125-.9375.78125-2.78125 0-1.890625-.75-2.796875-.75-.90625-1.828125-.90625-1.0625 0-1.859375.9375-.78125.9375-.78125 2.703125zm8.891357-6.5625v-1.890625h1.640625v1.890625zm0 11.46875v-9.671875h1.640625v9.671875zm4.144806 0v-9.671875h1.46875v1.375q1.0625-1.59375 3.078125-1.59375.875 0 1.609375.3125.734375.3125 1.09375.828125.375.5.515625 1.203125.09375.453125.09375 1.59375v5.953125h-1.640625v-5.890625q0-1-.203125-1.484375-.1875-.5-.671875-.796875-.484375-.296875-1.140625-.296875-1.046875 0-1.8125.671875-.75.65625-.75 2.515625v5.28125zm17.000732-3.109375 1.6875.203125q-.40625 1.484375-1.484375 2.3125-1.078125.8125-2.765625.8125-2.125 0-3.375-1.296875-1.234375-1.3125-1.234375-3.671875 0-2.453125 1.25-3.796875 1.265625-1.34375 3.265625-1.34375 1.9375 0 3.15625 1.328125 1.234375 1.3125 1.234375 3.703125 0 .15625 0 .4375h-7.21875q.09375 1.59375.90625 2.453125.8125.84375 2.015625.84375.90625 0 1.546875-.46875.640625-.484375 1.015625-1.515625zm-5.390625-2.65625h5.40625q-.109375-1.21875-.625-1.828125-.78125-.953125-2.03125-.953125-1.125 0-1.90625.765625-.765625.75-.84375 2.015625zm10.016327 2.453125-.5-7.078125v-2.96875h2.03125v2.96875l-.484375 7.078125zm-.4375 3.3125v-1.875h1.890625v1.875z" fill="#000"/></g></svg>