<svg fill="none" stroke-linecap="square" stroke-miterlimit="10" viewBox="0 0 793.79527559 291.79002625" xmlns="http://www.w3.org/2000/svg" xmlns:xlink="http://www.w3.org/1999/xlink"><clipPath id="a"><path d="m0 0h793.7953v291.79004h-793.7953z"/></clipPath><g clip-path="url(#a)"><path d="m0 0h793.7953v291.79004h-793.7953z" fill="none"/><path d="m383.5958 146.60324v45.417755c0-5.0167084-7.819153-9.083557-17.46457-9.083557-9.645416 0-17.46457 4.0668488-17.46457 9.083557v-45.417755c0-5.0167084 7.819153-9.083557 17.46457-9.083557 9.645416 0 17.46457 4.0668488 17.46457 9.083557z" fill="#fff6f6" fill-rule="evenodd"/><path d="m383.5958 146.60324v45.417755c0-5.0167084-7.819153-9.083557-17.46457-9.083557-9.645416 0-17.46457 4.0668488-17.46457 9.083557v-45.417755c0-5.0167084 7.819153-9.083557 17.46457-9.083557 9.645416 0 17.46457 4.0668488 17.46457 9.083557z" fill-rule="evenodd" stroke="#000" stroke-dasharray="1 3" stroke-linecap="butt" stroke-linejoin="round"/><path d="m109.45145 146.60324v45.417755c0-5.0167084-7.819153-9.083557-17.46457-9.083557-9.645416 0-17.46457 4.0668488-17.46457 9.083557v-45.417755c0-5.0167084 7.819153-9.083557 17.46457-9.083557 9.645416 0 17.46457 4.0668488 17.46457 9.083557z" fill="#fff6f6" fill-rule="evenodd"/><path d="m109.45145 146.60324v45.417755c0-5.0167084-7.819153-9.083557-17.46457-9.083557-9.645416 0-17.46457 4.0668488-17.46457 9.083557v-45.417755c0-5.0167084 7.819153-9.083557 17.46457-9.083557 9.645416 0 17.46457 4.0668488 17.46457 9.083557z" fill-rule="evenodd" stroke="#000" stroke-dasharray="1 3" stroke-linecap="butt" stroke-linejoin="round"/><path d="m144.00394 146.60324v45.417755c0-5.0167084-7.819153-9.083557-17.46457-9.083557-9.645409 0-17.464561 4.0668488-17.464561 9.083557v-45.417755c0-5.0167084 7.819153-9.083557 17.464561-9.083557 9.645416 0 17.46457 4.0668488 17.46457 9.083557z" fill="#ffe9e9" fill-rule="evenodd"/><path d="m144.00394 146.60324v45.417755c0-5.0167084-7.819153-9.083557-17.46457-9.083557-9.645409 0-17.464561 4.0668488-17.464561 9.083557v-45.417755c0-5.0167084 7.819153-9.083557 17.464561-9.083557 9.645416 0 17.46457 4.0668488 17.46457 9.083557z" fill-rule="evenodd" stroke="#000" stroke-dasharray="1 3" stroke-linecap="butt" stroke-linejoin="round"/><path d="m143.63518 243.86351h242.14174v26.362198h-242.14174z" fill="none"/><path d="m246.12807 262.12463h-1.28125v-8.20314q-.46875.4375-1.21875.890625-.75.4375-1.359375.65625v-1.25q1.078125-.5 1.890625-1.21875.8125-.734375 1.140625-1.40625h.828125zm3.3073578-5.171875q0-1.8593903.375-2.9843903.390625-1.140625 1.140625-1.75.765625-.625 1.90625-.625.84375 0 1.46875.34375.640625.328125 1.0625.96875.421875.640625.65625 1.5625.234375.921875.234375 2.4843903 0 1.84375-.390625 2.984375-.375 1.125-1.125 1.75-.75.609375-1.90625.609375-1.515625 0-2.390625-1.078125-1.03125-1.3125-1.03125-4.265625zm1.328125 0q0 2.578125.59375 3.4375.609375.859375 1.5.859375.890625 0 1.484375-.859375.609375-.859375.609375-3.4375 0-2.5937653-.609375-3.4375153-.59375-.859375-1.5-.859375-.890625 0-1.421875.75-.65625.96875-.65625 3.5468903zm6.822998 0q0-1.8593903.375-2.9843903.390625-1.140625 1.140625-1.75.765625-.625 1.90625-.625.84375 0 1.46875.34375.640625.328125 1.0625.96875.421875.640625.65625 1.5625.234375.921875.234375 2.4843903 0 1.84375-.390625 2.984375-.375 1.125-1.125 1.75-.75.609375-1.90625.609375-1.515625 0-2.390625-1.078125-1.03125-1.3125-1.03125-4.265625zm1.328125 0q0 2.578125.59375 3.4375.609375.859375 1.5.859375.890625 0 1.484375-.859375.609375-.859375.609375-3.4375 0-2.5937653-.609375-3.4375153-.59375-.859375-1.5-.859375-.890625 0-1.421875.75-.65625.96875-.65625 3.5468903zm11.2543335 5.171875v-7.5937653h1.15625v1.0625q.34371948-.5625.9374695-.890625.609375-.34375 1.359375-.34375.84375 0 1.375.34375.546875.34375.765625.984375.90625-1.328125 2.359375-1.328125 1.125 0 1.734375.625.609375.625.609375 1.9218903v5.21875h-1.28125v-4.78125q0-.78125-.125-1.109375-.125-.34376526-.453125-.54689026-.328125-.21875-.78125-.21875-.796875 0-1.328125.53125-.53125.53126526-.53125 1.7031403v4.421875h-1.28125v-4.9375q0-.859375-.3125-1.2812653-.3125-.4375-1.03125-.4375-.546875 0-1.015625.296875-.453125.28126526-.671875.82814026-.20309448.546875-.20309448 1.59375v3.9375h-1.28125zm11.693115-2.265625 1.265625-.203125q.109375.765625.59375 1.171875.5.40625 1.375.40625.890625 0 1.3125-.359375.4375-.359375.4375-.84375 0-.4375-.375-.6875-.265625-.171875-1.3125-.4375-1.421875-.359375-1.96875-.609375-.546875-.265625-.828125-.734375-.28125-.46875-.28125-1.015625 0-.515625.21875-.93751526.234375-.4375.640625-.734375.296875-.21875.8125-.359375.53125-.15625 1.125-.15625.890625 0 1.5625.265625.671875.25 1 .6875.328125.4375.4375 1.1718903l-1.25.171875q-.09375-.578125-.5-.90626526-.40625-.34375-1.15625-.34375-.890625 0-1.28125.296875-.375.296875-.375.68751526 0 .25.15625.453125.15625.203125.5.34375.1875.078125 1.140625.328125 1.359375.359375 1.890625.59375.546875.234375.859375.6875.3125.4375.3125 1.09375 0 .640625-.375 1.21875-.375.5625-1.09375.875-.703125.3125-1.59375.3125-1.484375 0-2.265625-.609375-.765625-.625-.984375-1.828125z" fill="#434343"/><g fill-rule="evenodd"><path d="m308.43045 130.99173 57.700775-32.961548 57.700806 32.961548h-40.10031v21.526642h-35.20096v-21.526642z" fill="#fff6f6"/><path d="m308.43045 130.99173 57.700775-32.961548 57.700806 32.961548h-40.10031v21.526642h-35.20096v-21.526642z" stroke="#000" stroke-dasharray="1 3" stroke-linecap="butt" stroke-linejoin="round"/><path d="m420.37534 146.60324v45.417755c0-5.0167084-7.819153-9.083557-17.46457-9.083557-9.645416 0-17.46457 4.0668488-17.46457 9.083557v-45.417755c0-5.0167084 7.819153-9.083557 17.46457-9.083557 9.645416 0 17.46457 4.0668488 17.46457 9.083557z" fill="#ffe9e9"/><path d="m420.37534 146.60324v45.417755c0-5.0167084-7.819153-9.083557-17.46457-9.083557-9.645416 0-17.46457 4.0668488-17.46457 9.083557v-45.417755c0-5.0167084 7.819153-9.083557 17.46457-9.083557 9.645416 0 17.46457 4.0668488 17.46457 9.083557z" stroke="#000" stroke-dasharray="1 3" stroke-linecap="butt" stroke-linejoin="round"/><path d="m345.20996 130.99173 57.700806-32.961548 57.700775 32.961548h-40.10031v21.526642h-35.200928v-21.526642z" fill="#ffe9e9"/><path d="m345.20996 130.99173 57.700806-32.961548 57.700775 32.961548h-40.10031v21.526642h-35.200928v-21.526642z" stroke="#000" stroke-dasharray="1 3" stroke-linecap="butt" stroke-linejoin="round"/><path d="m91.94945 109.76604 21.085472-17.989136-2.0790863 16.515884 23.935005-2.6921616-9.50602 8.864296 24.898079 2.5494995-19.771164 7.25148 22.620712 8.7309265-26.982841-1.0793457 7.409935 15.982422-23.3685-11.283539-4.3791122 16.376328-15.380722-14.893768-11.596443 20.671997-4.3621216-18.525711-16.72902 6.1721344 5.1269073-11.413788-31.339287 2.0160217 20.320683-8.721634-21.08547-9.800972 26.212381-3.095375-24.116299-16.506577 39.32707 12.483833 5.891693-12.483833z" fill="#fff6f6"/><path d="m91.94945 109.76604 21.085472-17.989136-2.0790863 16.515884 23.935005-2.6921616-9.50602 8.864296 24.898079 2.5494995-19.771164 7.25148 22.620712 8.7309265-26.982841-1.0793457 7.409935 15.982422-23.3685-11.283539-4.3791122 16.376328-15.380722-14.893768-11.596443 20.671997-4.3621216-18.525711-16.72902 6.1721344 5.1269073-11.413788-31.339287 2.0160217 20.320683-8.721634-21.08547-9.800972 26.212381-3.095375-24.116299-16.506577 39.32707 12.483833 5.891693-12.483833z" stroke="#000" stroke-dasharray="1 3" stroke-linecap="butt" stroke-linejoin="round"/><path d="m126.50194 109.76604 21.08548-17.989136-2.0791016 16.515884 23.935028-2.6921616-9.506027 8.864296 24.898071 2.5494995-19.771164 7.25148 22.620712 8.7309265-26.982834-1.0793457 7.4099426 15.982422-23.368515-11.283539-4.3791046 16.376328-15.38073-14.893768-11.596443 20.671997-4.3621216-18.525711-16.72902 6.1721344 5.126915-11.413788-31.339294 2.0160217 20.320686-8.721634-21.085472-9.800972 26.21238-3.095375-24.116295-16.506577 39.327072 12.483833 5.891693-12.483833z" fill="#ffe9e9"/><path d="m126.50194 109.76604 21.08548-17.989136-2.0791016 16.515884 23.935028-2.6921616-9.506027 8.864296 24.898071 2.5494995-19.771164 7.25148 22.620712 8.7309265-26.982834-1.0793457 7.4099426 15.982422-23.368515-11.283539-4.3791046 16.376328-15.38073-14.893768-11.596443 20.671997-4.3621216-18.525711-16.72902 6.1721344 5.126915-11.413788-31.339294 2.0160217 20.320686-8.721634-21.085472-9.800972 26.21238-3.095375-24.116295-16.506577 39.327072 12.483833 5.891693-12.483833z" stroke="#000" stroke-dasharray="1 3" stroke-linecap="butt" stroke-linejoin="round"/></g><path d="m0 229.49081h786.86615" fill="none"/><path d="m0 229.49081h768.86615" fill-rule="evenodd" stroke="#999" stroke-linecap="butt" stroke-linejoin="round" stroke-width="3"/><path d="m768.86615 234.44601 13.614258-4.9552-13.614258-4.9552z" fill="#999" fill-rule="evenodd" stroke="#999" stroke-linecap="butt" stroke-width="3"/><path d="m143.7769 200.01837v76.06299" fill="none"/><path d="m143.7769 200.01837v76.06299" fill-rule="evenodd" stroke="#666" stroke-linecap="butt" stroke-linejoin="round"/><path d="m385.63516 200.01837v76.06299" fill="none"/><path d="m385.63516 200.01837v76.06299" fill-rule="evenodd" stroke="#666" stroke-linecap="butt" stroke-linejoin="round"/><path d="m40.122047 201.31627c0-9.845444 7.7345467-17.826767 17.275589-17.826767 4.581772 0 8.9758835 1.8781738 12.215691 5.221344 3.2397995 3.3431702 5.0598984 7.877472 5.0598984 12.605423 0 9.845459-7.734543 17.826782-17.275589 17.826782-9.541042 0-17.275589-7.9813232-17.275589-17.826782z" fill="#cfe2f3" fill-rule="evenodd"/><path d="m40.122047 201.31627c0-9.845444 7.7345467-17.826767 17.275589-17.826767 4.581772 0 8.9758835 1.8781738 12.215691 5.221344 3.2397995 3.3431702 5.0598984 7.877472 5.0598984 12.605423 0 9.845459-7.734543 17.826782-17.275589 17.826782-9.541042 0-17.275589-7.9813232-17.275589-17.826782z" fill-rule="evenodd" stroke="#666" stroke-linecap="butt" stroke-linejoin="round"/><path d="m58.775208 206.39627h-1.28125v-8.203125q-.46875.4375-1.21875.890625-.75.4375-1.359375.65625v-1.25q1.078125-.5 1.890625-1.21875.8125-.734375 1.140625-1.40625h.828125z" fill="#434343"/><path d="m178.32677 201.31627c0-9.845444 7.734543-17.826767 17.275589-17.826767 4.581772 0 8.975891 1.8781738 12.215698 5.221344 3.2397919 3.3431702 5.059906 7.877472 5.059906 12.605423 0 9.845459-7.734558 17.826782-17.275604 17.826782-9.541046 0-17.275589-7.9813232-17.275589-17.826782z" fill="#b6d7a8" fill-rule="evenodd"/><path d="m178.32677 201.31627c0-9.845444 7.734543-17.826767 17.275589-17.826767 4.581772 0 8.975891 1.8781738 12.215698 5.221344 3.2397919 3.3431702 5.059906 7.877472 5.059906 12.605423 0 9.845459-7.734558 17.826782-17.275604 17.826782-9.541046 0-17.275589-7.9813232-17.275589-17.826782z" fill-rule="evenodd" stroke="#666" stroke-linecap="butt" stroke-linejoin="round"/><path d="m192.13618 203.64627 1.34375-.109375q.15625.984375.703125 1.484375.546875.5 1.328125.5.921875 0 1.5625-.703125.65625-.703125.65625-1.859375 0-1.109375-.625-1.734375-.625-.640625-1.625-.640625-.625 0-1.125.28125-.5.28125-.78125.734375l-1.203125-.15625 1.015625-5.390625h5.21875v1.21875h-4.1875l-.578125 2.828125q.953125-.65625 1.984375-.65625 1.375 0 2.3125.953125.953125.953125.953125 2.4375 0 1.4375-.828125 2.46875-1.015625 1.265625-2.75 1.265625-1.4375 0-2.34375-.796875-.90625-.796875-1.03125-2.125z" fill="#434343"/><path d="m109.22572 201.31627c0-9.845444 7.734543-17.826767 17.275589-17.826767 4.581772 0 8.975891 1.8781738 12.215683 5.221344 3.2398071 3.3431702 5.059906 7.877472 5.059906 12.605423 0 9.845459-7.734543 17.826782-17.275589 17.826782-9.541046 0-17.275589-7.9813232-17.275589-17.826782z" fill="#ffe599" fill-rule="evenodd"/><path d="m109.22572 201.31627c0-9.845444 7.734543-17.826767 17.275589-17.826767 4.581772 0 8.975891 1.8781738 12.215683 5.221344 3.2398071 3.3431702 5.059906 7.877472 5.059906 12.605423 0 9.845459-7.734543 17.826782-17.275589 17.826782-9.541046 0-17.275589-7.9813232-17.275589-17.826782z" fill-rule="evenodd" stroke="#666" stroke-linecap="butt" stroke-linejoin="round"/><path d="m123.03513 203.63065 1.296875-.171875q.21875 1.09375.75 1.578125.53125.484375 1.296875.484375.90625 0 1.53125-.625.6406174-.640625.6406174-1.5625 0-.890625-.5937424-1.46875-.578125-.578125-1.46875-.578125-.359375 0-.90625.140625l.140625-1.125q.125.015625.203125.015625.828125 0 1.484375-.421875.6562424-.4375.6562424-1.34375 0-.703125-.48436737-1.15625-.46875-.46875-1.234375-.46875-.75 0-1.25.46875-.5.46875-.640625 1.421875l-1.28125-.234375q.234375-1.296875 1.0625-2 .84375-.71875 2.09375-.71875.859375 0 1.578125.375.7187424.359375 1.0937424 1 .390625.640625.390625 1.34375 0 .6875-.375 1.25-.359375.546875-1.0624924.875.9218674.21875 1.4374924.90625.515625.671875.515625 1.6875 0 1.375-1 2.328125-.9999924.953125-2.5312424.953125-1.390625 0-2.296875-.8125-.90625-.828125-1.046875-2.140625z" fill="#434343"/><path d="m143.77559 201.31627c0-9.845444 7.734543-17.826767 17.275589-17.826767 4.581772 0 8.975891 1.8781738 12.215683 5.221344 3.2398071 3.3431702 5.059906 7.877472 5.059906 12.605423 0 9.845459-7.734543 17.826782-17.275589 17.826782-9.541046 0-17.275589-7.9813232-17.275589-17.826782z" fill="#e6c9af" fill-rule="evenodd"/><path d="m143.77559 201.31627c0-9.845444 7.734543-17.826767 17.275589-17.826767 4.581772 0 8.975891 1.8781738 12.215683 5.221344 3.2398071 3.3431702 5.059906 7.877472 5.059906 12.605423 0 9.845459-7.734543 17.826782-17.275589 17.826782-9.541046 0-17.275589-7.9813232-17.275589-17.826782z" fill-rule="evenodd" stroke="#666" stroke-linecap="butt" stroke-linejoin="round"/><path d="m161.71 206.39627v-2.515625h-4.546875v-1.171875l4.78125-6.796875h1.0625v6.796875h1.40625v1.171875h-1.40625v2.515625zm0-3.6875v-4.734375l-3.28125 4.734375z" fill="#434343"/><path d="m74.67454 201.31627c0-9.845444 7.7345505-17.826767 17.275597-17.826767 4.581772 0 8.9758835 1.8781738 12.215683 5.221344s5.059906 7.877472 5.059906 12.605423c0 9.845459-7.7345505 17.826782-17.275589 17.826782-9.541046 0-17.275597-7.9813232-17.275597-17.826782z" fill="#f4cccc" fill-rule="evenodd"/><path d="m74.67454 201.31627c0-9.845444 7.7345505-17.826767 17.275597-17.826767 4.581772 0 8.9758835 1.8781738 12.215683 5.221344s5.059906 7.877472 5.059906 12.605423c0 9.845459-7.7345505 17.826782-17.275589 17.826782-9.541046 0-17.275597-7.9813232-17.275597-17.826782z" fill-rule="evenodd" stroke="#666" stroke-linecap="butt" stroke-linejoin="round"/><path d="m95.24958 205.1619v1.234375h-6.9375q-.015625-.46875.15625-.890625.265625-.71875.84375-1.40625.59375-.6875 1.6875-1.578125 1.71875-1.40625 2.3125-2.21875.609375-.828125.609375-1.5625 0-.765625-.5625-1.28125-.546875-.53125-1.421875-.53125-.921875 0-1.484375.5625-.5625.5625-.5625 1.546875l-1.328125-.140625q.140625-1.484375 1.015625-2.25.890625-.78125 2.390625-.78125 1.515625 0 2.390625.84375.875.828125.875 2.0625 0 .640625-.265625 1.25-.25.59375-.84375 1.265625-.59375.671875-1.984375 1.859375-1.15625.96875-1.484375 1.3125-.328125.34375-.546875.703125z" fill="#434343"/><path d="m212.87796 201.31627c0-9.845444 7.734543-17.826767 17.275589-17.826767 4.581772 0 8.975876 1.8781738 12.215683 5.221344 3.2398071 3.3431702 5.059906 7.877472 5.059906 12.605423 0 9.845459-7.734543 17.826782-17.275589 17.826782-9.541046 0-17.275589-7.9813232-17.275589-17.826782z" fill="#cfe2f3" fill-rule="evenodd"/><path d="m212.87796 201.31627c0-9.845444 7.734543-17.826767 17.275589-17.826767 4.581772 0 8.975876 1.8781738 12.215683 5.221344 3.2398071 3.3431702 5.059906 7.877472 5.059906 12.605423 0 9.845459-7.734543 17.826782-17.275589 17.826782-9.541046 0-17.275589-7.9813232-17.275589-17.826782z" fill-rule="evenodd" stroke="#666" stroke-linecap="butt" stroke-linejoin="round"/><path d="m233.37486 198.4744-1.28125.09375q-.171875-.75-.484375-1.09375-.53125-.546875-1.296875-.546875-.609375 0-1.078125.34375-.609375.4375-.96875 1.296875-.34375.84375-.359375 2.421875.46875-.71875 1.140625-1.0625.671875-.34375 1.40625-.34375 1.296875 0 2.203125.953125.90625.953125.90625 2.453125 0 .984375-.4375 1.84375-.421875.84375-1.171875 1.296875-.734375.4375-1.6875.4375-1.609375 0-2.625-1.171875-1.015625-1.1875-1.015625-3.90625 0-3.046875 1.125-4.421875.984375-1.203125 2.640625-1.203125 1.234375 0 2.03125.703125.796875.6875.953125 1.90625zm-5.265625 4.515625q0 .671875.28125 1.28125.28125.609375.78125.9375.515625.3125 1.078125.3125.8125 0 1.390625-.65625.59375-.671875.59375-1.796875 0-1.09375-.578125-1.71875-.578125-.625-1.453125-.625-.875 0-1.484375.625-.609375.625-.609375 1.640625z" fill="#434343"/><path d="m351.08267 201.31627c0-9.845444 7.734558-17.826767 17.275604-17.826767 4.5817566 0 8.975891 1.8781738 12.215668 5.221344 3.2398071 3.3431702 5.059906 7.877472 5.059906 12.605423 0 9.845459-7.7345276 17.826782-17.275574 17.826782-9.541046 0-17.275604-7.9813232-17.275604-17.826782z" fill="#b6d7a8" fill-rule="evenodd"/><path d="m351.08267 201.31627c0-9.845444 7.734558-17.826767 17.275604-17.826767 4.5817566 0 8.975891 1.8781738 12.215668 5.221344 3.2398071 3.3431702 5.059906 7.877472 5.059906 12.605423 0 9.845459-7.7345276 17.826782-17.275574 17.826782-9.541046 0-17.275604-7.9813232-17.275604-17.826782z" fill-rule="evenodd" stroke="#666" stroke-linecap="butt" stroke-linejoin="round"/><path d="m365.66028 206.39627h-1.28125v-8.203125q-.46875.4375-1.21875.890625-.75.4375-1.359375.65625v-1.25q1.078125-.5 1.890625-1.21875.8125-.734375 1.140625-1.40625h.828125zm3.307373-5.171875q0-1.859375.375-2.984375.390625-1.140625 1.140625-1.75.765625-.625 1.90625-.625.84375 0 1.46875.34375.640625.328125 1.0625.96875.421875.640625.65625 1.5625.234375.921875.234375 2.484375 0 1.84375-.390625 2.984375-.375 1.125-1.125 1.75-.75.609375-1.90625.609375-1.515625 0-2.390625-1.078125-1.03125-1.3125-1.03125-4.265625zm1.328125 0q0 2.578125.59375 3.4375.609375.859375 1.5.859375.890625 0 1.484375-.859375.609375-.859375.609375-3.4375 0-2.59375-.609375-3.4375-.59375-.859375-1.5-.859375-.890625 0-1.421875.75-.65625.96875-.65625 3.546875z" fill="#434343"/><path d="m281.98163 201.31627c0-9.845444 7.734558-17.826767 17.275604-17.826767 4.5817566 0 8.975861 1.8781738 12.215668 5.221344 3.2398071 3.3431702 5.059906 7.877472 5.059906 12.605423 0 9.845459-7.734558 17.826782-17.275574 17.826782-9.541046 0-17.275604-7.9813232-17.275604-17.826782z" fill="#ffe599" fill-rule="evenodd"/><path d="m281.98163 201.31627c0-9.845444 7.734558-17.826767 17.275604-17.826767 4.5817566 0 8.975861 1.8781738 12.215668 5.221344 3.2398071 3.3431702 5.059906 7.877472 5.059906 12.605423 0 9.845459-7.734558 17.826782-17.275574 17.826782-9.541046 0-17.275604-7.9813232-17.275604-17.826782z" fill-rule="evenodd" stroke="#666" stroke-linecap="butt" stroke-linejoin="round"/><path d="m297.77542 200.70877q-.796875-.296875-1.1875-.84375-.390625-.546875-.390625-1.296875 0-1.140625.8125-1.921875.828125-.78125 2.203125-.78125 1.375 0 2.203125.796875.84375.796875.84375 1.9375 0 .734375-.390625 1.28125-.375.53125-1.15625.828125.96875.3125 1.46875 1.015625.5.703125.5 1.671875 0 1.34375-.953125 2.265625-.9375.90625-2.5.90625-1.546875 0-2.5-.90625-.953125-.921875-.953125-2.296875 0-1.03125.515625-1.71875.515625-.6875 1.484375-.9375zm-.265625-2.1875q0 .75.484375 1.21875.484375.46875 1.25.46875.734375 0 1.203125-.46875.484375-.46875.484375-1.140625 0-.71875-.5-1.1875-.484375-.484375-1.203125-.484375-.734375 0-1.234375.46875-.484375.46875-.484375 1.125zm-.40625 4.84375q0 .5625.25 1.078125.265625.5.78125.796875.515625.28125 1.109375.28125.921875 0 1.515625-.59375.609375-.59375.609375-1.515625 0-.9375-.625-1.53125-.609375-.609375-1.546875-.609375-.90625 0-1.5.609375-.59375.59375-.59375 1.484375z" fill="#434343"/><path d="m316.5315 201.31627c0-9.845444 7.734558-17.826767 17.275604-17.826767 4.5817566 0 8.975861 1.8781738 12.215668 5.221344 3.2398071 3.3431702 5.059906 7.877472 5.059906 12.605423 0 9.845459-7.7345276 17.826782-17.275574 17.826782-9.541046 0-17.275604-7.9813232-17.275604-17.826782z" fill="#e6c9af" fill-rule="evenodd"/><path d="m316.5315 201.31627c0-9.845444 7.734558-17.826767 17.275604-17.826767 4.5817566 0 8.975861 1.8781738 12.215668 5.221344 3.2398071 3.3431702 5.059906 7.877472 5.059906 12.605423 0 9.845459-7.7345276 17.826782-17.275574 17.826782-9.541046 0-17.275604-7.9813232-17.275604-17.826782z" fill-rule="evenodd" stroke="#666" stroke-linecap="butt" stroke-linejoin="round"/><path d="m330.5284 203.9744 1.25-.125q.15625.875.59375 1.28125.4375.390625 1.140625.390625.59375 0 1.03125-.265625.453125-.28125.734375-.734375.296875-.453125.484375-1.21875.1875-.78125.1875-1.59375 0-.078125 0-.25-.390625.609375-1.0625 1-.65625.375-1.4375.375-1.3125 0-2.21875-.9375-.890625-.953125-.890625-2.484375 0-1.609375.9375-2.578125.9375-.96875 2.359375-.96875 1.03125 0 1.875.546875.84375.546875 1.28125 1.578125.4375 1.015625.4375 2.953125 0 2-.4375 3.203125-.421875 1.1875-1.296875 1.8125-.859375.609375-2.015625.609375-1.234375 0-2.015625-.671875-.78125-.6875-.9375-1.921875zm5.28125-4.640625q0-1.109375-.59375-1.75-.59375-.65625-1.421875-.65625-.859375 0-1.5.703125-.625.703125-.625 1.8125 0 1 .59375 1.640625.609375.625 1.5.625.890625 0 1.46875-.625.578125-.640625.578125-1.75z" fill="#434343"/><path d="m247.43045 201.31627c0-9.845444 7.734543-17.826767 17.275574-17.826767 4.581787 0 8.975891 1.8781738 12.215698 5.221344 3.2398071 3.3431702 5.059906 7.877472 5.059906 12.605423 0 9.845459-7.734558 17.826782-17.275604 17.826782-9.541031 0-17.275574-7.9813232-17.275574-17.826782z" fill="#f4cccc" fill-rule="evenodd"/><path d="m247.43045 201.31627c0-9.845444 7.734543-17.826767 17.275574-17.826767 4.581787 0 8.975891 1.8781738 12.215698 5.221344 3.2398071 3.3431702 5.059906 7.877472 5.059906 12.605423 0 9.845459-7.734558 17.826782-17.275604 17.826782-9.541031 0-17.275574-7.9813232-17.275574-17.826782z" fill-rule="evenodd" stroke="#666" stroke-linecap="butt" stroke-linejoin="round"/><path d="m261.318 197.27127v-1.234375h6.796875v1q-1 1.078125-1.984375 2.84375-.984375 1.765625-1.515625 3.625-.390625 1.328125-.5 2.890625h-1.328125q.03125-1.234375.484375-2.984375.46875-1.765625 1.34375-3.390625.875-1.625 1.84375-2.75z" fill="#434343"/><path d="m385.63385 201.31627c0-9.845444 7.734558-17.826767 17.275604-17.826767 4.5817566 0 8.975891 1.8781738 12.215668 5.221344 3.2398071 3.3431702 5.059906 7.877472 5.059906 12.605423 0 9.845459-7.7345276 17.826782-17.275574 17.826782-9.541046 0-17.275604-7.9813232-17.275604-17.826782z" fill="#cfe2f3" fill-rule="evenodd"/><path d="m385.63385 201.31627c0-9.845444 7.734558-17.826767 17.275604-17.826767 4.5817566 0 8.975891 1.8781738 12.215668 5.221344 3.2398071 3.3431702 5.059906 7.877472 5.059906 12.605423 0 9.845459-7.7345276 17.826782-17.275574 17.826782-9.541046 0-17.275604-7.9813232-17.275604-17.826782z" fill-rule="evenodd" stroke="#666" stroke-linecap="butt" stroke-linejoin="round"/><path d="m400.75574 206.39627h-1.28125v-8.203125q-.46875.4375-1.21875.890625-.75.4375-1.359375.65625v-1.25q1.078125-.5 1.890625-1.21875.8125-.734375 1.140625-1.40625h.828125zm7.062561 0h-1.28125v-8.203125q-.46875.4375-1.21875.890625-.75.4375-1.359375.65625v-1.25q1.078125-.5 1.890625-1.21875.8125-.734375 1.140625-1.40625h.828125z" fill="#434343"/><path d="m523.83856 201.31627c0-9.845444 7.734558-17.826767 17.275635-17.826767 4.581726 0 8.975891 1.8781738 12.215637 5.221344 3.2398071 3.3431702 5.0599365 7.877472 5.0599365 12.605423 0 9.845459-7.734558 17.826782-17.275574 17.826782-9.541077 0-17.275635-7.9813232-17.275635-17.826782z" fill="#b6d7a8" fill-rule="evenodd"/><path d="m523.83856 201.31627c0-9.845444 7.734558-17.826767 17.275635-17.826767 4.581726 0 8.975891 1.8781738 12.215637 5.221344 3.2398071 3.3431702 5.0599365 7.877472 5.0599365 12.605423 0 9.845459-7.734558 17.826782-17.275574 17.826782-9.541077 0-17.275635-7.9813232-17.275635-17.826782z" fill-rule="evenodd" stroke="#666" stroke-linecap="butt" stroke-linejoin="round"/><path d="m538.4162 206.39627h-1.28125v-8.203125q-.46875.4375-1.21875.890625-.75.4375-1.359375.65625v-1.25q1.078125-.5 1.890625-1.21875.8125-.734375 1.140625-1.40625h.828125zm3.307373-2.75 1.34375-.109375q.15625.984375.703125 1.484375.546875.5 1.328125.5.921875 0 1.5625-.703125.65625-.703125.65625-1.859375 0-1.109375-.625-1.734375-.625-.640625-1.625-.640625-.625 0-1.125.28125-.5.28125-.78125.734375l-1.203125-.15625 1.015625-5.390625h5.21875v1.21875h-4.1875l-.578125 2.828125q.953125-.65625 1.984375-.65625 1.375 0 2.3125.953125.953125.953125.953125 2.4375 0 1.4375-.828125 2.46875-1.015625 1.265625-2.75 1.265625-1.4375 0-2.34375-.796875-.90625-.796875-1.03125-2.125z" fill="#434343"/><path d="m454.73752 201.31627c0-9.845444 7.734558-17.826767 17.275604-17.826767 4.581787 0 8.975891 1.8781738 12.215698 5.221344 3.2397766 3.3431702 5.059906 7.877472 5.059906 12.605423 0 9.845459-7.734558 17.826782-17.275604 17.826782-9.541046 0-17.275604-7.9813232-17.275604-17.826782z" fill="#ffe599" fill-rule="evenodd"/><path d="m454.73752 201.31627c0-9.845444 7.734558-17.826767 17.275604-17.826767 4.581787 0 8.975891 1.8781738 12.215698 5.221344 3.2397766 3.3431702 5.059906 7.877472 5.059906 12.605423 0 9.845459-7.734558 17.826782-17.275604 17.826782-9.541046 0-17.275604-7.9813232-17.275604-17.826782z" fill-rule="evenodd" stroke="#666" stroke-linecap="butt" stroke-linejoin="round"/><path d="m469.31516 206.39627h-1.28125v-8.203125q-.46875.4375-1.21875.890625-.75.4375-1.359375.65625v-1.25q1.078125-.5 1.890625-1.21875.8125-.734375 1.140625-1.40625h.828125zm3.3073425-2.765625 1.296875-.171875q.21875 1.09375.75 1.578125.53125.484375 1.296875.484375.90625 0 1.53125-.625.640625-.640625.640625-1.5625 0-.890625-.59375-1.46875-.578125-.578125-1.46875-.578125-.359375 0-.90625.140625l.140625-1.125q.125.015625.203125.015625.828125 0 1.484375-.421875.65625-.4375.65625-1.34375 0-.703125-.484375-1.15625-.46875-.46875-1.234375-.46875-.75 0-1.25.46875-.5.46875-.640625 1.421875l-1.28125-.234375q.234375-1.296875 1.0625-2 .84375-.71875 2.09375-.71875.859375 0 1.578125.375.71875.359375 1.09375 1 .390625.640625.390625 1.34375 0 .6875-.375 1.25-.359375.546875-1.0625.875.921875.21875 1.4375.90625.515625.671875.515625 1.6875 0 1.375-1 2.328125-1 .953125-2.53125.953125-1.390625 0-2.296875-.8125-.90625-.828125-1.046875-2.140625z" fill="#434343"/><path d="m489.2874 201.31627c0-9.845444 7.7345276-17.826767 17.275574-17.826767 4.581787 0 8.975891 1.8781738 12.215698 5.221344 3.2398071 3.3431702 5.0598755 7.877472 5.0598755 12.605423 0 9.845459-7.734497 17.826782-17.275574 17.826782-9.541046 0-17.275574-7.9813232-17.275574-17.826782z" fill="#e6c9af" fill-rule="evenodd"/><path d="m489.2874 201.31627c0-9.845444 7.7345276-17.826767 17.275574-17.826767 4.581787 0 8.975891 1.8781738 12.215698 5.221344 3.2398071 3.3431702 5.0598755 7.877472 5.0598755 12.605423 0 9.845459-7.734497 17.826782-17.275574 17.826782-9.541046 0-17.275574-7.9813232-17.275574-17.826782z" fill-rule="evenodd" stroke="#666" stroke-linecap="butt" stroke-linejoin="round"/><path d="m503.86502 206.39627h-1.28125v-8.203125q-.46875.4375-1.21875.890625-.75.4375-1.359375.65625v-1.25q1.078125-.5 1.890625-1.21875.8125-.734375 1.140625-1.40625h.828125zm7.4323425 0v-2.515625h-4.546875v-1.171875l4.78125-6.796875h1.0625v6.796875h1.40625v1.171875h-1.40625v2.515625zm0-3.6875v-4.734375l-3.28125 4.734375z" fill="#434343"/><path d="m420.18634 201.31627c0-9.845444 7.734558-17.826767 17.275604-17.826767 4.5817566 0 8.975891 1.8781738 12.215698 5.221344 3.2397766 3.3431702 5.0598755 7.877472 5.0598755 12.605423 0 9.845459-7.7345276 17.826782-17.275574 17.826782-9.541046 0-17.275604-7.9813232-17.275604-17.826782z" fill="#f4cccc" fill-rule="evenodd"/><path d="m420.18634 201.31627c0-9.845444 7.734558-17.826767 17.275604-17.826767 4.5817566 0 8.975891 1.8781738 12.215698 5.221344 3.2397766 3.3431702 5.0598755 7.877472 5.0598755 12.605423 0 9.845459-7.7345276 17.826782-17.275574 17.826782-9.541046 0-17.275604-7.9813232-17.275604-17.826782z" fill-rule="evenodd" stroke="#666" stroke-linecap="butt" stroke-linejoin="round"/><path d="m434.76395 206.39627h-1.28125v-8.203125q-.46875.4375-1.21875.890625-.75.4375-1.359375.65625v-1.25q1.078125-.5 1.890625-1.21875.8125-.734375 1.140625-1.40625h.828125zm10.072998-1.234375v1.234375h-6.9375q-.015625-.46875.15625-.890625.265625-.71875.84375-1.40625.59375-.6875 1.6875-1.578125 1.71875-1.40625 2.3125-2.21875.609375-.828125.609375-1.5625 0-.765625-.5625-1.28125-.546875-.53125-1.421875-.53125-.921875 0-1.484375.5625-.5625.5625-.5625 1.546875l-1.328125-.140625q.140625-1.484375 1.015625-2.25.890625-.78125 2.390625-.78125 1.515625 0 2.390625.84375.875.828125.875 2.0625 0 .640625-.265625 1.25-.25.59375-.84375 1.265625-.59375.671875-1.984375 1.859375-1.15625.96875-1.484375 1.3125-.328125.34375-.546875.703125z" fill="#434343"/><path d="m558.3898 201.31627c0-9.845444 7.734558-17.826767 17.275574-17.826767 4.581787 0 8.975891 1.8781738 12.215698 5.221344 3.2398071 3.3431702 5.0598755 7.877472 5.0598755 12.605423 0 9.845459-7.734497 17.826782-17.275574 17.826782-9.541016 0-17.275574-7.9813232-17.275574-17.826782z" fill="#cfe2f3" fill-rule="evenodd"/><path d="m558.3898 201.31627c0-9.845444 7.734558-17.826767 17.275574-17.826767 4.581787 0 8.975891 1.8781738 12.215698 5.221344 3.2398071 3.3431702 5.0598755 7.877472 5.0598755 12.605423 0 9.845459-7.734497 17.826782-17.275574 17.826782-9.541016 0-17.275574-7.9813232-17.275574-17.826782z" fill-rule="evenodd" stroke="#666" stroke-linecap="butt" stroke-linejoin="round"/><path d="m572.96735 206.39627h-1.28125v-8.203125q-.46875.4375-1.21875.890625-.75.4375-1.359375.65625v-1.25q1.078125-.5 1.890625-1.21875.8125-.734375 1.140625-1.40625h.828125zm9.994873-7.921875-1.28125.09375q-.171875-.75-.484375-1.09375-.53125-.546875-1.296875-.546875-.609375 0-1.078125.34375-.609375.4375-.96875 1.296875-.34375.84375-.359375 2.421875.46875-.71875 1.140625-1.0625.671875-.34375 1.40625-.34375 1.296875 0 2.203125.953125.90625.953125.90625 2.453125 0 .984375-.4375 1.84375-.421875.84375-1.171875 1.296875-.734375.4375-1.6875.4375-1.609375 0-2.625-1.171875-1.015625-1.1875-1.015625-3.90625 0-3.046875 1.125-4.421875.984375-1.203125 2.640625-1.203125 1.234375 0 2.03125.703125.796875.6875.953125 1.90625zm-5.265625 4.515625q0 .671875.28125 1.28125.28125.609375.78125.9375.515625.3125 1.078125.3125.8125 0 1.390625-.65625.59375-.671875.59375-1.796875 0-1.09375-.578125-1.71875-.578125-.625-1.453125-.625-.875 0-1.484375.625-.609375.625-.609375 1.640625z" fill="#434343"/><path d="m696.5945 201.31627c0-9.845444 7.734558-17.826767 17.275574-17.826767 4.581787 0 8.975891 1.8781738 12.215698 5.221344 3.2398071 3.3431702 5.0599365 7.877472 5.0599365 12.605423 0 9.845459-7.734558 17.826782-17.275635 17.826782-9.541016 0-17.275574-7.9813232-17.275574-17.826782z" fill="#b6d7a8" fill-rule="evenodd"/><path d="m696.5945 201.31627c0-9.845444 7.734558-17.826767 17.275574-17.826767 4.581787 0 8.975891 1.8781738 12.215698 5.221344 3.2398071 3.3431702 5.0599365 7.877472 5.0599365 12.605423 0 9.845459-7.734558 17.826782-17.275635 17.826782-9.541016 0-17.275574-7.9813232-17.275574-17.826782z" fill-rule="evenodd" stroke="#666" stroke-linecap="butt" stroke-linejoin="round"/><path d="m713.094 205.1619v1.234375h-6.9375q-.015625-.46875.15625-.890625.265625-.71875.84375-1.40625.59375-.6875 1.6875-1.578125 1.71875-1.40625 2.3125-2.21875.609375-.828125.609375-1.5625 0-.765625-.5625-1.28125-.546875-.53125-1.421875-.53125-.921875 0-1.484375.5625-.5625.5625-.5625 1.546875l-1.328125-.140625q.140625-1.484375 1.015625-2.25.890625-.78125 2.390625-.78125 1.515625 0 2.390625.84375.875.828125.875 2.0625 0 .640625-.265625 1.25-.25.59375-.84375 1.265625-.59375.671875-1.984375 1.859375-1.15625.96875-1.484375 1.3125-.328125.34375-.546875.703125zm1.385437-3.9375q0-1.859375.375-2.984375.390625-1.140625 1.140625-1.75.765625-.625 1.90625-.625.84375 0 1.46875.34375.640625.328125 1.0625.96875.421875.640625.65625 1.5625.234375.921875.234375 2.484375 0 1.84375-.390625 2.984375-.375 1.125-1.125 1.75-.75.609375-1.90625.609375-1.515625 0-2.390625-1.078125-1.03125-1.3125-1.03125-4.265625zm1.328125 0q0 2.578125.59375 3.4375.609375.859375 1.5.859375.890625 0 1.484375-.859375.609375-.859375.609375-3.4375 0-2.59375-.609375-3.4375-.59375-.859375-1.5-.859375-.890625 0-1.421875.75-.65625.96875-.65625 3.546875z" fill="#434343"/><path d="m627.4934 201.31627c0-9.845444 7.734558-17.826767 17.275635-17.826767 4.581787 0 8.975891 1.8781738 12.215698 5.221344 3.239746 3.3431702 5.0598755 7.877472 5.0598755 12.605423 0 9.845459-7.734558 17.826782-17.275574 17.826782-9.541077 0-17.275635-7.9813232-17.275635-17.826782z" fill="#ffe599" fill-rule="evenodd"/><path d="m627.4934 201.31627c0-9.845444 7.734558-17.826767 17.275635-17.826767 4.581787 0 8.975891 1.8781738 12.215698 5.221344 3.239746 3.3431702 5.0598755 7.877472 5.0598755 12.605423 0 9.845459-7.734558 17.826782-17.275574 17.826782-9.541077 0-17.275635-7.9813232-17.275635-17.826782z" fill-rule="evenodd" stroke="#666" stroke-linecap="butt" stroke-linejoin="round"/><path d="m642.07104 206.39627h-1.28125v-8.203125q-.46875.4375-1.21875.890625-.75.4375-1.359375.65625v-1.25q1.078125-.5 1.890625-1.21875.8125-.734375 1.140625-1.40625h.828125zm5.291748-5.6875q-.796875-.296875-1.1875-.84375-.390625-.546875-.390625-1.296875 0-1.140625.8125-1.921875.828125-.78125 2.203125-.78125 1.375 0 2.203125.796875.84375.796875.84375 1.9375 0 .734375-.390625 1.28125-.375.53125-1.15625.828125.96875.3125 1.46875 1.015625.5.703125.5 1.671875 0 1.34375-.953125 2.265625-.9375.90625-2.5.90625-1.546875 0-2.5-.90625-.953125-.921875-.953125-2.296875 0-1.03125.515625-1.71875.515625-.6875 1.484375-.9375zm-.265625-2.1875q0 .75.484375 1.21875.484375.46875 1.25.46875.734375 0 1.203125-.46875.484375-.46875.484375-1.140625 0-.71875-.5-1.1875-.484375-.484375-1.203125-.484375-.734375 0-1.234375.46875-.484375.46875-.484375 1.125zm-.40625 4.84375q0 .5625.25 1.078125.265625.5.78125.796875.515625.28125 1.109375.28125.921875 0 1.515625-.59375.609375-.59375.609375-1.515625 0-.9375-.625-1.53125-.609375-.609375-1.546875-.609375-.90625 0-1.5.609375-.59375.59375-.59375 1.484375z" fill="#434343"/><path d="m662.04333 201.31627c0-9.845444 7.734497-17.826767 17.275574-17.826767 4.581787 0 8.975891 1.8781738 12.215698 5.221344 3.2398071 3.3431702 5.0598755 7.877472 5.0598755 12.605423 0 9.845459-7.734558 17.826782-17.275574 17.826782-9.541077 0-17.275574-7.9813232-17.275574-17.826782z" fill="#e6c9af" fill-rule="evenodd"/><path d="m662.04333 201.31627c0-9.845444 7.734497-17.826767 17.275574-17.826767 4.581787 0 8.975891 1.8781738 12.215698 5.221344 3.2398071 3.3431702 5.0598755 7.877472 5.0598755 12.605423 0 9.845459-7.734558 17.826782-17.275574 17.826782-9.541077 0-17.275574-7.9813232-17.275574-17.826782z" fill-rule="evenodd" stroke="#666" stroke-linecap="butt" stroke-linejoin="round"/><path d="m676.6209 206.39627h-1.28125v-8.203125q-.46875.4375-1.21875.890625-.75.4375-1.359375.65625v-1.25q1.078125-.5 1.890625-1.21875.8125-.734375 1.140625-1.40625h.828125zm3.494873-2.421875 1.25-.125q.15625.875.59375 1.28125.4375.390625 1.140625.390625.59375 0 1.03125-.265625.453125-.28125.734375-.734375.296875-.453125.484375-1.21875.1875-.78125.1875-1.59375 0-.078125 0-.25-.390625.609375-1.0625 1-.65625.375-1.4375.375-1.3125 0-2.21875-.9375-.890625-.953125-.890625-2.484375 0-1.609375.9375-2.578125.9375-.96875 2.359375-.96875 1.03125 0 1.875.546875.84375.546875 1.28125 1.578125.4375 1.015625.4375 2.953125 0 2-.4375 3.203125-.421875 1.1875-1.296875 1.8125-.859375.609375-2.015625.609375-1.234375 0-2.015625-.671875-.78125-.6875-.9375-1.921875zm5.28125-4.640625q0-1.109375-.59375-1.75-.59375-.65625-1.421875-.65625-.859375 0-1.5.703125-.625.703125-.625 1.8125 0 1 .59375 1.640625.609375.625 1.5.625.890625 0 1.46875-.625.578125-.640625.578125-1.75z" fill="#434343"/><path d="m592.94226 201.31627c0-9.845444 7.734558-17.826767 17.275574-17.826767 4.581787 0 8.975891 1.8781738 12.215698 5.221344 3.2398071 3.3431702 5.0598755 7.877472 5.0598755 12.605423 0 9.845459-7.734497 17.826782-17.275574 17.826782-9.541016 0-17.275574-7.9813232-17.275574-17.826782z" fill="#f4cccc" fill-rule="evenodd"/><path d="m592.94226 201.31627c0-9.845444 7.734558-17.826767 17.275574-17.826767 4.581787 0 8.975891 1.8781738 12.215698 5.221344 3.2398071 3.3431702 5.0598755 7.877472 5.0598755 12.605423 0 9.845459-7.734497 17.826782-17.275574 17.826782-9.541016 0-17.275574-7.9813232-17.275574-17.826782z" fill-rule="evenodd" stroke="#666" stroke-linecap="butt" stroke-linejoin="round"/><path d="m607.51984 206.39627h-1.28125v-8.203125q-.46875.4375-1.21875.890625-.75.4375-1.359375.65625v-1.25q1.078125-.5 1.890625-1.21875.8125-.734375 1.140625-1.40625h.828125zm3.385498-9.125v-1.234375h6.796875v1q-1 1.078125-1.984375 2.84375-.984375 1.765625-1.515625 3.625-.390625 1.328125-.5 2.890625h-1.328125q.03125-1.234375.484375-2.984375.46875-1.765625 1.34375-3.390625.875-1.625 1.84375-2.75z" fill="#434343"/><path d="m178.51706 146.60324v45.417755c0-5.0167084-7.819153-9.083557-17.46457-9.083557-9.645416 0-17.46457 4.0668488-17.46457 9.083557v-45.417755c0-5.0167084 7.819153-9.083557 17.46457-9.083557 9.645416 0 17.46457 4.0668488 17.46457 9.083557z" fill="#ff9191" fill-rule="evenodd"/><path d="m178.51706 146.60324v45.417755c0-5.0167084-7.819153-9.083557-17.46457-9.083557-9.645416 0-17.46457 4.0668488-17.46457 9.083557v-45.417755c0-5.0167084 7.819153-9.083557 17.46457-9.083557 9.645416 0 17.46457 4.0668488 17.46457 9.083557z" fill-rule="evenodd" stroke="#666" stroke-linecap="butt" stroke-linejoin="round"/><path d="m454.9265 146.60324v45.417755c0-5.0167084-7.819153-9.083557-17.46457-9.083557-9.645416 0-17.46457 4.0668488-17.46457 9.083557v-45.417755c0-5.0167084 7.819153-9.083557 17.46457-9.083557 9.645416 0 17.46457 4.0668488 17.46457 9.083557z" fill="#ff9191" fill-rule="evenodd"/><path d="m454.9265 146.60324v45.417755c0-5.0167084-7.819153-9.083557-17.46457-9.083557-9.645416 0-17.46457 4.0668488-17.46457 9.083557v-45.417755c0-5.0167084 7.819153-9.083557 17.46457-9.083557 9.645416 0 17.46457 4.0668488 17.46457 9.083557z" fill-rule="evenodd" stroke="#666" stroke-linecap="butt" stroke-linejoin="round"/><path d="m423 98.049324c-2.8761902-2.8762054-9.936584-12.158798-17.257233-17.257217-7.3206177-5.098427-16.992981-10.065186-26.666656-13.333336-9.673676-3.2681503-19.478546-5.3604546-31.375336-6.275589-11.896759-.91513824-26.408997-.261158-40.00525.7847748-13.596222 1.0459328-28.499115 2.6150513-41.572174 5.490814-13.073044 2.875763-24.446625 5.881012-36.866135 11.763779-12.41951 5.8827667-31.375763 19.610672-37.650925 23.532806" fill="none"/><path d="m420.69427 95.513885-.574646-.65743256c-1.1807251-1.3543701-2.561737-2.9436722-4.0815735-4.602417-3.0397034-3.3174667-6.634918-6.9127197-10.295288-9.461937-7.320648-5.098419-16.992981-10.06517-26.666656-13.333328-9.673676-3.2681503-19.478546-5.3604546-31.375336-6.275593-11.896759-.91513443-26.408997-.26115417-40.00525.7847786-13.596222 1.045929-28.499115 2.6150513-41.572174 5.490814-13.073059 2.8757706-24.446625 5.8810196-36.866135 11.763779-12.41951 5.8827667-31.375763 19.610672-37.650925 23.532814" fill-rule="evenodd" stroke="#666" stroke-linecap="butt" stroke-linejoin="round"/><path d="m420.69424 95.51388-1.5885925-.07537079 2.9107666 1.5292664-1.2467957-3.0425034z" fill="#666" fill-rule="evenodd" stroke="#666" stroke-linecap="butt"/><path d="m263.76904 18.564304c0-2.887536 2.3407898-5.228346 5.2283325-5.228346h14.005249 28.850403 62.089233c1.3866272 0 2.7164917.55084133 3.696991 1.5313463.98049927.98050594 1.5313416 2.3103552 1.5313416 3.6969995v13.070866 7.8425217c0 2.887535-2.3407898 5.228344-5.2283325 5.228344h-62.089233l-15.629608 15.349068-13.220795-15.349068h-14.005249c-2.8875427 0-5.2283325-2.3408089-5.2283325-5.228344v-7.8425217z" fill="#efefef" fill-rule="evenodd"/><path d="m263.76904 18.564304c0-2.887536 2.3407898-5.228346 5.2283325-5.228346h14.005249 28.850403 62.089233c1.3866272 0 2.7164917.55084133 3.696991 1.5313463.98049927.98050594 1.5313416 2.3103552 1.5313416 3.6969995v13.070866 7.8425217c0 2.887535-2.3407898 5.228344-5.2283325 5.228344h-62.089233l-15.629608 15.349068-13.220795-15.349068h-14.005249c-2.8875427 0-5.2283325-2.3408089-5.2283325-5.228344v-7.8425217z" fill-rule="evenodd" stroke="#666" stroke-linecap="butt" stroke-linejoin="round"/><path d="m275.42535 34.100998v-10.484375h3.96875q1.046875 0 1.59375.09375.765625.125 1.28125.484375.53125.359375.84375 1.015625.328125.65625.328125 1.4375 0 1.328125-.859375 2.265625-.84375.921875-3.078125.921875h-2.6875v4.265625zm1.390625-5.5h2.71875q1.34375 0 1.90625-.5.5625-.5.5625-1.40625 0-.671875-.328125-1.140625-.328125-.46875-.875-.609375-.359375-.09375-1.296875-.09375h-2.6875zm8.213104 5.5v-7.59375h1.15625v1.140625q.453125-.796875.828125-1.046875.375-.265625.8125-.265625.65625 0 1.328125.40625l-.4375 1.203125q-.46875-.28125-.953125-.28125-.421875 0-.765625.25-.328125.25-.46875.703125-.21875.6875-.21875 1.5v3.984375zm4.4118958-3.796875q0-2.109375 1.171875-3.125.984375-.84375 2.390625-.84375 1.578125 0 2.5625 1.03125 1 1.015625 1 2.828125 0 1.46875-.4375 2.3125-.4375.828125-1.28125 1.296875-.84375.46875-1.84375.46875-1.59375 0-2.578125-1.015625-.984375-1.03125-.984375-2.953125zm1.328125 0q0 1.453125.625 2.1875.640625.71875 1.609375.71875.96875 0 1.59375-.71875.640625-.734375.640625-2.234375 0-1.40625-.640625-2.125-.640625-.734375-1.59375-.734375-.96875 0-1.609375.71875-.625.71875-.625 2.1875zm12.260498 1.015625 1.265625.15625q-.203125 1.3125-1.0625 2.0625-.84375.734375-2.09375.734375-1.5625 0-2.515625-1.015625-.9375-1.03125-.9375-2.921875 0-1.234375.40625-2.15625.40625-.921875 1.234375-1.375.84375-.46875 1.8125-.46875 1.25 0 2.03125.625.78125.625 1.015625 1.765625l-1.265625.203125q-.171875-.765625-.625-1.15625-.453125-.390625-1.09375-.390625-.984375 0-1.59375.703125-.609375.703125-.609375 2.203125 0 1.53125.578125 2.234375.59375.6875 1.546875.6875.75 0 1.265625-.453125.515625-.46875.640625-1.4375zm7.578125.328125 1.328125.171875q-.3125 1.171875-1.171875 1.8125-.84375.640625-2.171875.640625-1.671875 0-2.65625-1.015625-.96875-1.03125-.96875-2.890625 0-1.921875.984375-2.96875 1-1.0625 2.578125-1.0625 1.515625 0 2.484375 1.03125.96875 1.03125.96875 2.921875 0 .109375-.015625.34375h-5.65625q.0625 1.25.703125 1.921875.640625.65625 1.59375.65625.703125 0 1.203125-.359375.5-.375.796875-1.203125zm-4.234375-2.078125h4.25q-.09375-.953125-.484375-1.4375-.625-.75-1.609375-.75-.875 0-1.484375.59375-.609375.59375-.671875 1.59375zm12.385468 2.078125 1.328125.171875q-.3125 1.171875-1.171875 1.8125-.84375.640625-2.171875.640625-1.671875 0-2.65625-1.015625-.96875-1.03125-.96875-2.890625 0-1.921875.984375-2.96875 1-1.0625 2.578125-1.0625 1.515625 0 2.484375 1.03125.96875 1.03125.96875 2.921875 0 .109375-.015625.34375h-5.65625q.0625 1.25.703125 1.921875.640625.65625 1.59375.65625.703125 0 1.203125-.359375.5-.375.796875-1.203125zm-4.234375-2.078125h4.25q-.09375-.953125-.484375-1.4375-.625-.75-1.609375-.75-.875 0-1.484375.59375-.609375.59375-.671875 1.59375zm12.104248 4.53125v-.953125q-.71875 1.125-2.125 1.125-.90625 0-1.671875-.5-.75-.5-1.171875-1.390625-.421875-.90625-.421875-2.078125 0-1.140625.375-2.0625.390625-.921875 1.140625-1.40625.765625-.5 1.703125-.5.6875 0 1.21875.296875.53125.28125.875.734375v-3.75h1.28125v10.484375zm-4.0625-3.796875q0 1.46875.609375 2.1875.625.71875 1.453125.71875.84375 0 1.4375-.6875.59375-.6875.59375-2.109375 0-1.5625-.609375-2.28125-.59375-.734375-1.484375-.734375-.84375 0-1.421875.703125-.578125.703125-.578125 2.203125zm14.1762085 2.640625.1875 1.140625q-.546875.109375-.984375.109375-.6875 0-1.078125-.21875-.390625-.21875-.546875-.578125-.15625-.359375-.15625-1.515625v-4.375h-.953125v-1h.953125v-1.890625l1.28125-.765625v2.65625h1.296875v1h-1.296875v4.4375q0 .546875.0625.71875.078125.15625.21875.25.15625.078125.453125.078125.203125 0 .5625-.046875zm.77508545-2.640625q0-2.109375 1.171875-3.125.984375-.84375 2.390625-.84375 1.578125 0 2.5625 1.03125 1 1.015625 1 2.828125 0 1.46875-.4375 2.3125-.4375.828125-1.28125 1.296875-.84375.46875-1.84375.46875-1.59375 0-2.578125-1.015625-.984375-1.03125-.984375-2.953125zm1.328125 0q0 1.453125.625 2.1875.640625.71875 1.609375.71875.96875 0 1.59375-.71875.640625-.734375.640625-2.234375 0-1.40625-.640625-2.125-.640625-.734375-1.59375-.734375-.96875 0-1.609375.71875-.625.71875-.625 2.1875zm15.8637085 3.796875h-1.28125v-8.203125q-.46875.4375-1.21875.890625-.75.4375-1.359375.65625v-1.25q1.078125-.5 1.890625-1.21875.8125-.734375 1.140625-1.40625h.828125zm5.291748-5.6875q-.796875-.296875-1.1875-.84375-.390625-.546875-.390625-1.296875 0-1.140625.8125-1.921875.828125-.78125 2.203125-.78125 1.375 0 2.203125.796875.84375.796875.84375 1.9375 0 .734375-.390625 1.28125-.375.53125-1.15625.828125.96875.3125 1.46875 1.015625.5.703125.5 1.671875 0 1.34375-.953125 2.265625-.9375.90625-2.5.90625-1.546875 0-2.5-.90625-.953125-.921875-.953125-2.296875 0-1.03125.515625-1.71875.515625-.6875 1.484375-.9375zm-.265625-2.1875q0 .75.484375 1.21875.484375.46875 1.25.46875.734375 0 1.203125-.46875.484375-.46875.484375-1.140625 0-.71875-.5-1.1875-.484375-.484375-1.203125-.484375-.734375 0-1.234375.46875-.484375.46875-.484375 1.125zm-.40625 4.84375q0 .5625.25 1.078125.265625.5.78125.796875.515625.28125 1.109375.28125.921875 0 1.515625-.59375.609375-.59375.609375-1.515625 0-.9375-.625-1.53125-.609375-.609375-1.546875-.609375-.90625 0-1.5.609375-.59375.59375-.59375 1.484375z" fill="#434343"/><path d="m144.5433 269.86353h241.19684" fill="none"/><path d="m147.9704 269.86353h234.34268" fill-rule="evenodd" stroke="#666" stroke-linecap="butt" stroke-linejoin="round"/><path d="m147.9704 269.86353 1.1245728-1.1246033-3.0897675 1.1246033 3.0897675 1.1245728z" fill="#666" fill-rule="evenodd" stroke="#666" stroke-linecap="butt"/><path d="m382.31308 269.86353-1.1246033 1.1245728 3.0897827-1.1245728-3.0897827-1.1246033z" fill="#666" fill-rule="evenodd" stroke="#666" stroke-linecap="butt"/><path d="m161.01506 109.76604 21.08548-17.989136-2.0790863 16.515884 23.935013-2.6921616-9.506027 8.864296 24.898071 2.5494995-19.771164 7.25148 22.620712 8.7309265-26.982834-1.0793457 7.4099426 15.982422-23.368515-11.283539-4.3791046 16.376328-15.380722-14.893768-11.596451 20.671997-4.3621216-18.525711-16.729012 6.1721344 5.1268997-11.413788-31.33928 2.0160217 20.320679-8.721634-21.085472-9.800972 26.21238-3.095375-24.116295-16.506577 39.327065 12.483833 5.891693-12.483833z" fill="#ff9191" fill-rule="evenodd"/><path d="m161.01506 109.76604 21.08548-17.989136-2.0790863 16.515884 23.935013-2.6921616-9.506027 8.864296 24.898071 2.5494995-19.771164 7.25148 22.620712 8.7309265-26.982834-1.0793457 7.4099426 15.982422-23.368515-11.283539-4.3791046 16.376328-15.380722-14.893768-11.596451 20.671997-4.3621216-18.525711-16.729012 6.1721344 5.1268997-11.413788-31.33928 2.0160217 20.320679-8.721634-21.085472-9.800972 26.21238-3.095375-24.116295-16.506577 39.327065 12.483833 5.891693-12.483833z" fill-rule="evenodd" stroke="#666" stroke-linecap="butt" stroke-linejoin="round"/><path d="m132.86504 128.27121v-10.484383h3.96875q1.046875 0 1.59375.09375.765625.125 1.28125.484375.53125.359375.84375 1.015625.328125.65625.328125 1.4375 0 1.328125-.859375 2.265625-.84375.921875-3.078125.921875h-2.6875v4.2656326h-1.390625zm1.390625-5.5000076h2.71875q1.34375 0 1.90625-.5.5625-.5.5625-1.40625 0-.671875-.328125-1.140625-.328125-.46875-.875-.609375-.359375-.09375-1.296875-.09375h-2.6875zm8.213104 5.5000076v-7.5937576h1.15625v1.140625q.453125-.796875.828125-1.046875.375-.265625.8125-.265625.65625 0 1.328125.40625l-.4375 1.203125q-.46875-.28125-.953125-.28125-.421875 0-.765625.25-.328125.25-.46875.703125-.21875.6875-.21875 1.5v3.9843826zm4.4118958-3.7968826q0-2.109375 1.171875-3.125.984375-.84375 2.390625-.84375 1.578125 0 2.5625 1.03125 1 1.015625 1 2.828125 0 1.46875-.4375 2.3125-.4375.828125-1.28125 1.296875-.84375.46875763-1.84375.46875763-1.59375 0-2.578125-1.0156326-.984375-1.03125-.984375-2.953125zm1.328125 0q0 1.453125.625 2.1875.640625.71875 1.609375.71875.96875 0 1.59375-.71875.640625-.734375.640625-2.234375 0-1.40625-.640625-2.125-.640625-.734375-1.59375-.734375-.96875 0-1.609375.71875-.625.71875-.625 2.1875zm12.260483 1.015625 1.265625.15625q-.203125 1.3125-1.0625 2.0625-.84375.7343826-2.09375.7343826-1.5625 0-2.515625-1.0156326-.9375-1.03125-.9375-2.921875 0-1.234375.40625-2.15625.40625-.921875 1.234375-1.375.84375-.46875 1.8125-.46875 1.25 0 2.03125.625.78125.625 1.015625 1.765625l-1.265625.203125q-.171875-.765625-.625-1.15625-.453125-.390625-1.09375-.390625-.984375 0-1.59375.703125-.609375.703125-.609375 2.203125 0 1.53125.578125 2.234375.59375.6875 1.546875.6875.75 0 1.265625-.453125.515625-.46875.640625-1.4375zm7.578125.328125 1.328125.171875q-.3125 1.171875-1.171875 1.8125-.84375.6406326-2.171875.6406326-1.671875 0-2.65625-1.0156326-.96875-1.03125-.96875-2.890625 0-1.921875.984375-2.96875 1-1.0625 2.578125-1.0625 1.515625 0 2.484375 1.03125.96875 1.03125.96875 2.921875 0 .109375-.015625.34375h-5.65625q.0625 1.25.703125 1.921875.640625.65625 1.59375.65625.703125 0 1.203125-.359375.5-.375.796875-1.203125zm-4.234375-2.078125h4.25q-.09375-.953125-.484375-1.4375-.625-.75-1.609375-.75-.875 0-1.484375.59375-.609375.59375-.671875 1.59375zm6.666733 2.265625 1.265625-.203125q.109375.765625.59375 1.171875.5.40625 1.375.40625.890625 0 1.3125-.359375.4375-.359375.4375-.84375 0-.4375-.375-.6875-.265625-.171875-1.3125-.4375-1.421875-.359375-1.96875-.609375-.546875-.265625-.828125-.734375-.28125-.46875-.28125-1.015625 0-.515625.21875-.9375.234375-.4375.640625-.734375.296875-.21875.8125-.359375.53125-.15625 1.125-.15625.890625 0 1.5625.265625.671875.25 1 .6875.328125.4375.4375 1.171875l-1.25.171875q-.09375-.578125-.5-.90625-.40625-.34375-1.15625-.34375-.890625 0-1.28125.296875-.375.296875-.375.6875 0 .25.15625.453125.15625.203125.5.34375.1875.078125 1.140625.328125 1.359375.359375 1.890625.59375.546875.234375.859375.6875.3125.4375.3125 1.09375 0 .640625-.375 1.21875-.375.5625-1.09375.8750076-.703125.3125-1.59375.3125-1.484375 0-2.265625-.6093826-.765625-.625-.984375-1.828125zm7.328125 0 1.265625-.203125q.109375.765625.59375 1.171875.5.40625 1.375.40625.890625 0 1.3125-.359375.4375-.359375.4375-.84375 0-.4375-.375-.6875-.265625-.171875-1.3125-.4375-1.421875-.359375-1.96875-.609375-.546875-.265625-.828125-.734375-.28125-.46875-.28125-1.015625 0-.515625.21875-.9375.234375-.4375.640625-.734375.296875-.21875.8125-.359375.53125-.15625 1.125-.15625.890625 0 1.5625.265625.671875.25 1 .6875.328125.4375.4375 1.171875l-1.25.171875q-.09375-.578125-.5-.90625-.40625-.34375-1.15625-.34375-.890625 0-1.28125.296875-.375.296875-.375.6875 0 .25.15625.453125.15625.203125.5.34375.1875.078125 1.140625.328125 1.359375.359375 1.890625.59375.546875.234375.859375.6875.3125.4375.3125 1.09375 0 .640625-.375 1.21875-.375.5625-1.09375.8750076-.703125.3125-1.59375.3125-1.484375 0-2.265625-.6093826-.765625-.625-.984375-1.828125zm8.53125-.34375-.390625-5.5625v-2.3125h1.59375v2.3125l-.375 5.5625zm-.34375 2.6093826v-1.4687576h1.484375v1.4687576z" fill="#fff6f6"/><path d="m379.76117 130.99173 57.700775-32.961548 57.700775 32.961548h-40.10031v21.526642h-35.200928v-21.526642z" fill="#ff9191" fill-rule="evenodd"/><path d="m379.76117 130.99173 57.700775-32.961548 57.700775 32.961548h-40.10031v21.526642h-35.200928v-21.526642z" fill-rule="evenodd" stroke="#666" stroke-linecap="butt" stroke-linejoin="round"/><path d="m417.04773 120.789444 1.3125-.109375q.09375.78125.421875 1.296875.34375.5 1.0625.8125.71875.3125 1.609375.3125.796875 0 1.40625-.234375.609375-.234375.90625-.640625.296875-.421875.296875-.90625 0-.5-.296875-.859375-.28125-.375-.9375-.625-.421875-.171875-1.875-.515625-1.4375-.34375-2.015625-.65625-.75-.390625-1.125-.96875-.359375-.59375-.359375-1.3125 0-.796875.4375-1.484375.453125-.6875 1.3125-1.046875.875-.359375 1.9375-.359375 1.171875 0 2.0625.375.890625.375 1.359375 1.109375.484375.734375.515625 1.65625l-1.328125.09375q-.109375-1-.734375-1.5-.609375-.515625-1.8125-.515625-1.265625 0-1.84375.46875-.578125.46875-.578125 1.109375 0 .5625.421875.9375.390625.359375 2.078125.75 1.703125.375 2.328125.65625.921875.421875 1.359375 1.078125.4375.640625.4375 1.484375 0 .84375-.484375 1.59375-.484375.734375-1.390625 1.140625-.890625.40625-2.015625.40625-1.421875 0-2.390625-.40625-.953125-.421875-1.5-1.25-.546875-.828125-.578125-1.890625zm15.291229.921875 1.328125.171875q-.3125 1.171875-1.171875 1.8125-.84375.640625-2.171875.640625-1.671875 0-2.65625-1.015625-.96875-1.03125-.96875-2.890625 0-1.921875.984375-2.96875 1-1.0625 2.578125-1.0625 1.515625 0 2.484375 1.03125.96875 1.03125.96875 2.921875 0 .109375-.015625.34375h-5.65625q.0625 1.25.703125 1.921875.640625.65625 1.59375.65625.703125 0 1.203125-.359375.5-.375.796875-1.203125zm-4.234375-2.078125h4.25q-.09375-.953125-.484375-1.4375-.625-.75-1.609375-.75-.875 0-1.484375.59375-.609375.59375-.671875 1.59375zm7.182373 4.53125v-7.59375h1.15625v1.078125q.84375-1.25 2.421875-1.25.6875 0 1.265625.25.578125.234375.859375.640625.28125.40625.40625.953125.0625.359375.0625 1.25v4.671875h-1.28125v-4.625q0-.78125-.15625-1.171875-.15625-.390625-.546875-.625-.375-.234375-.890625-.234375-.8125 0-1.421875.53125-.59375.515625-.59375 1.96875v4.15625zm13.072968 0v-.953125q-.71875 1.125-2.125 1.125-.90625 0-1.671875-.5-.75-.5-1.171875-1.390625-.421875-.90625-.421875-2.078125 0-1.140625.375-2.0625.390625-.921875 1.140625-1.40625.765625-.5 1.703125-.5.6875 0 1.21875.296875.53125.28125.875.734375v-3.75h1.28125v10.484375zm-4.0625-3.796875q0 1.46875.609375 2.1875.625.71875 1.453125.71875.84375 0 1.4375-.6875.59375-.6875.59375-2.109375 0-1.5625-.609375-2.28125-.59375-.734375-1.484375-.734375-.84375 0-1.421875.703125-.578125.703125-.578125 2.203125zm7.979248 1.1875-.390625-5.5625v-2.3125h1.59375v2.3125l-.375 5.5625zm-.34375 2.609375v-1.46875h1.484375v1.46875z" fill="#fff6f6"/><path d="m640.27295 91.7769c12.019836 0 21.763794.81196594 21.763794 1.8135757v134.10513c0 1.0016022-9.7439575 1.8135681-21.763794 1.8135681z" fill="none"/><path d="m640.27295 91.7769c12.019836 0 21.763794.81196594 21.763794 1.8135757v134.10513c0 1.0016022-9.7439575 1.8135681-21.763794 1.8135681" fill="none"/><path d="m640.27295 91.7769c12.019836 0 21.763794.81196594 21.763794 1.8135757v134.10513c0 1.0016022-9.7439575 1.8135681-21.763794 1.8135681" fill-rule="evenodd" stroke="#558fc4" stroke-linecap="butt" stroke-linejoin="round" stroke-width="4"/></g></svg>