<svg fill="none" stroke-linecap="square" stroke-miterlimit="10" viewBox="0 0 847 411" xmlns="http://www.w3.org/2000/svg" xmlns:xlink="http://www.w3.org/1999/xlink"><clipPath id="a"><path d="m0 0h847v411h-847z"/></clipPath><g clip-path="url(#a)"><path d="m0 0h847v411h-847z" fill="none"/><path d="m6 159.87007h833.07086" fill="none"/><path d="m6 159.87007h805.6542" fill-rule="evenodd" stroke="#999" stroke-linecap="butt" stroke-linejoin="round" stroke-width="8"/><path d="m811.6542 159.87007-8.996643 8.996674 24.71814-8.996674-24.71814-8.996658z" fill="#999" fill-rule="evenodd" stroke="#999" stroke-linecap="butt" stroke-width="8"/><path d="m6 326.9252h833.07086" fill="none"/><path d="m6 326.9252h805.6542" fill-rule="evenodd" stroke="#999" stroke-linecap="butt" stroke-linejoin="round" stroke-width="8"/><path d="m811.6542 326.9252-8.996643 8.996674 24.71814-8.996674-24.71814-8.996674z" fill="#999" fill-rule="evenodd" stroke="#999" stroke-linecap="butt" stroke-width="8"/><path d="m669.8845 86.66273h157.48029v46.015755h-157.48029z" fill="none"/><path d="m680.322 113.582726v-13.359375h5.046875q1.328125 0 2.03125.125.96875.171875 1.640625.640625.671875.453125 1.078125 1.28125.40625.828125.40625 1.828125 0 1.703125-1.09375 2.890625-1.078125 1.171875-3.921875 1.171875h-3.421875v5.421875zm1.765625-7h3.453125q1.71875 0 2.4375-.640625.71875-.640625.71875-1.796875 0-.84375-.421875-1.4375-.421875-.59375-1.125-.78125-.4375-.125-1.640625-.125h-3.421875zm10.4591675 7v-9.671875h1.46875v1.46875q.5625-1.03125 1.03125-1.359375.484375-.328125 1.0625-.328125.828125 0 1.6875.53125l-.5625 1.515625q-.609375-.359375-1.203125-.359375-.546875 0-.96875.328125-.421875.328125-.609375.890625-.28125.875-.28125 1.921875v5.0625zm5.6189575-4.84375q0-2.6875 1.484375-3.96875 1.25-1.078125 3.046875-1.078125 2 0 3.265625 1.3125 1.265625 1.296875 1.265625 3.609375 0 1.859375-.5625 2.9375-.5625 1.0625-1.640625 1.65625-1.0625.59375-2.328125.59375-2.03125 0-3.28125-1.296875-1.25-1.3125-1.25-3.765625zm1.6875 0q0 1.859375.796875 2.796875.8125.921875 2.046875.921875 1.21875 0 2.03125-.921875.8125-.9375.8125-2.84375 0-1.796875-.8125-2.71875-.8125-.921875-2.03125-.921875-1.234375 0-2.046875.921875-.796875.90625-.796875 2.765625zm15.610107 1.296875 1.609375.21875q-.265625 1.65625-1.359375 2.609375-1.078125.9375-2.671875.9375-1.984375 0-3.1875-1.296875-1.203125-1.296875-1.203125-3.71875 0-1.578125.515625-2.75.515625-1.171875 1.578125-1.75 1.0625-.59375 2.3125-.59375 1.578125 0 2.578125.796875 1 .796875 1.28125 2.265625l-1.59375.234375q-.234375-.96875-.8125-1.453125-.578125-.5-1.390625-.5-1.234375 0-2.015625.890625-.78125.890625-.78125 2.8125 0 1.953125.75 2.84375.75.875 1.953125.875.96875 0 1.609375-.59375.65625-.59375.828125-1.828125zm9.640625.4375 1.6875.203125q-.40625 1.484375-1.484375 2.3125-1.078125.8125-2.765625.8125-2.125 0-3.375-1.296875-1.234375-1.3125-1.234375-3.671875 0-2.453125 1.25-3.796875 1.265625-1.34375 3.265625-1.34375 1.9375 0 3.15625 1.328125 1.234375 1.3125 1.234375 3.703125 0 .15625 0 .4375h-7.21875q.09375 1.59375.90625 2.453125.8125.84375 2.015625.84375.90625 0 1.546875-.46875.640625-.484375 1.015625-1.515625zm-5.390625-2.65625h5.40625q-.109375-1.21875-.625-1.828125-.78125-.953125-2.03125-.953125-1.125 0-1.90625.765625-.765625.75-.84375 2.015625zm8.485046 2.875 1.625-.25q.125.96875.75 1.5.625.515625 1.75.515625 1.125 0 1.671875-.453125.546875-.46875.546875-1.09375 0-.546875-.484375-.875-.328125-.21875-1.671875-.546875-1.8125-.46875-2.515625-.796875-.6875-.328125-1.046875-.90625-.359375-.59375-.359375-1.3125 0-.640625.296875-1.1875.296875-.5625.8125-.921875.375-.28125 1.03125-.46875.671875-.203125 1.421875-.203125 1.140625 0 2 .328125.859375.328125 1.265625.890625.421875.5625.578125 1.5l-1.609375.21875q-.109375-.75-.640625-1.171875-.515625-.421875-1.46875-.421875-1.140625 0-1.625.375-.46875.375-.46875.875 0 .3125.1875.578125.203125.265625.640625.4375.234375.09375 1.4375.421875 1.75.453125 2.4375.75.6875.296875 1.078125.859375.390625.5625.390625 1.40625 0 .828125-.484375 1.546875-.46875.71875-1.375 1.125-.90625.390625-2.046875.390625-1.875 0-2.875-.78125-.984375-.78125-1.25-2.328125zm9.328125 0 1.625-.25q.125.96875.75 1.5.625.515625 1.75.515625 1.125 0 1.671875-.453125.546875-.46875.546875-1.09375 0-.546875-.484375-.875-.328125-.21875-1.671875-.546875-1.8125-.46875-2.515625-.796875-.6875-.328125-1.046875-.90625-.359375-.59375-.359375-1.3125 0-.640625.296875-1.1875.296875-.5625.8125-.921875.375-.28125 1.03125-.46875.671875-.203125 1.421875-.203125 1.140625 0 2 .328125.859375.328125 1.265625.890625.421875.5625.578125 1.5l-1.609375.21875q-.109375-.75-.640625-1.171875-.515625-.421875-1.46875-.421875-1.140625 0-1.625.375-.46875.375-.46875.875 0 .3125.1875.578125.203125.265625.640625.4375.234375.09375 1.4375.421875 1.75.453125 2.4375.75.6875.296875 1.078125.859375.390625.5625.390625 1.40625 0 .828125-.484375 1.546875-.46875.71875-1.375 1.125-.90625.390625-2.046875.390625-1.875 0-2.875-.78125-.984375-.78125-1.25-2.328125zm9.984375-8.578125v-1.890625h1.640625v1.890625zm0 11.46875v-9.671875h1.640625v9.671875zm4.1448364 0v-9.671875h1.46875v1.375q1.0625-1.59375 3.078125-1.59375.875 0 1.609375.3125.734375.3125 1.09375.828125.375.5.515625 1.203125.09375.453125.09375 1.59375v5.953125h-1.640625v-5.890625q0-1-.203125-1.484375-.1875-.5-.671875-.796875-.484375-.296875-1.140625-.296875-1.046875 0-1.8125.671875-.75.65625-.75 2.515625v5.28125zm10.063232.796875 1.59375.234375q.109375.75.5625 1.078125.609375.453125 1.671875.453125 1.140625 0 1.75-.453125.625-.453125.84375-1.265625.125-.5.109375-2.109375-1.0625 1.265625-2.671875 1.265625-2 0-3.09375-1.4375-1.09375-1.4375-1.09375-3.453125 0-1.390625.5-2.5625.515625-1.171875 1.453125-1.796875.953125-.640625 2.25-.640625 1.703125 0 2.8125 1.375v-1.15625h1.515625v8.359375q0 2.265625-.46875 3.203125-.453125.9375-1.453125 1.484375-.984375.546875-2.453125.546875-1.71875 0-2.796875-.78125-1.0625-.765625-1.03125-2.34375zm1.359375-5.8125q0 1.90625.75 2.78125.765625.875 1.90625.875 1.125 0 1.890625-.859375.765625-.875.765625-2.734375 0-1.78125-.796875-2.671875-.78125-.90625-1.890625-.90625-1.09375 0-1.859375.890625-.765625.875-.765625 2.625zm17.784302 5.015625v-11.78125h-4.40625v-1.578125h10.578125v1.578125h-4.40625v11.78125zm7.093872-11.46875v-1.890625h1.640625v1.890625zm0 11.46875v-9.671875h1.640625v9.671875zm4.1448364 0v-9.671875h1.46875v1.359375q.453125-.71875 1.203125-1.140625.765625-.4375 1.71875-.4375 1.078125 0 1.765625.453125.6875.4375.96875 1.234375 1.15625-1.6875 2.984375-1.6875 1.453125 0 2.21875.796875.78125.796875.78125 2.453125v6.640625h-1.640625v-6.09375q0-.984375-.15625-1.40625-.15625-.4375-.578125-.703125-.421875-.265625-.984375-.265625-1.015625 0-1.6875.6875-.671875.671875-.671875 2.15625v5.625h-1.640625v-6.28125q0-1.09375-.40625-1.640625-.40625-.546875-1.3125-.546875-.6875 0-1.28125.359375-.59375.359375-.859375 1.0625-.25.703125-.25 2.03125v5.015625zm22.165771-3.109375 1.6875.203125q-.40625 1.484375-1.484375 2.3125-1.078125.8125-2.765625.8125-2.125 0-3.375-1.296875-1.234375-1.3125-1.234375-3.671875 0-2.453125 1.25-3.796875 1.265625-1.34375 3.265625-1.34375 1.9375 0 3.15625 1.328125 1.234375 1.3125 1.234375 3.703125 0 .15625 0 .4375h-7.21875q.09375 1.59375.90625 2.453125.8125.84375 2.015625.84375.90625 0 1.546875-.46875.640625-.484375 1.015625-1.515625zm-5.390625-2.65625h5.40625q-.109375-1.21875-.625-1.828125-.78125-.953125-2.03125-.953125-1.125 0-1.90625.765625-.765625.75-.84375 2.015625z" fill="#000"/><path d="m669.8845 257.7257h157.48029v46.015747h-157.48029z" fill="none"/><path d="m680.3533 284.64572v-13.359375h9.65625v1.578125h-7.875v4.09375h7.375v1.5625h-7.375v4.546875h8.1875v1.578125zm14.8966675 0-3.6875-9.671875h1.734375l2.078125 5.796875q.328125.9375.625 1.9375.203125-.765625.609375-1.828125l2.140625-5.90625h1.6875l-3.65625 9.671875zm13.265625-3.109375 1.6875.203125q-.40625 1.484375-1.484375 2.3125-1.078125.8125-2.765625.8125-2.125 0-3.375-1.296875-1.234375-1.3125-1.234375-3.671875 0-2.453125 1.25-3.796875 1.265625-1.34375 3.265625-1.34375 1.9375 0 3.15625 1.328125 1.234375 1.3125 1.234375 3.703125 0 .15625 0 .4375h-7.21875q.09375 1.59375.90625 2.453125.8125.84375 2.015625.84375.90625 0 1.546875-.46875.640625-.484375 1.015625-1.515625zm-5.390625-2.65625h5.40625q-.109375-1.21875-.625-1.828125-.78125-.953125-2.03125-.953125-1.125 0-1.90625.765625-.765625.75-.84375 2.015625zm9.141357 5.765625v-9.671875h1.46875v1.375q1.0625-1.59375 3.078125-1.59375.875 0 1.609375.3125.734375.3125 1.09375.828125.375.5.515625 1.203125.09375.453125.09375 1.59375v5.953125h-1.640625v-5.890625q0-1-.203125-1.484375-.1875-.5-.671875-.796875-.484375-.296875-1.140625-.296875-1.046875 0-1.8125.671875-.75.65625-.75 2.515625v5.28125zm13.953857-1.46875.234375 1.453125q-.6875.140625-1.234375.140625-.890625 0-1.390625-.28125-.484375-.28125-.6875-.734375-.203125-.46875-.203125-1.9375v-5.578125h-1.203125v-1.265625h1.203125v-2.390625l1.625-.984375v3.375h1.65625v1.265625h-1.65625v5.671875q0 .6875.078125.890625.09375.203125.28125.328125.203125.109375.578125.109375.265625 0 .71875-.0625zm10.060608 1.46875v-11.78125h-4.40625v-1.578125h10.578125v1.578125h-4.40625v11.78125zm7.093933-11.46875v-1.890625h1.640625v1.890625zm0 11.46875v-9.671875h1.640625v9.671875zm4.1447754 0v-9.671875h1.46875v1.359375q.453125-.71875 1.203125-1.140625.765625-.4375 1.71875-.4375 1.078125 0 1.765625.453125.6875.4375.96875 1.234375 1.15625-1.6875 2.984375-1.6875 1.453125 0 2.21875.796875.78125.796875.78125 2.453125v6.640625h-1.640625v-6.09375q0-.984375-.15625-1.40625-.15625-.4375-.578125-.703125-.421875-.265625-.984375-.265625-1.015625 0-1.6875.6875-.671875.671875-.671875 2.15625v5.625h-1.640625v-6.28125q0-1.09375-.40625-1.640625-.40625-.546875-1.3125-.546875-.6875 0-1.28125.359375-.59375.359375-.859375 1.0625-.25.703125-.25 2.03125v5.015625zm22.165833-3.109375 1.6875.203125q-.40625 1.484375-1.484375 2.3125-1.078125.8125-2.765625.8125-2.125 0-3.375-1.296875-1.234375-1.3125-1.234375-3.671875 0-2.453125 1.25-3.796875 1.265625-1.34375 3.265625-1.34375 1.9375 0 3.15625 1.328125 1.234375 1.3125 1.234375 3.703125 0 .15625 0 .4375h-7.21875q.09375 1.59375.90625 2.453125.8125.84375 2.015625.84375.90625 0 1.546875-.46875.640625-.484375 1.015625-1.515625zm-5.390625-2.65625h5.40625q-.109375-1.21875-.625-1.828125-.78125-.953125-2.03125-.953125-1.125 0-1.90625.765625-.765625.75-.84375 2.015625z" fill="#000"/><path d="m300 300.91733c0-9.445374 18.000275-17.102356 40.204712-17.102356 22.204468 0 40.204742 7.6569824 40.204742 17.102356 0 9.445374-18.000275 17.102356-40.204742 17.102356-22.204437 0-40.204712-7.6569824-40.204712-17.102356z" fill="#f4cccc" fill-rule="evenodd"/><path d="m300 300.91733c0-9.445374 18.000275-17.102356 40.204712-17.102356 22.204468 0 40.204742 7.6569824 40.204742 17.102356 0 9.445374-18.000275 17.102356-40.204742 17.102356-22.204437 0-40.204712-7.6569824-40.204712-17.102356z" fill-rule="evenodd" stroke="#595959" stroke-linecap="butt" stroke-linejoin="round"/><path d="m322.4759 300.82544q0-1.859375.375-2.984375.390625-1.140625 1.140625-1.75.765625-.625 1.90625-.625.84375 0 1.46875.34375.640625.328125 1.0625.96875.421875.640625.65625 1.5625.234375.921875.234375 2.484375 0 1.84375-.390625 2.984375-.375 1.125-1.125 1.75-.75.609375-1.90625.609375-1.515625 0-2.390625-1.078125-1.03125-1.3125-1.03125-4.265625zm1.328125 0q0 2.578125.59375 3.4375.609375.859375 1.5.859375.890625 0 1.484375-.859375.609375-.859375.609375-3.4375 0-2.59375-.609375-3.4375-.59375-.859375-1.5-.859375-.890625 0-1.421875.75-.65625.96875-.65625 3.546875zm8.807373-.515625q-.796875-.296875-1.1875-.84375-.390625-.546875-.390625-1.296875 0-1.140625.8125-1.921875.828125-.78125 2.203125-.78125 1.375 0 2.203125.796875.84375.796875.84375 1.9375 0 .734375-.390625 1.28125-.375.53125-1.15625.828125.96875.3125 1.46875 1.015625.5.703125.5 1.671875 0 1.34375-.953125 2.265625-.9375.90625-2.5.90625-1.546875 0-2.5-.90625-.953125-.921875-.953125-2.296875 0-1.03125.515625-1.71875.515625-.6875 1.484375-.9375zm-.265625-2.1875q0 .75.484375 1.21875.484375.46875 1.25.46875.734375 0 1.203125-.46875.484375-.46875.484375-1.140625 0-.71875-.5-1.1875-.484375-.484375-1.203125-.484375-.734375 0-1.234375.46875-.484375.46875-.484375 1.125zm-.40625 4.84375q0 .5625.25 1.078125.265625.5.78125.796875.515625.28125 1.109375.28125.921875 0 1.515625-.59375.609375-.59375.609375-1.515625 0-.9375-.625-1.53125-.609375-.609375-1.546875-.609375-.90625 0-1.5.609375-.59375.59375-.59375 1.484375zm7.5573425-3.109375v-1.453125h1.46875v1.453125zm0 6.140625v-1.46875h1.46875v1.46875zm8.196991 0h-1.28125v-8.203125q-.46875.4375-1.21875.890625-.75.4375-1.359375.65625v-1.25q1.078125-.5 1.890625-1.21875.8125-.734375 1.140625-1.40625h.828125zm7.4323425 0v-2.515625h-4.546875v-1.171875l4.78125-6.796875h1.0625v6.796875h1.40625v1.171875h-1.40625v2.515625zm0-3.6875v-4.734375l-3.28125 4.734375z" fill="#000"/><path d="m202 300.91733c0-9.445374 18.000275-17.102356 40.204727-17.102356 22.204453 0 40.204727 7.6569824 40.204727 17.102356 0 9.445374-18.000275 17.102356-40.204727 17.102356-22.204453 0-40.204727-7.6569824-40.204727-17.102356z" fill="#fce5cd" fill-rule="evenodd"/><path d="m202 300.91733c0-9.445374 18.000275-17.102356 40.204727-17.102356 22.204453 0 40.204727 7.6569824 40.204727 17.102356 0 9.445374-18.000275 17.102356-40.204727 17.102356-22.204453 0-40.204727-7.6569824-40.204727-17.102356z" fill-rule="evenodd" stroke="#595959" stroke-linecap="butt" stroke-linejoin="round"/><path d="m224.47589 300.82544q0-1.859375.375-2.984375.390625-1.140625 1.140625-1.75.765625-.625 1.90625-.625.84375 0 1.46875.34375.640625.328125 1.0625.96875.421875.640625.65625 1.5625.234375.921875.234375 2.484375 0 1.84375-.390625 2.984375-.375 1.125-1.125 1.75-.75.609375-1.90625.609375-1.515625 0-2.390625-1.078125-1.03125-1.3125-1.03125-4.265625zm1.328125 0q0 2.578125.59375 3.4375.609375.859375 1.5.859375.890625 0 1.484375-.859375.609375-.859375.609375-3.4375 0-2.59375-.609375-3.4375-.59375-.859375-1.5-.859375-.890625 0-1.421875.75-.65625.96875-.65625 3.546875zm8.807358-.515625q-.796875-.296875-1.1875-.84375-.390625-.546875-.390625-1.296875 0-1.140625.8125-1.921875.828125-.78125 2.203125-.78125 1.375 0 2.203125.796875.84375.796875.84375 1.9375 0 .734375-.390625 1.28125-.375.53125-1.15625.828125.96875.3125 1.46875 1.015625.5.703125.5 1.671875 0 1.34375-.953125 2.265625-.9375.90625-2.5.90625-1.546875 0-2.5-.90625-.953125-.921875-.953125-2.296875 0-1.03125.515625-1.71875.515625-.6875 1.484375-.9375zm-.265625-2.1875q0 .75.484375 1.21875.484375.46875 1.25.46875.734375 0 1.203125-.46875.484375-.46875.484375-1.140625 0-.71875-.5-1.1875-.484375-.484375-1.203125-.484375-.734375 0-1.234375.46875-.484375.46875-.484375 1.125zm-.40625 4.84375q0 .5625.25 1.078125.265625.5.78125.796875.515625.28125 1.109375.28125.921875 0 1.515625-.59375.609375-.59375.609375-1.515625 0-.9375-.625-1.53125-.609375-.609375-1.546875-.609375-.90625 0-1.5.609375-.59375.59375-.59375 1.484375zm7.557358-3.109375v-1.453125h1.46875v1.453125zm0 6.140625v-1.46875h1.46875v1.46875zm8.196976 0h-1.28125v-8.203125q-.46875.4375-1.21875.890625-.75.4375-1.359375.65625v-1.25q1.078125-.5 1.890625-1.21875.8125-.734375 1.140625-1.40625h.828125zm3.3073578-2.765625 1.296875-.171875q.21875 1.09375.75 1.578125.53125.484375 1.296875.484375.90625 0 1.53125-.625.640625-.640625.640625-1.5625 0-.890625-.59375-1.46875-.578125-.578125-1.46875-.578125-.359375 0-.90625.140625l.140625-1.125q.125.015625.203125.015625.828125 0 1.484375-.421875.65625-.4375.65625-1.34375 0-.703125-.484375-1.15625-.46875-.46875-1.234375-.46875-.75 0-1.25.46875-.5.46875-.640625 1.421875l-1.28125-.234375q.234375-1.296875 1.0625-2 .84375-.71875 2.09375-.71875.859375 0 1.578125.375.71875.359375 1.09375 1 .390625.640625.390625 1.34375 0 .6875-.375 1.25-.359375.546875-1.0625.875.921875.21875 1.4375.90625.515625.671875.515625 1.6875 0 1.375-1 2.328125-1 .953125-2.53125.953125-1.390625 0-2.296875-.8125-.90625-.828125-1.046875-2.140625z" fill="#000"/><path d="m104 300.91733c0-9.445374 18.000267-17.102356 40.204727-17.102356 22.204453 0 40.204727 7.6569824 40.204727 17.102356 0 9.445374-18.000275 17.102356-40.204727 17.102356-22.20446 0-40.204727-7.6569824-40.204727-17.102356z" fill="#d9ead3" fill-rule="evenodd"/><path d="m104 300.91733c0-9.445374 18.000267-17.102356 40.204727-17.102356 22.204453 0 40.204727 7.6569824 40.204727 17.102356 0 9.445374-18.000275 17.102356-40.204727 17.102356-22.20446 0-40.204727-7.6569824-40.204727-17.102356z" fill-rule="evenodd" stroke="#595959" stroke-linecap="butt" stroke-linejoin="round"/><path d="m126.4759 300.82544q0-1.859375.375-2.984375.390625-1.140625 1.140625-1.75.7656174-.625 1.9062424-.625.84375 0 1.46875.34375.640625.328125 1.0625.96875.421875.640625.65625 1.5625.234375.921875.234375 2.484375 0 1.84375-.390625 2.984375-.375 1.125-1.125 1.75-.75.609375-1.90625.609375-1.515625 0-2.3906174-1.078125-1.03125-1.3125-1.03125-4.265625zm1.328125 0q0 2.578125.5937424 3.4375.609375.859375 1.5.859375.890625 0 1.484375-.859375.609375-.859375.609375-3.4375 0-2.59375-.609375-3.4375-.59375-.859375-1.5-.859375-.890625 0-1.421875.75-.6562424.96875-.6562424 3.546875zm8.80735-.515625q-.796875-.296875-1.1875-.84375-.390625-.546875-.390625-1.296875 0-1.140625.8125-1.921875.828125-.78125 2.203125-.78125 1.375 0 2.203125.796875.84375.796875.84375 1.9375 0 .734375-.390625 1.28125-.375.53125-1.15625.828125.96875.3125 1.46875 1.015625.5.703125.5 1.671875 0 1.34375-.953125 2.265625-.9375.90625-2.5.90625-1.546875 0-2.5-.90625-.953125-.921875-.953125-2.296875 0-1.03125.515625-1.71875.515625-.6875 1.484375-.9375zm-.265625-2.1875q0 .75.484375 1.21875.484375.46875 1.25.46875.734375 0 1.203125-.46875.484375-.46875.484375-1.140625 0-.71875-.5-1.1875-.484375-.484375-1.203125-.484375-.734375 0-1.234375.46875-.484375.46875-.484375 1.125zm-.40625 4.84375q0 .5625.25 1.078125.265625.5.78125.796875.515625.28125 1.109375.28125.921875 0 1.515625-.59375.609375-.59375.609375-1.515625 0-.9375-.625-1.53125-.609375-.609375-1.546875-.609375-.90625 0-1.5.609375-.59375.59375-.59375 1.484375zm7.557358-3.109375v-1.453125h1.46875v1.453125zm0 6.140625v-1.46875h1.46875v1.46875zm8.196976 0h-1.28125v-8.203125q-.46875.4375-1.21875.890625-.75.4375-1.359375.65625v-1.25q1.078125-.5 1.890625-1.21875.8125-.734375 1.140625-1.40625h.828125zm10.072983-1.234375v1.234375h-6.9375q-.015625-.46875.15625-.890625.265625-.71875.84375-1.40625.59375-.6875 1.6875-1.578125 1.71875-1.40625 2.3125-2.21875.609375-.828125.609375-1.5625 0-.765625-.5625-1.28125-.546875-.53125-1.421875-.53125-.921875 0-1.484375.5625-.5625.5625-.5625 1.546875l-1.328125-.140625q.140625-1.484375 1.015625-2.25.890625-.78125 2.390625-.78125 1.515625 0 2.390625.84375.875.828125.875 2.0625 0 .640625-.265625 1.25-.25.59375-.84375 1.265625-.59375.671875-1.984375 1.859375-1.15625.96875-1.484375 1.3125-.328125.34375-.546875.703125z" fill="#000"/><path d="m6 300.91733c0-9.445374 18.000269-17.102356 40.204723-17.102356 22.204456 0 40.204723 7.6569824 40.204723 17.102356 0 9.445374-18.000267 17.102356-40.204723 17.102356-22.204454 0-40.204723-7.6569824-40.204723-17.102356z" fill="#d8eeff" fill-rule="evenodd"/><path d="m6 300.91733c0-9.445374 18.000269-17.102356 40.204723-17.102356 22.204456 0 40.204723 7.6569824 40.204723 17.102356 0 9.445374-18.000267 17.102356-40.204723 17.102356-22.204454 0-40.204723-7.6569824-40.204723-17.102356z" fill-rule="evenodd" stroke="#595959" stroke-linecap="butt" stroke-linejoin="round"/><path d="m29.02017 300.82544q0-1.859375.375-2.984375.390625-1.140625 1.140625-1.75.765625-.625 1.9062481-.625.84375 0 1.46875.34375.640625.328125 1.0625.96875.421875.640625.65625 1.5625.234375.921875.234375 2.484375 0 1.84375-.390625 2.984375-.375 1.125-1.125 1.75-.75.609375-1.90625.609375-1.5156231 0-2.390623-1.078125-1.03125-1.3125-1.03125-4.265625zm1.328125 0q0 2.578125.59375 3.4375.609375.859375 1.4999981.859375.890625 0 1.484375-.859375.609375-.859375.609375-3.4375 0-2.59375-.609375-3.4375-.59375-.859375-1.5-.859375-.8906231 0-1.4218731.75-.65625.96875-.65625 3.546875zm8.807356-.515625q-.796875-.296875-1.1875-.84375-.390625-.546875-.390625-1.296875 0-1.140625.8125-1.921875.828125-.78125 2.203125-.78125 1.375 0 2.203125.796875.84375.796875.84375 1.9375 0 .734375-.390625 1.28125-.375.53125-1.15625.828125.96875.3125 1.46875 1.015625.5.703125.5 1.671875 0 1.34375-.953125 2.265625-.9375.90625-2.5.90625-1.546875 0-2.5-.90625-.953125-.921875-.953125-2.296875 0-1.03125.515625-1.71875.515625-.6875 1.484375-.9375zm-.265625-2.1875q0 .75.484375 1.21875.484375.46875 1.25.46875.734375 0 1.203125-.46875.484375-.46875.484375-1.140625 0-.71875-.5-1.1875-.484375-.484375-1.203125-.484375-.734375 0-1.234375.46875-.484375.46875-.484375 1.125zm-.40625 4.84375q0 .5625.25 1.078125.265625.5.78125.796875.515625.28125 1.109375.28125.921875 0 1.515625-.59375.609375-.59375.609375-1.515625 0-.9375-.625-1.53125-.609375-.609375-1.546875-.609375-.90625 0-1.5.609375-.59375.59375-.59375 1.484375zm7.557358-3.109375v-1.453125h1.46875v1.453125zm0 6.140625v-1.46875h1.46875v1.46875zm8.196976 0h-1.28125v-8.203125q-.46875.4375-1.21875.890625-.75.4375-1.359375.65625v-1.25q1.078125-.5 1.890625-1.21875.8125-.734375 1.140625-1.40625h.828125zm7.062561 0h-1.28125v-8.203125q-.46875.4375-1.21875.890625-.75.4375-1.359375.65625v-1.25q1.078125-.5 1.890625-1.21875.8125-.734375 1.140625-1.40625h.828125z" fill="#000"/><path d="m324 132.91733c0-9.445381 18.000275-17.102364 40.204712-17.102364 22.204468 0 40.204742 7.6569824 40.204742 17.102364 0 9.445374-18.000275 17.102356-40.204742 17.102356-22.204437 0-40.204712-7.6569824-40.204712-17.102356z" fill="#f4cccc" fill-rule="evenodd"/><path d="m324 132.91733c0-9.445381 18.000275-17.102364 40.204712-17.102364 22.204468 0 40.204742 7.6569824 40.204742 17.102364 0 9.445374-18.000275 17.102356-40.204742 17.102356-22.204437 0-40.204712-7.6569824-40.204712-17.102356z" fill-rule="evenodd" stroke="#595959" stroke-linecap="butt" stroke-linejoin="round"/><path d="m346.4759 132.82545q0-1.859375.375-2.984375.390625-1.140625 1.140625-1.75.765625-.6250076 1.90625-.6250076.84375 0 1.46875.34375.640625.32813263 1.0625.9687576.421875.640625.65625 1.5625.234375.921875.234375 2.484375 0 1.84375-.390625 2.984375-.375 1.125-1.125 1.75-.75.609375-1.90625.609375-1.515625 0-2.390625-1.078125-1.03125-1.3125-1.03125-4.265625zm1.328125 0q0 2.578125.59375 3.4375.609375.859375 1.5.859375.890625 0 1.484375-.859375.609375-.859375.609375-3.4375 0-2.59375-.609375-3.4375-.59375-.859375-1.5-.859375-.890625 0-1.421875.75-.65625.96875-.65625 3.546875zm8.807373-.515625q-.796875-.296875-1.1875-.84375-.390625-.546875-.390625-1.296875 0-1.140625.8125-1.921875.828125-.7812576 2.203125-.7812576 1.375 0 2.203125.7968826.84375.796875.84375 1.9375 0 .734375-.390625 1.28125-.375.53125-1.15625.828125.96875.3125 1.46875 1.015625.5.703125.5 1.671875 0 1.34375-.953125 2.265625-.9375.90625-2.5.90625-1.546875 0-2.5-.90625-.953125-.921875-.953125-2.296875 0-1.03125.515625-1.71875.515625-.6875 1.484375-.9375zm-.265625-2.1875q0 .75.484375 1.21875.484375.46875 1.25.46875.734375 0 1.203125-.46875.484375-.46875.484375-1.140625 0-.71875-.5-1.1875-.484375-.484375-1.203125-.484375-.734375 0-1.234375.46875-.484375.46875-.484375 1.125zm-.40625 4.84375q0 .5625.25 1.078125.265625.5.78125.796875.515625.28125 1.109375.28125.921875 0 1.515625-.59375.609375-.59375.609375-1.515625 0-.9375-.625-1.53125-.609375-.609375-1.546875-.609375-.90625 0-1.5.609375-.59375.59375-.59375 1.484375zm7.5573425-3.109375v-1.453125h1.46875v1.453125zm0 6.140625v-1.46875h1.46875v1.46875zm8.196991 0h-1.28125v-8.203125q-.46875.4375-1.21875.890625-.75.4375-1.359375.65625v-1.25q1.078125-.5 1.890625-1.21875.8125-.734375 1.140625-1.4062576h.828125v10.531258zm7.4323425 0v-2.515625h-4.546875v-1.171875l4.78125-6.7968826h1.0625v6.7968826h1.40625v1.171875h-1.40625v2.515625zm0-3.6875v-4.734375l-3.28125 4.734375z" fill="#000"/><path d="m226 132.91733c0-9.445381 18.000275-17.102364 40.204712-17.102364 22.204468 0 40.204742 7.6569824 40.204742 17.102364 0 9.445374-18.000275 17.102356-40.204742 17.102356-22.204437 0-40.204712-7.6569824-40.204712-17.102356z" fill="#fce5cd" fill-rule="evenodd"/><path d="m226 132.91733c0-9.445381 18.000275-17.102364 40.204712-17.102364 22.204468 0 40.204742 7.6569824 40.204742 17.102364 0 9.445374-18.000275 17.102356-40.204742 17.102356-22.204437 0-40.204712-7.6569824-40.204712-17.102356z" fill-rule="evenodd" stroke="#595959" stroke-linecap="butt" stroke-linejoin="round"/><path d="m248.47589 132.82545q0-1.859375.375-2.984375.390625-1.140625 1.140625-1.75.765625-.6250076 1.90625-.6250076.84375 0 1.46875.34375.640625.32813263 1.0625.9687576.421875.640625.65625 1.5625.234375.921875.234375 2.484375 0 1.84375-.390625 2.984375-.375 1.125-1.125 1.75-.75.609375-1.90625.609375-1.515625 0-2.390625-1.078125-1.03125-1.3125-1.03125-4.265625zm1.328125 0q0 2.578125.59375 3.4375.609375.859375 1.5.859375.890625 0 1.484375-.859375.609375-.859375.609375-3.4375 0-2.59375-.609375-3.4375-.59375-.859375-1.5-.859375-.890625 0-1.421875.75-.65625.96875-.65625 3.546875zm8.807373-.515625q-.796875-.296875-1.1875-.84375-.390625-.546875-.390625-1.296875 0-1.140625.8125-1.921875.828125-.7812576 2.203125-.7812576 1.375 0 2.203125.7968826.84375.796875.84375 1.9375 0 .734375-.390625 1.28125-.375.53125-1.15625.828125.96875.3125 1.46875 1.015625.5.703125.5 1.671875 0 1.34375-.953125 2.265625-.9375.90625-2.5.90625-1.546875 0-2.5-.90625-.953125-.921875-.953125-2.296875 0-1.03125.515625-1.71875.515625-.6875 1.484375-.9375zm-.265625-2.1875q0 .75.484375 1.21875.484375.46875 1.25.46875.734375 0 1.203125-.46875.484375-.46875.484375-1.140625 0-.71875-.5-1.1875-.484375-.484375-1.203125-.484375-.734375 0-1.234375.46875-.484375.46875-.484375 1.125zm-.40625 4.84375q0 .5625.25 1.078125.265625.5.78125.796875.515625.28125 1.109375.28125.921875 0 1.515625-.59375.609375-.59375.609375-1.515625 0-.9375-.625-1.53125-.609375-.609375-1.546875-.609375-.90625 0-1.5.609375-.59375.59375-.59375 1.484375zm7.5573425-3.109375v-1.453125h1.46875v1.453125zm0 6.140625v-1.46875h1.46875v1.46875zm8.196991 0h-1.28125v-8.203125q-.46875.4375-1.21875.890625-.75.4375-1.359375.65625v-1.25q1.078125-.5 1.890625-1.21875.8125-.734375 1.140625-1.4062576h.828125v10.531258zm3.3073425-2.765625 1.296875-.171875q.21875 1.09375.75 1.578125.53125.484375 1.296875.484375.90625 0 1.53125-.625.640625-.640625.640625-1.5625 0-.890625-.59375-1.46875-.578125-.578125-1.46875-.578125-.359375 0-.90625.140625l.140625-1.125q.125.015625.203125.015625.828125 0 1.484375-.421875.65625-.4375.65625-1.34375 0-.703125-.484375-1.15625-.46875-.46875-1.234375-.46875-.75 0-1.25.46875-.5.46875-.640625 1.421875l-1.28125-.234375q.234375-1.296875 1.0625-2 .84375-.7187576 2.09375-.7187576.859375 0 1.578125.375.71875.35938263 1.09375 1.0000076.390625.640625.390625 1.34375 0 .6875-.375 1.25-.359375.546875-1.0625.875.921875.21875 1.4375.90625.515625.671875.515625 1.6875 0 1.375-1 2.328125-1 .953125-2.53125.953125-1.390625 0-2.296875-.8125-.90625-.828125-1.046875-2.140625z" fill="#000"/><path d="m520 132.91733c0-9.445381 18.000244-17.102364 40.204712-17.102364 22.204468 0 40.204712 7.6569824 40.204712 17.102364 0 9.445374-18.000244 17.102356-40.204712 17.102356-22.204468 0-40.204712-7.6569824-40.204712-17.102356z" fill="#d9ead3" fill-rule="evenodd"/><path d="m520 132.91733c0-9.445381 18.000244-17.102364 40.204712-17.102364 22.204468 0 40.204712 7.6569824 40.204712 17.102364 0 9.445374-18.000244 17.102356-40.204712 17.102356-22.204468 0-40.204712-7.6569824-40.204712-17.102356z" fill-rule="evenodd" stroke="#595959" stroke-linecap="butt" stroke-linejoin="round"/><path d="m542.4759 132.82545q0-1.859375.375-2.984375.390625-1.140625 1.140625-1.75.765625-.6250076 1.90625-.6250076.84375 0 1.46875.34375.640625.32813263 1.0625.9687576.421875.640625.65625 1.5625.234375.921875.234375 2.484375 0 1.84375-.390625 2.984375-.375 1.125-1.125 1.75-.75.609375-1.90625.609375-1.515625 0-2.390625-1.078125-1.03125-1.3125-1.03125-4.265625zm1.328125 0q0 2.578125.59375 3.4375.609375.859375 1.5.859375.890625 0 1.484375-.859375.609375-.859375.609375-3.4375 0-2.59375-.609375-3.4375-.59375-.859375-1.5-.859375-.890625 0-1.421875.75-.65625.96875-.65625 3.546875zm8.807373-.515625q-.796875-.296875-1.1875-.84375-.390625-.546875-.390625-1.296875 0-1.140625.8125-1.921875.828125-.7812576 2.203125-.7812576 1.375 0 2.203125.7968826.84375.796875.84375 1.9375 0 .734375-.390625 1.28125-.375.53125-1.15625.828125.96875.3125 1.46875 1.015625.5.703125.5 1.671875 0 1.34375-.953125 2.265625-.9375.90625-2.5.90625-1.546875 0-2.5-.90625-.953125-.921875-.953125-2.296875 0-1.03125.515625-1.71875.515625-.6875 1.484375-.9375zm-.265625-2.1875q0 .75.484375 1.21875.484375.46875 1.25.46875.734375 0 1.203125-.46875.484375-.46875.484375-1.140625 0-.71875-.5-1.1875-.484375-.484375-1.203125-.484375-.734375 0-1.234375.46875-.484375.46875-.484375 1.125zm-.40625 4.84375q0 .5625.25 1.078125.265625.5.78125.796875.515625.28125 1.109375.28125.921875 0 1.515625-.59375.609375-.59375.609375-1.515625 0-.9375-.625-1.53125-.609375-.609375-1.546875-.609375-.90625 0-1.5.609375-.59375.59375-.59375 1.484375zm7.557373-3.109375v-1.453125h1.46875v1.453125zm0 6.140625v-1.46875h1.46875v1.46875zm8.19696 0h-1.28125v-8.203125q-.46875.4375-1.21875.890625-.75.4375-1.359375.65625v-1.25q1.078125-.5 1.890625-1.21875.8125-.734375 1.140625-1.4062576h.828125v10.531258zm10.072998-1.234375v1.234375h-6.9375q-.015625-.46875.15625-.890625.265625-.71875.84375-1.40625.59375-.6875 1.6875-1.578125 1.71875-1.40625 2.3125-2.21875.609375-.828125.609375-1.5625 0-.765625-.5625-1.28125-.546875-.53125-1.421875-.53125-.921875 0-1.484375.5625-.5625.5625-.5625 1.546875l-1.328125-.140625q.140625-1.484375 1.015625-2.25.890625-.7812576 2.390625-.7812576 1.515625 0 2.390625.8437576.875.828125.875 2.0625 0 .640625-.265625 1.25-.25.59375-.84375 1.265625-.59375.671875-1.984375 1.859375-1.15625.96875-1.484375 1.3125-.328125.34375-.546875.703125z" fill="#000"/><path d="m422 132.91733c0-9.445381 18.000275-17.102364 40.204712-17.102364 22.204468 0 40.204742 7.6569824 40.204742 17.102364 0 9.445374-18.000275 17.102356-40.204742 17.102356-22.204437 0-40.204712-7.6569824-40.204712-17.102356z" fill="#d8eeff" fill-rule="evenodd"/><path d="m422 132.91733c0-9.445381 18.000275-17.102364 40.204712-17.102364 22.204468 0 40.204742 7.6569824 40.204742 17.102364 0 9.445374-18.000275 17.102356-40.204742 17.102356-22.204437 0-40.204712-7.6569824-40.204712-17.102356z" fill-rule="evenodd" stroke="#595959" stroke-linecap="butt" stroke-linejoin="round"/><path d="m445.02017 132.82545q0-1.859375.375-2.984375.390625-1.140625 1.140625-1.75.765625-.6250076 1.90625-.6250076.84375 0 1.46875.34375.640625.32813263 1.0625.9687576.421875.640625.65625 1.5625.234375.921875.234375 2.484375 0 1.84375-.390625 2.984375-.375 1.125-1.125 1.75-.75.609375-1.90625.609375-1.515625 0-2.390625-1.078125-1.03125-1.3125-1.03125-4.265625zm1.328125 0q0 2.578125.59375 3.4375.609375.859375 1.5.859375.890625 0 1.484375-.859375.609375-.859375.609375-3.4375 0-2.59375-.609375-3.4375-.59375-.859375-1.5-.859375-.890625 0-1.421875.75-.65625.96875-.65625 3.546875zm8.807343-.515625q-.796875-.296875-1.1875-.84375-.390625-.546875-.390625-1.296875 0-1.140625.8125-1.921875.828125-.7812576 2.203125-.7812576 1.375 0 2.203125.7968826.84375.796875.84375 1.9375 0 .734375-.390625 1.28125-.375.53125-1.15625.828125.96875.3125 1.46875 1.015625.5.703125.5 1.671875 0 1.34375-.953125 2.265625-.9375.90625-2.5.90625-1.546875 0-2.5-.90625-.953125-.921875-.953125-2.296875 0-1.03125.515625-1.71875.515625-.6875 1.484375-.9375zm-.265625-2.1875q0 .75.484375 1.21875.484375.46875 1.25.46875.734375 0 1.203125-.46875.484375-.46875.484375-1.140625 0-.71875-.5-1.1875-.484375-.484375-1.203125-.484375-.734375 0-1.234375.46875-.484375.46875-.484375 1.125zm-.40625 4.84375q0 .5625.25 1.078125.265625.5.78125.796875.515625.28125 1.109375.28125.921875 0 1.515625-.59375.609375-.59375.609375-1.515625 0-.9375-.625-1.53125-.609375-.609375-1.546875-.609375-.90625 0-1.5.609375-.59375.59375-.59375 1.484375zm7.557373-3.109375v-1.453125h1.46875v1.453125zm0 6.140625v-1.46875h1.46875v1.46875zm8.19696 0h-1.28125v-8.203125q-.46875.4375-1.21875.890625-.75.4375-1.359375.65625v-1.25q1.078125-.5 1.890625-1.21875.8125-.734375 1.140625-1.4062576h.828125v10.531258zm7.062561 0h-1.28125v-8.203125q-.46875.4375-1.21875.890625-.75.4375-1.359375.65625v-1.25q1.078125-.5 1.890625-1.21875.8125-.734375 1.140625-1.4062576h.828125v10.531258z" fill="#000"/><path d="m266.2047 150.01968-23.999985 133.79529" fill="none"/><path d="m266.2047 150.01968-22.940628 127.88953" fill-rule="evenodd" stroke="#000" stroke-linecap="butt" stroke-linejoin="round"/><path d="m241.6383 277.61758.8245392 4.7584534 2.4270325-4.175171z" fill="#000" fill-rule="evenodd" stroke="#000" stroke-linecap="butt"/><path d="m364.2047 150.01968-24 133.79529" fill="none"/><path d="m364.2047 150.01968-22.940613 127.88953" fill-rule="evenodd" stroke="#000" stroke-linecap="butt" stroke-linejoin="round"/><path d="m339.6383 277.61758.8245239 4.7584534 2.4270325-4.175171z" fill="#000" fill-rule="evenodd" stroke="#000" stroke-linecap="butt"/><path d="m433.7757 145.01051-359.1496 143.81102" fill="none"/><path d="m433.77567 145.01051-353.57953 141.58067" fill-rule="evenodd" stroke="#000" stroke-linecap="butt" stroke-linejoin="round"/><path d="m79.582146 285.0578-3.598915 3.2203064 4.8269043-.15356445z" fill="#000" fill-rule="evenodd" stroke="#000" stroke-linecap="butt"/><path d="m531.7757 145.01051-359.1496 143.81102" fill="none"/><path d="m531.7757 145.01051-353.57956 141.58067" fill-rule="evenodd" stroke="#000" stroke-linecap="butt" stroke-linejoin="round"/><path d="m177.58214 285.0578-3.5989075 3.2203064 4.8269043-.15356445z" fill="#000" fill-rule="evenodd" stroke="#000" stroke-linecap="butt"/><path d="m334.4987 103.37664c-1.7497864.5831146-7.665344 1.4155731-10.498688 3.4986877-2.8333435 2.0831146-5.084442 5.9164505-6.5013123 9-1.4169006 3.0835495-1.7502136 5.751091-2 9.501312-.24978638 3.7502213.75109863 13.5835495.50131226 13.000008-.24978638-.5835571-.8333435-12.251099-2-16.50132-1.1666565-4.2502213-2.8333435-6.333336-5-9-2.1666565-2.6666641-5.6666565-5.5-8-7s-5-1.6666641-6-2" fill="none"/><path d="m334.4987 103.37664c-1.7497864.5831146-7.665344 1.4155731-10.498688 3.4986877-2.8333435 2.0831146-5.084442 5.9164505-6.5013123 9-1.4169006 3.0835495-1.7502136 5.751091-2 9.501312-.24978638 3.7502213.75109863 13.5835495.50131226 13.000008-.24978638-.5835571-.8333435-12.251099-2-16.50132-1.1666565-4.2502213-2.8333435-6.333336-5-9-2.1666565-2.6666641-5.6666565-5.5-8-7s-5-1.6666641-6-2" fill-rule="evenodd" stroke="#000" stroke-linecap="butt" stroke-linejoin="round"/><path d="m255.75722 69.77034h117.98424v33.6063h-117.98424z" fill="none"/><path d="m280.80405 94.13034-2.546875-8.296875h1.453125l1.328125 4.78125.484375 1.78125q.03125-.125.4375-1.703125l1.3125-4.859375h1.453125l1.234375 4.8125.421875 1.578125.46875-1.59375 1.421875-4.796875h1.375l-2.59375 8.296875h-1.46875l-1.3125-4.96875-.328125-1.421875-1.671875 6.390625zm10.0234375 0v-8.296875h1.25v1.15625q.390625-.609375 1.03125-.96875.65625-.375 1.484375-.375.921875 0 1.515625.390625.59375.375.828125 1.0625.984375-1.453125 2.5625-1.453125 1.234375 0 1.890625.6875.671875.671875.671875 2.09375v5.703125h-1.390625v-5.234375q0-.84375-.140625-1.203125-.140625-.375-.5-.59375-.359375-.234375-.84375-.234375-.875 0-1.453125.578125-.578125.578125-.578125 1.859375v4.828125h-1.40625v-5.390625q0-.9375-.34375-1.40625-.34375-.46875-1.125-.46875-.59375 0-1.09375.3125-.5.3125-.734375.921875-.21875.59375-.21875 1.71875v4.3125zm20.71875-6.734375h-7.5625v-1.3125h7.5625zm0 3.46875h-7.5625v-1.3125h7.5625zm1.5625-2.390625q0-2.03125.40625-3.265625.421875-1.234375 1.25-1.90625.828125-.671875 2.078125-.671875.921875 0 1.609375.375.703125.359375 1.15625 1.0625.453125.703125.703125 1.703125.265625 1 .265625 2.703125 0 2.015625-.421875 3.265625-.40625 1.234375-1.234375 1.921875-.828125.671875-2.078125.671875-1.65625 0-2.609375-1.203125-1.125-1.421875-1.125-4.65625zm1.4375 0q0 2.828125.65625 3.765625.671875.921875 1.640625.921875.96875 0 1.625-.9375.65625-.9375.65625-3.75 0-2.828125-.65625-3.75-.65625-.9375-1.640625-.9375-.96875 0-1.546875.828125-.734375 1.046875-.734375 3.859375zm9.6171875-.5625q-.875-.3125-1.296875-.90625-.421875-.59375-.421875-1.421875 0-1.25.890625-2.09375.90625-.859375 2.40625-.859375 1.5 0 2.40625.875.921875.859375.921875 2.109375 0 .796875-.421875 1.390625-.421875.59375-1.265625.90625 1.046875.34375 1.59375 1.109375.5625.765625.5625 1.828125 0 1.46875-1.046875 2.484375-1.03125 1-2.734375 1-1.6875 0-2.734375-1-1.03125-1.015625-1.03125-2.515625 0-1.125.5625-1.875.5625-.75 1.609375-1.03125zm-.28125-2.375q0 .8125.515625 1.328125.53125.515625 1.375.515625.8125 0 1.328125-.515625.515625-.515625.515625-1.25 0-.78125-.53125-1.296875-.53125-.53125-1.328125-.53125-.8125 0-1.34375.515625-.53125.515625-.53125 1.234375zm-.453125 5.28125q0 .609375.28125 1.171875.296875.5625.859375.875.5625.296875 1.203125.296875 1.015625 0 1.671875-.640625.65625-.65625.65625-1.65625 0-1.015625-.6875-1.671875-.671875-.671875-1.6875-.671875-.984375 0-1.640625.65625-.65625.65625-.65625 1.640625zm8.2578125-3.390625v-1.59375h1.59375v1.59375zm0 6.703125v-1.609375h1.59375v1.609375zm8.9609375 0h-1.40625v-8.96875q-.515625.484375-1.34375.96875-.8125.484375-1.46875.734375v-1.359375q1.171875-.5625 2.046875-1.34375.890625-.796875 1.265625-1.53125h.90625zm7.7109375 0h-1.40625v-8.96875q-.515625.484375-1.34375.96875-.8125.484375-1.46875.734375v-1.359375q1.171875-.5625 2.046875-1.34375.890625-.796875 1.265625-1.53125h.90625z" fill="#000"/><path d="m432.95276 103.37664c-1.7497864.5831146-7.665344 1.4155731-10.498688 3.4986877-2.8333435 2.0831146-5.084442 5.9164505-6.5013123 9-1.4169006 3.0835495-1.7502136 5.751091-2 9.501312-.24978638 3.7502213.75109863 13.5835495.50131226 13.000008-.24978638-.5835571-.8333435-12.251099-2-16.50132-1.1666565-4.2502213-2.8333435-6.333336-5-9-2.1666565-2.6666641-5.6666565-5.5-8-7s-5-1.6666641-6-2" fill="none"/><path d="m432.95276 103.37664c-1.7497864.5831146-7.665344 1.4155731-10.498688 3.4986877-2.8333435 2.0831146-5.084442 5.9164505-6.5013123 9-1.4169006 3.0835495-1.7502136 5.751091-2 9.501312-.24978638 3.7502213.75109863 13.5835495.50131226 13.000008-.24978638-.5835571-.8333435-12.251099-2-16.50132-1.1666565-4.2502213-2.8333435-6.333336-5-9-2.1666565-2.6666641-5.6666565-5.5-8-7s-5-1.6666641-6-2" fill-rule="evenodd" stroke="#000" stroke-linecap="butt" stroke-linejoin="round"/><path d="m354.21127 69.77034h117.98425v33.6063h-117.98425z" fill="none"/><path d="m378.66434 94.13034-2.546875-8.296875h1.453125l1.328125 4.78125.484375 1.78125q.03125-.125.4375-1.703125l1.3125-4.859375h1.453125l1.234375 4.8125.421875 1.578125.46875-1.59375 1.421875-4.796875h1.375l-2.59375 8.296875h-1.46875l-1.3125-4.96875-.328125-1.421875-1.671875 6.390625zm10.0234375 0v-8.296875h1.25v1.15625q.390625-.609375 1.03125-.96875.65625-.375 1.484375-.375.921875 0 1.515625.390625.59375.375.828125 1.0625.984375-1.453125 2.5625-1.453125 1.234375 0 1.890625.6875.671875.671875.671875 2.09375v5.703125h-1.390625v-5.234375q0-.84375-.140625-1.203125-.140625-.375-.5-.59375-.359375-.234375-.84375-.234375-.875 0-1.453125.578125-.578125.578125-.578125 1.859375v4.828125h-1.40625v-5.390625q0-.9375-.34375-1.40625-.34375-.46875-1.125-.46875-.59375 0-1.09375.3125-.5.3125-.734375.921875-.21875.59375-.21875 1.71875v4.3125zm20.71875-6.734375h-7.5625v-1.3125h7.5625zm0 3.46875h-7.5625v-1.3125h7.5625zm1.5625-2.390625q0-2.03125.40625-3.265625.421875-1.234375 1.25-1.90625.828125-.671875 2.078125-.671875.921875 0 1.609375.375.703125.359375 1.15625 1.0625.453125.703125.703125 1.703125.265625 1 .265625 2.703125 0 2.015625-.421875 3.265625-.40625 1.234375-1.234375 1.921875-.828125.671875-2.078125.671875-1.65625 0-2.609375-1.203125-1.125-1.421875-1.125-4.65625zm1.4375 0q0 2.828125.65625 3.765625.671875.921875 1.640625.921875.96875 0 1.625-.9375.65625-.9375.65625-3.75 0-2.828125-.65625-3.75-.65625-.9375-1.640625-.9375-.96875 0-1.546875.828125-.734375 1.046875-.734375 3.859375zm9.6171875-.5625q-.875-.3125-1.296875-.90625-.421875-.59375-.421875-1.421875 0-1.25.890625-2.09375.90625-.859375 2.40625-.859375 1.5 0 2.40625.875.921875.859375.921875 2.109375 0 .796875-.421875 1.390625-.421875.59375-1.265625.90625 1.046875.34375 1.59375 1.109375.5625.765625.5625 1.828125 0 1.46875-1.046875 2.484375-1.03125 1-2.734375 1-1.6875 0-2.734375-1-1.03125-1.015625-1.03125-2.515625 0-1.125.5625-1.875.5625-.75 1.609375-1.03125zm-.28125-2.375q0 .8125.515625 1.328125.53125.515625 1.375.515625.8125 0 1.328125-.515625.515625-.515625.515625-1.25 0-.78125-.53125-1.296875-.53125-.53125-1.328125-.53125-.8125 0-1.34375.515625-.53125.515625-.53125 1.234375zm-.453125 5.28125q0 .609375.28125 1.171875.296875.5625.859375.875.5625.296875 1.203125.296875 1.015625 0 1.671875-.640625.65625-.65625.65625-1.65625 0-1.015625-.6875-1.671875-.671875-.671875-1.6875-.671875-.984375 0-1.640625.65625-.65625.65625-.65625 1.640625zm8.2578125-3.390625v-1.59375h1.59375v1.59375zm0 6.703125v-1.609375h1.59375v1.609375zm8.9609375 0h-1.40625v-8.96875q-.515625.484375-1.34375.96875-.8125.484375-1.46875.734375v-1.359375q1.171875-.5625 2.046875-1.34375.890625-.796875 1.265625-1.53125h.90625zm10.9921875-1.359375v1.359375h-7.578125q-.015625-.515625.171875-.984375.28125-.765625.921875-1.515625.640625-.75 1.84375-1.734375 1.859375-1.53125 2.515625-2.421875.65625-.90625.65625-1.703125 0-.828125-.59375-1.40625-.59375-.578125-1.5625-.578125-1.015625 0-1.625.609375-.609375.609375-.609375 1.6875l-1.453125-.140625q.15625-1.625 1.125-2.46875.96875-.84375 2.59375-.84375 1.65625 0 2.609375.921875.96875.90625.96875 2.25 0 .6875-.28125 1.359375-.28125.65625-.9375 1.390625-.65625.734375-2.171875 2.015625-1.265625 1.0625-1.625 1.453125-.359375.375-.59375.75z" fill="#000"/><path d="m528.4514 103.37664c-1.7497559.5831146-7.665344 1.4155731-10.498657 3.4986877s-5.0844116 5.9164505-6.5013123 9c-1.4169006 3.0835495-1.7502136 5.751091-2 9.501312-.24978638 3.7502213.75109863 13.5835495.50131226 13.000008-.24978638-.5835571-.8333435-12.251099-2-16.50132-1.1666565-4.2502213-2.8333435-6.333336-5-9-2.1666565-2.6666641-5.6666565-5.5-8-7s-5-1.6666641-6-2" fill="none"/><path d="m528.4514 103.37664c-1.7497559.5831146-7.665344 1.4155731-10.498657 3.4986877s-5.0844116 5.9164505-6.5013123 9c-1.4169006 3.0835495-1.7502136 5.751091-2 9.501312-.24978638 3.7502213.75109863 13.5835495.50131226 13.000008-.24978638-.5835571-.8333435-12.251099-2-16.50132-1.1666565-4.2502213-2.8333435-6.333336-5-9-2.1666565-2.6666641-5.6666565-5.5-8-7s-5-1.6666641-6-2" fill-rule="evenodd" stroke="#000" stroke-linecap="butt" stroke-linejoin="round"/><path d="m628.416 103.37664c-1.7498169.5831146-7.665344 1.4155731-10.498718 3.4986877-2.833313 2.0831146-5.0844116 5.9164505-6.5012817 9s-1.7502441 5.751091-2 9.501312c-.2498169 3.7502213.75109863 13.5835495.50128174 13.000008-.24975586-.5835571-.833313-12.251099-2-16.50132-1.166626-4.2502213-2.833313-6.333336-5-9-2.166626-2.6666641-5.666626-5.5-8-7-2.333313-1.5-5-1.6666641-6-2" fill="none"/><path d="m628.416 103.37664c-1.7498169.5831146-7.665344 1.4155731-10.498718 3.4986877-2.833313 2.0831146-5.0844116 5.9164505-6.5012817 9s-1.7502441 5.751091-2 9.501312c-.2498169 3.7502213.75109863 13.5835495.50128174 13.000008-.24975586-.5835571-.833313-12.251099-2-16.50132-1.166626-4.2502213-2.833313-6.333336-5-9-2.166626-2.6666641-5.666626-5.5-8-7-2.333313-1.5-5-1.6666641-6-2" fill-rule="evenodd" stroke="#000" stroke-linecap="butt" stroke-linejoin="round"/><path d="m549.67456 69.77034h117.98425v33.6063h-117.98425z" fill="none"/><path d="m574.1276 94.13034-2.546875-8.296875h1.453125l1.328125 4.78125.484375 1.78125q.03125-.125.4375-1.703125l1.3125-4.859375h1.453125l1.234375 4.8125.421875 1.578125.46875-1.59375 1.421875-4.796875h1.375l-2.59375 8.296875h-1.46875l-1.3125-4.96875-.328125-1.421875-1.671875 6.390625zm10.0234375 0v-8.296875h1.25v1.15625q.390625-.609375 1.03125-.96875.65625-.375 1.484375-.375.921875 0 1.515625.390625.59375.375.828125 1.0625.984375-1.453125 2.5625-1.453125 1.234375 0 1.890625.6875.671875.671875.671875 2.09375v5.703125h-1.390625v-5.234375q0-.84375-.140625-1.203125-.140625-.375-.5-.59375-.359375-.234375-.84375-.234375-.875 0-1.453125.578125-.578125.578125-.578125 1.859375v4.828125h-1.40625v-5.390625q0-.9375-.34375-1.40625-.34375-.46875-1.125-.46875-.59375 0-1.09375.3125-.5.3125-.734375.921875-.21875.59375-.21875 1.71875v4.3125zm20.71875-6.734375h-7.5625v-1.3125h7.5625zm0 3.46875h-7.5625v-1.3125h7.5625zm1.5625-2.390625q0-2.03125.40625-3.265625.421875-1.234375 1.25-1.90625.828125-.671875 2.078125-.671875.921875 0 1.609375.375.703125.359375 1.15625 1.0625.453125.703125.703125 1.703125.265625 1 .265625 2.703125 0 2.015625-.421875 3.265625-.40625 1.234375-1.234375 1.921875-.828125.671875-2.078125.671875-1.65625 0-2.609375-1.203125-1.125-1.421875-1.125-4.65625zm1.4375 0q0 2.828125.65625 3.765625.671875.921875 1.640625.921875.96875 0 1.625-.9375.65625-.9375.65625-3.75 0-2.828125-.65625-3.75-.65625-.9375-1.640625-.9375-.96875 0-1.546875.828125-.734375 1.046875-.734375 3.859375zm9.6171875-.5625q-.875-.3125-1.296875-.90625-.421875-.59375-.421875-1.421875 0-1.25.890625-2.09375.90625-.859375 2.40625-.859375 1.5 0 2.40625.875.921875.859375.921875 2.109375 0 .796875-.421875 1.390625-.421875.59375-1.265625.90625 1.046875.34375 1.59375 1.109375.5625.765625.5625 1.828125 0 1.46875-1.046875 2.484375-1.03125 1-2.734375 1-1.6875 0-2.734375-1-1.03125-1.015625-1.03125-2.515625 0-1.125.5625-1.875.5625-.75 1.609375-1.03125zm-.28125-2.375q0 .8125.515625 1.328125.53125.515625 1.375.515625.8125 0 1.328125-.515625.515625-.515625.515625-1.25 0-.78125-.53125-1.296875-.53125-.53125-1.328125-.53125-.8125 0-1.34375.515625-.53125.515625-.53125 1.234375zm-.453125 5.28125q0 .609375.28125 1.171875.296875.5625.859375.875.5625.296875 1.203125.296875 1.015625 0 1.671875-.640625.65625-.65625.65625-1.65625 0-1.015625-.6875-1.671875-.671875-.671875-1.6875-.671875-.984375 0-1.640625.65625-.65625.65625-.65625 1.640625zm8.2578125-3.390625v-1.59375h1.59375v1.59375zm0 6.703125v-1.609375h1.59375v1.609375zm8.9609375 0h-1.40625v-8.96875q-.515625.484375-1.34375.96875-.8125.484375-1.46875.734375v-1.359375q1.171875-.5625 2.046875-1.34375.890625-.796875 1.265625-1.53125h.90625zm10.9921875-1.359375v1.359375h-7.578125q-.015625-.515625.171875-.984375.28125-.765625.921875-1.515625.640625-.75 1.84375-1.734375 1.859375-1.53125 2.515625-2.421875.65625-.90625.65625-1.703125 0-.828125-.59375-1.40625-.59375-.578125-1.5625-.578125-1.015625 0-1.625.609375-.609375.609375-.609375 1.6875l-1.453125-.140625q.15625-1.625 1.125-2.46875.96875-.84375 2.59375-.84375 1.65625 0 2.609375.921875.96875.90625.96875 2.25 0 .6875-.28125 1.359375-.28125.65625-.9375 1.390625-.65625.734375-2.171875 2.015625-1.265625 1.0625-1.625 1.453125-.359375.375-.59375.75z" fill="#000"/><path d="m46.204723 341.10104v57.385834" fill="none"/><path d="m46.204723 341.10104v57.385834" fill-rule="evenodd" stroke="#595959" stroke-linecap="butt" stroke-linejoin="round"/><path d="m340.2047 340.09317v58.393707" fill="none"/><path d="m340.2047 340.09317v58.393707" fill-rule="evenodd" stroke="#595959" stroke-linecap="butt" stroke-linejoin="round"/><path d="m46.204723 385.48688h293.48032" fill="none"/><g fill-rule="evenodd" stroke-linecap="butt"><path d="m49.631813 385.48688h286.62616" stroke="#595959" stroke-linejoin="round"/><path d="m49.63181 385.48688 1.1245842-1.1245728-3.0897675 1.1245728 3.0897675 1.1245728z" fill="#595959" stroke="#595959"/><path d="m336.25797 385.48688-1.1246033 1.1245728 3.0897827-1.1245728-3.0897827-1.1245728z" fill="#595959" stroke="#595959"/></g><path d="m46.204723 345.78085h293.48032v46.015747h-293.48032z" fill="none"/><path d="m149.95467 372.70084v-13.359375h1.78125v11.78125h6.5625v1.578125zm16.563217-1.1875q-.921875.765625-1.765625 1.09375-.828125.3125-1.796875.3125-1.59375 0-2.453125-.78125-.859375-.78125-.859375-1.984375 0-.71875.328125-1.296875.328125-.59375.84375-.9375.53125-.359375 1.1875-.546875.46875-.125 1.453125-.25 1.984375-.234375 2.921875-.5625.015625-.34375.015625-.421875 0-1-.46875-1.421875-.625-.546875-1.875-.546875-1.15625 0-1.703125.40625-.546875.40625-.8125 1.421875l-1.609375-.21875q.21875-1.015625.71875-1.640625.5-.640625 1.453125-.984375.953125-.34375 2.1875-.34375 1.25 0 2.015625.296875.78125.28125 1.140625.734375.375.4375.515625 1.109375.078125.421875.078125 1.515625v2.1875q0 2.28125.109375 2.890625.109375.59375.40625 1.15625h-1.703125q-.265625-.515625-.328125-1.1875zm-.140625-3.671875q-.890625.375-2.671875.625-1.015625.140625-1.4375.328125-.421875.1875-.65625.53125-.21875.34375-.21875.78125 0 .65625.5 1.09375.5.4375 1.453125.4375.9375 0 1.671875-.40625.75-.421875 1.09375-1.140625.265625-.5625.265625-1.640625zm3.8913422 5.65625 1.59375.234375q.109375.75.5625 1.078125.609375.453125 1.671875.453125 1.140625 0 1.75-.453125.625-.453125.84375-1.265625.125-.5.109375-2.109375-1.0625 1.265625-2.671875 1.265625-2 0-3.09375-1.4375-1.09375-1.4375-1.09375-3.453125 0-1.390625.5-2.5625.515625-1.171875 1.453125-1.796875.953125-.640625 2.25-.640625 1.703125 0 2.8125 1.375v-1.15625h1.515625v8.359375q0 2.265625-.46875 3.203125-.453125.9375-1.453125 1.484375-.984375.546875-2.453125.546875-1.71875 0-2.796875-.78125-1.0625-.765625-1.03125-2.34375zm1.359375-5.8125q0 1.90625.75 2.78125.765625.875 1.90625.875 1.125 0 1.890625-.859375.765625-.875.765625-2.734375 0-1.78125-.796875-2.671875-.78125-.90625-1.890625-.90625-1.09375 0-1.859375.890625-.765625.875-.765625 2.625zm23.137146-2.84375h-8.828125v-1.515625h8.828125zm0 4.0625h-8.828125v-1.53125h8.828125zm7.0001526-2.796875q0-2.359375.484375-3.796875.484375-1.453125 1.4375-2.234375.96875-.78125 2.421875-.78125 1.078125 0 1.890625.4375.8125.421875 1.328125 1.25.53125.8125.828125 1.984375.3125 1.15625.3125 3.140625 0 2.359375-.484375 3.8125-.484375 1.4375-1.453125 2.234375-.953125.78125-2.421875.78125-1.921875 0-3.03125-1.390625-1.3125-1.671875-1.3125-5.4375zm1.671875 0q0 3.296875.765625 4.390625.78125 1.078125 1.90625 1.078125 1.140625 0 1.90625-1.09375.765625-1.09375.765625-4.375 0-3.296875-.765625-4.375-.765625-1.078125-1.921875-1.078125-1.125 0-1.796875.953125-.859375 1.21875-.859375 4.5zm9.610077-1.21875v-1.859375h1.859375v1.859375zm0 7.8125v-1.875h1.859375v1.875zm4.277069-6.59375q0-2.359375.484375-3.796875.484375-1.453125 1.4375-2.234375.96875-.78125 2.421875-.78125 1.078125 0 1.890625.4375.8125.421875 1.328125 1.25.53125.8125.828125 1.984375.3125 1.15625.3125 3.140625 0 2.359375-.484375 3.8125-.484375 1.4375-1.453125 2.234375-.953125.78125-2.421875.78125-1.921875 0-3.03125-1.390625-1.3125-1.671875-1.3125-5.4375zm1.671875 0q0 3.296875.765625 4.390625.78125 1.078125 1.90625 1.078125 1.140625 0 1.90625-1.09375.765625-1.09375.765625-4.375 0-3.296875-.765625-4.375-.765625-1.078125-1.921875-1.078125-1.125 0-1.796875.953125-.859375 1.21875-.859375 4.5zm8.703827 3.0625 1.640625-.21875q.28125 1.40625.953125 2.015625.6875.609375 1.65625.609375 1.15625 0 1.953125-.796875.796875-.796875.796875-1.984375 0-1.125-.734375-1.859375-.734375-.734375-1.875-.734375-.46875 0-1.15625.171875l.1875-1.4375q.15625.015625.265625.015625 1.046875 0 1.875-.546875.84375-.546875.84375-1.671875 0-.90625-.609375-1.5-.609375-.59375-1.578125-.59375-.953125 0-1.59375.609375-.640625.59375-.8125 1.796875l-1.640625-.296875q.296875-1.640625 1.359375-2.546875 1.0625-.90625 2.65625-.90625 1.09375 0 2 .46875.921875.46875 1.40625 1.28125.5.8125.5 1.71875 0 .859375-.46875 1.578125-.46875.703125-1.375 1.125 1.1875.28125 1.84375 1.140625.65625.859375.65625 2.15625 0 1.734375-1.28125 2.953125-1.265625 1.21875-3.21875 1.21875-1.765625 0-2.921875-1.046875-1.15625-1.046875-1.328125-2.71875z" fill="#000"/><path d="m8 36.37664h177.98425v33.6063h-177.98425z" fill="none"/><path d="m18.390625 63.29664v-13.359375h2.65625l3.15625 9.453125q.4375 1.328125.640625 1.984375.234375-.734375.703125-2.140625l3.203125-9.296875h2.375v13.359375h-1.703125v-11.171875l-3.875 11.171875h-1.59375l-3.859375-11.375v11.375zm21.697052-1.1875q-.921875.765625-1.765625 1.09375-.828125.3125-1.796875.3125-1.59375 0-2.453125-.78125-.859375-.78125-.859375-1.984375 0-.71875.328125-1.296875.328125-.59375.84375-.9375.53125-.359375 1.1875-.546875.46875-.125 1.453125-.25 1.984375-.234375 2.921875-.5625.015625-.34375.015625-.421875 0-1-.46875-1.421875-.625-.546875-1.875-.546875-1.15625 0-1.703125.40625-.546875.40625-.8125 1.421875l-1.609375-.21875q.21875-1.015625.71875-1.640625.5-.640625 1.453125-.984375.953125-.34375 2.1875-.34375 1.25 0 2.015625.296875.78125.28125 1.140625.734375.375.4375.515625 1.109375.078125.421875.078125 1.515625v2.1875q0 2.28125.109375 2.890625.109375.59375.40625 1.15625h-1.703125q-.265625-.515625-.328125-1.1875zm-.140625-3.671875q-.890625.375-2.671875.625-1.015625.140625-1.4375.328125-.421875.1875-.65625.53125-.21875.34375-.21875.78125 0 .65625.5 1.09375.5.4375 1.453125.4375.9375 0 1.671875-.40625.75-.421875 1.09375-1.140625.265625-.5625.265625-1.640625zm3.1100922 4.859375 3.53125-5.03125-3.265625-4.640625h2.046875l1.484375 2.265625q.421875.640625.671875 1.078125.40625-.59375.734375-1.0625l1.640625-2.28125h1.953125l-3.34375 4.546875 3.59375 5.125h-2.015625l-1.984375-3-.515625-.8125-2.546875 3.8125zm15.730179 0v-13.359375h1.78125v11.78125h6.5625v1.578125zm16.563217-1.1875q-.921875.765625-1.765625 1.09375-.828125.3125-1.796875.3125-1.59375 0-2.453125-.78125-.859375-.78125-.859375-1.984375 0-.71875.328125-1.296875.328125-.59375.84375-.9375.53125-.359375 1.1875-.546875.46875-.125 1.453125-.25 1.984375-.234375 2.921875-.5625.015625-.34375.015625-.421875 0-1-.46875-1.421875-.625-.546875-1.875-.546875-1.15625 0-1.703125.40625-.546875.40625-.8125 1.421875l-1.609375-.21875q.21875-1.015625.71875-1.640625.5-.640625 1.453125-.984375.953125-.34375 2.1875-.34375 1.25 0 2.015625.296875.78125.28125 1.140625.734375.375.4375.515625 1.109375.078125.421875.078125 1.515625v2.1875q0 2.28125.109375 2.890625.109375.59375.40625 1.15625h-1.703125q-.265625-.515625-.328125-1.1875zm-.140625-3.671875q-.890625.375-2.671875.625-1.015625.140625-1.4375.328125-.421875.1875-.65625.53125-.21875.34375-.21875.78125 0 .65625.5 1.09375.5.4375 1.453125.4375.9375 0 1.671875-.40625.75-.421875 1.09375-1.140625.265625-.5625.265625-1.640625zm3.8913422 5.65625 1.59375.234375q.109375.75.5625 1.078125.609375.453125 1.671875.453125 1.140625 0 1.75-.453125.625-.453125.84375-1.265625.125-.5.109375-2.109375-1.0625 1.265625-2.671875 1.265625-2 0-3.09375-1.4375-1.09375-1.4375-1.09375-3.453125 0-1.390625.5-2.5625.515625-1.171875 1.453125-1.796875.953125-.640625 2.25-.640625 1.703125 0 2.8125 1.375v-1.15625h1.515625v8.359375q0 2.265625-.46875 3.203125-.453125.9375-1.453125 1.484375-.984375.546875-2.453125.546875-1.71875 0-2.796875-.78125-1.0625-.765625-1.03125-2.34375zm1.359375-5.8125q0 1.90625.75 2.78125.765625.875 1.90625.875 1.125 0 1.890625-.859375.765625-.875.765625-2.734375 0-1.78125-.796875-2.671875-.78125-.90625-1.890625-.90625-1.09375 0-1.859375.890625-.765625.875-.765625 2.625zm14.965271-2.796875v-1.859375h1.859375v1.859375zm0 7.8125v-1.875h1.859375v1.875zm13.355179-7.859375h-8.828125v-1.515625h8.828125zm0 4.0625h-8.828125v-1.53125h8.828125zm7.0001373-2.796875q0-2.359375.484375-3.796875.484375-1.453125 1.4375-2.234375.96875-.78125 2.421875-.78125 1.078125 0 1.890625.4375.8125.421875 1.328125 1.25.53125.8125.828125 1.984375.3125 1.15625.3125 3.140625 0 2.359375-.484375 3.8125-.484375 1.4375-1.453125 2.234375-.953125.78125-2.421875.78125-1.921875 0-3.03125-1.390625-1.3125-1.671875-1.3125-5.4375zm1.671875 0q0 3.296875.765625 4.390625.78125 1.078125 1.90625 1.078125 1.140625 0 1.90625-1.09375.765625-1.09375.765625-4.375 0-3.296875-.765625-4.375-.765625-1.078125-1.921875-1.078125-1.125 0-1.796875.953125-.859375 1.21875-.859375 4.5zm9.610092-1.21875v-1.859375h1.859375v1.859375zm0 7.8125v-1.875h1.859375v1.875zm4.277054-6.59375q0-2.359375.484375-3.796875.484375-1.453125 1.4375-2.234375.96875-.78125 2.421875-.78125 1.078125 0 1.890625.4375.8125.421875 1.328125 1.25.53125.8125.828125 1.984375.3125 1.15625.3125 3.140625 0 2.359375-.484375 3.8125-.484375 1.4375-1.453125 2.234375-.953125.78125-2.421875.78125-1.921875 0-3.03125-1.390625-1.3125-1.671875-1.3125-5.4375zm1.671875 0q0 3.296875.765625 4.390625.78125 1.078125 1.90625 1.078125 1.140625 0 1.90625-1.09375.765625-1.09375.765625-4.375 0-3.296875-.765625-4.375-.765625-1.078125-1.921875-1.078125-1.125 0-1.796875.953125-.859375 1.21875-.859375 4.5zm17.313217 5.015625v1.578125h-8.828125q-.015625-.59375.1875-1.140625.34375-.90625 1.078125-1.78125.75-.875 2.15625-2.015625 2.171875-1.78125 2.9375-2.828125.765625-1.046875.765625-1.96875 0-.984375-.703125-1.640625-.6875-.671875-1.8125-.671875-1.1875 0-1.90625.71875-.703125.703125-.703125 1.953125l-1.6875-.171875q.171875-1.890625 1.296875-2.875 1.140625-.984375 3.03125-.984375 1.921875 0 3.046875 1.0625 1.125 1.0625 1.125 2.640625 0 .796875-.328125 1.578125-.328125.78125-1.09375 1.640625-.75.84375-2.53125 2.34375-1.46875 1.234375-1.890625 1.6875-.421875.4375-.6875.875z" fill="#000"/><path d="m451.94226 69.77034h117.98425v33.6063h-117.98425z" fill="none"/><path d="m476.39532 94.13034-2.546875-8.296875h1.453125l1.328125 4.78125.484375 1.78125q.03125-.125.4375-1.703125l1.3125-4.859375h1.453125l1.234375 4.8125.421875 1.578125.46875-1.59375 1.421875-4.796875h1.375l-2.59375 8.296875h-1.46875l-1.3125-4.96875-.328125-1.421875-1.671875 6.390625zm10.0234375 0v-8.296875h1.25v1.15625q.390625-.609375 1.03125-.96875.65625-.375 1.484375-.375.921875 0 1.515625.390625.59375.375.828125 1.0625.984375-1.453125 2.5625-1.453125 1.234375 0 1.890625.6875.671875.671875.671875 2.09375v5.703125h-1.390625v-5.234375q0-.84375-.140625-1.203125-.140625-.375-.5-.59375-.359375-.234375-.84375-.234375-.875 0-1.453125.578125-.578125.578125-.578125 1.859375v4.828125h-1.40625v-5.390625q0-.9375-.34375-1.40625-.34375-.46875-1.125-.46875-.59375 0-1.09375.3125-.5.3125-.734375.921875-.21875.59375-.21875 1.71875v4.3125zm20.71875-6.734375h-7.5625v-1.3125h7.5625zm0 3.46875h-7.5625v-1.3125h7.5625zm1.5625-2.390625q0-2.03125.40625-3.265625.421875-1.234375 1.25-1.90625.828125-.671875 2.078125-.671875.921875 0 1.609375.375.703125.359375 1.15625 1.0625.453125.703125.703125 1.703125.265625 1 .265625 2.703125 0 2.015625-.421875 3.265625-.40625 1.234375-1.234375 1.921875-.828125.671875-2.078125.671875-1.65625 0-2.609375-1.203125-1.125-1.421875-1.125-4.65625zm1.4375 0q0 2.828125.65625 3.765625.671875.921875 1.640625.921875.96875 0 1.625-.9375.65625-.9375.65625-3.75 0-2.828125-.65625-3.75-.65625-.9375-1.640625-.9375-.96875 0-1.546875.828125-.734375 1.046875-.734375 3.859375zm9.6171875-.5625q-.875-.3125-1.296875-.90625-.421875-.59375-.421875-1.421875 0-1.25.890625-2.09375.90625-.859375 2.40625-.859375 1.5 0 2.40625.875.921875.859375.921875 2.109375 0 .796875-.421875 1.390625-.421875.59375-1.265625.90625 1.046875.34375 1.59375 1.109375.5625.765625.5625 1.828125 0 1.46875-1.046875 2.484375-1.03125 1-2.734375 1-1.6875 0-2.734375-1-1.03125-1.015625-1.03125-2.515625 0-1.125.5625-1.875.5625-.75 1.609375-1.03125zm-.28125-2.375q0 .8125.515625 1.328125.53125.515625 1.375.515625.8125 0 1.328125-.515625.515625-.515625.515625-1.25 0-.78125-.53125-1.296875-.53125-.53125-1.328125-.53125-.8125 0-1.34375.515625-.53125.515625-.53125 1.234375zm-.453125 5.28125q0 .609375.28125 1.171875.296875.5625.859375.875.5625.296875 1.203125.296875 1.015625 0 1.671875-.640625.65625-.65625.65625-1.65625 0-1.015625-.6875-1.671875-.671875-.671875-1.6875-.671875-.984375 0-1.640625.65625-.65625.65625-.65625 1.640625zm8.2578125-3.390625v-1.59375h1.59375v1.59375zm0 6.703125v-1.609375h1.59375v1.609375zm8.9609375 0h-1.40625v-8.96875q-.515625.484375-1.34375.96875-.8125.484375-1.46875.734375v-1.359375q1.171875-.5625 2.046875-1.34375.890625-.796875 1.265625-1.53125h.90625zm10.9921875-1.359375v1.359375h-7.578125q-.015625-.515625.171875-.984375.28125-.765625.921875-1.515625.640625-.75 1.84375-1.734375 1.859375-1.53125 2.515625-2.421875.65625-.90625.65625-1.703125 0-.828125-.59375-1.40625-.59375-.578125-1.5625-.578125-1.015625 0-1.625.609375-.609375.609375-.609375 1.6875l-1.453125-.140625q.15625-1.625 1.125-2.46875.96875-.84375 2.59375-.84375 1.65625 0 2.609375.921875.96875.90625.96875 2.25 0 .6875-.28125 1.359375-.28125.65625-.9375 1.390625-.65625.734375-2.171875 2.015625-1.265625 1.0625-1.625 1.453125-.359375.375-.59375.75z" fill="#000"/><path d="m428.7953 16.513123h80.409424v40.818897h-80.409424z" fill="none"/><path d="m456.7087 43.05812q-1.03125.484375-3.234375.859375-2.03125.359375-3.328125.359375-.90625 0-1.3125-.28125-.546875-.375-.546875-1.40625l.1875-3.015625q.234375-4.171875.234375-9.25 0-.390625.25-.65625.265625-.28125.640625-.28125.390625 0 .65625.28125.265625.265625.265625.65625 0 5.140625-.25 9.359375l-.125 1.390625q-.0625.75-.046875 1.34375 2.375.015625 6.015625-1.125.15625-.046875.28125-.046875.390625 0 .65625.3125.234375.28125.234375.640625 0 .59375-.578125.859375zm9.306763.96875q-.171875 0-.625-.390625-.40625-.375-.609375-.671875-.875.484375-1.546875.71875-.65625.234375-1.109375.234375-2.125 0-3.09375-1.1875-.921875-1.140625-.921875-3.46875 0-2.203125 1.515625-3.765625 1.515625-1.578125 3.625-1.578125.78125 0 1.765625.421875 1.25.5 1.25 1.21875 0 .25-.1875.4375-.09375.34375-.140625 1.140625-.046875.796875-.0625 2.03125-.015625 1.125.15625 1.78125.09375.40625.578125 1.609375.0625.171875.203125.484375l.0625.15625q0 .359375-.265625.59375-.25.234375-.59375.234375zm-1.890625-6.328125q0-.390625.046875-.84375.0625-.46875.15625-.984375-.34375-.171875-.59375-.25-.234375-.078125-.375-.078125-1.40625 0-2.4375 1.15625-1.015625 1.140625-1.015625 2.640625 0 1.5.515625 2.25.53125.734375 1.59375.734375.875 0 1.484375-.3125.328125-.171875.921875-.6875-.296875-2.421875-.296875-3.625zm10.421753-2.03125q-.1875 0-.453125-.015625-.25-.015625-.453125-.015625-.203125 0-1.234375.140625l.171875 5.375.015625.40625v.46875q.046875 1.984375-.953125 1.984375-.359375 0-.640625-.234375-.265625-.234375-.265625-.59375 0-.34375.03125-1.03125.03125-.703125.03125-1.046875l-.1875-5.3125q-.65625-.03125-2.015625-.15625-.8125-.109375-.8125-.90625 0-.390625.234375-.65625.25-.265625.640625-.265625l1.90625.15625q0-.46875-.046875-1.25-.03125-.78125-.03125-1.125 0-.375.265625-.625.265625-.25.640625-.25.828125 0 .96875 1.328125.015625.34375.015625.8125l-.015625.53125v.5625q1.125-.140625 1.28125-.140625.953125 0 1.25.09375.546875.171875.546875.84375 0 .40625-.25.671875-.25.25-.640625.25zm6.9468994 8.1875q-2.046875 0-3.328125-1.03125-1.390625-1.140625-1.390625-3.1875 0-2.375 1.140625-3.96875 1.25-1.75 3.34375-1.75 1.5 0 2.46875.5 1.171875.640625 1.171875 1.9375 0 .90625-1.03125 1.65625-.453125.328125-1.9375 1.015625l-3.46875 1.65625q.5.75 1.265625 1.140625.765625.375 1.765625.375.640625 0 1.484375-.234375 1.078125-.296875 1.375-.78125.3125-.484375.671875-.484375.3125 0 .5625.234375.25.234375.25.5625 0 1.015625-1.625 1.734375-1.390625.625-2.71875.625zm-.234375-8.296875q-1.125 0-1.859375.859375-.734375.859375-1.09375 2.59375l2.796875-1.328125q1.640625-.8125 2.34375-1.40625-.78125-.71875-2.1875-.71875zm7.9552307-5.9375v10.140625q0 .8125-.8125.8125-.8125 0-.8125-.8125 0-.375-.03125-1.109375-.015625-.75-.015625-1.109375 0-1.328125.015625-3.953125.03125-2.640625.03125-3.96875 0-.8125.8125-.8125.8125 0 .8125.8125zm.015625 13.609375q0 .328125-.265625.5625-.265625.234375-.59375.234375-.359375 0-.71875-.46875-.359375-.4375-.359375-.8125 0-.328125.25-.5625.265625-.25.609375-.25.359375 0 .71875.484375.359375.4375.359375.8125z" fill="#000"/><path d="m464 105.938324 2.9921265-52.000004" fill="none"/><path d="m464 105.938324 2.9921265-52.000004" fill-rule="evenodd" stroke="#000" stroke-linecap="butt" stroke-linejoin="round"/></g></svg>