<svg xmlns="http://www.w3.org/2000/svg" xmlns:xlink="http://www.w3.org/1999/xlink" version="1.1" width="640" height="480" viewBox="0 0 640 480" xml:space="preserve"><desc>Created with Fabric.js 3.6.3</desc><g><g><g transform="matrix(1 0 0 1 319.44 242.04) matrix(1 0 0 1 0 0)" clip-path="url(#CLIPPATH_6)"><clipPath id="CLIPPATH_6"><path transform="matrix(1 0 0 1 0 0) translate(-430.44, -170.04)" d="m 0 0 l 860.8819 0 l 0 340.08136 l -860.8819 0 l 0 -340.08136 z" stroke-linecap="round"/></clipPath><path transform="translate(-430.44, -170.04)" d="m 0 0 l 860.8819 0 l 0 340.08136 l -860.8819 0 z" stroke-linecap="square" stroke="none" stroke-width="1" stroke-dasharray="none" stroke-dashoffset="0" stroke-linejoin="miter" stroke-miterlimit="10" fill="rgb(0,0,0)" fill-opacity="0" fill-rule="evenodd" opacity="1"/></g><g transform="matrix(1 0 0 1 319.44 242.04) matrix(1 0 0 1 -134.87 -98.02)" clip-path="url(#CLIPPATH_7)"><clipPath id="CLIPPATH_7"><path transform="matrix(1 0 0 1 134.87 98.02) translate(-430.44, -170.04)" d="m 0 0 l 860.8819 0 l 0 340.08136 l -860.8819 0 l 0 -340.08136 z" stroke-linecap="round"/></clipPath><path transform="translate(-295.57, -72.02)" d="m 213.97638 39.411087 l 0 0 c 0 -9.004885 7.2998962 -16.304789 16.30478 -16.304789 l 130.57153 0 c 4.3243103 0 8.471497 1.7178211 11.529236 4.7755623 c 3.0577393 3.0577412 4.775543 7.2049274 4.775543 11.529226 l 0 65.21719 c 0 9.00489 -7.2998962 16.304787 -16.30478 16.304787 l -130.57153 0 c -9.004883 0 -16.30478 -7.2998962 -16.30478 -16.304787 z" stroke-linecap="square" stroke="none" stroke-width="1" stroke-dasharray="none" stroke-dashoffset="0" stroke-linejoin="miter" stroke-miterlimit="10" fill="rgb(216,238,255)" fill-rule="evenodd" opacity="1"/></g><g transform="matrix(1 0 0 1 319.44 242.04) matrix(1 0 0 1 -134.87 -98.02)" clip-path="url(#CLIPPATH_8)"><clipPath id="CLIPPATH_8"><path transform="matrix(1 0 0 1 134.87 98.02) translate(-430.44, -170.04)" d="m 0 0 l 860.8819 0 l 0 340.08136 l -860.8819 0 l 0 -340.08136 z" stroke-linecap="round"/></clipPath><path transform="translate(-295.57, -72.02)" d="m 213.97638 39.411087 l 0 0 c 0 -9.004885 7.2998962 -16.304789 16.30478 -16.304789 l 130.57153 0 c 4.3243103 0 8.471497 1.7178211 11.529236 4.7755623 c 3.0577393 3.0577412 4.775543 7.2049274 4.775543 11.529226 l 0 65.21719 c 0 9.00489 -7.2998962 16.304787 -16.30478 16.304787 l -130.57153 0 c -9.004883 0 -16.30478 -7.2998962 -16.30478 -16.304787 z" stroke-linecap="butt" stroke="rgb(0,0,0)" stroke-width="2" stroke-dasharray="none" stroke-dashoffset="0" stroke-linejoin="round" stroke-miterlimit="10" fill="none" fill-rule="evenodd" opacity="1"/></g><g transform="matrix(1 0 0 1 319.44 242.04) matrix(1 0 0 1 -133.23 -86.77)" clip-path="url(#CLIPPATH_9)"><clipPath id="CLIPPATH_9"><path transform="matrix(1 0 0 1 133.22 86.77) translate(-430.44, -170.04)" d="m 0 0 l 860.8819 0 l 0 340.08136 l -860.8819 0 l 0 -340.08136 z" stroke-linecap="round"/></clipPath><path transform="translate(-297.22, -83.27)" d="m 258.07657 85.23656 l 1.765625 0.25 q -0.84375 2.3125 -2.453125 3.5 q -1.59375 1.1875 -3.578125 1.1875 q -2.4375 0 -3.875 -1.484375 q -1.421875 -1.484375 -1.421875 -4.265625 q 0 -3.609375 2.171875 -5.96875 q 1.9375 -2.09375 4.796875 -2.09375 q 2.125 0 3.4375 1.140625 q 1.328125 1.125 1.53125 3.0625 l -1.671875 0.140625 q -0.25 -1.4375 -1.078125 -2.15625 q -0.828125 -0.71875 -2.125 -0.71875 q -2.453125 0 -3.96875 2.1875 q -1.3125 1.875 -1.3125 4.453125 q 0 2.046875 1.015625 3.140625 q 1.015625 1.078125 2.625 1.078125 q 1.390625 0 2.5 -0.890625 q 1.125 -0.90625 1.640625 -2.5625 z m 3.129181 1.03125 q 0 -2.828125 1.671875 -4.6875 q 1.375 -1.53125 3.609375 -1.53125 q 1.75 0 2.8125 1.09375 q 1.078125 1.09375 1.078125 2.953125 q 0 1.65625 -0.671875 3.09375 q -0.671875 1.4375 -1.921875 2.203125 q -1.25 0.765625 -2.625 0.765625 q -1.125 0 -2.046875 -0.484375 q -0.921875 -0.484375 -1.421875 -1.359375 q -0.484375 -0.890625 -0.484375 -2.046875 z m 1.65625 -0.15625 q 0 1.359375 0.65625 2.0625 q 0.65625 0.703125 1.65625 0.703125 q 0.53125 0 1.046875 -0.203125 q 0.53125 -0.21875 0.96875 -0.65625 q 0.453125 -0.4375 0.765625 -1 q 0.3125 -0.5625 0.5 -1.203125 q 0.28125 -0.90625 0.28125 -1.734375 q 0 -1.3125 -0.65625 -2.03125 q -0.65625 -0.734375 -1.65625 -0.734375 q -0.78125 0 -1.421875 0.375 q -0.625 0.375 -1.140625 1.09375 q -0.515625 0.703125 -0.765625 1.640625 q -0.234375 0.9375 -0.234375 1.6875 z m 8.719482 0.15625 q 0 -2.828125 1.671875 -4.6875 q 1.375 -1.53125 3.609375 -1.53125 q 1.75 0 2.8125 1.09375 q 1.078125 1.09375 1.078125 2.953125 q 0 1.65625 -0.671875 3.09375 q -0.671875 1.4375 -1.921875 2.203125 q -1.25 0.765625 -2.625 0.765625 q -1.125 0 -2.046875 -0.484375 q -0.921875 -0.484375 -1.421875 -1.359375 q -0.484375 -0.890625 -0.484375 -2.046875 z m 1.65625 -0.15625 q 0 1.359375 0.65625 2.0625 q 0.65625 0.703125 1.65625 0.703125 q 0.53125 0 1.046875 -0.203125 q 0.53125 -0.21875 0.96875 -0.65625 q 0.453125 -0.4375 0.765625 -1 q 0.3125 -0.5625 0.5 -1.203125 q 0.28125 -0.90625 0.28125 -1.734375 q 0 -1.3125 -0.65625 -2.03125 q -0.65625 -0.734375 -1.65625 -0.734375 q -0.78125 0 -1.421875 0.375 q -0.625 0.375 -1.140625 1.09375 q -0.515625 0.703125 -0.765625 1.640625 q -0.234375 0.9375 -0.234375 1.6875 z m 8.438202 3.828125 l 2.015625 -9.671875 l 1.453125 0 l -0.40625 1.96875 q 0.75 -1.109375 1.453125 -1.640625 q 0.71875 -0.546875 1.46875 -0.546875 q 0.5 0 1.21875 0.359375 l -0.671875 1.53125 q -0.4375 -0.3125 -0.9375 -0.3125 q -0.875 0 -1.78125 0.96875 q -0.90625 0.953125 -1.4375 3.46875 l -0.8125 3.875 l -1.5625 0 z m 12.728302 -1.40625 q -1.40625 1.625 -2.953125 1.625 q -1.375 0 -2.296875 -1.015625 q -0.90625 -1.015625 -0.90625 -2.953125 q 0 -1.765625 0.71875 -3.21875 q 0.734375 -1.46875 1.8125 -2.1875 q 1.09375 -0.734375 2.1875 -0.734375 q 1.796875 0 2.71875 1.734375 l 1.09375 -5.203125 l 1.640625 0 l -2.78125 13.359375 l -1.53125 0 l 0.296875 -1.40625 z m -4.515625 -2.640625 q 0 1 0.203125 1.59375 q 0.203125 0.578125 0.671875 0.96875 q 0.484375 0.375 1.171875 0.375 q 1.109375 0 2.03125 -1.15625 q 1.21875 -1.546875 1.21875 -3.828125 q 0 -1.140625 -0.609375 -1.78125 q -0.59375 -0.65625 -1.515625 -0.65625 q -0.59375 0 -1.078125 0.265625 q -0.484375 0.265625 -0.96875 0.90625 q -0.46875 0.625 -0.796875 1.59375 q -0.328125 0.96875 -0.328125 1.71875 z m 10.703857 -7.4375 l 0.40625 -1.875 l 1.625 0 l -0.390625 1.875 l -1.640625 0 z m -2.390625 11.484375 l 2.015625 -9.671875 l 1.65625 0 l -2.03125 9.671875 l -1.640625 0 z m 4.207306 0 l 2.015625 -9.671875 l 1.5 0 l -0.359375 1.6875 q 0.96875 -1 1.8125 -1.453125 q 0.859375 -0.453125 1.734375 -0.453125 q 1.1875 0 1.84375 0.640625 q 0.671875 0.625 0.671875 1.703125 q 0 0.53125 -0.234375 1.6875 l -1.234375 5.859375 l -1.640625 0 l 1.28125 -6.125 q 0.1875 -0.890625 0.1875 -1.328125 q 0 -0.484375 -0.328125 -0.78125 q -0.328125 -0.296875 -0.953125 -0.296875 q -1.28125 0 -2.265625 0.90625 q -0.984375 0.90625 -1.453125 3.125 l -0.9375 4.5 l -1.640625 0 z m 16.891357 -1.203125 q -0.859375 0.734375 -1.65625 1.078125 q -0.78125 0.34375 -1.6875 0.34375 q -1.34375 0 -2.171875 -0.78125 q -0.8125 -0.796875 -0.8125 -2.03125 q 0 -0.796875 0.375 -1.421875 q 0.375 -0.625 0.984375 -1 q 0.609375 -0.390625 1.484375 -0.546875 q 0.5625 -0.109375 2.109375 -0.171875 q 1.5625 -0.0625 2.234375 -0.328125 q 0.1875 -0.671875 0.1875 -1.125 q 0 -0.578125 -0.421875 -0.90625 q -0.5625 -0.453125 -1.671875 -0.453125 q -1.03125 0 -1.703125 0.46875 q -0.65625 0.453125 -0.953125 1.296875 l -1.671875 -0.140625 q 0.515625 -1.4375 1.609375 -2.203125 q 1.109375 -0.765625 2.796875 -0.765625 q 1.796875 0 2.84375 0.859375 q 0.796875 0.625 0.796875 1.65625 q 0 0.765625 -0.21875 1.796875 l -0.53125 2.40625 q -0.265625 1.140625 -0.265625 1.859375 q 0 0.453125 0.203125 1.3125 l -1.671875 0 q -0.125 -0.46875 -0.1875 -1.203125 z m 0.609375 -3.703125 q -0.34375 0.140625 -0.75 0.21875 q -0.390625 0.0625 -1.3125 0.15625 q -1.4375 0.125 -2.03125 0.328125 q -0.59375 0.1875 -0.90625 0.625 q -0.296875 0.421875 -0.296875 0.9375 q 0 0.6875 0.484375 1.140625 q 0.484375 0.4375 1.359375 0.4375 q 0.828125 0 1.578125 -0.421875 q 0.75 -0.4375 1.1875 -1.203125 q 0.4375 -0.78125 0.6875 -2.21875 z m 7.094452 3.5625 l -0.265625 1.359375 q -0.59375 0.140625 -1.15625 0.140625 q -0.984375 0 -1.5625 -0.46875 q -0.4375 -0.375 -0.4375 -1 q 0 -0.3125 0.234375 -1.46875 l 1.171875 -5.625 l -1.296875 0 l 0.265625 -1.265625 l 1.296875 0 l 0.5 -2.375 l 1.890625 -1.140625 l -0.734375 3.515625 l 1.625 0 l -0.28125 1.265625 l -1.609375 0 l -1.125 5.359375 q -0.203125 1.015625 -0.203125 1.21875 q 0 0.28125 0.15625 0.4375 q 0.171875 0.15625 0.5625 0.15625 q 0.546875 0 0.96875 -0.109375 z m 1.6208191 -2.328125 q 0 -2.828125 1.671875 -4.6875 q 1.375 -1.53125 3.609375 -1.53125 q 1.75 0 2.8125 1.09375 q 1.078125 1.09375 1.078125 2.953125 q 0 1.65625 -0.671875 3.09375 q -0.671875 1.4375 -1.921875 2.203125 q -1.25 0.765625 -2.625 0.765625 q -1.125 0 -2.046875 -0.484375 q -0.921875 -0.484375 -1.421875 -1.359375 q -0.484375 -0.890625 -0.484375 -2.046875 z m 1.65625 -0.15625 q 0 1.359375 0.65625 2.0625 q 0.65625 0.703125 1.65625 0.703125 q 0.53125 0 1.046875 -0.203125 q 0.53125 -0.21875 0.96875 -0.65625 q 0.453125 -0.4375 0.765625 -1 q 0.3125 -0.5625 0.5 -1.203125 q 0.28125 -0.90625 0.28125 -1.734375 q 0 -1.3125 -0.65625 -2.03125 q -0.65625 -0.734375 -1.65625 -0.734375 q -0.78125 0 -1.421875 0.375 q -0.625 0.375 -1.140625 1.09375 q -0.515625 0.703125 -0.765625 1.640625 q -0.234375 0.9375 -0.234375 1.6875 z m 8.438202 3.828125 l 2.015625 -9.671875 l 1.453125 0 l -0.40625 1.96875 q 0.75 -1.109375 1.453125 -1.640625 q 0.71875 -0.546875 1.46875 -0.546875 q 0.5 0 1.21875 0.359375 l -0.671875 1.53125 q -0.4375 -0.3125 -0.9375 -0.3125 q -0.875 0 -1.78125 0.96875 q -0.90625 0.953125 -1.4375 3.46875 l -0.8125 3.875 l -1.5625 0 z" stroke-linecap="square" stroke="none" stroke-width="1" stroke-dasharray="none" stroke-dashoffset="0" stroke-linejoin="miter" stroke-miterlimit="10" fill="rgb(0,0,0)" fill-rule="nonzero" opacity="1"/></g><g transform="matrix(1 0 0 1 319.44 242.04) matrix(1 0 0 1 134.87 -98.02)" clip-path="url(#CLIPPATH_10)"><clipPath id="CLIPPATH_10"><path transform="matrix(1 0 0 1 -134.87 98.02) translate(-430.44, -170.04)" d="m 0 0 l 860.8819 0 l 0 340.08136 l -860.8819 0 l 0 -340.08136 z" stroke-linecap="round"/></clipPath><path transform="translate(-565.31, -72.02)" d="m 483.72177 39.411087 l 0 0 c 0 -9.004885 7.2999268 -16.304789 16.30481 -16.304789 l 130.5715 0 c 4.324341 0 8.471497 1.7178211 11.529236 4.7755623 c 3.0577393 3.0577412 4.7755737 7.2049274 4.7755737 11.529226 l 0 65.21719 c 0 9.00489 -7.2999268 16.304787 -16.30481 16.304787 l -130.5715 0 c -9.004883 0 -16.30481 -7.2998962 -16.30481 -16.304787 z" stroke-linecap="square" stroke="none" stroke-width="1" stroke-dasharray="none" stroke-dashoffset="0" stroke-linejoin="miter" stroke-miterlimit="10" fill="rgb(216,238,255)" fill-rule="evenodd" opacity="1"/></g><g transform="matrix(1 0 0 1 319.44 242.04) matrix(1 0 0 1 134.87 -98.02)" clip-path="url(#CLIPPATH_11)"><clipPath id="CLIPPATH_11"><path transform="matrix(1 0 0 1 -134.87 98.02) translate(-430.44, -170.04)" d="m 0 0 l 860.8819 0 l 0 340.08136 l -860.8819 0 l 0 -340.08136 z" stroke-linecap="round"/></clipPath><path transform="translate(-565.31, -72.02)" d="m 483.72177 39.411087 l 0 0 c 0 -9.004885 7.2999268 -16.304789 16.30481 -16.304789 l 130.5715 0 c 4.324341 0 8.471497 1.7178211 11.529236 4.7755623 c 3.0577393 3.0577412 4.7755737 7.2049274 4.7755737 11.529226 l 0 65.21719 c 0 9.00489 -7.2999268 16.304787 -16.30481 16.304787 l -130.5715 0 c -9.004883 0 -16.30481 -7.2998962 -16.30481 -16.304787 z" stroke-linecap="butt" stroke="rgb(153,153,153)" stroke-width="1" stroke-dasharray="none" stroke-dashoffset="0" stroke-linejoin="round" stroke-miterlimit="10" fill="none" fill-rule="evenodd" opacity="1"/></g><g transform="matrix(1 0 0 1 319.44 242.04) matrix(1 0 0 1 -134.87 97.32)" clip-path="url(#CLIPPATH_12)"><clipPath id="CLIPPATH_12"><path transform="matrix(1 0 0 1 134.87 -97.32) translate(-430.44, -170.04)" d="m 0 0 l 860.8819 0 l 0 340.08136 l -860.8819 0 l 0 -340.08136 z" stroke-linecap="round"/></clipPath><path transform="translate(-295.57, -267.36)" d="m 213.97638 234.75229 l 0 0 c 0 -9.004883 7.2998962 -16.30478 16.30478 -16.30478 l 130.57153 0 c 4.3243103 0 8.471497 1.7178192 11.529236 4.7755585 c 3.0577393 3.0577393 4.775543 7.2049255 4.775543 11.529221 l 0 65.21719 c 0 9.004883 -7.2998962 16.30481 -16.30478 16.30481 l -130.57153 0 c -9.004883 0 -16.30478 -7.2999268 -16.30478 -16.30481 z" stroke-linecap="square" stroke="none" stroke-width="1" stroke-dasharray="none" stroke-dashoffset="0" stroke-linejoin="miter" stroke-miterlimit="10" fill="rgb(216,238,255)" fill-rule="evenodd" opacity="1"/></g><g transform="matrix(1 0 0 1 319.44 242.04) matrix(1 0 0 1 -134.87 97.32)" clip-path="url(#CLIPPATH_13)"><clipPath id="CLIPPATH_13"><path transform="matrix(1 0 0 1 134.87 -97.32) translate(-430.44, -170.04)" d="m 0 0 l 860.8819 0 l 0 340.08136 l -860.8819 0 l 0 -340.08136 z" stroke-linecap="round"/></clipPath><path transform="translate(-295.57, -267.36)" d="m 213.97638 234.75229 l 0 0 c 0 -9.004883 7.2998962 -16.30478 16.30478 -16.30478 l 130.57153 0 c 4.3243103 0 8.471497 1.7178192 11.529236 4.7755585 c 3.0577393 3.0577393 4.775543 7.2049255 4.775543 11.529221 l 0 65.21719 c 0 9.004883 -7.2998962 16.30481 -16.30478 16.30481 l -130.57153 0 c -9.004883 0 -16.30478 -7.2999268 -16.30478 -16.30481 z" stroke-linecap="butt" stroke="rgb(153,153,153)" stroke-width="1" stroke-dasharray="none" stroke-dashoffset="0" stroke-linejoin="round" stroke-miterlimit="10" fill="none" fill-rule="evenodd" opacity="1"/></g><g transform="matrix(1 0 0 1 319.44 242.04) matrix(1 0 0 1 134.87 97.32)" clip-path="url(#CLIPPATH_14)"><clipPath id="CLIPPATH_14"><path transform="matrix(1 0 0 1 -134.87 -97.32) translate(-430.44, -170.04)" d="m 0 0 l 860.8819 0 l 0 340.08136 l -860.8819 0 l 0 -340.08136 z" stroke-linecap="round"/></clipPath><path transform="translate(-565.31, -267.36)" d="m 483.72177 234.75229 l 0 0 c 0 -9.004883 7.2999268 -16.30478 16.30481 -16.30478 l 130.5715 0 c 4.324341 0 8.471497 1.7178192 11.529236 4.7755585 c 3.0577393 3.0577393 4.7755737 7.2049255 4.7755737 11.529221 l 0 65.21719 c 0 9.004883 -7.2999268 16.30481 -16.30481 16.30481 l -130.5715 0 c -9.004883 0 -16.30481 -7.2999268 -16.30481 -16.30481 z" stroke-linecap="square" stroke="none" stroke-width="1" stroke-dasharray="none" stroke-dashoffset="0" stroke-linejoin="miter" stroke-miterlimit="10" fill="rgb(216,238,255)" fill-rule="evenodd" opacity="1"/></g><g transform="matrix(1 0 0 1 319.44 242.04) matrix(1 0 0 1 134.87 97.32)" clip-path="url(#CLIPPATH_15)"><clipPath id="CLIPPATH_15"><path transform="matrix(1 0 0 1 -134.87 -97.32) translate(-430.44, -170.04)" d="m 0 0 l 860.8819 0 l 0 340.08136 l -860.8819 0 l 0 -340.08136 z" stroke-linecap="round"/></clipPath><path transform="translate(-565.31, -267.36)" d="m 483.72177 234.75229 l 0 0 c 0 -9.004883 7.2999268 -16.30478 16.30481 -16.30478 l 130.5715 0 c 4.324341 0 8.471497 1.7178192 11.529236 4.7755585 c 3.0577393 3.0577393 4.7755737 7.2049255 4.7755737 11.529221 l 0 65.21719 c 0 9.004883 -7.2999268 16.30481 -16.30481 16.30481 l -130.5715 0 c -9.004883 0 -16.30481 -7.2999268 -16.30481 -16.30481 z" stroke-linecap="butt" stroke="rgb(153,153,153)" stroke-width="1" stroke-dasharray="none" stroke-dashoffset="0" stroke-linejoin="round" stroke-miterlimit="10" fill="none" fill-rule="evenodd" opacity="1"/></g><g transform="matrix(1 0 0 1 319.44 242.04) matrix(1 0 0 1 -134.87 -0.35)" clip-path="url(#CLIPPATH_16)"><clipPath id="CLIPPATH_16"><path transform="matrix(1 0 0 1 134.87 0.35) translate(-430.44, -170.04)" d="m 0 0 l 860.8819 0 l 0 340.08136 l -860.8819 0 l 0 -340.08136 z" stroke-linecap="round"/></clipPath><path transform="translate(-295.57, -169.69)" d="m 295.56693 120.93307 l 0 97.51182" stroke-linecap="square" stroke="none" stroke-width="1" stroke-dasharray="none" stroke-dashoffset="0" stroke-linejoin="miter" stroke-miterlimit="10" fill="rgb(0,0,0)" fill-opacity="0" fill-rule="evenodd" opacity="1"/></g><g transform="matrix(1 0 0 1 319.44 242.04) matrix(1 0 0 1 -134.87 -0.35)" clip-path="url(#CLIPPATH_17)"><clipPath id="CLIPPATH_17"><path transform="matrix(1 0 0 1 134.87 0.35) translate(-430.44, -170.04)" d="m 0 0 l 860.8819 0 l 0 340.08136 l -860.8819 0 l 0 -340.08136 z" stroke-linecap="round"/></clipPath><path transform="translate(-295.57, -169.69)" d="m 295.56693 120.93307 l 0 97.51182" stroke-linecap="butt" stroke="rgb(0,0,0)" stroke-width="1" stroke-dasharray="none" stroke-dashoffset="0" stroke-linejoin="round" stroke-miterlimit="10" fill="none" fill-rule="evenodd" opacity="1"/></g><g transform="matrix(1 0 0 1 319.44 242.04) matrix(1 0 0 1 -0.01 -98.02)" clip-path="url(#CLIPPATH_18)"><clipPath id="CLIPPATH_18"><path transform="matrix(1 0 0 1 0.01 98.02) translate(-430.44, -170.04)" d="m 0 0 l 860.8819 0 l 0 340.08136 l -860.8819 0 l 0 -340.08136 z" stroke-linecap="round"/></clipPath><path transform="translate(-430.43, -72.02)" d="m 377.15747 72.019684 l 106.55118 0" stroke-linecap="square" stroke="none" stroke-width="1" stroke-dasharray="none" stroke-dashoffset="0" stroke-linejoin="miter" stroke-miterlimit="10" fill="rgb(0,0,0)" fill-opacity="0" fill-rule="evenodd" opacity="1"/></g><g transform="matrix(1 0 0 1 319.44 242.04) matrix(1 0 0 1 -0.01 -98.02)" clip-path="url(#CLIPPATH_19)"><clipPath id="CLIPPATH_19"><path transform="matrix(1 0 0 1 0.01 98.02) translate(-430.44, -170.04)" d="m 0 0 l 860.8819 0 l 0 340.08136 l -860.8819 0 l 0 -340.08136 z" stroke-linecap="round"/></clipPath><path transform="translate(-430.43, -72.02)" d="m 377.15747 72.019684 l 106.55118 0" stroke-linecap="butt" stroke="rgb(0,0,0)" stroke-width="1" stroke-dasharray="none" stroke-dashoffset="0" stroke-linejoin="round" stroke-miterlimit="10" fill="none" fill-rule="evenodd" opacity="1"/></g><g transform="matrix(1 0 0 1 319.44 242.04) matrix(1 0 0 1 0 97.32)" clip-path="url(#CLIPPATH_20)"><clipPath id="CLIPPATH_20"><path transform="matrix(1 0 0 1 -0.01 -97.32) translate(-430.44, -170.04)" d="m 0 0 l 860.8819 0 l 0 340.08136 l -860.8819 0 l 0 -340.08136 z" stroke-linecap="round"/></clipPath><path transform="translate(-430.45, -267.36)" d="m 377.1706 267.3609 l 106.55118 0" stroke-linecap="square" stroke="none" stroke-width="1" stroke-dasharray="none" stroke-dashoffset="0" stroke-linejoin="miter" stroke-miterlimit="10" fill="rgb(0,0,0)" fill-opacity="0" fill-rule="evenodd" opacity="1"/></g><g transform="matrix(1 0 0 1 319.44 242.04) matrix(1 0 0 1 0 97.32)" clip-path="url(#CLIPPATH_21)"><clipPath id="CLIPPATH_21"><path transform="matrix(1 0 0 1 -0.01 -97.32) translate(-430.44, -170.04)" d="m 0 0 l 860.8819 0 l 0 340.08136 l -860.8819 0 l 0 -340.08136 z" stroke-linecap="round"/></clipPath><path transform="translate(-430.45, -267.36)" d="m 377.1706 267.3609 l 106.55118 0" stroke-linecap="butt" stroke="rgb(0,0,0)" stroke-width="1" stroke-dasharray="none" stroke-dashoffset="0" stroke-linejoin="round" stroke-miterlimit="10" fill="none" fill-rule="evenodd" opacity="1"/></g><g transform="matrix(1 0 0 1 319.44 242.04) matrix(1 0 0 1 0.94 0.21)" clip-path="url(#CLIPPATH_22)"><clipPath id="CLIPPATH_22"><path transform="matrix(1 0 0 1 -0.94 -0.21) translate(-430.44, -170.04)" d="m 0 0 l 860.8819 0 l 0 340.08136 l -860.8819 0 l 0 -340.08136 z" stroke-linecap="round"/></clipPath><path transform="translate(-431.38, -170.25)" d="m 488.83203 115.30971 l -114.897644 109.88977" stroke-linecap="square" stroke="none" stroke-width="1" stroke-dasharray="none" stroke-dashoffset="0" stroke-linejoin="miter" stroke-miterlimit="10" fill="rgb(0,0,0)" fill-opacity="0" fill-rule="evenodd" opacity="1"/></g><g transform="matrix(1 0 0 1 319.44 242.04) matrix(1 0 0 1 0.94 0.21)" clip-path="url(#CLIPPATH_23)"><clipPath id="CLIPPATH_23"><path transform="matrix(1 0 0 1 -0.94 -0.21) translate(-430.44, -170.04)" d="m 0 0 l 860.8819 0 l 0 340.08136 l -860.8819 0 l 0 -340.08136 z" stroke-linecap="round"/></clipPath><path transform="translate(-431.38, -170.25)" d="m 488.83203 115.30971 l -114.897644 109.88977" stroke-linecap="butt" stroke="rgb(0,0,0)" stroke-width="1" stroke-dasharray="none" stroke-dashoffset="0" stroke-linejoin="round" stroke-miterlimit="10" fill="none" fill-rule="evenodd" opacity="1"/></g><g transform="matrix(1 0 0 1 319.44 242.04) matrix(1 0 0 1 0.93 -1.23)" clip-path="url(#CLIPPATH_24)"><clipPath id="CLIPPATH_24"><path transform="matrix(1 0 0 1 -0.93 1.23) translate(-430.44, -170.04)" d="m 0 0 l 860.8819 0 l 0 340.08136 l -860.8819 0 l 0 -340.08136 z" stroke-linecap="round"/></clipPath><path transform="translate(-431.37, -168.81)" d="m 373.9239 115.30971 l 114.897644 106.99213" stroke-linecap="square" stroke="none" stroke-width="1" stroke-dasharray="none" stroke-dashoffset="0" stroke-linejoin="miter" stroke-miterlimit="10" fill="rgb(0,0,0)" fill-opacity="0" fill-rule="evenodd" opacity="1"/></g><g transform="matrix(1 0 0 1 319.44 242.04) matrix(1 0 0 1 0.93 -1.23)" clip-path="url(#CLIPPATH_25)"><clipPath id="CLIPPATH_25"><path transform="matrix(1 0 0 1 -0.93 1.23) translate(-430.44, -170.04)" d="m 0 0 l 860.8819 0 l 0 340.08136 l -860.8819 0 l 0 -340.08136 z" stroke-linecap="round"/></clipPath><path transform="translate(-431.37, -168.81)" d="m 373.9239 115.30971 l 114.897644 106.99213" stroke-linecap="butt" stroke="rgb(0,0,0)" stroke-width="1" stroke-dasharray="none" stroke-dashoffset="0" stroke-linejoin="round" stroke-miterlimit="10" fill="none" fill-rule="evenodd" opacity="1"/></g><g transform="matrix(1 0 0 1 319.44 242.04) matrix(1 0 0 1 134.87 -0.35)" clip-path="url(#CLIPPATH_26)"><clipPath id="CLIPPATH_26"><path transform="matrix(1 0 0 1 -134.87 0.35) translate(-430.44, -170.04)" d="m 0 0 l 860.8819 0 l 0 340.08136 l -860.8819 0 l 0 -340.08136 z" stroke-linecap="round"/></clipPath><path transform="translate(-565.31, -169.69)" d="m 565.3123 120.93307 l 0 97.51182" stroke-linecap="square" stroke="none" stroke-width="1" stroke-dasharray="none" stroke-dashoffset="0" stroke-linejoin="miter" stroke-miterlimit="10" fill="rgb(0,0,0)" fill-opacity="0" fill-rule="evenodd" opacity="1"/></g><g transform="matrix(1 0 0 1 319.44 242.04) matrix(1 0 0 1 134.87 -0.35)" clip-path="url(#CLIPPATH_27)"><clipPath id="CLIPPATH_27"><path transform="matrix(1 0 0 1 -134.87 0.35) translate(-430.44, -170.04)" d="m 0 0 l 860.8819 0 l 0 340.08136 l -860.8819 0 l 0 -340.08136 z" stroke-linecap="round"/></clipPath><path transform="translate(-565.31, -169.69)" d="m 565.3123 120.93307 l 0 97.51182" stroke-linecap="butt" stroke="rgb(0,0,0)" stroke-width="1" stroke-dasharray="none" stroke-dashoffset="0" stroke-linejoin="round" stroke-miterlimit="10" fill="none" fill-rule="evenodd" opacity="1"/></g><g><text xml:space="preserve" font-family="'Open Sans', sans-serif" font-size="18" font-style="normal" font-weight="normal" stroke="none" stroke-width="1" stroke-dasharray="none" stroke-linecap="butt" stroke-dashoffset="0" stroke-linejoin="miter" stroke-miterlimit="4" fill="rgb(0,0,0)" fill-rule="nonzero" opacity="1" white-space="pre" transform="matrix(1 0 0 1 319.44 242.04) matrix(1 0 0 1 -136.44 -109.37)"><tspan x="-43.27" y="5.65">Member 1</tspan></text></g><g><text xml:space="preserve" font-family="'Open Sans', sans-serif" font-size="18" font-style="normal" font-weight="normal" stroke="none" stroke-width="1" stroke-dasharray="none" stroke-linecap="butt" stroke-dashoffset="0" stroke-linejoin="miter" stroke-miterlimit="4" fill="rgb(0,0,0)" fill-rule="nonzero" opacity="1" white-space="pre" transform="matrix(1 0 0 1 319.44 242.04) matrix(1 0 0 1 131.56 -101.37)"><tspan x="-43.27" y="5.65">Member 2</tspan></text></g><g><text xml:space="preserve" font-family="'Open Sans', sans-serif" font-size="18" font-style="normal" font-weight="normal" stroke="none" stroke-width="1" stroke-dasharray="none" stroke-linecap="butt" stroke-dashoffset="0" stroke-linejoin="miter" stroke-miterlimit="4" fill="rgb(0,0,0)" fill-rule="nonzero" opacity="1" white-space="pre" transform="matrix(1 0 0 1 319.44 242.04) matrix(1 0 0 1 -134.44 95.63)"><tspan x="-43.27" y="5.65">Member 3</tspan></text></g><g><text xml:space="preserve" font-family="'Open Sans', sans-serif" font-size="18" font-style="normal" font-weight="normal" stroke="none" stroke-width="1" stroke-dasharray="none" stroke-linecap="butt" stroke-dashoffset="0" stroke-linejoin="miter" stroke-miterlimit="4" fill="rgb(0,0,0)" fill-rule="nonzero" opacity="1" white-space="pre" transform="matrix(1 0 0 1 319.44 242.04) matrix(1 0 0 1 136.56 96.63)"><tspan x="-43.27" y="5.65">Member 4</tspan></text></g></g></g></svg>