<svg fill="none" stroke-linecap="square" stroke-miterlimit="10" viewBox="0 0 928 882" xmlns="http://www.w3.org/2000/svg" xmlns:xlink="http://www.w3.org/1999/xlink"><clipPath id="a"><path d="m0 0h928v882h-928z"/></clipPath><g clip-path="url(#a)"><path d="m0 0h928v882h-928z" fill="none"/><path d="m431.73096 348.0328c0 31.084503-2.099823 56.283478-4.690094 56.283478h-161.13947c-2.590271 0-4.6901245-25.198975-4.6901245-56.283478z" fill="none"/><path d="m431.73096 348.0328c0 31.084503-2.099823 56.283478-4.690094 56.283478h-161.13947c-2.590271 0-4.6901245-25.198975-4.6901245-56.283478" fill="none"/><path d="m431.73096 348.0328c0 31.084503-2.099823 56.283478-4.690094 56.283478h-161.13947c-2.590271 0-4.6901245-25.198975-4.6901245-56.283478" fill-rule="evenodd" stroke="#b7b7b7" stroke-linecap="butt" stroke-linejoin="round" stroke-width="4"/><path d="m596.0276 276.2638c0 31.084473-2.0998535 56.283447-4.6901245 56.283447h-240.44656c-2.590271 0-4.6901245-25.198975-4.6901245-56.283447z" fill="none"/><path d="m596.0276 276.2638c0 31.084473-2.0998535 56.283447-4.6901245 56.283447h-240.44656c-2.590271 0-4.6901245-25.198975-4.6901245-56.283447" fill="none"/><path d="m596.0276 276.2638c0 31.084473-2.0998535 56.283447-4.6901245 56.283447h-240.44656c-2.590271 0-4.6901245-25.198975-4.6901245-56.283447" fill-rule="evenodd" stroke="#b7b7b7" stroke-linecap="butt" stroke-linejoin="round" stroke-width="4"/><path d="m755.34515 348.0328c0 31.084503-2.0998535 56.283478-4.6901245 56.283478h-240.44656c-2.590271 0-4.690094-25.198975-4.690094-56.283478z" fill="none"/><path d="m755.34515 348.0328c0 31.084503-2.0998535 56.283478-4.6901245 56.283478h-240.44656c-2.590271 0-4.690094-25.198975-4.690094-56.283478" fill="none"/><path d="m755.34515 348.0328c0 31.084503-2.0998535 56.283478-4.6901245 56.283478h-240.44656c-2.590271 0-4.690094-25.198975-4.690094-56.283478" fill-rule="evenodd" stroke="#b7b7b7" stroke-linecap="butt" stroke-linejoin="round" stroke-width="4"/><path d="m277.91995 142.3924c0-9.845459 7.7345276-17.826775 17.275574-17.826775 4.581787 0 8.975891 1.8781662 12.215698 5.2213364 3.2398071 3.3431702 5.059906 7.877472 5.059906 12.605438 0 9.845444-7.734558 17.826767-17.275604 17.826767-9.541046 0-17.275574-7.9813232-17.275574-17.826767z" fill="#cfe2f3" fill-rule="evenodd"/><path d="m277.91995 142.3924c0-9.845459 7.7345276-17.826775 17.275574-17.826775 4.581787 0 8.975891 1.8781662 12.215698 5.2213364 3.2398071 3.3431702 5.059906 7.877472 5.059906 12.605438 0 9.845444-7.734558 17.826767-17.275604 17.826767-9.541046 0-17.275574-7.9813232-17.275574-17.826767z" fill-rule="evenodd" stroke="#000" stroke-linecap="butt" stroke-linejoin="round"/><path d="m629.47375 142.3924c0-9.845459 7.734558-17.826775 17.275574-17.826775 4.581787 0 8.975891 1.8781662 12.215698 5.2213364 3.2398071 3.3431702 5.0599365 7.877472 5.0599365 12.605438 0 9.845444-7.734558 17.826767-17.275635 17.826767-9.541016 0-17.275574-7.9813232-17.275574-17.826767z" fill="#b6d7a8" fill-rule="evenodd"/><path d="m629.47375 142.3924c0-9.845459 7.734558-17.826775 17.275574-17.826775 4.581787 0 8.975891 1.8781662 12.215698 5.2213364 3.2398071 3.3431702 5.0599365 7.877472 5.0599365 12.605438 0 9.845444-7.734558 17.826767-17.275635 17.826767-9.541016 0-17.275574-7.9813232-17.275574-17.826767z" fill-rule="evenodd" stroke="#000" stroke-linecap="butt" stroke-linejoin="round"/><path d="m438.36746 142.3924c0-9.845459 7.7345276-17.826775 17.275574-17.826775 4.581787 0 8.975891 1.8781662 12.215698 5.2213364 3.2398071 3.3431702 5.059906 7.877472 5.059906 12.605438 0 9.845444-7.734558 17.826767-17.275604 17.826767-9.541046 0-17.275574-7.9813232-17.275574-17.826767z" fill="#ffe599" fill-rule="evenodd"/><path d="m438.36746 142.3924c0-9.845459 7.7345276-17.826775 17.275574-17.826775 4.581787 0 8.975891 1.8781662 12.215698 5.2213364 3.2398071 3.3431702 5.059906 7.877472 5.059906 12.605438 0 9.845444-7.734558 17.826767-17.275604 17.826767-9.541046 0-17.275574-7.9813232-17.275574-17.826767z" fill-rule="evenodd" stroke="#000" stroke-linecap="butt" stroke-linejoin="round"/><path d="m516.5079 142.3924c0-9.845459 7.734558-17.826775 17.275574-17.826775 4.581787 0 8.975891 1.8781662 12.215698 5.2213364 3.2398071 3.3431702 5.0599365 7.877472 5.0599365 12.605438 0 9.845444-7.734558 17.826767-17.275635 17.826767-9.541016 0-17.275574-7.9813232-17.275574-17.826767z" fill="#e6c9af" fill-rule="evenodd"/><path d="m516.5079 142.3924c0-9.845459 7.734558-17.826775 17.275574-17.826775 4.581787 0 8.975891 1.8781662 12.215698 5.2213364 3.2398071 3.3431702 5.0599365 7.877472 5.0599365 12.605438 0 9.845444-7.734558 17.826767-17.275635 17.826767-9.541016 0-17.275574-7.9813232-17.275574-17.826767z" fill-rule="evenodd" stroke="#000" stroke-linecap="butt" stroke-linejoin="round"/><path d="m358.14435 142.3924c0-9.845459 7.734558-17.826775 17.275604-17.826775 4.5817566 0 8.975891 1.8781662 12.215668 5.2213364 3.2398071 3.3431702 5.059906 7.877472 5.059906 12.605438 0 9.845444-7.7345276 17.826767-17.275574 17.826767-9.541046 0-17.275604-7.9813232-17.275604-17.826767z" fill="#f4cccc" fill-rule="evenodd"/><path d="m358.14435 142.3924c0-9.845459 7.734558-17.826775 17.275604-17.826775 4.5817566 0 8.975891 1.8781662 12.215668 5.2213364 3.2398071 3.3431702 5.059906 7.877472 5.059906 12.605438 0 9.845444-7.7345276 17.826767-17.275574 17.826767-9.541046 0-17.275604-7.9813232-17.275604-17.826767z" fill-rule="evenodd" stroke="#000" stroke-linecap="butt" stroke-linejoin="round"/><path d="m295.19553 160.21916.56695557 198.39369" fill="none"/><path d="m295.19553 160.21916.56695557 198.39369" style="stroke:#000;stroke-width:2;stroke-linejoin:round;stroke-linecap:butt;stroke-dasharray:2 6;fill-rule:evenodd"/><path d="m377.21915 160.21916.56695557 198.39369" fill="none"/><path d="m377.21915 160.21916.56695557 198.39369" style="stroke:#000;stroke-width:2;stroke-linejoin:round;stroke-linecap:butt;stroke-dasharray:2 6;fill-rule:evenodd"/><path d="m455.3596 160.21916.56692505 198.39369" fill="none"/><path d="m455.3596 160.21916.56692505 198.39369" style="stroke:#000;stroke-width:2;stroke-linejoin:round;stroke-linecap:butt;stroke-dasharray:2 6;fill-rule:evenodd"/><path d="m533.5 160.21916.56695557 198.39369" fill="none"/><path d="m533.5 160.21916.56695557 198.39369" style="stroke:#000;stroke-width:2;stroke-linejoin:round;stroke-linecap:butt;stroke-dasharray:2 6;fill-rule:evenodd"/><path d="m646.4659 160.21916.56695557 198.39369" fill="none"/><path d="m646.4659 160.21916.56695557 198.39369" style="stroke:#000;stroke-width:2;stroke-linejoin:round;stroke-linecap:butt;stroke-dasharray:2 6;fill-rule:evenodd"/><path d="m226.66011 354.30054h34.551163v43.748016h-34.551163z" fill="none"/><path d="m235.62886 386.3405 6.59375-17.1875h2.453125l7.03125 17.1875h-2.59375l-2-5.203125h-7.1875l-1.890625 5.203125zm4.953125-7.0625h5.828125l-1.796875-4.75q-.8125-2.171875-1.21875-3.5625-.328125 1.65625-.921875 3.28125z" fill="#000"/><path d="m312.46982 282.5315h34.551178v43.748047h-34.551178z" fill="none"/><path d="m323.23544 314.5715v-17.1875h6.4375q1.96875 0 3.15625.53125 1.1875.515625 1.859375 1.609375.6875 1.078125.6875 2.265625 0 1.09375-.609375 2.078125-.59375.96875-1.796875 1.5625 1.5625.453125 2.390625 1.5625.84375 1.09375.84375 2.59375 0 1.203125-.515625 2.25-.5 1.03125-1.25 1.59375-.75.5625-1.890625.859375-1.125.28125-2.765625.28125zm2.265625-9.96875h3.71875q1.515625 0 2.171875-.1875.859375-.265625 1.296875-.859375.4375-.59375.4375-1.5 0-.859375-.40625-1.5-.40625-.65625-1.171875-.890625-.765625-.25-2.609375-.25h-3.4375zm0 7.9375h4.28125q1.09375 0 1.546875-.078125.78125-.140625 1.3125-.46875.53125-.328125.859375-.953125.34375-.625.34375-1.453125 0-.953125-.5-1.65625-.484375-.71875-1.359375-1-.875-.296875-2.515625-.296875h-3.96875z" fill="#000"/><path d="m472.91995 354.30054h34.551178v43.748016h-34.551178z" fill="none"/><path d="m496.02933 380.30927 2.28125.578125q-.71875 2.796875-2.578125 4.28125-1.859375 1.46875-4.546875 1.46875-2.765625 0-4.515625-1.125-1.734375-1.140625-2.640625-3.28125-.90625-2.15625-.90625-4.609375 0-2.6875 1.015625-4.6875 1.03125-2 2.921875-3.03125 1.890625-1.03125 4.171875-1.03125 2.578125 0 4.328125 1.3125 1.765625 1.3125 2.453125 3.6875l-2.234375.53125q-.609375-1.875-1.75-2.734375-1.125-.859375-2.84375-.859375-1.984375 0-3.3125.953125-1.328125.953125-1.875 2.546875-.53125 1.59375-.53125 3.296875 0 2.1875.625 3.828125.640625 1.640625 1.984375 2.453125 1.359375.796875 2.921875.796875 1.921875 0 3.234375-1.09375 1.328125-1.109375 1.796875-3.28125z" fill="#000"/><path d="m228.34383 616.6365c0 31.084534-2.099823 56.283447-4.690094 56.283447h-161.13948c-2.590271 0-4.6901016-25.198914-4.6901016-56.283447z" fill="none"/><path d="m228.34383 616.6365c0 31.084534-2.099823 56.283447-4.690094 56.283447h-161.13948c-2.590271 0-4.6901016-25.198914-4.6901016-56.283447" fill="none"/><path d="m228.34383 616.6365c0 31.084534-2.099823 56.283447-4.690094 56.283447h-161.13948c-2.590271 0-4.6901016-25.198914-4.6901016-56.283447" fill-rule="evenodd" stroke="#b7b7b7" stroke-linecap="butt" stroke-linejoin="round" stroke-width="4"/><path d="m23.272966 618.85693h34.551178v43.748047h-34.551178z" fill="none"/><path d="m32.241714 650.897 6.59375-17.1875h2.453125l7.03125 17.1875h-2.59375l-2-5.203125h-7.1875l-1.890625 5.203125zm4.953125-7.0625h5.828125l-1.796875-4.75q-.8125-2.171875-1.21875-3.5625-.328125 1.65625-.921875 3.28125z" fill="#000"/><path d="m564.53546 616.6365c0 31.084534-2.0998535 56.283447-4.6901245 56.283447h-240.44656c-2.590271 0-4.6901245-25.198914-4.6901245-56.283447z" fill="none"/><path d="m564.53546 616.6365c0 31.084534-2.0998535 56.283447-4.6901245 56.283447h-240.44656c-2.590271 0-4.6901245-25.198914-4.6901245-56.283447" fill="none"/><path d="m564.53546 616.6365c0 31.084534-2.0998535 56.283447-4.6901245 56.283447h-240.44656c-2.590271 0-4.6901245-25.198914-4.6901245-56.283447" fill-rule="evenodd" stroke="#b7b7b7" stroke-linecap="butt" stroke-linejoin="round" stroke-width="4"/><path d="m283.05774 623.32153h34.551178v43.748047h-34.551178z" fill="none"/><path d="m293.82336 655.3615v-17.1875h6.4375q1.96875 0 3.15625.53125 1.1875.515625 1.859375 1.609375.6875 1.078125.6875 2.265625 0 1.09375-.609375 2.078125-.59375.96875-1.796875 1.5625 1.5625.453125 2.390625 1.5625.84375 1.09375.84375 2.59375 0 1.203125-.515625 2.25-.5 1.03125-1.25 1.59375-.75.5625-1.890625.859375-1.125.28125-2.765625.28125zm2.265625-9.96875h3.71875q1.515625 0 2.171875-.1875.859375-.265625 1.296875-.859375.4375-.59375.4375-1.5 0-.859375-.40625-1.5-.40625-.65625-1.171875-.890625-.765625-.25-2.609375-.25h-3.4375zm0 7.9375h4.28125q1.09375 0 1.546875-.078125.78125-.140625 1.3125-.46875.53125-.328125.859375-.953125.34375-.625.34375-1.453125 0-.953125-.5-1.65625-.484375-.71875-1.359375-1-.875-.296875-2.515625-.296875h-3.96875z" fill="#000"/><path d="m900.72705 617.0525c0 31.084473-2.0998535 56.283447-4.6901245 56.283447h-240.44653c-2.590271 0-4.6901245-25.198975-4.6901245-56.283447z" fill="none"/><path d="m900.72705 617.0525c0 31.084473-2.0998535 56.283447-4.6901245 56.283447h-240.44653c-2.590271 0-4.6901245-25.198975-4.6901245-56.283447" fill="none"/><path d="m900.72705 617.0525c0 31.084473-2.0998535 56.283447-4.6901245 56.283447h-240.44653c-2.590271 0-4.6901245-25.198975-4.6901245-56.283447" fill-rule="evenodd" stroke="#b7b7b7" stroke-linecap="butt" stroke-linejoin="round" stroke-width="4"/><path d="m616.34906 622.9029h34.55121v43.748047h-34.55121z" fill="none"/><path d="m639.45844 648.9116 2.28125.578125q-.71875 2.796875-2.578125 4.28125-1.859375 1.46875-4.546875 1.46875-2.765625 0-4.515625-1.125-1.734375-1.140625-2.640625-3.28125-.90625-2.15625-.90625-4.609375 0-2.6875 1.015625-4.6875 1.03125-2 2.921875-3.03125 1.890625-1.03125 4.171875-1.03125 2.578125 0 4.328125 1.3125 1.765625 1.3125 2.453125 3.6875l-2.234375.53125q-.609375-1.875-1.75-2.734375-1.125-.859375-2.84375-.859375-1.984375 0-3.3125.953125-1.328125.953125-1.875 2.546875-.53125 1.59375-.53125 3.296875 0 2.1875.625 3.828125.640625 1.640625 1.984375 2.453125 1.359375.796875 2.921875.796875 1.921875 0 3.234375-1.09375 1.328125-1.109375 1.796875-3.28125z" fill="#000"/><g fill-rule="evenodd"><path d="m89.43438 640.93964c0-9.845459 7.7345505-17.826782 17.275597-17.826782 4.581772 0 8.9758835 1.8781738 12.215683 5.2213745 3.2398071 3.3431396 5.059906 7.8774414 5.059906 12.605408 0 9.845459-7.734543 17.826782-17.275589 17.826782-9.541046 0-17.275597-7.9813232-17.275597-17.826782z" fill="#cfe2f3"/><path d="m89.43438 640.93964c0-9.845459 7.7345505-17.826782 17.275597-17.826782 4.581772 0 8.9758835 1.8781738 12.215683 5.2213745 3.2398071 3.3431396 5.059906 7.8774414 5.059906 12.605408 0 9.845459-7.734543 17.826782-17.275589 17.826782-9.541046 0-17.275597-7.9813232-17.275597-17.826782z" stroke="#000" stroke-linecap="butt" stroke-linejoin="round"/><path d="m162.1798 640.52234c0-9.845459 7.734543-17.826782 17.275589-17.826782 4.581772 0 8.975876 1.8781738 12.215683 5.2213135 3.2398071 3.3432007 5.059906 7.8775024 5.059906 12.605469 0 9.845398-7.734543 17.826721-17.275589 17.826721-9.541046 0-17.275589-7.9813232-17.275589-17.826721z" fill="#f4cccc"/><path d="m162.1798 640.52234c0-9.845459 7.734543-17.826782 17.275589-17.826782 4.581772 0 8.975876 1.8781738 12.215683 5.2213135 3.2398071 3.3432007 5.059906 7.8775024 5.059906 12.605469 0 9.845398-7.734543 17.826721-17.275589 17.826721-9.541046 0-17.275589-7.9813232-17.275589-17.826721z" stroke="#000" stroke-linecap="butt" stroke-linejoin="round"/><path d="m342.94882 640.73096c0-9.845459 7.7345276-17.826782 17.275574-17.826782 4.581787 0 8.975891 1.8781738 12.215698 5.2213745 3.2398071 3.3431396 5.059906 7.8774414 5.059906 12.605408 0 9.845459-7.734558 17.826782-17.275604 17.826782-9.541046 0-17.275574-7.9813232-17.275574-17.826782z" fill="#f4cccc"/><path d="m342.94882 640.73096c0-9.845459 7.7345276-17.826782 17.275574-17.826782 4.581787 0 8.975891 1.8781738 12.215698 5.2213745 3.2398071 3.3431396 5.059906 7.8774414 5.059906 12.605408 0 9.845459-7.734558 17.826782-17.275604 17.826782-9.541046 0-17.275574-7.9813232-17.275574-17.826782z" stroke="#000" stroke-linecap="butt" stroke-linejoin="round"/><path d="m419.937 640.73096c0-9.845459 7.7345276-17.826782 17.275574-17.826782 4.581787 0 8.975891 1.8781738 12.215698 5.2213745 3.2398071 3.3431396 5.059906 7.8774414 5.059906 12.605408 0 9.845459-7.734558 17.826782-17.275604 17.826782-9.541046 0-17.275574-7.9813232-17.275574-17.826782z" fill="#ffe599"/><path d="m419.937 640.73096c0-9.845459 7.7345276-17.826782 17.275574-17.826782 4.581787 0 8.975891 1.8781738 12.215698 5.2213745 3.2398071 3.3431396 5.059906 7.8774414 5.059906 12.605408 0 9.845459-7.734558 17.826782-17.275604 17.826782-9.541046 0-17.275574-7.9813232-17.275574-17.826782z" stroke="#000" stroke-linecap="butt" stroke-linejoin="round"/><path d="m496.9252 640.73096c0-9.845459 7.7345276-17.826782 17.275604-17.826782 4.581726 0 8.975891 1.8781738 12.215698 5.2213745 3.239746 3.3431396 5.0598755 7.8774414 5.0598755 12.605408 0 9.845459-7.734558 17.826782-17.275574 17.826782-9.541077 0-17.275604-7.9813232-17.275604-17.826782z" fill="#e6c9af"/><path d="m496.9252 640.73096c0-9.845459 7.7345276-17.826782 17.275604-17.826782 4.581726 0 8.975891 1.8781738 12.215698 5.2213745 3.239746 3.3431396 5.0598755 7.8774414 5.0598755 12.605408 0 9.845459-7.734558 17.826782-17.275574 17.826782-9.541077 0-17.275604-7.9813232-17.275604-17.826782z" stroke="#000" stroke-linecap="butt" stroke-linejoin="round"/><path d="m710.7113 640.73096c0-9.845459 7.734558-17.826782 17.275574-17.826782 4.581787 0 8.975891 1.8781738 12.215698 5.2213745 3.2398071 3.3431396 5.0598755 7.8774414 5.0598755 12.605408 0 9.845459-7.734558 17.826782-17.275574 17.826782-9.541016 0-17.275574-7.9813232-17.275574-17.826782z" fill="#e6c9af"/><path d="m710.7113 640.73096c0-9.845459 7.734558-17.826782 17.275574-17.826782 4.581787 0 8.975891 1.8781738 12.215698 5.2213745 3.2398071 3.3431396 5.0598755 7.8774414 5.0598755 12.605408 0 9.845459-7.734558 17.826782-17.275574 17.826782-9.541016 0-17.275574-7.9813232-17.275574-17.826782z" stroke="#000" stroke-linecap="butt" stroke-linejoin="round"/><path d="m805.0735 640.73096c0-9.845459 7.734558-17.826782 17.275574-17.826782 4.581787 0 8.975891 1.8781738 12.215698 5.2213745 3.2398071 3.3431396 5.0599365 7.8774414 5.0599365 12.605408 0 9.845459-7.734558 17.826782-17.275635 17.826782-9.541016 0-17.275574-7.9813232-17.275574-17.826782z" fill="#b6d7a8"/><path d="m805.0735 640.73096c0-9.845459 7.734558-17.826782 17.275574-17.826782 4.581787 0 8.975891 1.8781738 12.215698 5.2213745 3.2398071 3.3431396 5.0599365 7.8774414 5.0599365 12.605408 0 9.845459-7.734558 17.826782-17.275635 17.826782-9.541016 0-17.275574-7.9813232-17.275574-17.826782z" stroke="#000" stroke-linecap="butt" stroke-linejoin="round"/><path d="m252.4672 510.47638h109.322845v-48.06299h218.64563v48.06299h109.322876l-218.64569 48.06299z" fill="#f3f3f3"/><path d="m252.4672 510.47638h109.322845v-48.06299h218.64563v48.06299h109.322876l-218.64569 48.06299z" stroke="#d9d9d9" stroke-linecap="butt" stroke-linejoin="round"/><path d="m60.509186 757.43567h39.385826v-48.06299h78.77166v48.06299h39.38582l-78.77165 48.06299z" fill="#f3f3f3"/><path d="m60.509186 757.43567h39.385826v-48.06299h78.77166v48.06299h39.38582l-78.77165 48.06299z" stroke="#d9d9d9" stroke-linecap="butt" stroke-linejoin="round"/></g><path d="m122.766235 747.65247 1.765625.453125q-.5625 2.171875-2 3.328125-1.4375 1.140625-3.53125 1.140625-2.15625 0-3.515625-.875-1.34375-.890625-2.0625-2.546875-.703125-1.671875-.703125-3.59375 0-2.078125.796875-3.625.796875-1.5625 2.265625-2.359375 1.484375-.8125 3.25-.8125 2 0 3.359375 1.015625 1.375 1.015625 1.90625 2.875l-1.734375.40625q-.46875-1.453125-1.359375-2.109375-.875-.671875-2.203125-.671875-1.546875 0-2.578125.734375-1.03125.734375-1.453125 1.984375-.421875 1.234375-.421875 2.5625 0 1.703125.5 2.96875.5 1.265625 1.546875 1.90625 1.046875.625 2.265625.625 1.484375 0 2.515625-.859375 1.03125-.859375 1.390625-2.546875zm3.1291962-.15625q0-2.6875 1.484375-3.96875 1.25-1.078125 3.046875-1.078125 2 0 3.265625 1.3125 1.265625 1.296875 1.265625 3.609375 0 1.859375-.5625 2.9375-.5625 1.0625-1.640625 1.65625-1.0625.59375-2.328125.59375-2.03125 0-3.28125-1.296875-1.25-1.3125-1.25-3.765625zm1.6875 0q0 1.859375.796875 2.796875.8125.921875 2.046875.921875 1.21875 0 2.03125-.921875.8125-.9375.8125-2.84375 0-1.796875-.8125-2.71875-.8125-.921875-2.03125-.921875-1.234375 0-2.046875.921875-.796875.90625-.796875 2.765625zm15.625717 4.84375v-1.421875q-1.125 1.640625-3.0625 1.640625-.859375 0-1.609375-.328125-.734375-.328125-1.09375-.828125-.359375-.5-.5-1.21875-.109375-.46875-.109375-1.53125v-5.984375h1.640625v5.359375q0 1.28125.109375 1.734375.15625.640625.65625 1.015625.5.375 1.234375.375.734375 0 1.375-.375.65625-.390625.921875-1.03125.265625-.65625.265625-1.890625v-5.1875h1.640625v9.671875zm4.047592 0v-9.671875h1.46875v1.375q1.0625-1.59375 3.078125-1.59375.875 0 1.609375.3125.734375.3125 1.09375.828125.375.5.515625 1.203125.09375.453125.09375 1.59375v5.953125h-1.640625v-5.890625q0-1-.203125-1.484375-.1875-.5-.671875-.796875-.484375-.296875-1.140625-.296875-1.046875 0-1.8125.671875-.75.65625-.75 2.515625v5.28125zm13.953842-1.46875.234375 1.453125q-.6875.140625-1.234375.140625-.890625 0-1.390625-.28125-.484375-.28125-.6875-.734375-.203125-.46875-.203125-1.9375v-5.578125h-1.203125v-1.265625h1.203125v-2.390625l1.625-.984375v3.375h1.65625v1.265625h-1.65625v5.671875q0 .6875.078125.890625.09375.203125.28125.328125.203125.109375.578125.109375.265625 0 .71875-.0625zm2.4801788-1.84375-.5-7.078125v-2.96875h2.03125v2.96875l-.484375 7.078125zm-.4375 3.3125v-1.875h1.890625v1.875z" fill="#000"/><path d="m354.63254 757.43567h39.385834v-48.06299h78.77167v48.06299h39.385803l-78.77164 48.06299z" fill="#f3f3f3" fill-rule="evenodd"/><path d="m354.63254 757.43567h39.385834v-48.06299h78.77167v48.06299h39.385803l-78.77164 48.06299z" fill-rule="evenodd" stroke="#d9d9d9" stroke-linecap="butt" stroke-linejoin="round"/><path d="m416.8896 747.65247 1.765625.453125q-.5625 2.171875-2 3.328125-1.4375 1.140625-3.53125 1.140625-2.15625 0-3.515625-.875-1.34375-.890625-2.0625-2.546875-.703125-1.671875-.703125-3.59375 0-2.078125.796875-3.625.796875-1.5625 2.265625-2.359375 1.484375-.8125 3.25-.8125 2 0 3.359375 1.015625 1.375 1.015625 1.90625 2.875l-1.734375.40625q-.46875-1.453125-1.359375-2.109375-.875-.671875-2.203125-.671875-1.546875 0-2.578125.734375-1.03125.734375-1.453125 1.984375-.421875 1.234375-.421875 2.5625 0 1.703125.5 2.96875.5 1.265625 1.546875 1.90625 1.046875.625 2.265625.625 1.484375 0 2.515625-.859375 1.03125-.859375 1.390625-2.546875zm3.1292114-.15625q0-2.6875 1.484375-3.96875 1.25-1.078125 3.046875-1.078125 2 0 3.265625 1.3125 1.265625 1.296875 1.265625 3.609375 0 1.859375-.5625 2.9375-.5625 1.0625-1.640625 1.65625-1.0625.59375-2.328125.59375-2.03125 0-3.28125-1.296875-1.25-1.3125-1.25-3.765625zm1.6875 0q0 1.859375.796875 2.796875.8125.921875 2.046875.921875 1.21875 0 2.03125-.921875.8125-.9375.8125-2.84375 0-1.796875-.8125-2.71875-.8125-.921875-2.03125-.921875-1.234375 0-2.046875.921875-.796875.90625-.796875 2.765625zm15.625702 4.84375v-1.421875q-1.125 1.640625-3.0625 1.640625-.859375 0-1.609375-.328125-.734375-.328125-1.09375-.828125-.359375-.5-.5-1.21875-.109375-.46875-.109375-1.53125v-5.984375h1.640625v5.359375q0 1.28125.109375 1.734375.15625.640625.65625 1.015625.5.375 1.234375.375.734375 0 1.375-.375.65625-.390625.921875-1.03125.265625-.65625.265625-1.890625v-5.1875h1.640625v9.671875zm4.0476074 0v-9.671875h1.46875v1.375q1.0625-1.59375 3.078125-1.59375.875 0 1.609375.3125.734375.3125 1.09375.828125.375.5.515625 1.203125.09375.453125.09375 1.59375v5.953125h-1.640625v-5.890625q0-1-.203125-1.484375-.1875-.5-.671875-.796875-.484375-.296875-1.140625-.296875-1.046875 0-1.8125.671875-.75.65625-.75 2.515625v5.28125zm13.953827-1.46875.234375 1.453125q-.6875.140625-1.234375.140625-.890625 0-1.390625-.28125-.484375-.28125-.6875-.734375-.203125-.46875-.203125-1.9375v-5.578125h-1.203125v-1.265625h1.203125v-2.390625l1.625-.984375v3.375h1.65625v1.265625h-1.65625v5.671875q0 .6875.078125.890625.09375.203125.28125.328125.203125.109375.578125.109375.265625 0 .71875-.0625zm2.480194-1.84375-.5-7.078125v-2.96875h2.03125v2.96875l-.484375 7.078125zm-.4375 3.3125v-1.875h1.890625v1.875z" fill="#000"/><path d="m693.2336 757.43567h39.385864v-48.06299h78.77161v48.06299h39.385864l-78.77167 48.06299z" fill="#f3f3f3" fill-rule="evenodd"/><path d="m693.2336 757.43567h39.385864v-48.06299h78.77161v48.06299h39.385864l-78.77167 48.06299z" fill-rule="evenodd" stroke="#d9d9d9" stroke-linecap="butt" stroke-linejoin="round"/><path d="m755.49066 747.65247 1.765625.453125q-.5625 2.171875-2 3.328125-1.4375 1.140625-3.53125 1.140625-2.15625 0-3.515625-.875-1.34375-.890625-2.0625-2.546875-.703125-1.671875-.703125-3.59375 0-2.078125.796875-3.625.796875-1.5625 2.265625-2.359375 1.484375-.8125 3.25-.8125 2 0 3.359375 1.015625 1.375 1.015625 1.90625 2.875l-1.734375.40625q-.46875-1.453125-1.359375-2.109375-.875-.671875-2.203125-.671875-1.546875 0-2.578125.734375-1.03125.734375-1.453125 1.984375-.421875 1.234375-.421875 2.5625 0 1.703125.5 2.96875.5 1.265625 1.546875 1.90625 1.046875.625 2.265625.625 1.484375 0 2.515625-.859375 1.03125-.859375 1.390625-2.546875zm3.1291504-.15625q0-2.6875 1.484375-3.96875 1.25-1.078125 3.046875-1.078125 2 0 3.265625 1.3125 1.265625 1.296875 1.265625 3.609375 0 1.859375-.5625 2.9375-.5625 1.0625-1.640625 1.65625-1.0625.59375-2.328125.59375-2.03125 0-3.28125-1.296875-1.25-1.3125-1.25-3.765625zm1.6875 0q0 1.859375.796875 2.796875.8125.921875 2.046875.921875 1.21875 0 2.03125-.921875.8125-.9375.8125-2.84375 0-1.796875-.8125-2.71875-.8125-.921875-2.03125-.921875-1.234375 0-2.046875.921875-.796875.90625-.796875 2.765625zm15.625732 4.84375v-1.421875q-1.125 1.640625-3.0625 1.640625-.859375 0-1.609375-.328125-.734375-.328125-1.09375-.828125-.359375-.5-.5-1.21875-.109375-.46875-.109375-1.53125v-5.984375h1.640625v5.359375q0 1.28125.109375 1.734375.15625.640625.65625 1.015625.5.375 1.234375.375.734375 0 1.375-.375.65625-.390625.921875-1.03125.265625-.65625.265625-1.890625v-5.1875h1.640625v9.671875zm4.0476074 0v-9.671875h1.46875v1.375q1.0625-1.59375 3.078125-1.59375.875 0 1.609375.3125.734375.3125 1.09375.828125.375.5.515625 1.203125.09375.453125.09375 1.59375v5.953125h-1.640625v-5.890625q0-1-.203125-1.484375-.1875-.5-.671875-.796875-.484375-.296875-1.140625-.296875-1.046875 0-1.8125.671875-.75.65625-.75 2.515625v5.28125zm13.953857-1.46875.234375 1.453125q-.6875.140625-1.234375.140625-.890625 0-1.390625-.28125-.484375-.28125-.6875-.734375-.203125-.46875-.203125-1.9375v-5.578125h-1.203125v-1.265625h1.203125v-2.390625l1.625-.984375v3.375h1.65625v1.265625h-1.65625v5.671875q0 .6875.078125.890625.09375.203125.28125.328125.203125.109375.578125.109375.265625 0 .71875-.0625zm2.4801636-1.84375-.5-7.078125v-2.96875h2.03125v2.96875l-.484375 7.078125zm-.4375 3.3125v-1.875h1.890625v1.875z" fill="#000"/><path d="m101.79002 823.3333h77.98425v43.748047h-77.98425z" fill="none"/><path d="m119.4052 855.37335 6.59375-17.1875h2.453125l7.03125 17.1875h-2.59375l-2-5.203125h-7.1875l-1.890625 5.203125zm4.953125-7.0625h5.828125l-1.796875-4.75q-.8125-2.171875-1.21875-3.5625-.328125 1.65625-.921875 3.28125zm13.2578125-2.984375v-2.40625h2.40625v2.40625zm0 10.046875v-2.40625h2.40625v2.40625zm23.242188-2.03125v2.03125h-11.34375q-.03125-.765625.234375-1.46875.4375-1.15625 1.390625-2.28125.953125-1.125 2.765625-2.609375 2.796875-2.296875 3.78125-3.625.984375-1.34375.984375-2.546875 0-1.25-.90625-2.109375-.890625-.859375-2.328125-.859375-1.515625 0-2.4375.921875-.90625.90625-.921875 2.515625l-2.171875-.21875q.21875-2.421875 1.671875-3.6875 1.453125-1.28125 3.90625-1.28125 2.46875 0 3.90625 1.375 1.453125 1.359375 1.453125 3.390625 0 1.03125-.421875 2.03125-.421875 1-1.40625 2.109375-.96875 1.09375-3.25 3.015625-1.890625 1.59375-2.4375 2.15625-.53125.5625-.890625 1.140625z" fill="#000"/><path d="m397.75067 823.33203h77.98422v43.748047h-77.98422z" fill="none"/><path d="m417.16272 855.372v-17.1875h6.4375q1.96875 0 3.15625.53125 1.1875.515625 1.859375 1.609375.6875 1.078125.6875 2.265625 0 1.09375-.609375 2.078125-.59375.96875-1.796875 1.5625 1.5625.453125 2.390625 1.5625.84375 1.09375.84375 2.59375 0 1.203125-.515625 2.25-.5 1.03125-1.25 1.59375-.75.5625-1.890625.859375-1.125.28125-2.765625.28125zm2.265625-9.96875h3.71875q1.515625 0 2.171875-.1875.859375-.265625 1.296875-.859375.4375-.59375.4375-1.5 0-.859375-.40625-1.5-.40625-.65625-1.171875-.890625-.765625-.25-2.609375-.25h-3.4375zm0 7.9375h4.28125q1.09375 0 1.546875-.078125.78125-.140625 1.3125-.46875.53125-.328125.859375-.953125.34375-.625.34375-1.453125 0-.953125-.5-1.65625-.484375-.71875-1.359375-1-.875-.296875-2.515625-.296875h-3.96875zm14.1484375-8.015625v-2.40625h2.40625v2.40625zm0 10.046875v-2.40625h2.40625v2.40625zm12.1796875-4.53125 2.109375-.28125q.359375 1.78125 1.234375 2.578125.875.796875 2.125.796875 1.484375 0 2.5-1.03125 1.03125-1.03125 1.03125-2.5625 0-1.453125-.953125-2.390625-.9375-.953125-2.40625-.953125-.59375 0-1.484375.234375l.234375-1.84375q.203125.015625.34375.015625 1.34375 0 2.421875-.703125 1.078125-.703125 1.078125-2.15625 0-1.171875-.796875-1.921875-.78125-.765625-2.015625-.765625-1.234375 0-2.0625.78125-.8125.765625-1.046875 2.3125l-2.109375-.375q.390625-2.125 1.75-3.28125 1.375-1.171875 3.421875-1.171875 1.40625 0 2.578125.609375 1.1875.59375 1.8125 1.640625.640625 1.046875.640625 2.21875 0 1.109375-.609375 2.03125-.59375.90625-1.765625 1.4375 1.53125.359375 2.375 1.46875.84375 1.109375.84375 2.765625 0 2.25-1.640625 3.828125-1.640625 1.5625-4.15625 1.5625-2.265625 0-3.765625-1.34375-1.484375-1.359375-1.6875-3.5z" fill="#000"/><path d="m736.3517 823.3333h77.98425v43.748047h-77.98425z" fill="none"/><path d="m767.4454 849.3421 2.28125.578125q-.71875 2.796875-2.578125 4.28125-1.859375 1.46875-4.546875 1.46875-2.765625 0-4.515625-1.125-1.734375-1.140625-2.640625-3.28125-.90625-2.15625-.90625-4.609375 0-2.6875 1.015625-4.6875 1.03125-2 2.921875-3.03125 1.890625-1.03125 4.171875-1.03125 2.578125 0 4.328125 1.3125 1.765625 1.3125 2.453125 3.6875l-2.234375.53125q-.609375-1.875-1.75-2.734375-1.125-.859375-2.84375-.859375-1.984375 0-3.3125.953125-1.328125.953125-1.875 2.546875-.53125 1.59375-.53125 3.296875 0 2.1875.625 3.828125.640625 1.640625 1.984375 2.453125 1.359375.796875 2.921875.796875 1.921875 0 3.234375-1.09375 1.328125-1.109375 1.796875-3.28125zm5.3945312-4.015625v-2.40625h2.40625v2.40625zm0 10.046875v-2.40625h2.40625v2.40625zm23.242188-2.03125v2.03125h-11.34375q-.03125-.765625.234375-1.46875.4375-1.15625 1.390625-2.28125.953125-1.125 2.765625-2.609375 2.796875-2.296875 3.78125-3.625.984375-1.34375.984375-2.546875 0-1.25-.90625-2.109375-.890625-.859375-2.328125-.859375-1.515625 0-2.4375.921875-.90625.90625-.921875 2.515625l-2.171875-.21875q.21875-2.421875 1.671875-3.6875 1.453125-1.28125 3.90625-1.28125 2.46875 0 3.90625 1.375 1.453125 1.359375 1.453125 3.390625 0 1.03125-.421875 2.03125-.421875 1-1.40625 2.109375-.96875 1.09375-3.25 3.015625-1.890625 1.59375-2.4375 2.15625-.53125.5625-.890625 1.140625z" fill="#000"/><path d="m264 72 436 4" fill="none"/><path d="m264 72 408.58447 3.7484818" fill-rule="evenodd" stroke="#999" stroke-linecap="butt" stroke-linejoin="round" stroke-width="8"/><path d="m672.5845 75.74848-9.078857 8.913757 24.799683-8.769531-24.634583-9.223053z" fill="#999" fill-rule="evenodd" stroke="#999" stroke-linecap="butt" stroke-width="8"/><path d="m267.70078 28.251968h157.5433v43.74803h-157.5433z" fill="none"/><path d="m278.16953 55.171967v-13.359375h9.65625v1.578125h-7.875v4.09375h7.375v1.5625h-7.375v4.546875h8.1875v1.578125zm14.896698 0-3.6875-9.671875h1.734375l2.078125 5.796875q.328125.9375.625 1.9375.203125-.765625.609375-1.828125l2.140625-5.90625h1.6875l-3.65625 9.671875zm13.265625-3.109375 1.6875.203125q-.40625 1.484375-1.484375 2.3125-1.078125.8125-2.765625.8125-2.125 0-3.375-1.296875-1.234375-1.3125-1.234375-3.671875 0-2.453125 1.25-3.796875 1.265625-1.34375 3.265625-1.34375 1.9375 0 3.15625 1.328125 1.234375 1.3125 1.234375 3.703125 0 .15625 0 .4375h-7.21875q.09375 1.59375.90625 2.453125.8125.84375 2.015625.84375.90625 0 1.546875-.46875.640625-.484375 1.015625-1.515625zm-5.390625-2.65625h5.40625q-.109375-1.21875-.625-1.828125-.78125-.953125-2.03125-.953125-1.125 0-1.90625.765625-.765625.75-.84375 2.015625zm9.141357 5.765625v-9.671875h1.46875v1.375q1.0625-1.59375 3.078125-1.59375.875 0 1.609375.3125.734375.3125 1.09375.828125.375.5.515625 1.203125.09375.453125.09375 1.59375v5.953125h-1.640625v-5.890625q0-1-.203125-1.484375-.1875-.5-.671875-.796875-.484375-.296875-1.140625-.296875-1.046875 0-1.8125.671875-.75.65625-.75 2.515625v5.28125zm13.953827-1.46875.234375 1.453125q-.6875.140625-1.234375.140625-.890625 0-1.390625-.28125-.484375-.28125-.6875-.734375-.203125-.46875-.203125-1.9375v-5.578125h-1.203125v-1.265625h1.203125v-2.390625l1.625-.984375v3.375h1.65625v1.265625h-1.65625v5.671875q0 .6875.078125.890625.09375.203125.28125.328125.203125.109375.578125.109375.265625 0 .71875-.0625zm10.060638 1.46875v-11.78125h-4.40625v-1.578125h10.578125v1.578125h-4.40625v11.78125zm7.0939026-11.46875v-1.890625h1.640625v1.890625zm0 11.46875v-9.671875h1.640625v9.671875zm4.144806 0v-9.671875h1.46875v1.359375q.453125-.71875 1.203125-1.140625.765625-.4375 1.71875-.4375 1.078125 0 1.765625.453125.6875.4375.96875 1.234375 1.15625-1.6875 2.984375-1.6875 1.453125 0 2.21875.796875.78125.796875.78125 2.453125v6.640625h-1.640625v-6.09375q0-.984375-.15625-1.40625-.15625-.4375-.578125-.703125-.421875-.265625-.984375-.265625-1.015625 0-1.6875.6875-.671875.671875-.671875 2.15625v5.625h-1.640625v-6.28125q0-1.09375-.40625-1.640625-.40625-.546875-1.3125-.546875-.6875 0-1.28125.359375-.59375.359375-.859375 1.0625-.25.703125-.25 2.03125v5.015625zm22.165802-3.109375 1.6875.203125q-.40625 1.484375-1.484375 2.3125-1.078125.8125-2.765625.8125-2.125 0-3.375-1.296875-1.234375-1.3125-1.234375-3.671875 0-2.453125 1.25-3.796875 1.265625-1.34375 3.265625-1.34375 1.9375 0 3.15625 1.328125 1.234375 1.3125 1.234375 3.703125 0 .15625 0 .4375h-7.21875q.09375 1.59375.90625 2.453125.8125.84375 2.015625.84375.90625 0 1.546875-.46875.640625-.484375 1.015625-1.515625zm-5.390625-2.65625h5.40625q-.109375-1.21875-.625-1.828125-.78125-.953125-2.03125-.953125-1.125 0-1.90625.765625-.765625.75-.84375 2.015625z" fill="#000"/></g></svg>