<?xml version="1.0" encoding="utf-8"?>
<!-- Generator: Adobe Illustrator 26.0.3, SVG Export Plug-In . SVG Version: 6.00 Build 0)  -->
<svg version="1.1" id="Layer_1" xmlns="http://www.w3.org/2000/svg" xmlns:xlink="http://www.w3.org/1999/xlink" x="0px" y="0px"
	 viewBox="0 0 2000 1000" style="enable-background:new 0 0 2000 1000;" xml:space="preserve">
<style type="text/css">
	.st0{opacity:0.73;fill:#1D1D1B;stroke:#000000;stroke-width:4;stroke-miterlimit:10;enable-background:new    ;}
	.st1{stroke:#000000;stroke-width:4;stroke-miterlimit:10;}
	.st2{fill:none;stroke:#00BAC6;stroke-width:2;stroke-miterlimit:10;}
	.st3{fill:#FFFFFF;}
	.st4{font-family:'ArialMT';}
	.st5{font-size:59px;}
	.st6{fill:none;stroke:#000000;stroke-width:4;stroke-linecap:round;stroke-linejoin:round;}
	.st7{font-family:'Helvetica';}
	.st8{font-size:51.9708px;}
</style>
<rect x="44.7" y="60" class="st0" width="1910.7" height="412.2"/>
<rect x="196.4" y="264" class="st1" width="454.7" height="144.8"/>
<g id="Artwork_1_00000119099236776396716530000015764886379287867573_">
	<path class="st2" d="M242.8,300.9h-0.3c-4.1,0-8.4-4.2-8.4-8.2v-0.2h-0.6v0.2c0,4-4.3,8.2-8.4,8.2h-0.3v0.6h0.3
		c4.1,0,8.4,4.2,8.4,8.2v0.2h0.6v-0.2c0-4,4.3-8.2,8.4-8.2h0.3V300.9L242.8,300.9z"/>
	<path class="st2" d="M242.8,318.4h-0.3c-4.1,0-8.4-4.2-8.4-8.2V310h-0.6v0.2c0,4-4.3,8.2-8.4,8.2h-0.3v0.6h0.3
		c4.1,0,8.4,4.2,8.4,8.2v0.2h0.6v-0.2c0-4,4.3-8.2,8.4-8.2h0.3V318.4L242.8,318.4z"/>
	<path class="st2" d="M260.7,318.4h-0.3c-4.1,0-8.4-4.2-8.4-8.2V310h-0.6v0.2c0,4-4.3,8.2-8.4,8.2h-0.3v0.6h0.3
		c4.1,0,8.4,4.2,8.4,8.2v0.2h0.6v-0.2c0-4,4.3-8.2,8.4-8.2h0.3V318.4z"/>
	<path class="st2" d="M242.8,336.1h-0.3c-4.1,0-8.4-4.3-8.4-8.4v-0.3h-0.6v0.3c0,4.1-4.3,8.4-8.4,8.4h-0.3v0.6h0.3
		c4.1,0,8.4,4.3,8.4,8.4v0.3h0.6v-0.3c0-4.1,4.3-8.4,8.4-8.4h0.3V336.1L242.8,336.1z"/>
	<path class="st2" d="M260.7,336.1h-0.3c-4.1,0-8.4-4.3-8.4-8.4v-0.3h-0.6v0.3c0,4.1-4.3,8.4-8.4,8.4h-0.3v0.6h0.3
		c4.1,0,8.4,4.3,8.4,8.4v0.3h0.6v-0.3c0-4.1,4.3-8.4,8.4-8.4h0.3V336.1z"/>
	<path class="st2" d="M278.6,336.1h-0.3c-4.1,0-8.4-4.3-8.4-8.4v-0.3h-0.6v0.3c0,4.1-4.3,8.4-8.4,8.4h-0.3v0.6h0.3
		c4.1,0,8.4,4.3,8.4,8.4v0.3h0.6v-0.3c0-4.1,4.3-8.4,8.4-8.4h0.3V336.1z"/>
	<path class="st2" d="M242.8,353.8h-0.3c-4.1,0-8.4-4.2-8.4-8.2v-0.2h-0.6v0.2c0,4-4.3,8.2-8.4,8.2h-0.3v0.6h0.3
		c4.1,0,8.4,4.2,8.4,8.2v0.2h0.6v-0.2c0-4,4.3-8.2,8.4-8.2h0.3V353.8L242.8,353.8z"/>
	<path class="st2" d="M260.7,353.8h-0.3c-4.1,0-8.4-4.2-8.4-8.2v-0.2h-0.6v0.2c0,4-4.3,8.2-8.4,8.2h-0.3v0.6h0.3
		c4.1,0,8.4,4.2,8.4,8.2v0.2h0.6v-0.2c0-4,4.3-8.2,8.4-8.2h0.3V353.8z"/>
	<path class="st2" d="M296.1,318.4h-0.2c-4,0-8.2-4.2-8.2-8.2V310h-0.6v0.2c0,4-4.2,8.2-8.2,8.2h-0.2v0.6h0.2c4,0,8.2,4.2,8.2,8.2
		v0.2h0.6v-0.2c0-4,4.2-8.2,8.2-8.2h0.2V318.4z"/>
	<path class="st2" d="M296.1,336.1h-0.2c-4,0-8.2-4.3-8.2-8.4v-0.3h-0.6v0.3c0,4.1-4.2,8.4-8.2,8.4h-0.2v0.6h0.2
		c4,0,8.2,4.3,8.2,8.4v0.3h0.6v-0.3c0-4.1,4.2-8.4,8.2-8.4h0.2V336.1z"/>
	<path class="st2" d="M296.1,353.8h-0.2c-4,0-8.2-4.2-8.2-8.2v-0.2h-0.6v0.2c0,4-4.2,8.2-8.2,8.2h-0.2v0.6h0.2c4,0,8.2,4.2,8.2,8.2
		v0.2h0.6v-0.2c0-4,4.2-8.2,8.2-8.2h0.2V353.8z"/>
	<path class="st2" d="M314,318.4h-0.2c-4,0-8.2-4.2-8.2-8.2V310H305v0.2c0,4-4.2,8.2-8.2,8.2h-0.2v0.6h0.2c4,0,8.2,4.2,8.2,8.2v0.2
		h0.6v-0.2c0-4,4.2-8.2,8.2-8.2h0.2V318.4z"/>
	<path class="st2" d="M314,300.9h-0.2c-4,0-8.2-4.2-8.2-8.2v-0.2H305v0.2c0,4-4.2,8.2-8.2,8.2h-0.2v0.6h0.2c4,0,8.2,4.2,8.2,8.2v0.2
		h0.6v-0.2c0-4,4.2-8.2,8.2-8.2h0.2V300.9z"/>
	<path class="st2" d="M314,336.1h-0.2c-4,0-8.2-4.3-8.2-8.4v-0.3H305v0.3c0,4.1-4.2,8.4-8.2,8.4h-0.2v0.6h0.2c4,0,8.2,4.3,8.2,8.4
		v0.3h0.6v-0.3c0-4.1,4.2-8.4,8.2-8.4h0.2V336.1z"/>
	<path class="st2" d="M314,371.2h-0.2c-4,0-8.2-4.2-8.2-8.2v-0.2H305v0.2c0,4-4.2,8.2-8.2,8.2h-0.2v0.6h0.2c4,0,8.2,4.2,8.2,8.2v0.2
		h0.6V380c0-4,4.2-8.2,8.2-8.2h0.2V371.2z"/>
	<path class="st2" d="M242.8,371.2h-0.3c-4.1,0-8.4-4.2-8.4-8.2v-0.2h-0.6v0.2c0,4-4.3,8.2-8.4,8.2h-0.3v0.6h0.3
		c4.1,0,8.4,4.2,8.4,8.2v0.2h0.6V380c0-4,4.3-8.2,8.4-8.2h0.3V371.2L242.8,371.2z"/>
	<path class="st2" d="M314,353.8h-0.2c-4,0-8.2-4.2-8.2-8.2v-0.2H305v0.2c0,4-4.2,8.2-8.2,8.2h-0.2v0.6h0.2c4,0,8.2,4.2,8.2,8.2v0.2
		h0.6v-0.2c0-4,4.2-8.2,8.2-8.2h0.2V353.8z"/>
</g>
<text transform="matrix(1 0 0 1 349.1178 357.3326)" class="st3 st4 st5">Member</text>
<rect x="774.7" y="264" class="st1" width="454.7" height="144.8"/>
<g id="Artwork_1_00000000903109060943899370000006839596830005333888_">
	<path class="st2" d="M821.1,300.9h-0.3c-4.1,0-8.4-4.2-8.4-8.2v-0.2h-0.6v0.2c0,4-4.3,8.2-8.4,8.2h-0.3v0.6h0.3
		c4.1,0,8.4,4.2,8.4,8.2v0.2h0.6v-0.2c0-4,4.3-8.2,8.4-8.2h0.3V300.9L821.1,300.9z"/>
	<path class="st2" d="M821.1,318.4h-0.3c-4.1,0-8.4-4.2-8.4-8.2V310h-0.6v0.2c0,4-4.3,8.2-8.4,8.2h-0.3v0.6h0.3
		c4.1,0,8.4,4.2,8.4,8.2v0.2h0.6v-0.2c0-4,4.3-8.2,8.4-8.2h0.3V318.4L821.1,318.4z"/>
	<path class="st2" d="M839,318.4h-0.3c-4.1,0-8.4-4.2-8.4-8.2V310h-0.6v0.2c0,4-4.3,8.2-8.4,8.2H821v0.6h0.3c4.1,0,8.4,4.2,8.4,8.2
		v0.2h0.6v-0.2c0-4,4.3-8.2,8.4-8.2h0.3V318.4z"/>
	<path class="st2" d="M821.1,336.1h-0.3c-4.1,0-8.4-4.3-8.4-8.4v-0.3h-0.6v0.3c0,4.1-4.3,8.4-8.4,8.4h-0.3v0.6h0.3
		c4.1,0,8.4,4.3,8.4,8.4v0.3h0.6v-0.3c0-4.1,4.3-8.4,8.4-8.4h0.3V336.1L821.1,336.1z"/>
	<path class="st2" d="M839,336.1h-0.3c-4.1,0-8.4-4.3-8.4-8.4v-0.3h-0.6v0.3c0,4.1-4.3,8.4-8.4,8.4H821v0.6h0.3
		c4.1,0,8.4,4.3,8.4,8.4v0.3h0.6v-0.3c0-4.1,4.3-8.4,8.4-8.4h0.3V336.1z"/>
	<path class="st2" d="M856.9,336.1h-0.3c-4.1,0-8.4-4.3-8.4-8.4v-0.3h-0.6v0.3c0,4.1-4.3,8.4-8.4,8.4h-0.3v0.6h0.3
		c4.1,0,8.4,4.3,8.4,8.4v0.3h0.6v-0.3c0-4.1,4.3-8.4,8.4-8.4h0.3V336.1z"/>
	<path class="st2" d="M821.1,353.8h-0.3c-4.1,0-8.4-4.2-8.4-8.2v-0.2h-0.6v0.2c0,4-4.3,8.2-8.4,8.2h-0.3v0.6h0.3
		c4.1,0,8.4,4.2,8.4,8.2v0.2h0.6v-0.2c0-4,4.3-8.2,8.4-8.2h0.3V353.8L821.1,353.8z"/>
	<path class="st2" d="M839,353.8h-0.3c-4.1,0-8.4-4.2-8.4-8.2v-0.2h-0.6v0.2c0,4-4.3,8.2-8.4,8.2H821v0.6h0.3c4.1,0,8.4,4.2,8.4,8.2
		v0.2h0.6v-0.2c0-4,4.3-8.2,8.4-8.2h0.3V353.8z"/>
	<path class="st2" d="M874.4,318.4h-0.2c-4,0-8.2-4.2-8.2-8.2V310h-0.6v0.2c0,4-4.2,8.2-8.2,8.2H857v0.6h0.2c4,0,8.2,4.2,8.2,8.2
		v0.2h0.6v-0.2c0-4,4.2-8.2,8.2-8.2h0.2V318.4z"/>
	<path class="st2" d="M874.4,336.1h-0.2c-4,0-8.2-4.3-8.2-8.4v-0.3h-0.6v0.3c0,4.1-4.2,8.4-8.2,8.4H857v0.6h0.2c4,0,8.2,4.3,8.2,8.4
		v0.3h0.6v-0.3c0-4.1,4.2-8.4,8.2-8.4h0.2V336.1z"/>
	<path class="st2" d="M874.4,353.8h-0.2c-4,0-8.2-4.2-8.2-8.2v-0.2h-0.6v0.2c0,4-4.2,8.2-8.2,8.2H857v0.6h0.2c4,0,8.2,4.2,8.2,8.2
		v0.2h0.6v-0.2c0-4,4.2-8.2,8.2-8.2h0.2V353.8z"/>
	<path class="st2" d="M892.3,318.4h-0.2c-4,0-8.2-4.2-8.2-8.2V310h-0.6v0.2c0,4-4.2,8.2-8.2,8.2h-0.2v0.6h0.2c4,0,8.2,4.2,8.2,8.2
		v0.2h0.6v-0.2c0-4,4.2-8.2,8.2-8.2h0.2V318.4z"/>
	<path class="st2" d="M892.3,300.9h-0.2c-4,0-8.2-4.2-8.2-8.2v-0.2h-0.6v0.2c0,4-4.2,8.2-8.2,8.2h-0.2v0.6h0.2c4,0,8.2,4.2,8.2,8.2
		v0.2h0.6v-0.2c0-4,4.2-8.2,8.2-8.2h0.2V300.9z"/>
	<path class="st2" d="M892.3,336.1h-0.2c-4,0-8.2-4.3-8.2-8.4v-0.3h-0.6v0.3c0,4.1-4.2,8.4-8.2,8.4h-0.2v0.6h0.2
		c4,0,8.2,4.3,8.2,8.4v0.3h0.6v-0.3c0-4.1,4.2-8.4,8.2-8.4h0.2V336.1z"/>
	<path class="st2" d="M892.3,371.2h-0.2c-4,0-8.2-4.2-8.2-8.2v-0.2h-0.6v0.2c0,4-4.2,8.2-8.2,8.2h-0.2v0.6h0.2c4,0,8.2,4.2,8.2,8.2
		v0.2h0.6V380c0-4,4.2-8.2,8.2-8.2h0.2V371.2z"/>
	<path class="st2" d="M821.1,371.2h-0.3c-4.1,0-8.4-4.2-8.4-8.2v-0.2h-0.6v0.2c0,4-4.3,8.2-8.4,8.2h-0.3v0.6h0.3
		c4.1,0,8.4,4.2,8.4,8.2v0.2h0.6V380c0-4,4.3-8.2,8.4-8.2h0.3V371.2L821.1,371.2z"/>
	<path class="st2" d="M892.3,353.8h-0.2c-4,0-8.2-4.2-8.2-8.2v-0.2h-0.6v0.2c0,4-4.2,8.2-8.2,8.2h-0.2v0.6h0.2c4,0,8.2,4.2,8.2,8.2
		v0.2h0.6v-0.2c0-4,4.2-8.2,8.2-8.2h0.2V353.8z"/>
</g>
<text transform="matrix(1 0 0 1 927.4158 357.3326)" class="st3 st4 st5">Member</text>
<rect x="1343.1" y="264" class="st1" width="454.7" height="144.8"/>
<g id="Artwork_1_00000161596250436205090200000007656560228653710264_">
	<path class="st2" d="M1389.5,300.9h-0.3c-4.1,0-8.4-4.2-8.4-8.2v-0.2h-0.6v0.2c0,4-4.3,8.2-8.4,8.2h-0.3v0.6h0.3
		c4.1,0,8.4,4.2,8.4,8.2v0.2h0.6v-0.2c0-4,4.3-8.2,8.4-8.2h0.3V300.9L1389.5,300.9z"/>
	<path class="st2" d="M1389.5,318.4h-0.3c-4.1,0-8.4-4.2-8.4-8.2V310h-0.6v0.2c0,4-4.3,8.2-8.4,8.2h-0.3v0.6h0.3
		c4.1,0,8.4,4.2,8.4,8.2v0.2h0.6v-0.2c0-4,4.3-8.2,8.4-8.2h0.3V318.4L1389.5,318.4z"/>
	<path class="st2" d="M1407.4,318.4h-0.3c-4.1,0-8.4-4.2-8.4-8.2V310h-0.6v0.2c0,4-4.3,8.2-8.4,8.2h-0.3v0.6h0.3
		c4.1,0,8.4,4.2,8.4,8.2v0.2h0.6v-0.2c0-4,4.3-8.2,8.4-8.2h0.3V318.4z"/>
	<path class="st2" d="M1389.5,336.1h-0.3c-4.1,0-8.4-4.3-8.4-8.4v-0.3h-0.6v0.3c0,4.1-4.3,8.4-8.4,8.4h-0.3v0.6h0.3
		c4.1,0,8.4,4.3,8.4,8.4v0.3h0.6v-0.3c0-4.1,4.3-8.4,8.4-8.4h0.3V336.1L1389.5,336.1z"/>
	<path class="st2" d="M1407.4,336.1h-0.3c-4.1,0-8.4-4.3-8.4-8.4v-0.3h-0.6v0.3c0,4.1-4.3,8.4-8.4,8.4h-0.3v0.6h0.3
		c4.1,0,8.4,4.3,8.4,8.4v0.3h0.6v-0.3c0-4.1,4.3-8.4,8.4-8.4h0.3V336.1z"/>
	<path class="st2" d="M1425.3,336.1h-0.3c-4.1,0-8.4-4.3-8.4-8.4v-0.3h-0.6v0.3c0,4.1-4.3,8.4-8.4,8.4h-0.3v0.6h0.3
		c4.1,0,8.4,4.3,8.4,8.4v0.3h0.6v-0.3c0-4.1,4.3-8.4,8.4-8.4h0.3V336.1z"/>
	<path class="st2" d="M1389.5,353.8h-0.3c-4.1,0-8.4-4.2-8.4-8.2v-0.2h-0.6v0.2c0,4-4.3,8.2-8.4,8.2h-0.3v0.6h0.3
		c4.1,0,8.4,4.2,8.4,8.2v0.2h0.6v-0.2c0-4,4.3-8.2,8.4-8.2h0.3V353.8L1389.5,353.8z"/>
	<path class="st2" d="M1407.4,353.8h-0.3c-4.1,0-8.4-4.2-8.4-8.2v-0.2h-0.6v0.2c0,4-4.3,8.2-8.4,8.2h-0.3v0.6h0.3
		c4.1,0,8.4,4.2,8.4,8.2v0.2h0.6v-0.2c0-4,4.3-8.2,8.4-8.2h0.3V353.8z"/>
	<path class="st2" d="M1442.8,318.4h-0.2c-4,0-8.2-4.2-8.2-8.2V310h-0.6v0.2c0,4-4.2,8.2-8.2,8.2h-0.2v0.6h0.2c4,0,8.2,4.2,8.2,8.2
		v0.2h0.6v-0.2c0-4,4.2-8.2,8.2-8.2h0.2V318.4z"/>
	<path class="st2" d="M1442.8,336.1h-0.2c-4,0-8.2-4.3-8.2-8.4v-0.3h-0.6v0.3c0,4.1-4.2,8.4-8.2,8.4h-0.2v0.6h0.2
		c4,0,8.2,4.3,8.2,8.4v0.3h0.6v-0.3c0-4.1,4.2-8.4,8.2-8.4h0.2V336.1z"/>
	<path class="st2" d="M1442.8,353.8h-0.2c-4,0-8.2-4.2-8.2-8.2v-0.2h-0.6v0.2c0,4-4.2,8.2-8.2,8.2h-0.2v0.6h0.2c4,0,8.2,4.2,8.2,8.2
		v0.2h0.6v-0.2c0-4,4.2-8.2,8.2-8.2h0.2V353.8z"/>
	<path class="st2" d="M1460.7,318.4h-0.2c-4,0-8.2-4.2-8.2-8.2V310h-0.6v0.2c0,4-4.2,8.2-8.2,8.2h-0.2v0.6h0.2c4,0,8.2,4.2,8.2,8.2
		v0.2h0.6v-0.2c0-4,4.2-8.2,8.2-8.2h0.2V318.4z"/>
	<path class="st2" d="M1460.7,300.9h-0.2c-4,0-8.2-4.2-8.2-8.2v-0.2h-0.6v0.2c0,4-4.2,8.2-8.2,8.2h-0.2v0.6h0.2c4,0,8.2,4.2,8.2,8.2
		v0.2h0.6v-0.2c0-4,4.2-8.2,8.2-8.2h0.2V300.9z"/>
	<path class="st2" d="M1460.7,336.1h-0.2c-4,0-8.2-4.3-8.2-8.4v-0.3h-0.6v0.3c0,4.1-4.2,8.4-8.2,8.4h-0.2v0.6h0.2
		c4,0,8.2,4.3,8.2,8.4v0.3h0.6v-0.3c0-4.1,4.2-8.4,8.2-8.4h0.2V336.1z"/>
	<path class="st2" d="M1460.7,371.2h-0.2c-4,0-8.2-4.2-8.2-8.2v-0.2h-0.6v0.2c0,4-4.2,8.2-8.2,8.2h-0.2v0.6h0.2c4,0,8.2,4.2,8.2,8.2
		v0.2h0.6V380c0-4,4.2-8.2,8.2-8.2h0.2V371.2z"/>
	<path class="st2" d="M1389.5,371.2h-0.3c-4.1,0-8.4-4.2-8.4-8.2v-0.2h-0.6v0.2c0,4-4.3,8.2-8.4,8.2h-0.3v0.6h0.3
		c4.1,0,8.4,4.2,8.4,8.2v0.2h0.6V380c0-4,4.3-8.2,8.4-8.2h0.3V371.2L1389.5,371.2z"/>
	<path class="st2" d="M1460.7,353.8h-0.2c-4,0-8.2-4.2-8.2-8.2v-0.2h-0.6v0.2c0,4-4.2,8.2-8.2,8.2h-0.2v0.6h0.2c4,0,8.2,4.2,8.2,8.2
		v0.2h0.6v-0.2c0-4,4.2-8.2,8.2-8.2h0.2V353.8z"/>
</g>
<text transform="matrix(1 0 0 1 1495.7677 357.3326)" class="st3 st4 st5">Member</text>
<text transform="matrix(1 0 0 1 907.4521 139.8622)" class="st3 st4 st5">Cluster</text>
<g>
	<g>
		<line class="st6" x1="929.2" y1="513.4" x2="929.2" y2="602.5"/>
		<g>
			<polygon points="929.2,495.6 913,520.7 929.2,514.7 945.5,520.7 			"/>
		</g>
	</g>
</g>
<g>
	<g>
		<line class="st6" x1="1074.7" y1="495.6" x2="1074.7" y2="584.6"/>
		<g>
			<polygon points="1074.7,602.5 1058.4,577.4 1074.7,583.3 1091,577.4 			"/>
		</g>
	</g>
</g>
<g id="g1232" transform="translate(46.875993,10.640066)">
	<rect id="rect1200" x="857.8" y="671.2" width="5.8" height="4.5"/>
	<rect id="rect1202" x="869.5" y="671.2" width="5.8" height="4.5"/>
	<rect id="rect1204" x="880.9" y="671.2" width="5.8" height="4.5"/>
	<path id="path1206" d="M869.5,737.7h40.4v-31.2h-40.4V737.7z M875,711h28.7v22.3H875V711z"/>
	<path id="path1208" d="M927.1,737.7h40.4v-31.2h-40.4V737.7z M932.7,711h28.7v22.3h-28.7V711z"/>
	<path id="path1210" d="M927.1,782h40.4v-31.2h-40.4V782z M932.7,755.5h28.7v22.3h-28.7V755.5z"/>
	<path id="path1212" d="M984.5,782h40.4v-31.2h-40.4V782z M990.3,755.5h28.7v22.3h-28.7V755.5z"/>
	<path id="path1214" d="M908.5,662.3h-1.7h-60.4v17.8v11.1v108.6h201.6V691.2v-11.1v-17.8H908.5z M852.2,666.7h52.9l8.6,13.4h-61.5
		V666.7z M1042.1,795.3H851.9V691.2v-6.7h190.2v6.7V795.3z M920.2,680.1l-8.6-13.4h130.9v13.4H920.2z"/>
	<rect id="rect1216" x="987.5" y="706.5" width="34.5" height="4.5"/>
	<rect id="rect1218" x="987.5" y="715.4" width="34.5" height="4.5"/>
	<rect id="rect1220" x="987.5" y="724.3" width="34.5" height="4.5"/>
	<rect id="rect1222" x="987.5" y="733.3" width="23.1" height="4.5"/>
	<rect id="rect1224" x="872.3" y="751.1" width="34.5" height="4.5"/>
	<rect id="rect1226" x="872.3" y="760" width="34.5" height="4.5"/>
	<rect id="rect1228" x="872.3" y="768.6" width="34.5" height="4.5"/>
	<rect id="rect1230" x="872.3" y="777.5" width="23.1" height="4.5"/>
</g>
<g id="g1262" transform="translate(46.875993,10.640066)">
	<path id="path1258" d="M1109.2,650.3c-0.3-3.6-3.6-6.7-7.5-6.7H814.9c-3.9,0-7.2,3.1-7.5,6.7V834c0,3.9,3.3,7.2,7.5,7.2h286.5
		c4.2,0,7.5-3.3,7.5-7.2L1109.2,650.3z M1096.9,807H819.4V655.3h277.6V807z"/>
	<path id="path1260" d="M1006.5,875.5c-12-2.8-15-11.4-15-22.8v-2.8h-33.1h-33.1v2.8c0,11.4-3.1,20-15,22.8c-3.1,0.6-3.1,5.8,0,5.8
		h48.2h48.2C1009.5,881.4,1009.5,876.4,1006.5,875.5L1006.5,875.5z"/>
</g>
<path id="path1350" d="M1281.9,765.1c-5.3-2.2-19.5-6.1-19.5-6.1l-1.1-0.3c0,0-13.9-3.9-19.8-4.7c-10-1.4-17.5-3.6-23.1,16.4
	c-1.9,6.7-29.8,108-32.6,118c-2.8,10,3.3,18.7,13.9,21.7c10.6,3.1,18.4,5,18.4,5l1.1,0.3c0,0,8.1,2.2,18.4,5
	c10.6,2.8,20.3-1.4,23.1-11.4c2.8-10,30.6-111.1,32.6-118C1298.9,770.9,1291.4,769.2,1281.9,765.1L1281.9,765.1z M1253.2,761.7
	l14.2,3.9c0.6,0,0.8,0.6,0.6,1.1c-0.3,0.6-0.6,0.8-1.1,0.8l-14.2-3.9c-0.6-0.3-0.8-0.6-0.6-1.1
	C1252.4,761.7,1253,761.4,1253.2,761.7z M1229,910.9c-0.3,0.8-1.1,1.4-1.7,1.1l-13.9-3.9c-0.8-0.3-1.1-1.1-1.1-1.9l0.6-2.2
	c0.3-0.8,1.1-1.4,1.9-1.1l13.9,3.9c0.8,0.3,1.1,1.1,1.1,1.9L1229,910.9z M1256.3,902.9l-63.8-17.5l32.6-118l63.8,17.5L1256.3,902.9z
	"/>
<text transform="matrix(1 0 0 1 868.9979 961.7797)" class="st7 st8">Client App</text>
</svg>
