<svg fill="none" stroke-linecap="square" stroke-miterlimit="10" viewBox="0 0 670 360" xmlns="http://www.w3.org/2000/svg" xmlns:xlink="http://www.w3.org/1999/xlink"><clipPath id="a"><path d="m0 0h670v360h-670z"/></clipPath><g clip-path="url(#a)"><path d="m0 0h670v360h-670z" fill="none"/><path d="m84.220474 28.987085c0-5.76359 4.67231-10.435904 10.435905-10.435904h109.301414c2.7677765 0 5.4221954 1.099493 7.379303 3.0566044 1.9571075 1.9571114 3.05661 4.6115246 3.05661 7.379299v41.742363c0 5.7635956-4.6723175 10.435905-10.435913 10.435905h-109.301414c-5.7635956 0-10.435905-4.67231-10.435905-10.435905z" fill="#d8eeff" fill-rule="evenodd"/><path d="m84.220474 28.987085c0-5.76359 4.67231-10.435904 10.435905-10.435904h109.301414c2.7677765 0 5.4221954 1.099493 7.379303 3.0566044 1.9571075 1.9571114 3.05661 4.6115246 3.05661 7.379299v41.742363c0 5.7635956-4.6723175 10.435905-10.435913 10.435905h-109.301414c-5.7635956 0-10.435905-4.67231-10.435905-10.435905z" fill-rule="evenodd" stroke="#595959" stroke-linecap="butt" stroke-linejoin="round"/><path d="m119.7649 55.99827v-12.40625h2.46875l2.9375 8.78125q.40625 1.234375.59375 1.84375.21875-.6875.65625-2l2.9843826-8.625h2.203125v12.40625h-1.578125v-10.375l-3.6093826 10.375h-1.484375l-3.578125-10.5625v10.5625zm13.731346-4.5q0-2.484375 1.390625-3.6875 1.15625-1 2.8125-1 1.859375 0 3.03125 1.21875 1.1875 1.203125 1.1875 3.34375 0 1.734375-.53125 2.734375-.515625 1-1.515625 1.546875-.984375.546875-2.171875.546875-1.875 0-3.046875-1.203125-1.15625-1.21875-1.15625-3.5zm1.5625 0q0 1.734375.75 2.59375.75.859375 1.890625.859375 1.140625 0 1.890625-.859375.75-.875.75-2.640625 0-1.65625-.75-2.515625-.75-.859375-1.890625-.859375-1.140625 0-1.890625.859375-.75.84375-.75 2.5625zm8.637085 4.5v-8.984375h1.375v1.28125q.984375-1.484375 2.859375-1.484375.8125 0 1.484375.296875.6875.28125 1.015625.765625.34375.46875.484375 1.125.078125.421875.078125 1.46875v5.53125h-1.515625v-5.46875q0-.921875-.1875-1.375-.171875-.46875-.625-.75-.453125-.28125-1.0625-.28125-.96875 0-1.671875.625-.703125.609375-.703125 2.34375v4.90625zm15.465195 0v-1.140625q-.84375 1.34375-2.515625 1.34375-1.0625 0-1.96875-.59375-.90625-.59375-1.40625-1.65625-.484375-1.0625-.484375-2.4375 0-1.34375.4375-2.4375.453125-1.09375 1.34375-1.671875.90625-.59375 2.015625-.59375.8125 0 1.4375.34375.640625.34375 1.046875.890625v-4.453125h1.515625v12.40625zm-4.8125-4.484375q0 1.71875.71875 2.578125.734375.859375 1.734375.859375.984375 0 1.6875-.8125.703125-.828125.703125-2.5 0-1.84375-.71875-2.703125-.703125-.859375-1.75-.859375-1.015625 0-1.703125.828125-.671875.828125-.671875 2.609375zm14.480835 3.375q-.84375.71875-1.625 1.015625-.78125.296875-1.671875.296875-1.484375 0-2.28125-.71875-.796875-.734375-.796875-1.859375 0-.65625.296875-1.203125.3125-.546875.796875-.875.484375-.328125 1.09375-.5.4375-.109375 1.34375-.21875 1.84375-.21875 2.71875-.53125.015625-.3125.015625-.390625 0-.9375-.4375-1.3125-.578125-.515625-1.734375-.515625-1.078125 0-1.59375.375-.5.375-.75 1.328125l-1.484375-.203125q.203125-.953125.65625-1.53125.46875-.59375 1.34375-.90625.890625-.328125 2.046875-.328125 1.15625 0 1.875.28125.71875.265625 1.046875.671875.34375.40625.484375 1.03125.078125.390625.078125 1.40625v2.03125q0 2.125.09375 2.6875.09375.5625.390625 1.078125h-1.59375q-.234375-.46875-.3125-1.109375zm-.125-3.40625q-.828125.34375-2.484375.578125-.9375.140625-1.328125.3125-.390625.171875-.609375.5-.203125.3125-.203125.71875 0 .609375.453125 1.015625.46875.40625 1.359375.40625.875 0 1.5625-.390625.6875-.390625 1.015625-1.046875.234375-.515625.234375-1.53125zm3.84021 7.96875-.171875-1.421875q.5.140625.875.140625.5 0 .796875-.171875.3125-.171875.515625-.484375.140625-.21875.453125-1.125.046875-.125.140625-.375l-3.40625-9h1.640625l1.875 5.203125q.359375.984375.640625 2.078125.265625-1.046875.625-2.046875l1.921875-5.234375h1.53125l-3.421875 9.140625q-.546875 1.484375-.859375 2.03125-.40625.75-.9375 1.09375-.515625.359375-1.234375.359375-.453125 0-.984375-.1875z" fill="#000"/><path d="m269.9134 28.987085c0-5.76359 4.6723022-10.435904 10.435913-10.435904h109.30139c2.7677917 0 5.4222107 1.099493 7.379303 3.0566044 1.9571228 1.9571114 3.05661 4.6115246 3.05661 7.379299v41.742363c0 5.7635956-4.6723022 10.435905-10.435913 10.435905h-109.30139c-5.763611 0-10.435913-4.67231-10.435913-10.435905z" fill="#d8eeff" fill-rule="evenodd"/><path d="m269.9134 28.987085c0-5.76359 4.6723022-10.435904 10.435913-10.435904h109.30139c2.7677917 0 5.4222107 1.099493 7.379303 3.0566044 1.9571228 1.9571114 3.05661 4.6115246 3.05661 7.379299v41.742363c0 5.7635956-4.6723022 10.435905-10.435913 10.435905h-109.30139c-5.763611 0-10.435913-4.67231-10.435913-10.435905z" fill-rule="evenodd" stroke="#595959" stroke-linecap="butt" stroke-linejoin="round"/><path d="m306.59103 55.99827v-10.9375h-4.09375v-1.46875h9.828125v1.46875h-4.09375v10.9375zm12.472717 0v-1.3125q-1.046875 1.515625-2.84375 1.515625-.796875 0-1.5-.296875-.6875-.3125-1.015625-.765625-.328125-.46875-.46875-1.140625-.09375-.4375-.09375-1.421875v-5.5625h1.515625v4.984375q0 1.1875.09375 1.609375.15625.59375.609375.9375.46875.34375 1.15625.34375.6875 0 1.28125-.34375.609375-.359375.859375-.953125.25-.609375.25-1.765625v-4.8125h1.515625v8.984375zm9.90271-2.890625 1.5625.1875q-.359375 1.390625-1.375 2.15625-1 .75-2.5625.75-1.984375 0-3.140625-1.203125-1.140625-1.21875-1.140625-3.421875 0-2.265625 1.15625-3.515625 1.171875-1.25 3.03125-1.25 1.8125 0 2.953125 1.234375 1.140625 1.21875 1.140625 3.4375 0 .140625-.015625.40625h-6.703125q.09375 1.484375.84375 2.28125.75.78125 1.875.78125.84375 0 1.4375-.4375.59375-.4375.9375-1.40625zm-5-2.46875h5.015625q-.109375-1.125-.578125-1.703125-.734375-.875-1.890625-.875-1.046875 0-1.765625.703125-.703125.703125-.78125 1.875zm7.87146 2.671875 1.515625-.234375q.125.90625.703125 1.390625.578125.484375 1.609375.484375 1.0625 0 1.5625-.421875.515625-.4375.515625-1.015625 0-.515625-.453125-.8125-.3125-.203125-1.5625-.515625-1.671875-.421875-2.328125-.71875-.640625-.3125-.984375-.859375-.328125-.546875-.328125-1.203125 0-.609375.28125-1.109375.28125-.515625.75-.859375.359375-.265625.96875-.4375.609375-.1875 1.3125-.1875 1.0625 0 1.859375.3125.796875.296875 1.171875.828125.390625.515625.53125 1.375l-1.484375.203125q-.109375-.6875-.59375-1.078125-.484375-.390625-1.375-.390625-1.046875 0-1.5.34375-.4375.34375-.4375.8125 0 .296875.171875.53125.1875.25.59375.40625.21875.09375 1.34375.390625 1.609375.4375 2.25.71875.640625.265625 1 .796875.375.515625.375 1.296875 0 .765625-.453125 1.4375-.4375.671875-1.28125 1.046875-.828125.359375-1.890625.359375-1.75 0-2.671875-.71875-.921875-.734375-1.171875-2.171875zm15.1015625 2.6875v-1.140625q-.84375 1.34375-2.515625 1.34375-1.0625 0-1.96875-.59375-.90625-.59375-1.40625-1.65625-.484375-1.0625-.484375-2.4375 0-1.34375.4375-2.4375.453125-1.09375 1.34375-1.671875.90625-.59375 2.015625-.59375.8125 0 1.4375.34375.640625.34375 1.046875.890625v-4.453125h1.515625v12.40625zm-4.8125-4.484375q0 1.71875.71875 2.578125.734375.859375 1.734375.859375.984375 0 1.6875-.8125.703125-.828125.703125-2.5 0-1.84375-.71875-2.703125-.703125-.859375-1.75-.859375-1.015625 0-1.703125.828125-.671875.828125-.671875 2.609375zm14.480835 3.375q-.84375.71875-1.625 1.015625-.78125.296875-1.671875.296875-1.484375 0-2.28125-.71875-.796875-.734375-.796875-1.859375 0-.65625.296875-1.203125.3125-.546875.796875-.875.484375-.328125 1.09375-.5.4375-.109375 1.34375-.21875 1.84375-.21875 2.71875-.53125.015625-.3125.015625-.390625 0-.9375-.4375-1.3125-.578125-.515625-1.734375-.515625-1.078125 0-1.59375.375-.5.375-.75 1.328125l-1.484375-.203125q.203125-.953125.65625-1.53125.46875-.59375 1.34375-.90625.890625-.328125 2.046875-.328125 1.15625 0 1.875.28125.71875.265625 1.046875.671875.34375.40625.484375 1.03125.078125.390625.078125 1.40625v2.03125q0 2.125.09375 2.6875.09375.5625.390625 1.078125h-1.59375q-.234375-.46875-.3125-1.109375zm-.125-3.40625q-.828125.34375-2.484375.578125-.9375.140625-1.328125.3125-.390625.171875-.609375.5-.203125.3125-.203125.71875 0 .609375.453125 1.015625.46875.40625 1.359375.40625.875 0 1.5625-.390625.6875-.390625 1.015625-1.046875.234375-.515625.234375-1.53125zm3.84021 7.96875-.171875-1.421875q.5.140625.875.140625.5 0 .796875-.171875.3125-.171875.515625-.484375.140625-.21875.453125-1.125.046875-.125.140625-.375l-3.40625-9h1.640625l1.875 5.203125q.359375.984375.640625 2.078125.265625-1.046875.625-2.046875l1.921875-5.234375h1.53125l-3.421875 9.140625q-.546875 1.484375-.859375 2.03125-.40625.75-.9375 1.09375-.515625.359375-1.234375.359375-.453125 0-.984375-.1875z" fill="#000"/><path d="m455.6063 28.987085c0-5.76359 4.672333-10.435904 10.435913-10.435904h109.30142c2.7677612 0 5.42218 1.099493 7.3792725 3.0566044 1.9571533 1.9571114 3.0566406 4.6115246 3.0566406 7.379299v41.742363c0 5.7635956-4.6723022 10.435905-10.435913 10.435905h-109.30142c-5.7635803 0-10.435913-4.67231-10.435913-10.435905z" fill="#d8eeff" fill-rule="evenodd"/><path d="m455.6063 28.987085c0-5.76359 4.672333-10.435904 10.435913-10.435904h109.30142c2.7677612 0 5.42218 1.099493 7.3792725 3.0566044 1.9571533 1.9571114 3.0566406 4.6115246 3.0566406 7.379299v41.742363c0 5.7635956-4.6723022 10.435905-10.435913 10.435905h-109.30142c-5.7635803 0-10.435913-4.67231-10.435913-10.435905z" fill-rule="evenodd" stroke="#595959" stroke-linecap="butt" stroke-linejoin="round"/><path d="m478.59662 55.99827-3.28125-12.40625h1.671875l1.890625 8.140625q.3125 1.265625.53125 2.53125.46875-1.984375.546875-2.296875l2.359375-8.375h1.984375l1.78125 6.28125q.671875 2.328125.96875 4.390625.234375-1.171875.609375-2.703125l1.953125-7.96875h1.640625l-3.390625 12.40625h-1.59375l-2.609375-9.453125q-.328125-1.1875-.390625-1.453125-.1875.859375-.359375 1.453125l-2.640625 9.453125zm19.838837-2.890625 1.5625.1875q-.359375 1.390625-1.375 2.15625-1 .75-2.5625.75-1.984375 0-3.140625-1.203125-1.140625-1.21875-1.140625-3.421875 0-2.265625 1.15625-3.515625 1.171875-1.25 3.03125-1.25 1.8125 0 2.953125 1.234375 1.140625 1.21875 1.140625 3.4375 0 .140625-.015625.40625h-6.703125q.09375 1.484375.84375 2.28125.75.78125 1.875.78125.84375 0 1.4375-.4375.59375-.4375.9375-1.40625zm-5-2.46875h5.015625q-.109375-1.125-.578125-1.703125-.734375-.875-1.890625-.875-1.046875 0-1.765625.703125-.703125.703125-.78125 1.875zm14.30896 5.359375v-1.140625q-.84375 1.34375-2.515625 1.34375-1.0625 0-1.96875-.59375-.90625-.59375-1.40625-1.65625-.484375-1.0625-.484375-2.4375 0-1.34375.4375-2.4375.453125-1.09375 1.34375-1.671875.90625-.59375 2.015625-.59375.8125 0 1.4375.34375.640625.34375 1.046875.890625v-4.453125h1.515625v12.40625zm-4.8125-4.484375q0 1.71875.71875 2.578125.734375.859375 1.734375.859375.984375 0 1.6875-.8125.703125-.828125.703125-2.5 0-1.84375-.71875-2.703125-.703125-.859375-1.75-.859375-1.015625 0-1.703125.828125-.671875.828125-.671875 2.609375zm8.62146 4.484375v-8.984375h1.3749695v1.28125q.984375-1.484375 2.859375-1.484375.8125 0 1.484375.296875.6875.28125 1.015625.765625.34375.46875.484375 1.125.078125.421875.078125 1.46875v5.53125h-1.515625v-5.46875q0-.921875-.1875-1.375-.171875-.46875-.625-.75-.453125-.28125-1.0625-.28125-.96875 0-1.671875.625-.703125.609375-.703125 2.34375v4.90625zm15.793304-2.890625 1.5625.1875q-.359375 1.390625-1.375 2.15625-1 .75-2.5625.75-1.984375 0-3.140625-1.203125-1.140625-1.21875-1.140625-3.421875 0-2.265625 1.15625-3.515625 1.171875-1.25 3.03125-1.25 1.8125 0 2.953125 1.234375 1.140625 1.21875 1.140625 3.4375 0 .140625-.015625.40625h-6.703125q.09375 1.484375.84375 2.28125.75.78125 1.875.78125.84375 0 1.4375-.4375.59375-.4375.9375-1.40625zm-5-2.46875h5.015625q-.109375-1.125-.578125-1.703125-.734375-.875-1.890625-.875-1.046875 0-1.765625.703125-.703125.703125-.78125 1.875zm7.87146 2.671875 1.515625-.234375q.125.90625.703125 1.390625.578125.484375 1.609375.484375 1.0625 0 1.5625-.421875.515625-.4375.515625-1.015625 0-.515625-.453125-.8125-.3125-.203125-1.5625-.515625-1.671875-.421875-2.328125-.71875-.640625-.3125-.984375-.859375-.328125-.546875-.328125-1.203125 0-.609375.28125-1.109375.28125-.515625.75-.859375.359375-.265625.96875-.4375.609375-.1875 1.3125-.1875 1.0625 0 1.859375.3125.796875.296875 1.171875.828125.390625.515625.53125 1.375l-1.484375.203125q-.109375-.6875-.59375-1.078125-.484375-.390625-1.375-.390625-1.046875 0-1.5.34375-.4375.34375-.4375.8125 0 .296875.171875.53125.1875.25.59375.40625.21875.09375 1.34375.390625 1.609375.4375 2.25.71875.640625.265625 1 .796875.375.515625.375 1.296875 0 .765625-.453125 1.4375-.4375.671875-1.28125 1.046875-.828125.359375-1.890625.359375-1.75 0-2.671875-.71875-.921875-.734375-1.171875-2.171875zm15.1015625 2.6875v-1.140625q-.84375 1.34375-2.515625 1.34375-1.0625 0-1.96875-.59375-.90625-.59375-1.40625-1.65625-.484375-1.0625-.484375-2.4375 0-1.34375.4375-2.4375.453125-1.09375 1.34375-1.671875.90625-.59375 2.015625-.59375.8125 0 1.4375.34375.640625.34375 1.046875.890625v-4.453125h1.515625v12.40625zm-4.8125-4.484375q0 1.71875.71875 2.578125.734375.859375 1.734375.859375.984375 0 1.6875-.8125.703125-.828125.703125-2.5 0-1.84375-.71875-2.703125-.703125-.859375-1.75-.859375-1.015625 0-1.703125.828125-.671875.828125-.671875 2.609375zm14.480835 3.375q-.84375.71875-1.625 1.015625-.78125.296875-1.671875.296875-1.484375 0-2.28125-.71875-.796875-.734375-.796875-1.859375 0-.65625.296875-1.203125.3125-.546875.796875-.875.484375-.328125 1.09375-.5.4375-.109375 1.34375-.21875 1.84375-.21875 2.71875-.53125.015625-.3125.015625-.390625 0-.9375-.4375-1.3125-.578125-.515625-1.734375-.515625-1.078125 0-1.59375.375-.5.375-.75 1.328125l-1.484375-.203125q.203125-.953125.65625-1.53125.46875-.59375 1.34375-.90625.890625-.328125 2.046875-.328125 1.15625 0 1.875.28125.71875.265625 1.046875.671875.34375.40625.484375 1.03125.078125.390625.078125 1.40625v2.03125q0 2.125.09375 2.6875.09375.5625.390625 1.078125h-1.59375q-.234375-.46875-.3125-1.109375zm-.125-3.40625q-.828125.34375-2.484375.578125-.9375.140625-1.328125.3125-.390625.171875-.609375.5-.203125.3125-.203125.71875 0 .609375.453125 1.015625.46875.40625 1.359375.40625.875 0 1.5625-.390625.6875-.390625 1.015625-1.046875.234375-.515625.234375-1.53125zm3.84021 7.96875-.171875-1.421875q.5.140625.875.140625.5 0 .796875-.171875.3125-.171875.515625-.484375.140625-.21875.453125-1.125.046875-.125.140625-.375l-3.40625-9h1.640625l1.875 5.203125q.359375.984375.640625 2.078125.265625-1.046875.625-2.046875l1.921875-5.234375h1.53125l-3.421875 9.140625q-.546875 1.484375-.859375 2.03125-.40625.75-.9375 1.09375-.515625.359375-1.234375.359375-.453125 0-.984375-.1875z" fill="#000"/><path d="m101.27559 203.30708h96.06299v122.130905l-16.010818 16.010834h-80.05217z" fill="#d8eeff" fill-rule="evenodd"/><path d="m181.32776 341.44882 3.2021637-12.808655 12.808655-3.202179z" fill="#acbecb" fill-rule="evenodd"/><path d="m181.32776 341.44882 3.2021637-12.808655 12.808655-3.202179-16.010818 16.010834h-80.05217v-138.14174h96.06299v122.130905" fill="none"/><path d="m181.32776 341.44882 3.2021637-12.808655 12.808655-3.202179-16.010818 16.010834h-80.05217v-138.14174h96.06299v122.130905" fill-rule="evenodd" stroke="#595959" stroke-linecap="butt" stroke-linejoin="round"/><g fill="#000"><path d="m120.68809 245.01254 2.59375-12.40625h5.2031326q1.546875 0 2.34375.265625.796875.25 1.25.96875.453125.703125.453125 1.78125 0 1.515625-1 2.515625-.984375 1-3.1875 1.296875.671875.5 1.015625.984375.78125 1.09375 1.25 2.265625l.953125 2.328125h-1.859375l-.890625-2.3125q-.46875-1.25-1.0937576-2.15625-.421875-.640625-.859375-.84375-.4375-.203125-1.4375-.203125h-1.921875l-1.15625 5.515625zm3.09375-6.859375h2.28125q1.59375 0 2.0781326-.03125.9375-.09375 1.53125-.421875.609375-.34375.9375-.890625.328125-.5625.328125-1.203125 0-.546875-.25-.9375-.234375-.40625-.640625-.546875-.390625-.15625-1.34375-.15625h-4.0468826zm15.779457 3.8125 1.5.140625q-.328125 1.109375-1.484375 2.109375-1.15625 1-2.75 1-1 0-1.84375-.453125-.828125-.46875-1.265625-1.34375-.4375-.890625-.4375-2.015625 0-1.46875.6875-2.84375.6875-1.390625 1.765625-2.0625 1.078125-.671875 2.34375-.671875 1.609375 0 2.5625 1 .96875 1 .96875 2.71875 0 .65625-.125 1.359375h-6.609375q-.046875.265625-.046875.46875 0 1.265625.578125 1.9375.59375.65625 1.421875.65625.796875 0 1.546875-.515625.765625-.515625 1.1875-1.484375zm-4.453125-2.234375h5.046875q.015625-.234375.015625-.34375 0-1.140625-.578125-1.75-.578125-.625-1.484375-.625-.984375 0-1.796875.6875-.796875.671875-1.203125 2.03125zm6.74646 8.71875 2.59375-12.421875h1.40625l-.25 1.25q.78125-.8125 1.390625-1.125.625-.328125 1.328125-.328125 1.28125 0 2.125.9375.84375.9375.84375 2.671875 0 1.40625-.46875 2.5625-.453125 1.15625-1.140625 1.859375-.671875.703125-1.375 1.03125-.6875.328125-1.40625.328125-1.625 0-2.5-1.640625l-1.015625 4.875zm3.015625-7.109375q0 1 .15625 1.390625.203125.5625.6875.90625.484375.328125 1.125.328125 1.3125 0 2.125-1.484375.8125-1.484375.8125-3.03125 0-1.140625-.546875-1.765625-.546875-.625-1.359375-.625-.578125 0-1.078125.3125-.5.3125-.9375.921875-.421875.609375-.703125 1.5-.28125.890625-.28125 1.546875zm7.637085.265625q0-2.640625 1.546875-4.359375 1.28125-1.421875 3.359375-1.421875 1.625 0 2.609375 1.015625 1 1.015625 1 2.734375 0 1.546875-.625 2.890625-.625 1.328125-1.78125 2.046875-1.15625.703125-2.4375.703125-1.046875 0-1.90625-.4375-.859375-.453125-1.3125-1.265625-.453125-.828125-.453125-1.90625zm1.53125-.15625q0 1.265625.609375 1.921875.609375.65625 1.546875.65625.5 0 .96875-.1875.484375-.203125.890625-.609375.421875-.40625.71875-.921875.296875-.53125.46875-1.125.265625-.84375.265625-1.609375 0-1.21875-.625-1.890625-.609375-.671875-1.53125-.671875-.71875 0-1.3125.34375-.59375.34375-1.078125 1-.46875.65625-.703125 1.53125-.21875.875-.21875 1.5625zm7.84021 3.5625 1.875-8.984375h1.359375l-.390625 1.828125q.703125-1.03125 1.359375-1.53125.671875-.5 1.359375-.5.453125 0 1.125.328125l-.625 1.421875q-.390625-.28125-.875-.28125-.796875 0-1.640625.890625-.84375.890625-1.328125 3.21875l-.765625 3.609375zm9.348526-1.25-.25 1.265625q-.5625.140625-1.078125.140625-.90625 0-1.453125-.453125-.40625-.34375-.40625-.921875 0-.296875.21875-1.359375l1.09375-5.21875h-1.203125l.234375-1.1875h1.21875l.46875-2.203125 1.75-1.0625-.6875 3.265625h1.5l-.25 1.1875h-1.5l-1.03125 4.96875q-.203125.9375-.203125 1.125 0 .265625.15625.421875.15625.140625.515625.140625.5 0 .90625-.109375z"/><path d="m120.65684 266.01254 1.640625-7.796875h-1.375l.25-1.1875h1.375l.25-1.28125q.203125-.953125.421875-1.375.21875-.421875.703125-.6875.484375-.28125 1.328125-.28125.578125 0 1.6875.234375l-.28125 1.34375q-.78125-.203125-1.296875-.203125-.453125 0-.6875.234375-.234375.21875-.390625 1.046875l-.203125.96875h1.703125l-.25 1.1875h-1.703125l-1.640625 7.796875zm4.876816-3.40625q0-2.640625 1.546875-4.359375 1.2812576-1.421875 3.3593826-1.421875 1.625 0 2.609375 1.015625 1 1.015625 1 2.734375 0 1.546875-.625 2.890625-.625 1.328125-1.78125 2.046875-1.15625.703125-2.4375.703125-1.046875 0-1.9062576-.4375-.859375-.453125-1.3125-1.265625-.453125-.828125-.453125-1.90625zm1.53125-.15625q0 1.265625.609375 1.921875.6093826.65625 1.5468826.65625.5 0 .96875-.1875.484375-.203125.890625-.609375.421875-.40625.71875-.921875.296875-.53125.46875-1.125.265625-.84375.265625-1.609375 0-1.21875-.625-1.890625-.609375-.671875-1.53125-.671875-.71875 0-1.3125.34375-.59375.34375-1.0781326 1-.46875.65625-.703125 1.53125-.21875.875-.21875 1.5625zm7.8402176 3.5625 1.875-8.984375h1.359375l-.390625 1.828125q.703125-1.03125 1.359375-1.53125.671875-.5 1.359375-.5.453125 0 1.125.328125l-.625 1.421875q-.390625-.28125-.875-.28125-.796875 0-1.640625.890625-.84375.890625-1.328125 3.21875l-.765625 3.609375z"/><path d="m120.64121 287.01254 2.578125-12.40625h2.046875l1.25 8.046875q.25 1.578125.328125 3.03125.515625-1.25 1.7187576-3.390625l4.34375-7.6875h2.078125l-2.59375 12.40625h-1.625l1.296875-6.03125q.4375-2.09375 1.28125-4.6875-.53125 1.203125-1.3125 2.609375l-4.6250076 8.109375h-1.59375l-1.25-7.953125q-.171875-1.09375-.25-2.546875-.203125 1.640625-.40625 2.59375l-1.65625 7.90625zm14.512596-3.40625q0-2.640625 1.546875-4.359375 1.28125-1.421875 3.359375-1.421875 1.625 0 2.609375 1.015625 1 1.015625 1 2.734375 0 1.546875-.625 2.890625-.625 1.328125-1.78125 2.046875-1.15625.703125-2.4375.703125-1.046875 0-1.90625-.4375-.859375-.453125-1.3125-1.265625-.453125-.828125-.453125-1.90625zm1.53125-.15625q0 1.265625.609375 1.921875.609375.65625 1.546875.65625.5 0 .96875-.1875.484375-.203125.890625-.609375.421875-.40625.71875-.921875.296875-.53125.46875-1.125.265625-.84375.265625-1.609375 0-1.21875-.625-1.890625-.609375-.671875-1.53125-.671875-.71875 0-1.3125.34375-.59375.34375-1.078125 1-.46875.65625-.703125 1.53125-.21875.875-.21875 1.5625zm7.84021 3.5625 1.875-8.984375h1.390625l-.328125 1.5625q.90625-.921875 1.6875-1.34375.78125-.421875 1.609375-.421875 1.09375 0 1.703125.59375.625.59375.625 1.578125 0 .5-.21875 1.578125l-1.140625 5.4375h-1.53125l1.203125-5.6875q.171875-.828125.171875-1.234375 0-.453125-.3125-.71875-.3125-.28125-.890625-.28125-1.171875 0-2.09375.84375-.921875.84375-1.34375 2.890625l-.875 4.1875zm15.699585-1.296875q-1.3125 1.5-2.75 1.5-1.28125 0-2.140625-.9375-.84375-.953125-.84375-2.75 0-1.640625.671875-2.984375.6875-1.359375 1.6875-2.03125 1.015625-.6875 2.03125-.6875 1.671875 0 2.53125 1.609375l1.015625-4.828125h1.515625l-2.578125 12.40625h-1.421875zm-4.203125-2.46875q0 .9375.1875 1.484375.1875.53125.625.890625.453125.359375 1.078125.359375 1.046875 0 1.890625-1.078125 1.140625-1.4375 1.140625-3.546875 0-1.0625-.5625-1.65625-.5625-.609375-1.40625-.609375-.546875 0-1 .25-.453125.234375-.90625.828125-.4375.578125-.75 1.484375-.296875.90625-.296875 1.59375zm13.84021 2.65625q-.796875.671875-1.546875 1-.734375.3125-1.5625.3125-1.25 0-2.015625-.734375-.75-.734375-.75-1.875 0-.75.34375-1.328125.34375-.578125.90625-.921875.5625-.359375 1.390625-.515625.515625-.09375 1.953125-.15625 1.4375-.0625 2.0625-.3125.1875-.625.1875-1.03125 0-.53125-.390625-.84375-.53125-.421875-1.5625-.421875-.953125 0-1.578125.4375-.609375.421875-.890625 1.203125l-1.546875-.140625q.46875-1.328125 1.5-2.03125 1.03125-.71875 2.59375-.71875 1.671875 0 2.640625.796875.75.59375.75 1.53125 0 .71875-.21875 1.671875l-.5 2.234375q-.234375 1.0625-.234375 1.734375 0 .421875.1875 1.21875h-1.546875q-.125-.4375-.171875-1.109375zm.5625-3.4375q-.328125.125-.703125.1875-.359375.0625-1.21875.140625-1.34375.125-1.890625.3125-.546875.171875-.828125.578125-.28125.390625-.28125.875 0 .640625.4375 1.0625.453125.40625 1.28125.40625.75 0 1.453125-.390625.703125-.40625 1.109375-1.125.40625-.71875.640625-2.046875zm2.43396 8.015625.09375-1.4375q.46875.140625.921875.140625.46875 0 .75-.21875.375-.28125.8125-1.046875l.5-.875-1.5-9.015625h1.5l.671875 4.546875q.203125 1.34375.359375 2.6875l4.015625-7.234375h1.59375l-5.71875 10.171875q-.828125 1.5-1.484375 1.96875-.640625.484375-1.46875.484375-.546875 0-1.046875-.171875z"/></g><path d="m286.9685 203.30708h96.06299v122.130905l-16.010803 16.010834h-80.052185z" fill="#d8eeff" fill-rule="evenodd"/><path d="m367.0207 341.44882 3.2021484-12.808655 12.808655-3.202179z" fill="#acbecb" fill-rule="evenodd"/><path d="m367.0207 341.44882 3.2021484-12.808655 12.808655-3.202179-16.010803 16.010834h-80.052185v-138.14174h96.06299v122.130905" fill="none"/><path d="m367.0207 341.44882 3.2021484-12.808655 12.808655-3.202179-16.010803 16.010834h-80.052185v-138.14174h96.06299v122.130905" fill-rule="evenodd" stroke="#595959" stroke-linecap="butt" stroke-linejoin="round"/><path d="m306.381 245.01254 2.59375-12.40625h5.203125q1.546875 0 2.34375.265625.796875.25 1.25.96875.453125.703125.453125 1.78125 0 1.515625-1 2.515625-.984375 1-3.1875 1.296875.671875.5 1.015625.984375.78125 1.09375 1.25 2.265625l.953125 2.328125h-1.859375l-.890625-2.3125q-.46875-1.25-1.09375-2.15625-.421875-.640625-.859375-.84375-.4375-.203125-1.4375-.203125h-1.921875l-1.15625 5.515625zm3.09375-6.859375h2.28125q1.59375 0 2.078125-.03125.9375-.09375 1.53125-.421875.609375-.34375.9375-.890625.328125-.5625.328125-1.203125 0-.546875-.25-.9375-.234375-.40625-.640625-.546875-.390625-.15625-1.34375-.15625h-4.046875zm15.779449 3.8125 1.5.140625q-.328125 1.109375-1.484375 2.109375-1.15625 1-2.75 1-1 0-1.84375-.453125-.828125-.46875-1.265625-1.34375-.4375-.890625-.4375-2.015625 0-1.46875.6875-2.84375.6875-1.390625 1.765625-2.0625 1.078125-.671875 2.34375-.671875 1.609375 0 2.5625 1 .96875 1 .96875 2.71875 0 .65625-.125 1.359375h-6.609375q-.046875.265625-.046875.46875 0 1.265625.578125 1.9375.59375.65625 1.421875.65625.796875 0 1.546875-.515625.765625-.515625 1.1875-1.484375zm-4.453125-2.234375h5.046875q.015625-.234375.015625-.34375 0-1.140625-.578125-1.75-.578125-.625-1.484375-.625-.984375 0-1.796875.6875-.796875.671875-1.203125 2.03125zm6.74646 8.71875 2.59375-12.421875h1.40625l-.25 1.25q.78125-.8125 1.390625-1.125.625-.328125 1.328125-.328125 1.28125 0 2.125.9375.84375.9375.84375 2.671875 0 1.40625-.46875 2.5625-.453125 1.15625-1.140625 1.859375-.671875.703125-1.375 1.03125-.6875.328125-1.40625.328125-1.625 0-2.5-1.640625l-1.015625 4.875zm3.015625-7.109375q0 1 .15625 1.390625.203125.5625.6875.90625.484375.328125 1.125.328125 1.3125 0 2.125-1.484375.8125-1.484375.8125-3.03125 0-1.140625-.546875-1.765625-.546875-.625-1.359375-.625-.578125 0-1.078125.3125-.5.3125-.9375.921875-.421875.609375-.703125 1.5-.28125.890625-.28125 1.546875zm7.637085.265625q0-2.640625 1.546875-4.359375 1.28125-1.421875 3.359375-1.421875 1.625 0 2.609375 1.015625 1 1.015625 1 2.734375 0 1.546875-.625 2.890625-.625 1.328125-1.78125 2.046875-1.15625.703125-2.4375.703125-1.046875 0-1.90625-.4375-.859375-.453125-1.3125-1.265625-.453125-.828125-.453125-1.90625zm1.53125-.15625q0 1.265625.609375 1.921875.609375.65625 1.546875.65625.5 0 .96875-.1875.484375-.203125.890625-.609375.421875-.40625.71875-.921875.296875-.53125.46875-1.125.265625-.84375.265625-1.609375 0-1.21875-.625-1.890625-.609375-.671875-1.53125-.671875-.71875 0-1.3125.34375-.59375.34375-1.078125 1-.46875.65625-.703125 1.53125-.21875.875-.21875 1.5625zm7.84021 3.5625 1.875-8.984375h1.359375l-.390625 1.828125q.703125-1.03125 1.359375-1.53125.671875-.5 1.359375-.5.453125 0 1.125.328125l-.625 1.421875q-.390625-.28125-.875-.28125-.796875 0-1.640625.890625-.84375.890625-1.328125 3.21875l-.765625 3.609375zm9.348511-1.25-.25 1.265625q-.5625.140625-1.078125.140625-.90625 0-1.453125-.453125-.40625-.34375-.40625-.921875 0-.296875.21875-1.359375l1.09375-5.21875h-1.203125l.234375-1.1875h1.21875l.46875-2.203125 1.75-1.0625-.6875 3.265625h1.5l-.25 1.1875h-1.5l-1.03125 4.96875q-.203125.9375-.203125 1.125 0 .265625.15625.421875.15625.140625.515625.140625.5 0 .90625-.109375z" fill="#000"/><path d="m306.34976 266.01254 1.640625-7.796875h-1.375l.25-1.1875h1.375l.25-1.28125q.203125-.953125.421875-1.375.21875-.421875.703125-.6875.484375-.28125 1.328125-.28125.578125 0 1.6875.234375l-.28125 1.34375q-.78125-.203125-1.296875-.203125-.453125 0-.6875.234375-.234375.21875-.390625 1.046875l-.203125.96875h1.703125l-.25 1.1875h-1.703125l-1.640625 7.796875zm4.8768005-3.40625q0-2.640625 1.546875-4.359375 1.28125-1.421875 3.359375-1.421875 1.625 0 2.609375 1.015625 1 1.015625 1 2.734375 0 1.546875-.625 2.890625-.625 1.328125-1.78125 2.046875-1.15625.703125-2.4375.703125-1.046875 0-1.90625-.4375-.859375-.453125-1.3125-1.265625-.453125-.828125-.453125-1.90625zm1.53125-.15625q0 1.265625.609375 1.921875.609375.65625 1.546875.65625.5 0 .96875-.1875.484375-.203125.890625-.609375.421875-.40625.71875-.921875.296875-.53125.46875-1.125.265625-.84375.265625-1.609375 0-1.21875-.625-1.890625-.609375-.671875-1.53125-.671875-.71875 0-1.3125.34375-.59375.34375-1.078125 1-.46875.65625-.703125 1.53125-.21875.875-.21875 1.5625zm7.84021 3.5625 1.875-8.984375h1.359375l-.390625 1.828125q.703125-1.03125 1.359375-1.53125.671875-.5 1.359375-.5.453125 0 1.125.328125l-.625 1.421875q-.390625-.28125-.875-.28125-.796875 0-1.640625.890625-.84375.890625-1.328125 3.21875l-.765625 3.609375z" fill="#000"/><path d="m309.506 287.01254 2.296875-10.984375h-4.078125l.296875-1.421875h9.765625l-.296875 1.421875h-4.03125l-2.296875 10.984375zm12.063873-1.625q-1.609375 1.828125-3.296875 1.828125-1.046875 0-1.6875-.59375-.640625-.59375-.640625-1.46875 0-.5625.296875-1.9375l1.078125-5.1875h1.53125l-1.203125 5.75q-.15625.71875-.15625 1.109375 0 .515625.3125.796875.3125.28125.90625.28125.65625 0 1.265625-.3125.609375-.3125 1.046875-.84375.453125-.53125.734375-1.265625.1875-.46875.421875-1.640625l.8125-3.875h1.53125l-1.875 8.984375h-1.40625zm10.105835-1.421875 1.5.140625q-.328125 1.109375-1.484375 2.109375-1.15625 1-2.75 1-1 0-1.84375-.453125-.828125-.46875-1.265625-1.34375-.4375-.890625-.4375-2.015625 0-1.46875.6875-2.84375.6875-1.390625 1.765625-2.0625 1.078125-.671875 2.34375-.671875 1.609375 0 2.5625 1 .96875 1 .96875 2.71875 0 .65625-.125 1.359375h-6.609375q-.046875.265625-.046875.46875 0 1.265625.578125 1.9375.59375.65625 1.421875.65625.796875 0 1.546875-.515625.765625-.515625 1.1875-1.484375zm-4.453125-2.234375h5.046875q.015625-.234375.015625-.34375 0-1.140625-.578125-1.75-.578125-.625-1.484375-.625-.984375 0-1.796875.6875-.796875.671875-1.203125 2.03125zm7.637085 2.203125 1.53125-.09375q0 .671875.203125 1.140625.203125.453125.75.75.546875.296875 1.265625.296875 1.015625 0 1.515625-.40625.515625-.40625.515625-.953125 0-.390625-.296875-.75-.3125-.359375-1.53125-.875-1.21875-.53125-1.546875-.734375-.5625-.34375-.859375-.8125-.28125-.46875-.28125-1.078125 0-1.078125.84375-1.828125.84375-.765625 2.359375-.765625 1.703125 0 2.578125.78125.890625.78125.921875 2.0625l-1.5.09375q-.03125-.8125-.578125-1.28125-.53125-.46875-1.53125-.46875-.78125 0-1.234375.359375-.4375.359375-.4375.78125 0 .421875.390625.75.25.21875 1.3125.671875 1.75.765625 2.203125 1.203125.734375.703125.734375 1.71875 0 .65625-.421875 1.3125-.40625.640625-1.25 1.03125-.828125.375-1.96875.375-1.5625 0-2.65625-.765625-1.09375-.78125-1.03125-2.515625zm14.5859375 1.78125q-1.3125 1.5-2.75 1.5-1.28125 0-2.140625-.9375-.84375-.953125-.84375-2.75 0-1.640625.671875-2.984375.6875-1.359375 1.6875-2.03125 1.015625-.6875 2.03125-.6875 1.671875 0 2.53125 1.609375l1.015625-4.828125h1.515625l-2.578125 12.40625h-1.421875zm-4.203125-2.46875q0 .9375.1875 1.484375.1875.53125.625.890625.453125.359375 1.078125.359375 1.046875 0 1.890625-1.078125 1.140625-1.4375 1.140625-3.546875 0-1.0625-.5625-1.65625-.5625-.609375-1.40625-.609375-.546875 0-1 .25-.453125.234375-.90625.828125-.4375.578125-.75 1.484375-.296875.90625-.296875 1.59375zm13.84021 2.65625q-.796875.671875-1.546875 1-.734375.3125-1.5625.3125-1.25 0-2.015625-.734375-.75-.734375-.75-1.875 0-.75.34375-1.328125.34375-.578125.90625-.921875.5625-.359375 1.390625-.515625.515625-.09375 1.953125-.15625 1.4375-.0625 2.0625-.3125.1875-.625.1875-1.03125 0-.53125-.390625-.84375-.53125-.421875-1.5625-.421875-.953125 0-1.578125.4375-.609375.421875-.890625 1.203125l-1.546875-.140625q.46875-1.328125 1.5-2.03125 1.03125-.71875 2.59375-.71875 1.671875 0 2.640625.796875.75.59375.75 1.53125 0 .71875-.21875 1.671875l-.5 2.234375q-.234375 1.0625-.234375 1.734375 0 .421875.1875 1.21875h-1.546875q-.125-.4375-.171875-1.109375zm.5625-3.4375q-.328125.125-.703125.1875-.359375.0625-1.21875.140625-1.34375.125-1.890625.3125-.546875.171875-.828125.578125-.28125.390625-.28125.875 0 .640625.4375 1.0625.453125.40625 1.28125.40625.75 0 1.453125-.390625.703125-.40625 1.109375-1.125.40625-.71875.640625-2.046875zm2.43396 8.015625.09375-1.4375q.46875.140625.921875.140625.46875 0 .75-.21875.375-.28125.8125-1.046875l.5-.875-1.5-9.015625h1.5l.671875 4.546875q.203125 1.34375.359375 2.6875l4.015625-7.234375h1.59375l-5.71875 10.171875q-.828125 1.5-1.484375 1.96875-.640625.484375-1.46875.484375-.546875 0-1.046875-.171875z" fill="#000"/><path d="m472.6614 203.30708h96.06302v122.130905l-16.010864 16.010834h-80.052155z" fill="#d8eeff" fill-rule="evenodd"/><path d="m552.71356 341.44882 3.2022095-12.808655 12.808655-3.202179z" fill="#acbecb" fill-rule="evenodd"/><path d="m552.71356 341.44882 3.2022095-12.808655 12.808655-3.202179-16.010864 16.010834h-80.052155v-138.14174h96.06302v122.130905" fill="none"/><path d="m552.71356 341.44882 3.2022095-12.808655 12.808655-3.202179-16.010864 16.010834h-80.052155v-138.14174h96.06302v122.130905" fill-rule="evenodd" stroke="#595959" stroke-linecap="butt" stroke-linejoin="round"/><path d="m492.0739 245.01254 2.59375-12.40625h5.203125q1.546875 0 2.34375.265625.796875.25 1.25.96875.453125.703125.453125 1.78125 0 1.515625-1 2.515625-.984375 1-3.1875 1.296875.671875.5 1.015625.984375.78125 1.09375 1.25 2.265625l.953125 2.328125h-1.859375l-.890625-2.3125q-.46875-1.25-1.09375-2.15625-.421875-.640625-.859375-.84375-.4375-.203125-1.4375-.203125h-1.921875l-1.15625 5.515625zm3.09375-6.859375h2.28125q1.59375 0 2.078125-.03125.9375-.09375 1.53125-.421875.609375-.34375.9375-.890625.328125-.5625.328125-1.203125 0-.546875-.25-.9375-.234375-.40625-.640625-.546875-.390625-.15625-1.34375-.15625h-4.046875zm15.779449 3.8125 1.5000305.140625q-.328125 1.109375-1.4844055 2.109375-1.15625 1-2.75 1-1 0-1.84375-.453125-.828125-.46875-1.265625-1.34375-.4375-.890625-.4375-2.015625 0-1.46875.6875-2.84375.6875-1.390625 1.765625-2.0625 1.078125-.671875 2.34375-.671875 1.609375 0 2.5625305 1 .96875 1 .96875 2.71875 0 .65625-.125 1.359375h-6.6094055q-.046875.265625-.046875.46875 0 1.265625.578125 1.9375.59375.65625 1.421875.65625.796875 0 1.546875-.515625.765625-.515625 1.1875-1.484375zm-4.453125-2.234375h5.046875q.015625-.234375.015625-.34375 0-1.140625-.578125-1.75-.578125-.625-1.484375-.625-.984375 0-1.796875.6875-.796875.671875-1.203125 2.03125zm6.7464905 8.71875 2.59375-12.421875h1.40625l-.25 1.25q.78125-.8125 1.390625-1.125.625-.328125 1.328125-.328125 1.28125 0 2.125.9375.84375.9375.84375 2.671875 0 1.40625-.46875 2.5625-.453125 1.15625-1.140625 1.859375-.671875.703125-1.375 1.03125-.6875.328125-1.40625.328125-1.625 0-2.5-1.640625l-1.015625 4.875zm3.015625-7.109375q0 1 .15625 1.390625.203125.5625.6875.90625.484375.328125 1.125.328125 1.3125 0 2.125-1.484375.8125-1.484375.8125-3.03125 0-1.140625-.546875-1.765625-.546875-.625-1.359375-.625-.578125 0-1.078125.3125-.5.3125-.9375.921875-.421875.609375-.703125 1.5-.28125.890625-.28125 1.546875zm7.637085.265625q0-2.640625 1.546875-4.359375 1.28125-1.421875 3.359375-1.421875 1.625 0 2.609375 1.015625 1 1.015625 1 2.734375 0 1.546875-.625 2.890625-.625 1.328125-1.78125 2.046875-1.15625.703125-2.4375.703125-1.046875 0-1.90625-.4375-.859375-.453125-1.3125-1.265625-.453125-.828125-.453125-1.90625zm1.53125-.15625q0 1.265625.609375 1.921875.609375.65625 1.546875.65625.5 0 .96875-.1875.484375-.203125.890625-.609375.421875-.40625.71875-.921875.296875-.53125.46875-1.125.265625-.84375.265625-1.609375 0-1.21875-.625-1.890625-.609375-.671875-1.53125-.671875-.71875 0-1.3125.34375-.59375.34375-1.078125 1-.46875.65625-.703125 1.53125-.21875.875-.21875 1.5625zm7.84021 3.5625 1.875-8.984375h1.359375l-.390625 1.828125q.703125-1.03125 1.359375-1.53125.671875-.5 1.359375-.5.453125 0 1.125.328125l-.625 1.421875q-.390625-.28125-.875-.28125-.796875 0-1.640625.890625-.84375.890625-1.328125 3.21875l-.765625 3.609375zm9.348511-1.25-.25 1.265625q-.5625.140625-1.078125.140625-.90625 0-1.453125-.453125-.40625-.34375-.40625-.921875 0-.296875.21875-1.359375l1.09375-5.21875h-1.203125l.234375-1.1875h1.21875l.46875-2.203125 1.75-1.0625-.6875 3.265625h1.5l-.25 1.1875h-1.5l-1.03125 4.96875q-.203125.9375-.203125 1.125 0 .265625.15625.421875.15625.140625.515625.140625.5 0 .90625-.109375z" fill="#000"/><path d="m492.04266 266.01254 1.640625-7.796875h-1.375l.25-1.1875h1.375l.25-1.28125q.203125-.953125.421875-1.375.21875-.421875.703125-.6875.484375-.28125 1.328125-.28125.578125 0 1.6875.234375l-.28125 1.34375q-.78125-.203125-1.296875-.203125-.453125 0-.6875.234375-.234375.21875-.390625 1.046875l-.203125.96875h1.703125l-.25 1.1875h-1.703125l-1.640625 7.796875zm4.876831-3.40625q0-2.640625 1.546875-4.359375 1.28125-1.421875 3.359375-1.421875 1.625 0 2.609375 1.015625 1 1.015625 1 2.734375 0 1.546875-.625 2.890625-.625 1.328125-1.78125 2.046875-1.15625.703125-2.4375.703125-1.046875 0-1.90625-.4375-.859375-.453125-1.3125-1.265625-.453125-.828125-.453125-1.90625zm1.53125-.15625q0 1.265625.609375 1.921875.609375.65625 1.546875.65625.5 0 .96875-.1875.484375-.203125.890625-.609375.421875-.40625.71875-.921875.296875-.53125.46875-1.125.265625-.84375.265625-1.609375 0-1.21875-.625-1.890625-.609375-.671875-1.53125-.671875-.71875 0-1.3125.34375-.59375.34375-1.078125 1-.46875.65625-.703125 1.53125-.21875.875-.21875 1.5625zm7.84021 3.5625 1.875-8.984375h1.359375l-.390625 1.828125q.703125-1.03125 1.359375-1.53125.671875-.5 1.359375-.5.453125 0 1.125.328125l-.625 1.421875q-.390625-.28125-.875-.28125-.796875 0-1.640625.890625-.84375.890625-1.328125 3.21875l-.765625 3.609375z" fill="#000"/><path d="m494.1833 287.01254-.75-12.40625h1.671875l.296875 6.140625q.015625.4375.078125 2.375.015625.546875.015625.765625 0 .140625 0 .84375 1.03125-2.125 1.484375-2.984375l3.78125-7.140625h1.703125l.40625 7.25q.078125 1.25.09375 3 .15625-.4375.546875-1.28125.625-1.390625.921875-1.984375l3.53125-6.984375h1.6875l-6.3125 12.40625h-1.765625l-.421875-7.515625q-.0625-.96875-.09375-2.359375-.515625 1.171875-.859375 1.8125l-4.296875 8.0625zm15.636383-8.015625.09375-2.3125.4375-2.078125h1.7499695l-.45309448 2.078125-.890625 2.3125h-.9375zm1.823883 4.9375 1.53125-.09375q0 .671875.203125 1.140625.203125.453125.75.75.546875.296875 1.265625.296875 1.015625 0 1.515625-.40625.515625-.40625.515625-.953125 0-.390625-.296875-.75-.3125-.359375-1.53125-.875-1.21875-.53125-1.546875-.734375-.5625-.34375-.859375-.8125-.28125-.46875-.28125-1.078125 0-1.078125.84375-1.828125.84375-.765625 2.359375-.765625 1.703125 0 2.578125.78125.890625.78125.921875 2.0625l-1.5.09375q-.03125-.8125-.578125-1.28125-.53125-.46875-1.53125-.46875-.78125 0-1.234375.359375-.4375.359375-.4375.78125 0 .421875.390625.75.25.21875 1.3125.671875 1.75.765625 2.203125 1.203125.734375.703125.734375 1.71875 0 .65625-.421875 1.3125-.40625.640625-1.25 1.03125-.828125.375-1.96875.375-1.5625 0-2.65625-.765625-1.09375-.78125-1.03125-2.515625zm14.5859375 1.78125q-1.3125 1.5-2.75 1.5-1.28125 0-2.140625-.9375-.84375-.953125-.84375-2.75 0-1.640625.671875-2.984375.6875-1.359375 1.6875-2.03125 1.015625-.6875 2.03125-.6875 1.671875 0 2.53125 1.609375l1.015625-4.828125h1.515625l-2.578125 12.40625h-1.421875zm-4.203125-2.46875q0 .9375.1875 1.484375.1875.53125.625.890625.453125.359375 1.078125.359375 1.046875 0 1.890625-1.078125 1.140625-1.4375 1.140625-3.546875 0-1.0625-.5625-1.65625-.5625-.609375-1.40625-.609375-.546875 0-1 .25-.453125.234375-.90625.828125-.4375.578125-.75 1.484375-.296875.90625-.296875 1.59375zm13.84021 2.65625q-.796875.671875-1.546875 1-.734375.3125-1.5625.3125-1.25 0-2.015625-.734375-.75-.734375-.75-1.875 0-.75.34375-1.328125.34375-.578125.90625-.921875.5625-.359375 1.390625-.515625.515625-.09375 1.953125-.15625 1.4375-.0625 2.0625-.3125.1875-.625.1875-1.03125 0-.53125-.390625-.84375-.53125-.421875-1.5625-.421875-.953125 0-1.578125.4375-.609375.421875-.890625 1.203125l-1.546875-.140625q.46875-1.328125 1.5-2.03125 1.03125-.71875 2.59375-.71875 1.671875 0 2.640625.796875.75.59375.75 1.53125 0 .71875-.21875 1.671875l-.5 2.234375q-.234375 1.0625-.234375 1.734375 0 .421875.1875 1.21875h-1.546875q-.125-.4375-.171875-1.109375zm.5625-3.4375q-.328125.125-.703125.1875-.359375.0625-1.21875.140625-1.34375.125-1.890625.3125-.546875.171875-.828125.578125-.28125.390625-.28125.875 0 .640625.4375 1.0625.453125.40625 1.28125.40625.75 0 1.453125-.390625.703125-.40625 1.109375-1.125.40625-.71875.640625-2.046875zm2.43396 8.015625.09375-1.4375q.46875.140625.921875.140625.46875 0 .75-.21875.375-.28125.8125-1.046875l.5-.875-1.5-9.015625h1.5l.671875 4.546875q.203125 1.34375.359375 2.6875l4.015625-7.234375h1.59375l-5.71875 10.171875q-.828125 1.5-1.484375 1.96875-.640625.484375-1.46875.484375-.546875 0-1.046875-.171875z" fill="#000"/><path d="m149.30708 81.16535v122.14173" fill="none"/><path d="m149.30708 81.16535v116.14173" fill-rule="evenodd" stroke="#595959" stroke-linecap="butt" stroke-linejoin="round"/><path d="m147.65535 197.30708 1.6517334 4.538101 1.6517334-4.538101z" fill="#595959" fill-rule="evenodd" stroke="#595959" stroke-linecap="butt"/><path d="m335 81.16535v122.14173" fill="none"/><path d="m335 81.16535v116.14173" fill-rule="evenodd" stroke="#595959" stroke-linecap="butt" stroke-linejoin="round"/><path d="m333.34827 197.30708 1.6517334 4.538101 1.6517334-4.538101z" fill="#595959" fill-rule="evenodd" stroke="#595959" stroke-linecap="butt"/><path d="m520.69293 81.16535v122.14173" fill="none"/><path d="m520.69293 81.16535v116.14173" fill-rule="evenodd" stroke="#595959" stroke-linecap="butt" stroke-linejoin="round"/><path d="m519.0412 197.30708 1.6517334 4.538101 1.6517334-4.538101z" fill="#595959" fill-rule="evenodd" stroke="#595959" stroke-linecap="butt"/></g></svg>