<?xml version="1.0" encoding="UTF-8" standalone="no"?>
<svg
   version="1.1"
   viewBox="0 0 700 500"
   fill="none"
   stroke="none"
   stroke-linecap="square"
   stroke-miterlimit="10"
   id="svg149"
   sodipodi:docname="feast_batch.svg"
   width="700"
   height="500"
   inkscape:version="1.2.2 (b0a8486541, 2022-12-01)"
   xmlns:inkscape="http://www.inkscape.org/namespaces/inkscape"
   xmlns:sodipodi="http://sodipodi.sourceforge.net/DTD/sodipodi-0.dtd"
   xmlns="http://www.w3.org/2000/svg"
   xmlns:svg="http://www.w3.org/2000/svg">
  <defs
     id="defs153">
    <defs
       id="defs12">
      <linearGradient
         id="g2fda67ad55e_2_0.1"
         gradientUnits="userSpaceOnUse"
         gradientTransform="scale(32.567769)"
         spreadMethod="pad"
         x1="-8.2904053"
         y1="8.2903757"
         x2="14.738443"
         y2="31.319307">
        <stop
           offset="0.0"
           stop-color="#1b2838"
           id="stop5" />
        <stop
           offset="0.43"
           stop-color="#0e2631"
           id="stop7" />
        <stop
           offset="1.0"
           stop-color="#0080a9"
           id="stop9" />
      </linearGradient>
    </defs>
    <clipPath
       clipPathUnits="userSpaceOnUse"
       id="clipPath389">
      <g
         id="g393">
        <path
           d="M 0,0 H 960 V 540 H 0 Z"
           clip-rule="nonzero"
           id="path391" />
      </g>
    </clipPath>
    <clipPath
       clipPathUnits="userSpaceOnUse"
       id="clipPath395">
      <g
         id="g399">
        <path
           d="M 0,0 H 960 V 540 H 0 Z"
           clip-rule="nonzero"
           id="path397" />
      </g>
    </clipPath>
    <clipPath
       clipPathUnits="userSpaceOnUse"
       id="clipPath401">
      <g
         id="g405">
        <path
           d="M 0,0 H 960 V 540 H 0 Z"
           clip-rule="nonzero"
           id="path403" />
      </g>
    </clipPath>
    <clipPath
       clipPathUnits="userSpaceOnUse"
       id="clipPath407">
      <g
         id="g411">
        <path
           d="M 0,0 H 960 V 540 H 0 Z"
           clip-rule="nonzero"
           id="path409" />
      </g>
    </clipPath>
    <clipPath
       clipPathUnits="userSpaceOnUse"
       id="clipPath413">
      <g
         id="g417">
        <path
           d="M 0,0 H 960 V 540 H 0 Z"
           clip-rule="nonzero"
           id="path415" />
      </g>
    </clipPath>
    <clipPath
       clipPathUnits="userSpaceOnUse"
       id="clipPath419">
      <g
         id="g423">
        <path
           d="M 0,0 H 960 V 540 H 0 Z"
           clip-rule="nonzero"
           id="path421" />
      </g>
    </clipPath>
    <clipPath
       clipPathUnits="userSpaceOnUse"
       id="clipPath425">
      <g
         id="g429">
        <path
           d="M 0,0 H 960 V 540 H 0 Z"
           clip-rule="nonzero"
           id="path427" />
      </g>
    </clipPath>
    <clipPath
       clipPathUnits="userSpaceOnUse"
       id="clipPath431">
      <g
         id="g435">
        <path
           d="M 0,0 H 960 V 540 H 0 Z"
           clip-rule="nonzero"
           id="path433" />
      </g>
    </clipPath>
    <clipPath
       clipPathUnits="userSpaceOnUse"
       id="clipPath437">
      <g
         id="g441">
        <path
           d="M 0,0 H 960 V 540 H 0 Z"
           clip-rule="nonzero"
           id="path439" />
      </g>
    </clipPath>
    <clipPath
       clipPathUnits="userSpaceOnUse"
       id="clipPath443">
      <g
         id="g447">
        <path
           d="M 0,0 H 960 V 540 H 0 Z"
           clip-rule="nonzero"
           id="path445" />
      </g>
    </clipPath>
    <clipPath
       clipPathUnits="userSpaceOnUse"
       id="clipPath449">
      <g
         id="g453">
        <path
           d="M 0,0 H 960 V 540 H 0 Z"
           clip-rule="nonzero"
           id="path451" />
      </g>
    </clipPath>
    <clipPath
       clipPathUnits="userSpaceOnUse"
       id="clipPath455">
      <g
         id="g459">
        <path
           d="M 0,0 H 960 V 540 H 0 Z"
           clip-rule="nonzero"
           id="path457" />
      </g>
    </clipPath>
    <clipPath
       clipPathUnits="userSpaceOnUse"
       id="clipPath461">
      <g
         id="g465">
        <path
           d="M 0,0 H 960 V 540 H 0 Z"
           clip-rule="nonzero"
           id="path463" />
      </g>
    </clipPath>
    <clipPath
       clipPathUnits="userSpaceOnUse"
       id="clipPath467">
      <g
         id="g471">
        <path
           d="M 0,0 H 960 V 540 H 0 Z"
           clip-rule="nonzero"
           id="path469" />
      </g>
    </clipPath>
    <clipPath
       clipPathUnits="userSpaceOnUse"
       id="clipPath473">
      <g
         id="g477">
        <path
           d="M 0,0 H 960 V 540 H 0 Z"
           clip-rule="nonzero"
           id="path475" />
      </g>
    </clipPath>
    <clipPath
       clipPathUnits="userSpaceOnUse"
       id="clipPath479">
      <g
         id="g483">
        <path
           d="M 0,0 H 960 V 540 H 0 Z"
           clip-rule="nonzero"
           id="path481" />
      </g>
    </clipPath>
    <clipPath
       clipPathUnits="userSpaceOnUse"
       id="clipPath485">
      <g
         id="g489">
        <path
           d="M 0,0 H 960 V 540 H 0 Z"
           clip-rule="nonzero"
           id="path487" />
      </g>
    </clipPath>
    <clipPath
       clipPathUnits="userSpaceOnUse"
       id="clipPath491">
      <g
         id="g495">
        <path
           d="M 0,0 H 960 V 540 H 0 Z"
           clip-rule="nonzero"
           id="path493" />
      </g>
    </clipPath>
    <clipPath
       clipPathUnits="userSpaceOnUse"
       id="clipPath497">
      <g
         id="g501">
        <path
           d="M 0,0 H 960 V 540 H 0 Z"
           clip-rule="nonzero"
           id="path499" />
      </g>
    </clipPath>
    <clipPath
       clipPathUnits="userSpaceOnUse"
       id="clipPath503">
      <g
         id="g507">
        <path
           d="M 0,0 H 960 V 540 H 0 Z"
           clip-rule="nonzero"
           id="path505" />
      </g>
    </clipPath>
    <clipPath
       clipPathUnits="userSpaceOnUse"
       id="clipPath509">
      <g
         id="g513">
        <path
           d="M 0,0 H 960 V 540 H 0 Z"
           clip-rule="nonzero"
           id="path511" />
      </g>
    </clipPath>
    <clipPath
       clipPathUnits="userSpaceOnUse"
       id="clipPath515">
      <g
         id="g519">
        <path
           d="M 0,0 H 960 V 540 H 0 Z"
           clip-rule="nonzero"
           id="path517" />
      </g>
    </clipPath>
    <clipPath
       clipPathUnits="userSpaceOnUse"
       id="clipPath521">
      <g
         id="g525">
        <path
           d="M 0,0 H 960 V 540 H 0 Z"
           clip-rule="nonzero"
           id="path523" />
      </g>
    </clipPath>
    <clipPath
       clipPathUnits="userSpaceOnUse"
       id="clipPath527">
      <g
         id="g531">
        <path
           d="M 0,0 H 960 V 540 H 0 Z"
           clip-rule="nonzero"
           id="path529" />
      </g>
    </clipPath>
    <clipPath
       clipPathUnits="userSpaceOnUse"
       id="clipPath533">
      <g
         id="g537">
        <path
           d="M 0,0 H 960 V 540 H 0 Z"
           clip-rule="nonzero"
           id="path535" />
      </g>
    </clipPath>
    <clipPath
       clipPathUnits="userSpaceOnUse"
       id="clipPath539">
      <g
         id="g543">
        <path
           d="M 0,0 H 960 V 540 H 0 Z"
           clip-rule="nonzero"
           id="path541" />
      </g>
    </clipPath>
    <clipPath
       clipPathUnits="userSpaceOnUse"
       id="clipPath545">
      <g
         id="g549">
        <path
           d="M 0,0 H 960 V 540 H 0 Z"
           clip-rule="nonzero"
           id="path547" />
      </g>
    </clipPath>
    <clipPath
       clipPathUnits="userSpaceOnUse"
       id="clipPath551">
      <g
         id="g555">
        <path
           d="M 0,0 H 960 V 540 H 0 Z"
           clip-rule="nonzero"
           id="path553" />
      </g>
    </clipPath>
    <clipPath
       clipPathUnits="userSpaceOnUse"
       id="clipPath557">
      <g
         id="g561">
        <path
           d="M 0,0 H 960 V 540 H 0 Z"
           clip-rule="nonzero"
           id="path559" />
      </g>
    </clipPath>
    <clipPath
       clipPathUnits="userSpaceOnUse"
       id="clipPath563">
      <g
         id="g567">
        <path
           d="M 0,0 H 960 V 540 H 0 Z"
           clip-rule="nonzero"
           id="path565" />
      </g>
    </clipPath>
    <clipPath
       clipPathUnits="userSpaceOnUse"
       id="clipPath569">
      <g
         id="g573">
        <path
           d="M 0,0 H 960 V 540 H 0 Z"
           clip-rule="nonzero"
           id="path571" />
      </g>
    </clipPath>
    <clipPath
       clipPathUnits="userSpaceOnUse"
       id="clipPath575">
      <g
         id="g579">
        <path
           d="M 0,0 H 960 V 540 H 0 Z"
           clip-rule="nonzero"
           id="path577" />
      </g>
    </clipPath>
    <clipPath
       clipPathUnits="userSpaceOnUse"
       id="clipPath581">
      <g
         id="g585">
        <path
           d="M 0,0 H 960 V 540 H 0 Z"
           clip-rule="nonzero"
           id="path583" />
      </g>
    </clipPath>
    <clipPath
       clipPathUnits="userSpaceOnUse"
       id="clipPath587">
      <g
         id="g591">
        <path
           d="M 0,0 H 960 V 540 H 0 Z"
           clip-rule="nonzero"
           id="path589" />
      </g>
    </clipPath>
    <clipPath
       clipPathUnits="userSpaceOnUse"
       id="clipPath593">
      <g
         id="g597">
        <path
           d="M 0,0 H 960 V 540 H 0 Z"
           clip-rule="nonzero"
           id="path595" />
      </g>
    </clipPath>
    <clipPath
       clipPathUnits="userSpaceOnUse"
       id="clipPath599">
      <g
         id="g603">
        <path
           d="M 0,0 H 960 V 540 H 0 Z"
           clip-rule="nonzero"
           id="path601" />
      </g>
    </clipPath>
    <clipPath
       clipPathUnits="userSpaceOnUse"
       id="clipPath605">
      <g
         id="g609">
        <path
           d="M 0,0 H 960 V 540 H 0 Z"
           clip-rule="nonzero"
           id="path607" />
      </g>
    </clipPath>
    <clipPath
       clipPathUnits="userSpaceOnUse"
       id="clipPath611">
      <g
         id="g615">
        <path
           d="M 0,0 H 960 V 540 H 0 Z"
           clip-rule="nonzero"
           id="path613" />
      </g>
    </clipPath>
    <clipPath
       clipPathUnits="userSpaceOnUse"
       id="clipPath617">
      <g
         id="g621">
        <path
           d="M 0,0 H 960 V 540 H 0 Z"
           clip-rule="nonzero"
           id="path619" />
      </g>
    </clipPath>
    <clipPath
       clipPathUnits="userSpaceOnUse"
       id="clipPath623">
      <g
         id="g627">
        <path
           d="M 0,0 H 960 V 540 H 0 Z"
           clip-rule="nonzero"
           id="path625" />
      </g>
    </clipPath>
    <clipPath
       clipPathUnits="userSpaceOnUse"
       id="clipPath629">
      <g
         id="g633">
        <path
           d="M 0,0 H 960 V 540 H 0 Z"
           clip-rule="nonzero"
           id="path631" />
      </g>
    </clipPath>
    <clipPath
       clipPathUnits="userSpaceOnUse"
       id="clipPath635">
      <g
         id="g639">
        <path
           d="M 0,0 H 960 V 540 H 0 Z"
           clip-rule="nonzero"
           id="path637" />
      </g>
    </clipPath>
    <clipPath
       clipPathUnits="userSpaceOnUse"
       id="clipPath641">
      <g
         id="g645">
        <path
           d="M 0,0 H 960 V 540 H 0 Z"
           clip-rule="nonzero"
           id="path643" />
      </g>
    </clipPath>
    <clipPath
       clipPathUnits="userSpaceOnUse"
       id="clipPath647">
      <g
         id="g651">
        <path
           d="M 0,0 H 960 V 540 H 0 Z"
           clip-rule="nonzero"
           id="path649" />
      </g>
    </clipPath>
    <clipPath
       clipPathUnits="userSpaceOnUse"
       id="clipPath653">
      <g
         id="g657">
        <path
           d="M 0,0 H 960 V 540 H 0 Z"
           clip-rule="nonzero"
           id="path655" />
      </g>
    </clipPath>
    <clipPath
       clipPathUnits="userSpaceOnUse"
       id="clipPath659">
      <g
         id="g663">
        <path
           d="M 0,0 H 960 V 540 H 0 Z"
           clip-rule="nonzero"
           id="path661" />
      </g>
    </clipPath>
    <clipPath
       clipPathUnits="userSpaceOnUse"
       id="clipPath665">
      <g
         id="g669">
        <path
           d="M 0,0 H 960 V 540 H 0 Z"
           clip-rule="nonzero"
           id="path667" />
      </g>
    </clipPath>
    <clipPath
       clipPathUnits="userSpaceOnUse"
       id="clipPath671">
      <g
         id="g675">
        <path
           d="M 0,0 H 960 V 540 H 0 Z"
           clip-rule="nonzero"
           id="path673" />
      </g>
    </clipPath>
    <clipPath
       clipPathUnits="userSpaceOnUse"
       id="clipPath677">
      <g
         id="g681">
        <path
           d="M 0,0 H 960 V 540 H 0 Z"
           clip-rule="nonzero"
           id="path679" />
      </g>
    </clipPath>
    <clipPath
       clipPathUnits="userSpaceOnUse"
       id="clipPath683">
      <g
         id="g687">
        <path
           d="M 0,0 H 960 V 540 H 0 Z"
           clip-rule="nonzero"
           id="path685" />
      </g>
    </clipPath>
    <clipPath
       clipPathUnits="userSpaceOnUse"
       id="clipPath689">
      <g
         id="g693">
        <path
           d="M 0,0 H 960 V 540 H 0 Z"
           clip-rule="nonzero"
           id="path691" />
      </g>
    </clipPath>
    <clipPath
       clipPathUnits="userSpaceOnUse"
       id="clipPath695">
      <g
         id="g699">
        <path
           d="M 0,0 H 960 V 540 H 0 Z"
           clip-rule="nonzero"
           id="path697" />
      </g>
    </clipPath>
    <clipPath
       clipPathUnits="userSpaceOnUse"
       id="clipPath701">
      <g
         id="g705">
        <path
           d="M 0,0 H 960 V 540 H 0 Z"
           clip-rule="nonzero"
           id="path703" />
      </g>
    </clipPath>
    <clipPath
       clipPathUnits="userSpaceOnUse"
       id="clipPath707">
      <g
         id="g711">
        <path
           d="M 0,0 H 960 V 540 H 0 Z"
           clip-rule="nonzero"
           id="path709" />
      </g>
    </clipPath>
    <clipPath
       clipPathUnits="userSpaceOnUse"
       id="clipPath713">
      <g
         id="g717">
        <path
           d="M 0,0 H 960 V 540 H 0 Z"
           clip-rule="nonzero"
           id="path715" />
      </g>
    </clipPath>
    <clipPath
       clipPathUnits="userSpaceOnUse"
       id="clipPath719">
      <g
         id="g723">
        <path
           d="M 0,0 H 960 V 540 H 0 Z"
           clip-rule="nonzero"
           id="path721" />
      </g>
    </clipPath>
    <clipPath
       clipPathUnits="userSpaceOnUse"
       id="clipPath725">
      <g
         id="g729">
        <path
           d="M 0,0 H 960 V 540 H 0 Z"
           clip-rule="nonzero"
           id="path727" />
      </g>
    </clipPath>
    <clipPath
       clipPathUnits="userSpaceOnUse"
       id="clipPath731">
      <g
         id="g735">
        <path
           d="M 0,0 H 960 V 540 H 0 Z"
           clip-rule="nonzero"
           id="path733" />
      </g>
    </clipPath>
    <clipPath
       clipPathUnits="userSpaceOnUse"
       id="clipPath737">
      <g
         id="g741">
        <path
           d="M 0,0 H 960 V 540 H 0 Z"
           clip-rule="nonzero"
           id="path739" />
      </g>
    </clipPath>
    <clipPath
       clipPathUnits="userSpaceOnUse"
       id="clipPath743">
      <g
         id="g747">
        <path
           d="M 0,0 H 960 V 540 H 0 Z"
           clip-rule="nonzero"
           id="path745" />
      </g>
    </clipPath>
    <clipPath
       clipPathUnits="userSpaceOnUse"
       id="clipPath749">
      <g
         id="g753">
        <path
           d="M 0,0 H 960 V 540 H 0 Z"
           clip-rule="nonzero"
           id="path751" />
      </g>
    </clipPath>
    <clipPath
       clipPathUnits="userSpaceOnUse"
       id="clipPath755">
      <g
         id="g759"
         transform="matrix(19.970017,0,0,20.192813,-17382.856,-10435.856)">
        <path
           d="M 0,0 H 960 V 540 H 0 Z"
           clip-rule="nonzero"
           id="path757" />
      </g>
    </clipPath>
    <clipPath
       clipPathUnits="userSpaceOnUse"
       id="clipPath761">
      <g
         id="g765">
        <path
           d="M 0,0 H 960 V 540 H 0 Z"
           clip-rule="nonzero"
           id="path763" />
      </g>
    </clipPath>
    <clipPath
       clipPathUnits="userSpaceOnUse"
       id="clipPath767">
      <g
         id="g771">
        <path
           d="M 0,0 H 960 V 540 H 0 Z"
           clip-rule="nonzero"
           id="path769" />
      </g>
    </clipPath>
  </defs>
  <sodipodi:namedview
     id="namedview151"
     pagecolor="#ffffff"
     bordercolor="#000000"
     borderopacity="0.25"
     inkscape:showpageshadow="2"
     inkscape:pageopacity="0.0"
     inkscape:pagecheckerboard="0"
     inkscape:deskcolor="#d1d1d1"
     showgrid="false"
     inkscape:zoom="1.3666667"
     inkscape:cx="480"
     inkscape:cy="270.36585"
     inkscape:window-width="1920"
     inkscape:window-height="1026"
     inkscape:window-x="0"
     inkscape:window-y="0"
     inkscape:window-maximized="1"
     inkscape:current-layer="svg149" />
  <path
     fill="#000000"
     fill-opacity="0"
     d="m 40.97197,516.3631 h 358.83466 v 18.17322 H 40.97197 Z"
     fill-rule="evenodd"
     id="path25"
     clip-path="url(#clipPath749)" />
  <path
     fill="#000000"
     fill-opacity="0"
     d="M 11,13.666667 H 491 V 58.926509 H 11 Z"
     fill-rule="evenodd"
     id="path137"
     clip-path="url(#clipPath413)" />
  <g
     id="g1157"
     transform="translate(-199.20151,-31.422056)">
    <path
       fill="#f0f6ff"
       d="m 247.50131,276.55685 v 0 c 0,-15.86282 28.91464,-28.72221 64.58267,-28.72221 35.66803,0 64.58267,12.85939 64.58267,28.72221 v 114.88892 c 0,15.86282 -28.91464,28.72219 -64.58267,28.72219 -35.66803,0 -64.58267,-12.85937 -64.58267,-28.72219 z"
       fill-rule="evenodd"
       id="path29"
       clip-path="url(#clipPath737)" />
    <path
       fill="#000000"
       fill-opacity="0"
       d="m 376.66666,276.55685 v 0 c 0,15.86285 -28.91464,28.72223 -64.58267,28.72223 -35.66803,0 -64.58267,-12.85938 -64.58267,-28.72223"
       fill-rule="evenodd"
       id="path31"
       clip-path="url(#clipPath731)" />
    <path
       fill="#000000"
       fill-opacity="0"
       d="m 247.50131,276.55685 v 0 c 0,-15.86282 28.91464,-28.72221 64.58267,-28.72221 35.66803,0 64.58267,12.85939 64.58267,28.72221 v 114.88892 c 0,15.86282 -28.91464,28.72219 -64.58267,28.72219 -35.66803,0 -64.58267,-12.85937 -64.58267,-28.72219 z"
       fill-rule="evenodd"
       id="path33"
       clip-path="url(#clipPath725)" />
    <path
       stroke="#061827"
       stroke-width="1"
       stroke-linejoin="round"
       stroke-linecap="butt"
       d="m 376.66666,276.55685 v 0 c 0,15.86285 -28.91464,28.72223 -64.58267,28.72223 -35.66803,0 -64.58267,-12.85938 -64.58267,-28.72223"
       fill-rule="evenodd"
       id="path35"
       clip-path="url(#clipPath719)" />
    <path
       stroke="#061827"
       stroke-width="1"
       stroke-linejoin="round"
       stroke-linecap="butt"
       d="m 247.50131,276.55685 v 0 c 0,-15.86282 28.91464,-28.72221 64.58267,-28.72221 35.66803,0 64.58267,12.85939 64.58267,28.72221 v 114.88892 c 0,15.86282 -28.91464,28.72219 -64.58267,28.72219 -35.66803,0 -64.58267,-12.85937 -64.58267,-28.72219 z"
       fill-rule="evenodd"
       id="path37"
       clip-path="url(#clipPath713)" />
    <path
       fill="#000000"
       d="m 262.57874,333.2824 h -1.48438 v -13.34375 h 4.875 q 1.25,0 2.1875,0.46875 0.9375,0.46875 1.45313,1.3125 0.53125,0.82812 0.53125,1.96875 0,1.125 -0.53125,1.96875 -0.51563,0.82812 -1.45313,1.3125 -0.9375,0.46875 -2.1875,0.46875 h -3.39062 z m 3.39062,-12.03125 h -3.39062 v 4.89062 h 3.39062 q 1.23438,0 1.9375,-0.65625 0.70313,-0.65625 0.70313,-1.79687 0,-1.15625 -0.70313,-1.79688 -0.70312,-0.64062 -1.9375,-0.64062 z m 10.00232,12.32812 q -1.32812,0 -2.375,-0.625 -1.03125,-0.64062 -1.625,-1.73437 -0.59375,-1.10938 -0.59375,-2.53125 0,-1.40625 0.59375,-2.5 0.59375,-1.10938 1.625,-1.75 1.04688,-0.64063 2.375,-0.64063 1.34375,0 2.39063,0.64063 1.04687,0.64062 1.625,1.75 0.59375,1.09375 0.59375,2.5 0,1.42187 -0.59375,2.53125 -0.57813,1.09375 -1.625,1.73437 -1.04688,0.625 -2.39063,0.625 z m 0,-1.25 q 0.9375,0 1.625,-0.46875 0.6875,-0.46875 1.07813,-1.28125 0.39062,-0.82812 0.39062,-1.89062 0,-1.07813 -0.39062,-1.89063 -0.39063,-0.8125 -1.07813,-1.28125 -0.6875,-0.46875 -1.625,-0.46875 -0.90625,0 -1.60937,0.46875 -0.6875,0.46875 -1.07813,1.28125 -0.39062,0.8125 -0.39062,1.89063 0,1.0625 0.39062,1.89062 0.39063,0.8125 1.07813,1.28125 0.70312,0.46875 1.60937,0.46875 z m 6.11866,-0.46875 0.9375,-0.98437 q 0.59375,0.6875 1.35937,1.09375 0.78125,0.39062 1.75,0.39062 1.01563,0 1.64063,-0.45312 0.625,-0.46875 0.625,-1.21875 0,-0.60938 -0.53125,-0.96875 -0.53125,-0.375 -1.82813,-0.5625 -1.95312,-0.3125 -2.75,-0.90625 -0.78125,-0.60938 -0.78125,-1.67188 0,-1.26562 0.98438,-2.01562 0.98437,-0.76563 2.54687,-0.76563 1.15625,0 2.0625,0.45313 0.92188,0.45312 1.64063,1.26562 l -0.9375,1 q -0.51563,-0.70312 -1.20313,-1.09375 -0.6875,-0.40625 -1.5625,-0.40625 -0.90625,0 -1.48437,0.42188 -0.57813,0.42187 -0.57813,1.07812 0,0.51563 0.48438,0.82813 0.48437,0.29687 1.71875,0.48437 2.03125,0.29688 2.85937,0.96875 0.84375,0.65625 0.84375,1.875 0,0.85938 -0.48437,1.53125 -0.48438,0.65625 -1.32813,1.01563 -0.84375,0.35937 -1.9375,0.35937 -1.34375,0 -2.3125,-0.45312 -0.96875,-0.45313 -1.73437,-1.26563 z m 15.03827,1.42188 h -2.04688 q -0.96875,0 -1.48437,-0.53125 -0.5,-0.53125 -0.5,-1.51563 v -5.90625 h -1.75 v -1.21875 h 1.75 v -2.6875 h 1.4375 v 2.6875 h 2.46875 v 1.21875 h -2.46875 v 5.76563 q 0,0.95312 0.90625,0.95312 h 1.6875 z m 10.46301,-0.79688 q 0,1.35938 -0.59375,2.42188 -0.57813,1.0625 -1.60938,1.67187 -1.03125,0.625 -2.35937,0.625 -1.20313,0 -2.20313,-0.46875 -0.98437,-0.45312 -1.6875,-1.28125 l 0.95313,-0.98437 q 1.09375,1.48437 2.92187,1.48437 0.92188,0 1.625,-0.4375 0.71875,-0.4375 1.10938,-1.23437 0.40625,-0.78125 0.40625,-1.79688 v -0.75 q -0.45313,0.76563 -1.3125,1.21875 -0.84375,0.4375 -1.92188,0.4375 -1.29687,0 -2.3125,-0.60937 -1,-0.625 -1.57812,-1.70313 -0.5625,-1.07812 -0.5625,-2.46875 0,-1.35937 0.57812,-2.4375 0.59375,-1.09375 1.57813,-1.73437 0.98437,-0.64063 2.23437,-0.64063 1.14063,0 2,0.51563 0.875,0.51562 1.32813,1.4375 v -1.64063 h 1.40625 z m -7.60938,-3.875 q 0,1.04688 0.40625,1.84375 0.40625,0.79688 1.10938,1.25 0.70312,0.4375 1.625,0.4375 1.0625,0 1.875,-0.60937 0.82812,-0.625 1.15625,-1.59375 v -0.98438 q 0,-1.15625 -0.39063,-2.03125 -0.39062,-0.875 -1.09375,-1.375 -0.6875,-0.5 -1.60937,-0.5 -0.89063,0 -1.59375,0.46875 -0.70313,0.45313 -1.09375,1.26563 -0.39063,0.79687 -0.39063,1.82812 z m 15.763,-4.65625 v 1.375 h -0.3125 q -0.85937,0 -1.59375,0.4375 -0.73437,0.4375 -1.1875,1.34375 -0.45312,0.90625 -0.45312,2.32813 v 3.84375 h -1.4375 v -9.17188 h 1.42187 v 2.04688 q 0.46875,-1.20313 1.375,-1.70313 0.92188,-0.5 1.89063,-0.5 z m 8.64142,6.70313 0.96875,0.92187 q -0.71875,1.01563 -1.70312,1.51563 -0.98438,0.48437 -2.15625,0.48437 -1.375,0 -2.4375,-0.625 -1.04688,-0.64062 -1.64063,-1.75 -0.59375,-1.10937 -0.59375,-2.51562 0,-1.39063 0.59375,-2.5 0.59375,-1.10938 1.60938,-1.75 1.01562,-0.64063 2.28125,-0.64063 1.25,0 2.20312,0.625 0.96875,0.60938 1.5,1.70313 0.54688,1.09375 0.54688,2.51562 v 0.5625 h -7.21875 q 0.15625,1.375 1.01562,2.25 0.875,0.875 2.23438,0.875 0.85937,0 1.54687,-0.40625 0.6875,-0.40625 1.25,-1.26562 z m -3.07812,-5.60938 q -1.15625,0 -1.96875,0.82813 -0.8125,0.82812 -0.98438,2.14062 h 5.71875 q -0.14062,-1.35937 -0.875,-2.15625 -0.73437,-0.8125 -1.89062,-0.8125 z m 6.15225,6.09375 1.0625,-1.0625 q 1.78125,2.15625 4.29687,2.15625 1.5625,0 2.5,-0.71875 0.95313,-0.73437 0.95313,-1.95312 0,-1.03125 -0.8125,-1.59375 -0.8125,-0.57813 -2.75,-0.90625 -2.54688,-0.40625 -3.64063,-1.23438 -1.09375,-0.82812 -1.09375,-2.35937 0,-1.125 0.59375,-1.98438 0.60938,-0.85937 1.67188,-1.34375 1.07812,-0.5 2.45312,-0.5 3.03125,0 5.0625,2.3125 l -1.03125,1.04688 q -0.89062,-1.04688 -1.85937,-1.53125 -0.95313,-0.48438 -2.17188,-0.48438 -1.48437,0 -2.32812,0.65625 -0.84375,0.65625 -0.84375,1.8125 0,0.89063 0.76562,1.40625 0.76563,0.5 2.54688,0.76563 2.67187,0.42187 3.8125,1.32812 1.15625,0.90625 1.15625,2.59375 0,1.17188 -0.64063,2.09375 -0.625,0.90625 -1.76562,1.42188 -1.125,0.51562 -2.57813,0.51562 -3.23437,0 -5.35937,-2.4375 z m 19.15991,2.4375 q -1.39062,0 -2.57812,-0.51562 -1.1875,-0.53125 -2.07813,-1.46875 -0.875,-0.9375 -1.35937,-2.21875 -0.48438,-1.28125 -0.48438,-2.76563 0,-1.5 0.48438,-2.76562 0.48437,-1.26563 1.35937,-2.20313 0.89063,-0.95312 2.07813,-1.46875 1.1875,-0.53125 2.57812,-0.53125 1.40625,0 2.59375,0.53125 1.20313,0.51563 2.07813,1.46875 0.89062,0.9375 1.375,2.20313 0.48437,1.26562 0.48437,2.76562 0,1.48438 -0.48437,2.75 -0.48438,1.26563 -1.35938,2.20313 l 1.40625,1.53125 -0.85937,0.875 -1.45313,-1.57813 q -0.79687,0.57813 -1.75,0.89063 -0.9375,0.29687 -2.03125,0.29687 z m 0,-1.34375 q 0.82813,0 1.53125,-0.21875 0.71875,-0.23437 1.29688,-0.65625 l -1.96875,-2.14062 0.85937,-0.90625 2,2.1875 q 0.60938,-0.71875 0.9375,-1.71875 0.32813,-1 0.32813,-2.17188 0,-1.65625 -0.64063,-2.90625 -0.625,-1.26562 -1.75,-1.98437 -1.10937,-0.73438 -2.59375,-0.73438 -1.45312,0 -2.57812,0.73438 -1.10938,0.71875 -1.75,1.98437 -0.625,1.25 -0.625,2.90625 0,1.60938 0.625,2.89063 0.64062,1.28125 1.75,2.01562 1.125,0.71875 2.57812,0.71875 z m 17.73166,1.04688 h -8 v -13.34375 h 1.48437 v 12.01562 h 6.51563 z"
       fill-rule="nonzero"
       id="path39"
       clip-path="url(#clipPath707)" />
    <path
       fill="#000000"
       d="m 284.56778,357.68866 h -1.375 q -1.28125,-1.70312 -1.9375,-3.76562 -0.65625,-2.0625 -0.65625,-4.3125 0,-2.21875 0.64063,-4.23438 0.65625,-2.03125 1.9375,-3.73437 h 1.375 q -1.29688,1.98437 -1.92188,3.90625 -0.625,1.90625 -0.625,4.0625 0,2.09375 0.625,4.125 0.64063,2.01562 1.9375,3.95312 z m 8.45392,-2.10937 q -1.39063,0 -2.57813,-0.51563 -1.1875,-0.53125 -2.07812,-1.46875 -0.875,-0.9375 -1.35938,-2.21875 -0.48437,-1.28125 -0.48437,-2.76562 0,-1.5 0.48437,-2.76563 0.48438,-1.26562 1.35938,-2.20312 0.89062,-0.95313 2.07812,-1.46875 1.1875,-0.53125 2.57813,-0.53125 1.40625,0 2.59375,0.53125 1.20312,0.51562 2.07812,1.46875 0.89063,0.9375 1.375,2.20312 0.48438,1.26563 0.48438,2.76563 0,1.48437 -0.48438,2.76562 -0.48437,1.28125 -1.375,2.21875 -0.875,0.9375 -2.07812,1.46875 -1.1875,0.51563 -2.59375,0.51563 z m 0,-1.34375 q 1.48437,0 2.59375,-0.71875 1.125,-0.73438 1.75,-2.01563 0.64062,-1.28125 0.64062,-2.89062 0,-1.65625 -0.64062,-2.90625 -0.625,-1.26563 -1.75,-1.98438 -1.10938,-0.73437 -2.59375,-0.73437 -1.45313,0 -2.57813,0.73437 -1.10937,0.71875 -1.75,1.98438 -0.625,1.25 -0.625,2.90625 0,1.60937 0.625,2.89062 0.64063,1.28125 1.75,2.01563 1.125,0.71875 2.57813,0.71875 z m 11.55978,1.04687 h -1.4375 v -7.95312 h -1.76562 v -1.21875 h 1.76562 v -2.01563 q 0,-2.25 2.125,-2.25 h 1.8125 v 1.20313 h -1.46875 q -0.54687,0 -0.79687,0.26562 -0.23438,0.26563 -0.23438,0.875 v 1.92188 h 2.5 v 1.21875 h -2.5 z m 6.60431,0 h -1.4375 v -7.95312 h -1.76562 v -1.21875 h 1.76562 v -2.01563 q 0,-2.25 2.125,-2.25 h 1.8125 v 1.20313 h -1.46875 q -0.54687,0 -0.79687,0.26562 -0.23438,0.26563 -0.23438,0.875 v 1.92188 h 2.5 v 1.21875 h -2.5 z m 5.80743,0 h -1.4375 v -13.4375 h 1.4375 z m 4.88935,-12.65625 q 0,0.45313 -0.29688,0.75 -0.28125,0.28125 -0.70312,0.28125 -0.4375,0 -0.73438,-0.28125 -0.28125,-0.29687 -0.28125,-0.75 0,-0.4375 0.28125,-0.71875 0.29688,-0.29687 0.73438,-0.29687 0.42187,0 0.70312,0.29687 0.29688,0.28125 0.29688,0.71875 z m -0.28125,12.65625 h -1.4375 v -9.17187 h 1.4375 z m 11.17059,0 h -1.4375 v -5.28125 q 0,-1.45312 -0.60937,-2.1875 -0.60938,-0.73437 -1.64063,-0.73437 -0.73437,0 -1.39062,0.42187 -0.65625,0.40625 -1.07813,1.3125 -0.40625,0.90625 -0.40625,2.34375 v 4.125 h -1.4375 v -9.17187 h 1.42188 v 1.875 q 0.45312,-1.1875 1.32812,-1.6875 0.875,-0.5 1.84375,-0.5 1.59375,0 2.5,1.04687 0.90625,1.03125 0.90625,2.98438 z m 9.9729,-2.625 0.96875,0.92188 q -0.71875,1.01562 -1.70312,1.51562 -0.98438,0.48438 -2.15625,0.48438 -1.375,0 -2.4375,-0.625 -1.04688,-0.64063 -1.64063,-1.75 -0.59375,-1.10938 -0.59375,-2.51563 0,-1.39062 0.59375,-2.5 0.59375,-1.10937 1.60938,-1.75 1.01562,-0.64062 2.28125,-0.64062 1.25,0 2.20312,0.625 0.96875,0.60937 1.5,1.70312 0.54688,1.09375 0.54688,2.51563 v 0.5625 h -7.21875 q 0.15625,1.375 1.01562,2.25 0.875,0.875 2.23438,0.875 0.85937,0 1.54687,-0.40625 0.6875,-0.40625 1.25,-1.26563 z m -3.07812,-5.60937 q -1.15625,0 -1.96875,0.82812 -0.8125,0.82813 -0.98438,2.14063 h 5.71875 q -0.14062,-1.35938 -0.875,-2.15625 -0.73437,-0.8125 -1.89062,-0.8125 z"
       fill-rule="nonzero"
       id="path41"
       clip-path="url(#clipPath701)" />
    <path
       fill="#000000"
       d="m 286.31516,375.14178 1.0625,-1.0625 q 1.78125,2.15625 4.29687,2.15625 1.5625,0 2.5,-0.71875 0.95313,-0.73438 0.95313,-1.95313 0,-1.03125 -0.8125,-1.59375 -0.8125,-0.57812 -2.75,-0.90625 -2.54688,-0.40625 -3.64063,-1.23437 -1.09375,-0.82813 -1.09375,-2.35938 0,-1.125 0.59375,-1.98437 0.60938,-0.85938 1.67188,-1.34375 1.07812,-0.5 2.45312,-0.5 3.03125,0 5.0625,2.3125 l -1.03125,1.04687 q -0.89062,-1.04687 -1.85937,-1.53125 -0.95313,-0.48437 -2.17188,-0.48437 -1.48437,0 -2.32812,0.65625 -0.84375,0.65625 -0.84375,1.8125 0,0.89062 0.76562,1.40625 0.76563,0.5 2.54688,0.76562 2.67187,0.42188 3.8125,1.32813 1.15625,0.90625 1.15625,2.59375 0,1.17187 -0.64063,2.09375 -0.625,0.90625 -1.76562,1.42187 -1.125,0.51563 -2.57813,0.51563 -3.23437,0 -5.35937,-2.4375 z m 17.42718,2.14062 h -2.04687 q -0.96875,0 -1.48438,-0.53125 -0.5,-0.53125 -0.5,-1.51562 v -5.90625 h -1.75 v -1.21875 h 1.75 v -2.6875 h 1.4375 v 2.6875 h 2.46875 v 1.21875 h -2.46875 v 5.76562 q 0,0.95313 0.90625,0.95313 h 1.6875 z m 5.93177,0.29688 q -1.32813,0 -2.375,-0.625 -1.03125,-0.64063 -1.625,-1.73438 -0.59375,-1.10937 -0.59375,-2.53125 0,-1.40625 0.59375,-2.5 0.59375,-1.10937 1.625,-1.75 1.04687,-0.64062 2.375,-0.64062 1.34375,0 2.39062,0.64062 1.04688,0.64063 1.625,1.75 0.59375,1.09375 0.59375,2.5 0,1.42188 -0.59375,2.53125 -0.57812,1.09375 -1.625,1.73438 -1.04687,0.625 -2.39062,0.625 z m 0,-1.25 q 0.9375,0 1.625,-0.46875 0.6875,-0.46875 1.07812,-1.28125 0.39063,-0.82813 0.39063,-1.89063 0,-1.07812 -0.39063,-1.89062 -0.39062,-0.8125 -1.07812,-1.28125 -0.6875,-0.46875 -1.625,-0.46875 -0.90625,0 -1.60938,0.46875 -0.6875,0.46875 -1.07812,1.28125 -0.39063,0.8125 -0.39063,1.89062 0,1.0625 0.39063,1.89063 0.39062,0.8125 1.07812,1.28125 0.70313,0.46875 1.60938,0.46875 z m 12.18115,-8.375 v 1.375 h -0.3125 q -0.85938,0 -1.59375,0.4375 -0.73438,0.4375 -1.1875,1.34375 -0.45313,0.90625 -0.45313,2.32812 v 3.84375 h -1.4375 v -9.17187 h 1.42188 v 2.04687 q 0.46875,-1.20312 1.375,-1.70312 0.92187,-0.5 1.89062,-0.5 z m 8.64142,6.70312 0.96875,0.92188 q -0.71875,1.01562 -1.70313,1.51562 -0.98437,0.48438 -2.15625,0.48438 -1.375,0 -2.4375,-0.625 -1.04687,-0.64063 -1.64062,-1.75 -0.59375,-1.10938 -0.59375,-2.51563 0,-1.39062 0.59375,-2.5 0.59375,-1.10937 1.60937,-1.75 1.01563,-0.64062 2.28125,-0.64062 1.25,0 2.20313,0.625 0.96875,0.60937 1.5,1.70312 0.54687,1.09375 0.54687,2.51563 v 0.5625 h -7.21875 q 0.15625,1.375 1.01563,2.25 0.875,0.875 2.23437,0.875 0.85938,0 1.54688,-0.40625 0.6875,-0.40625 1.25,-1.26563 z m -3.07813,-5.60937 q -1.15625,0 -1.96875,0.82812 -0.8125,0.82813 -0.98437,2.14063 h 5.71875 q -0.14063,-1.35938 -0.875,-2.15625 -0.73438,-0.8125 -1.89063,-0.8125 z m 5.996,10.64062 q 1.29688,-1.9375 1.92188,-3.95312 0.64062,-2.03125 0.64062,-4.125 0,-2.15625 -0.60937,-4.0625 -0.60938,-1.92188 -1.9375,-3.90625 h 1.375 q 1.29687,1.70312 1.9375,3.73437 0.64062,2.01563 0.64062,4.23438 0,2.25 -0.65625,4.3125 -0.65625,2.0625 -1.9375,3.76562 z"
       fill-rule="nonzero"
       id="path43"
       clip-path="url(#clipPath695)" />
    <path
       fill="#f0f6ff"
       d="m 735.8478,276.55554 v 0 c 0,-15.86282 28.91406,-28.72221 64.58136,-28.72221 35.6673,0 64.58136,12.85939 64.58136,28.72221 v 114.88892 c 0,15.86282 -28.91406,28.72219 -64.58136,28.72219 -35.6673,0 -64.58136,-12.85937 -64.58136,-28.72219 z"
       fill-rule="evenodd"
       id="path45"
       clip-path="url(#clipPath689)" />
    <path
       fill="#000000"
       fill-opacity="0"
       d="m 865.0105,276.55554 v 0 c 0,15.86285 -28.91406,28.72223 -64.58136,28.72223 -35.6673,0 -64.58136,-12.85938 -64.58136,-28.72223"
       fill-rule="evenodd"
       id="path47"
       clip-path="url(#clipPath683)" />
    <path
       fill="#000000"
       fill-opacity="0"
       d="m 735.8478,276.55554 v 0 c 0,-15.86282 28.91406,-28.72221 64.58136,-28.72221 35.6673,0 64.58136,12.85939 64.58136,28.72221 v 114.88892 c 0,15.86282 -28.91406,28.72219 -64.58136,28.72219 -35.6673,0 -64.58136,-12.85937 -64.58136,-28.72219 z"
       fill-rule="evenodd"
       id="path49"
       clip-path="url(#clipPath677)" />
    <path
       stroke="#061827"
       stroke-width="1"
       stroke-linejoin="round"
       stroke-linecap="butt"
       d="m 865.0105,276.55554 v 0 c 0,15.86285 -28.91406,28.72223 -64.58136,28.72223 -35.6673,0 -64.58136,-12.85938 -64.58136,-28.72223"
       fill-rule="evenodd"
       id="path51"
       clip-path="url(#clipPath671)" />
    <path
       stroke="#061827"
       stroke-width="1"
       stroke-linejoin="round"
       stroke-linecap="butt"
       d="m 735.8478,276.55554 v 0 c 0,-15.86282 28.91406,-28.72221 64.58136,-28.72221 35.6673,0 64.58136,12.85939 64.58136,28.72221 v 114.88892 c 0,15.86282 -28.91406,28.72219 -64.58136,28.72219 -35.6673,0 -64.58136,-12.85937 -64.58136,-28.72219 z"
       fill-rule="evenodd"
       id="path53"
       clip-path="url(#clipPath665)" />
    <path
       fill="#000000"
       d="m 761.6976,333.2811 h -1.48438 v -13.34375 h 1.48438 v 5.75 h 7.125 v -5.75 h 1.5 v 13.34375 h -1.5 v -6.26563 h -7.125 z m 14.7074,0.29687 q -0.96875,0 -1.71875,-0.375 -0.75,-0.375 -1.17188,-1.03125 -0.42187,-0.65625 -0.42187,-1.5 0,-1.40625 1.07812,-2.21875 1.07813,-0.82812 2.875,-0.82812 h 2.57813 v -0.0781 q 0,-1.15625 -0.70313,-1.82812 -0.6875,-0.6875 -1.90625,-0.6875 -1.57812,0 -2.6875,1.32812 l -0.9375,-0.90625 q 1.57813,-1.65625 3.71875,-1.65625 1.17188,0 2.04688,0.46875 0.89062,0.45313 1.375,1.28125 0.48437,0.82813 0.48437,1.95313 v 5.78125 h -1.375 v -1.25 q -0.51562,0.70312 -1.35937,1.125 -0.82813,0.42187 -1.875,0.42187 z m 0.20312,-1.1875 q 1.07813,0 1.875,-0.54687 0.8125,-0.5625 1.14063,-1.46875 v -1.59375 h -2.40625 q -1.25,0 -1.9375,0.48437 -0.6875,0.46875 -0.6875,1.34375 0,0.8125 0.54687,1.29688 0.54688,0.48437 1.46875,0.48437 z m 13.88037,0.89063 h -7.26562 v -1.1875 l 5.375,-6.78125 h -5.20313 v -1.20313 h 6.92188 v 1.20313 l -5.39063,6.78125 h 5.5625 z m 8.96973,-2.625 0.96875,0.92187 q -0.71875,1.01563 -1.70313,1.51563 -0.98437,0.48437 -2.15625,0.48437 -1.375,0 -2.4375,-0.625 -1.04687,-0.64062 -1.64062,-1.75 -0.59375,-1.10937 -0.59375,-2.51562 0,-1.39063 0.59375,-2.5 0.59375,-1.10938 1.60937,-1.75 1.01563,-0.64063 2.28125,-0.64063 1.25,0 2.20313,0.625 0.96875,0.60938 1.5,1.70313 0.54687,1.09375 0.54687,2.51562 v 0.5625 h -7.21875 q 0.15625,1.375 1.01563,2.25 0.875,0.875 2.23437,0.875 0.85938,0 1.54688,-0.40625 0.6875,-0.40625 1.25,-1.26562 z m -3.07813,-5.60938 q -1.15625,0 -1.96875,0.82813 -0.8125,0.82812 -0.98437,2.14062 h 5.71875 q -0.14063,-1.35937 -0.875,-2.15625 -0.73438,-0.8125 -1.89063,-0.8125 z m 8.27723,8.23438 h -1.4375 v -13.4375 h 1.4375 z m 9.84247,-2.4375 1,0.9375 q -1.32813,1.79687 -3.65625,1.79687 -1.34375,0 -2.375,-0.625 -1.03125,-0.625 -1.625,-1.71875 -0.59375,-1.10937 -0.59375,-2.54687 0,-1.4375 0.59375,-2.53125 0.60937,-1.10938 1.65625,-1.73438 1.04687,-0.625 2.39062,-0.625 2.32813,0 3.625,1.79688 l -1.01562,0.95312 q -0.39063,-0.70312 -1.09375,-1.09375 -0.6875,-0.40625 -1.5625,-0.40625 -1.35938,0 -2.21875,1 -0.85938,0.98438 -0.85938,2.64063 0,1.64062 0.85938,2.64062 0.875,1 2.28125,1 1.67187,0 2.59375,-1.48437 z m 5.85913,2.73437 q -0.96875,0 -1.71875,-0.375 -0.75,-0.375 -1.17188,-1.03125 -0.42187,-0.65625 -0.42187,-1.5 0,-1.40625 1.07812,-2.21875 1.07813,-0.82812 2.875,-0.82812 h 2.57813 v -0.0781 q 0,-1.15625 -0.70313,-1.82812 -0.6875,-0.6875 -1.90625,-0.6875 -1.57812,0 -2.6875,1.32812 l -0.9375,-0.90625 q 1.57813,-1.65625 3.71875,-1.65625 1.17188,0 2.04688,0.46875 0.89062,0.45313 1.375,1.28125 0.48437,0.82813 0.48437,1.95313 v 5.78125 h -1.375 v -1.25 q -0.51562,0.70312 -1.35937,1.125 -0.82813,0.42187 -1.875,0.42187 z m 0.20312,-1.1875 q 1.07813,0 1.875,-0.54687 0.8125,-0.5625 1.14063,-1.46875 v -1.59375 h -2.40625 q -1.25,0 -1.9375,0.48437 -0.6875,0.46875 -0.6875,1.34375 0,0.8125 0.54687,1.29688 0.54688,0.48437 1.46875,0.48437 z m 6.31787,-0.53125 0.9375,-0.98437 q 0.59375,0.6875 1.35938,1.09375 0.78125,0.39062 1.75,0.39062 1.01562,0 1.64062,-0.45312 0.625,-0.46875 0.625,-1.21875 0,-0.60938 -0.53125,-0.96875 -0.53125,-0.375 -1.82812,-0.5625 -1.95313,-0.3125 -2.75,-0.90625 -0.78125,-0.60938 -0.78125,-1.67188 0,-1.26562 0.98437,-2.01562 0.98438,-0.76563 2.54688,-0.76563 1.15625,0 2.0625,0.45313 0.92187,0.45312 1.64062,1.26562 l -0.9375,1 q -0.51562,-0.70312 -1.20312,-1.09375 -0.6875,-0.40625 -1.5625,-0.40625 -0.90625,0 -1.48438,0.42188 -0.57812,0.42187 -0.57812,1.07812 0,0.51563 0.48437,0.82813 0.48438,0.29687 1.71875,0.48437 2.03125,0.29688 2.85938,0.96875 0.84375,0.65625 0.84375,1.875 0,0.85938 -0.48438,1.53125 -0.48437,0.65625 -1.32812,1.01563 -0.84375,0.35937 -1.9375,0.35937 -1.34375,0 -2.3125,-0.45312 -0.96875,-0.45313 -1.73438,-1.26563 z m 15.03827,1.42188 h -2.04687 q -0.96875,0 -1.48438,-0.53125 -0.5,-0.53125 -0.5,-1.51563 v -5.90625 h -1.75 v -1.21875 h 1.75 v -2.6875 h 1.4375 v 2.6875 h 2.46875 v 1.21875 h -2.46875 v 5.76563 q 0,0.95312 0.90625,0.95312 h 1.6875 z"
       fill-rule="nonzero"
       id="path55"
       clip-path="url(#clipPath659)" />
    <path
       fill="#000000"
       d="m 774.02295,357.68735 h -1.375 q -1.28125,-1.70313 -1.9375,-3.76563 -0.65625,-2.0625 -0.65625,-4.3125 0,-2.21875 0.64063,-4.23437 0.65625,-2.03125 1.9375,-3.73438 h 1.375 q -1.29688,1.98438 -1.92188,3.90625 -0.625,1.90625 -0.625,4.0625 0,2.09375 0.625,4.125 0.64063,2.01563 1.9375,3.95313 z m 8.45392,-2.10938 q -1.39063,0 -2.57813,-0.51562 -1.1875,-0.53125 -2.07812,-1.46875 -0.875,-0.9375 -1.35938,-2.21875 -0.48437,-1.28125 -0.48437,-2.76563 0,-1.5 0.48437,-2.76562 0.48438,-1.26563 1.35938,-2.20313 0.89062,-0.95312 2.07812,-1.46875 1.1875,-0.53125 2.57813,-0.53125 1.40625,0 2.59375,0.53125 1.20312,0.51563 2.07812,1.46875 0.89063,0.9375 1.375,2.20313 0.48438,1.26562 0.48438,2.76562 0,1.48438 -0.48438,2.76563 -0.48437,1.28125 -1.375,2.21875 -0.875,0.9375 -2.07812,1.46875 -1.1875,0.51562 -2.59375,0.51562 z m 0,-1.34375 q 1.48437,0 2.59375,-0.71875 1.125,-0.73437 1.75,-2.01562 0.64062,-1.28125 0.64062,-2.89063 0,-1.65625 -0.64062,-2.90625 -0.625,-1.26562 -1.75,-1.98437 -1.10938,-0.73438 -2.59375,-0.73438 -1.45313,0 -2.57813,0.73438 -1.10937,0.71875 -1.75,1.98437 -0.625,1.25 -0.625,2.90625 0,1.60938 0.625,2.89063 0.64063,1.28125 1.75,2.01562 1.125,0.71875 2.57813,0.71875 z m 17.32544,1.04688 h -1.4375 v -5.28125 q 0,-1.45313 -0.60938,-2.1875 -0.60937,-0.73438 -1.64062,-0.73438 -0.73438,0 -1.39063,0.42188 -0.65625,0.40625 -1.07812,1.3125 -0.40625,0.90625 -0.40625,2.34375 v 4.125 h -1.4375 v -9.17188 h 1.42187 v 1.875 q 0.45313,-1.1875 1.32813,-1.6875 0.875,-0.5 1.84375,-0.5 1.59375,0 2.5,1.04688 0.90625,1.03125 0.90625,2.98437 z m 4.42602,0 h -1.4375 v -13.4375 h 1.4375 z m 4.88935,-12.65625 q 0,0.45312 -0.29688,0.75 -0.28125,0.28125 -0.70312,0.28125 -0.4375,0 -0.73438,-0.28125 -0.28125,-0.29688 -0.28125,-0.75 0,-0.4375 0.28125,-0.71875 0.29688,-0.29688 0.73438,-0.29688 0.42187,0 0.70312,0.29688 0.29688,0.28125 0.29688,0.71875 z m -0.28125,12.65625 h -1.4375 v -9.17188 h 1.4375 z m 11.17059,0 h -1.4375 v -5.28125 q 0,-1.45313 -0.60938,-2.1875 -0.60937,-0.73438 -1.64062,-0.73438 -0.73438,0 -1.39063,0.42188 -0.65625,0.40625 -1.07812,1.3125 -0.40625,0.90625 -0.40625,2.34375 v 4.125 h -1.4375 v -9.17188 h 1.42187 v 1.875 q 0.45313,-1.1875 1.32813,-1.6875 0.875,-0.5 1.84375,-0.5 1.59375,0 2.5,1.04688 0.90625,1.03125 0.90625,2.98437 z m 9.9729,-2.625 0.96875,0.92187 q -0.71875,1.01563 -1.70313,1.51563 -0.98437,0.48437 -2.15625,0.48437 -1.375,0 -2.4375,-0.625 -1.04687,-0.64062 -1.64062,-1.75 -0.59375,-1.10937 -0.59375,-2.51562 0,-1.39063 0.59375,-2.5 0.59375,-1.10938 1.60937,-1.75 1.01563,-0.64063 2.28125,-0.64063 1.25,0 2.20313,0.625 0.96875,0.60938 1.5,1.70313 0.54687,1.09375 0.54687,2.51562 v 0.5625 h -7.21875 q 0.15625,1.375 1.01563,2.25 0.875,0.875 2.23437,0.875 0.85938,0 1.54688,-0.40625 0.6875,-0.40625 1.25,-1.26562 z m -3.07813,-5.60938 q -1.15625,0 -1.96875,0.82813 -0.8125,0.82812 -0.98437,2.14062 h 5.71875 q -0.14063,-1.35937 -0.875,-2.15625 -0.73438,-0.8125 -1.89063,-0.8125 z"
       fill-rule="nonzero"
       id="path57"
       clip-path="url(#clipPath653)" />
    <path
       fill="#000000"
       d="m 774.6603,375.14047 1.0625,-1.0625 q 1.78125,2.15625 4.29687,2.15625 1.5625,0 2.5,-0.71875 0.95313,-0.73438 0.95313,-1.95313 0,-1.03125 -0.8125,-1.59375 -0.8125,-0.57812 -2.75,-0.90625 -2.54688,-0.40625 -3.64063,-1.23437 -1.09375,-0.82813 -1.09375,-2.35938 0,-1.125 0.59375,-1.98437 0.60938,-0.85938 1.67188,-1.34375 1.07812,-0.5 2.45312,-0.5 3.03125,0 5.0625,2.3125 l -1.03125,1.04687 q -0.89062,-1.04687 -1.85937,-1.53125 -0.95313,-0.48437 -2.17188,-0.48437 -1.48437,0 -2.32812,0.65625 -0.84375,0.65625 -0.84375,1.8125 0,0.89062 0.76562,1.40625 0.76563,0.5 2.54688,0.76562 2.67187,0.42188 3.8125,1.32813 1.15625,0.90625 1.15625,2.59375 0,1.17187 -0.64063,2.09375 -0.625,0.90625 -1.76562,1.42187 -1.125,0.51563 -2.57813,0.51563 -3.23437,0 -5.35937,-2.4375 z m 17.42719,2.14062 h -2.04688 q -0.96875,0 -1.48437,-0.53125 -0.5,-0.53125 -0.5,-1.51562 v -5.90625 h -1.75 v -1.21875 h 1.75 v -2.6875 h 1.4375 v 2.6875 h 2.46875 v 1.21875 h -2.46875 v 5.76562 q 0,0.95313 0.90625,0.95313 h 1.6875 z m 5.93176,0.29688 q -1.32813,0 -2.375,-0.625 -1.03125,-0.64063 -1.625,-1.73438 -0.59375,-1.10937 -0.59375,-2.53125 0,-1.40625 0.59375,-2.5 0.59375,-1.10937 1.625,-1.75 1.04687,-0.64062 2.375,-0.64062 1.34375,0 2.39062,0.64062 1.04688,0.64063 1.625,1.75 0.59375,1.09375 0.59375,2.5 0,1.42188 -0.59375,2.53125 -0.57812,1.09375 -1.625,1.73438 -1.04687,0.625 -2.39062,0.625 z m 0,-1.25 q 0.9375,0 1.625,-0.46875 0.6875,-0.46875 1.07812,-1.28125 0.39063,-0.82813 0.39063,-1.89063 0,-1.07812 -0.39063,-1.89062 -0.39062,-0.8125 -1.07812,-1.28125 -0.6875,-0.46875 -1.625,-0.46875 -0.90625,0 -1.60938,0.46875 -0.6875,0.46875 -1.07812,1.28125 -0.39063,0.8125 -0.39063,1.89062 0,1.0625 0.39063,1.89063 0.39062,0.8125 1.07812,1.28125 0.70313,0.46875 1.60938,0.46875 z m 12.18115,-8.375 v 1.375 h -0.3125 q -0.85938,0 -1.59375,0.4375 -0.73438,0.4375 -1.1875,1.34375 -0.45313,0.90625 -0.45313,2.32812 v 3.84375 h -1.4375 v -9.17187 h 1.42188 v 2.04687 q 0.46875,-1.20312 1.375,-1.70312 0.92187,-0.5 1.89062,-0.5 z m 8.64142,6.70312 0.96875,0.92188 q -0.71875,1.01562 -1.70313,1.51562 -0.98437,0.48438 -2.15625,0.48438 -1.375,0 -2.4375,-0.625 -1.04687,-0.64063 -1.64062,-1.75 -0.59375,-1.10938 -0.59375,-2.51563 0,-1.39062 0.59375,-2.5 0.59375,-1.10937 1.60937,-1.75 1.01563,-0.64062 2.28125,-0.64062 1.25,0 2.20313,0.625 0.96875,0.60937 1.5,1.70312 0.54687,1.09375 0.54687,2.51563 v 0.5625 h -7.21875 q 0.15625,1.375 1.01563,2.25 0.875,0.875 2.23437,0.875 0.85938,0 1.54688,-0.40625 0.6875,-0.40625 1.25,-1.26563 z m -3.07813,-5.60937 q -1.15625,0 -1.96875,0.82812 -0.8125,0.82813 -0.98437,2.14063 h 5.71875 q -0.14063,-1.35938 -0.875,-2.15625 -0.73438,-0.8125 -1.89063,-0.8125 z m 5.99604,10.64062 q 1.29687,-1.9375 1.92187,-3.95312 0.64063,-2.03125 0.64063,-4.125 0,-2.15625 -0.60938,-4.0625 -0.60937,-1.92188 -1.9375,-3.90625 h 1.375 q 1.29688,1.70312 1.9375,3.73437 0.64063,2.01563 0.64063,4.23438 0,2.25 -0.65625,4.3125 -0.65625,2.0625 -1.9375,3.76562 z"
       fill-rule="nonzero"
       id="path59"
       clip-path="url(#clipPath647)" />
    <path
       fill="#f0f6ff"
       d="m 232.58794,58.201077 h 150.3326 v 83.536593 c -75.16629,0 -75.16629,31.82898 -150.3326,13.74434 z"
       fill-rule="evenodd"
       id="path61"
       clip-path="url(#clipPath641)" />
    <path
       stroke="#061827"
       stroke-width="1"
       stroke-linejoin="round"
       stroke-linecap="butt"
       d="m 232.58794,58.201077 h 150.3326 v 83.536593 c -75.16629,0 -75.16629,31.82898 -150.3326,13.74434 z"
       fill-rule="evenodd"
       id="path63"
       clip-path="url(#clipPath635)" />
    <path
       fill="#000000"
       d="m 270.2813,82.545616 v 8.265625 q 0,2.5625 -1.21875,3.96875 -1.21875,1.40625 -3.48438,1.40625 -2.03125,0 -3.25,-1.15625 -1.20312,-1.15625 -1.40625,-3.25 l 1.4375,-0.1875 q 0.15625,1.640625 0.96875,2.453125 0.82813,0.796875 2.25,0.796875 1.65625,0 2.4375,-1.03125 0.78125,-1.03125 0.78125,-3 v -8.265625 z m 2.60883,11.203125 1.0625,-1.0625 q 1.78125,2.15625 4.29687,2.15625 1.5625,0 2.5,-0.71875 0.95313,-0.734375 0.95313,-1.953125 0,-1.03125 -0.8125,-1.59375 -0.8125,-0.578125 -2.75,-0.90625 -2.54688,-0.40625 -3.64063,-1.234375 -1.09375,-0.828125 -1.09375,-2.359375 0,-1.125 0.59375,-1.984375 0.60938,-0.859375 1.67188,-1.34375 1.07812,-0.5 2.45312,-0.5 3.03125,0 5.0625,2.3125 l -1.03125,1.046875 q -0.89062,-1.046875 -1.85937,-1.53125 -0.95313,-0.484375 -2.17188,-0.484375 -1.48437,0 -2.32812,0.65625 -0.84375,0.65625 -0.84375,1.8125 0,0.890625 0.76562,1.40625 0.76563,0.5 2.54688,0.765625 2.67187,0.421875 3.8125,1.328125 1.15625,0.90625 1.15625,2.59375 0,1.171875 -0.64063,2.09375 -0.625,0.90625 -1.76562,1.421875 -1.125,0.515625 -2.57813,0.515625 -3.23437,0 -5.35937,-2.4375 z m 19.15991,2.4375 q -1.39063,0 -2.57813,-0.515625 -1.1875,-0.53125 -2.07812,-1.46875 -0.875,-0.9375 -1.35938,-2.21875 -0.48437,-1.28125 -0.48437,-2.765625 0,-1.5 0.48437,-2.765625 0.48438,-1.265625 1.35938,-2.203125 0.89062,-0.953125 2.07812,-1.46875 1.1875,-0.53125 2.57813,-0.53125 1.40625,0 2.59375,0.53125 1.20312,0.515625 2.07812,1.46875 0.89063,0.9375 1.375,2.203125 0.48438,1.265625 0.48438,2.765625 0,1.484375 -0.48438,2.765625 -0.48437,1.28125 -1.375,2.21875 -0.875,0.9375 -2.07812,1.46875 -1.1875,0.515625 -2.59375,0.515625 z m 0,-1.34375 q 1.48437,0 2.59375,-0.71875 1.125,-0.734375 1.75,-2.015625 0.64062,-1.28125 0.64062,-2.890625 0,-1.65625 -0.64062,-2.90625 -0.625,-1.265625 -1.75,-1.984375 -1.10938,-0.734375 -2.59375,-0.734375 -1.45313,0 -2.57813,0.734375 -1.10937,0.71875 -1.75,1.984375 -0.625,1.25 -0.625,2.90625 0,1.609375 0.625,2.890625 0.64063,1.28125 1.75,2.015625 1.125,0.71875 2.57813,0.71875 z m 11.16916,1.046875 h -1.4375 v -13.34375 h 1.59375 l 7.1875,11.15625 v -11.15625 h 1.4375 v 13.34375 h -1.60938 l -7.17187,-11.15625 z m 20.74127,0 h -8 v -13.34375 h 1.48437 v 12.015625 h 6.51563 z m 8.71582,0 h -1.4375 v -7.953125 h -1.76563 v -1.21875 h 1.76563 v -2.015625 q 0,-2.25 2.125,-2.25 h 1.8125 v 1.203125 h -1.46875 q -0.54688,0 -0.79688,0.265625 -0.23437,0.265625 -0.23437,0.875 v 1.921875 h 2.5 v 1.21875 h -2.5 z m 6.08868,-12.65625 q 0,0.453125 -0.29687,0.75 -0.28125,0.28125 -0.70313,0.28125 -0.4375,0 -0.73437,-0.28125 -0.28125,-0.296875 -0.28125,-0.75 0,-0.4375 0.28125,-0.71875 0.29687,-0.296875 0.73437,-0.296875 0.42188,0 0.70313,0.296875 0.29687,0.28125 0.29687,0.71875 z m -0.28125,12.65625 h -1.4375 v -9.171875 h 1.4375 z m 4.6081,0 h -1.4375 v -13.4375 h 1.4375 z m 10.15496,-2.625 0.96875,0.921875 q -0.71875,1.015625 -1.70312,1.515625 -0.98438,0.484375 -2.15625,0.484375 -1.375,0 -2.4375,-0.625 -1.04688,-0.640625 -1.64063,-1.75 -0.59375,-1.109375 -0.59375,-2.515625 0,-1.390625 0.59375,-2.5 0.59375,-1.109375 1.60938,-1.75 1.01562,-0.640625 2.28125,-0.640625 1.25,0 2.20312,0.625 0.96875,0.609375 1.5,1.703125 0.54688,1.09375 0.54688,2.515625 v 0.5625 h -7.21875 q 0.15625,1.375 1.01562,2.25 0.875,0.875 2.23438,0.875 0.85937,0 1.54687,-0.40625 0.6875,-0.40625 1.25,-1.265625 z m -3.07812,-5.609375 q -1.15625,0 -1.96875,0.828125 -0.8125,0.828125 -0.98438,2.140625 h 5.71875 q -0.14062,-1.359375 -0.875,-2.15625 -0.73437,-0.8125 -1.89062,-0.8125 z"
       fill-rule="nonzero"
       id="path65"
       clip-path="url(#clipPath629)" />
    <path
       fill="#000000"
       d="m 251.91824,120.29562 h -1.375 q -1.28125,-1.70313 -1.9375,-3.76563 -0.65625,-2.0625 -0.65625,-4.3125 0,-2.21875 0.64062,-4.23437 0.65625,-2.03125 1.9375,-3.73438 h 1.375 q -1.29687,1.98438 -1.92187,3.90625 -0.625,1.90625 -0.625,4.0625 0,2.09375 0.625,4.125 0.64062,2.01563 1.9375,3.95313 z m 7.07889,-2.40625 h -1.5 v -12.01563 h -4.14061 v -1.32812 h 9.78123 v 1.32812 h -4.14062 z m 9.91919,-9.32813 v 1.375 h -0.3125 q -0.85938,0 -1.59375,0.4375 -0.73438,0.4375 -1.1875,1.34375 -0.45313,0.90625 -0.45313,2.32813 v 3.84375 h -1.4375 v -9.17188 h 1.42188 v 2.04688 q 0.46875,-1.20313 1.375,-1.70313 0.92187,-0.5 1.89062,-0.5 z m 4.56161,9.625 q -0.96875,0 -1.71875,-0.375 -0.75,-0.375 -1.17187,-1.03125 -0.42188,-0.65625 -0.42188,-1.5 0,-1.40625 1.07813,-2.21875 1.07812,-0.82812 2.875,-0.82812 h 2.57812 v -0.0781 q 0,-1.15625 -0.70312,-1.82812 -0.6875,-0.6875 -1.90625,-0.6875 -1.57813,0 -2.6875,1.32812 l -0.9375,-0.90625 q 1.57812,-1.65625 3.71875,-1.65625 1.17187,0 2.04687,0.46875 0.89063,0.45313 1.375,1.28125 0.48438,0.82813 0.48438,1.95313 v 5.78125 h -1.375 v -1.25 q -0.51563,0.70312 -1.35938,1.125 -0.82812,0.42187 -1.875,0.42187 z m 0.20313,-1.1875 q 1.07812,0 1.875,-0.54687 0.8125,-0.5625 1.14062,-1.46875 v -1.59375 h -2.40625 q -1.25,0 -1.9375,0.48437 -0.6875,0.46875 -0.6875,1.34375 0,0.8125 0.54688,1.29688 0.54687,0.48437 1.46875,0.48437 z m 15.39596,0.89063 h -1.4375 v -5.28125 q 0,-1.45313 -0.60937,-2.1875 -0.60938,-0.73438 -1.64063,-0.73438 -0.73437,0 -1.39062,0.42188 -0.65625,0.40625 -1.07813,1.3125 -0.40625,0.90625 -0.40625,2.34375 v 4.125 h -1.4375 v -9.17188 h 1.42188 v 1.875 q 0.45312,-1.1875 1.32812,-1.6875 0.875,-0.5 1.84375,-0.5 1.59375,0 2.5,1.04688 0.90625,1.03125 0.90625,2.98437 z m 1.91043,-1.42188 0.9375,-0.98437 q 0.59375,0.6875 1.35938,1.09375 0.78125,0.39062 1.75,0.39062 1.01562,0 1.64062,-0.45312 0.625,-0.46875 0.625,-1.21875 0,-0.60938 -0.53125,-0.96875 -0.53125,-0.375 -1.82812,-0.5625 -1.95313,-0.3125 -2.75,-0.90625 -0.78125,-0.60938 -0.78125,-1.67188 0,-1.26562 0.98437,-2.01562 0.98438,-0.76563 2.54688,-0.76563 1.15625,0 2.0625,0.45313 0.92187,0.45312 1.64062,1.26562 l -0.9375,1 q -0.51562,-0.70312 -1.20312,-1.09375 -0.6875,-0.40625 -1.5625,-0.40625 -0.90625,0 -1.48438,0.42188 -0.57812,0.42187 -0.57812,1.07812 0,0.51563 0.48437,0.82813 0.48438,0.29687 1.71875,0.48437 2.03125,0.29688 2.85938,0.96875 0.84375,0.65625 0.84375,1.875 0,0.85938 -0.48438,1.53125 -0.48437,0.65625 -1.32812,1.01563 -0.84375,0.35937 -1.9375,0.35937 -1.34375,0 -2.3125,-0.45312 -0.96875,-0.45313 -1.73438,-1.26563 z m 12.78824,1.71875 q -0.96875,0 -1.71875,-0.375 -0.75,-0.375 -1.17187,-1.03125 -0.42188,-0.65625 -0.42188,-1.5 0,-1.40625 1.07813,-2.21875 1.07812,-0.82812 2.875,-0.82812 h 2.57812 v -0.0781 q 0,-1.15625 -0.70312,-1.82812 -0.6875,-0.6875 -1.90625,-0.6875 -1.57813,0 -2.6875,1.32812 l -0.9375,-0.90625 q 1.57812,-1.65625 3.71875,-1.65625 1.17187,0 2.04687,0.46875 0.89063,0.45313 1.375,1.28125 0.48438,0.82813 0.48438,1.95313 v 5.78125 h -1.375 v -1.25 q -0.51563,0.70312 -1.35938,1.125 -0.82812,0.42187 -1.875,0.42187 z m 0.20313,-1.1875 q 1.07812,0 1.875,-0.54687 0.8125,-0.5625 1.14062,-1.46875 v -1.59375 h -2.40625 q -1.25,0 -1.9375,0.48437 -0.6875,0.46875 -0.6875,1.34375 0,0.8125 0.54688,1.29688 0.54687,0.48437 1.46875,0.48437 z m 14.06784,-1.54687 1,0.9375 q -1.32813,1.79687 -3.65625,1.79687 -1.34375,0 -2.375,-0.625 -1.03125,-0.625 -1.625,-1.71875 -0.59375,-1.10937 -0.59375,-2.54687 0,-1.4375 0.59375,-2.53125 0.60937,-1.10938 1.65625,-1.73438 1.04687,-0.625 2.39062,-0.625 2.32813,0 3.625,1.79688 l -1.01562,0.95312 q -0.39063,-0.70312 -1.09375,-1.09375 -0.6875,-0.40625 -1.5625,-0.40625 -1.35938,0 -2.21875,1 -0.85938,0.98438 -0.85938,2.64063 0,1.64062 0.85938,2.64062 0.875,1 2.28125,1 1.67187,0 2.59375,-1.48437 z m 8.10913,2.4375 h -2.04688 q -0.96875,0 -1.48437,-0.53125 -0.5,-0.53125 -0.5,-1.51563 v -5.90625 h -1.75 v -1.21875 h 1.75 v -2.6875 h 1.4375 v 2.6875 h 2.46875 v 1.21875 h -2.46875 v 5.76563 q 0,0.95312 0.90625,0.95312 h 1.6875 z m 4.00824,-12.65625 q 0,0.45312 -0.29688,0.75 -0.28125,0.28125 -0.70312,0.28125 -0.4375,0 -0.73438,-0.28125 -0.28125,-0.29688 -0.28125,-0.75 0,-0.4375 0.28125,-0.71875 0.29688,-0.29688 0.73438,-0.29688 0.42187,0 0.70312,0.29688 0.29688,0.28125 0.29688,0.71875 z m -0.28125,12.65625 h -1.4375 v -9.17188 h 1.4375 z m 7.18622,0.29687 q -1.32813,0 -2.375,-0.625 -1.03125,-0.64062 -1.625,-1.73437 -0.59375,-1.10938 -0.59375,-2.53125 0,-1.40625 0.59375,-2.5 0.59375,-1.10938 1.625,-1.75 1.04687,-0.64063 2.375,-0.64063 1.34375,0 2.39062,0.64063 1.04688,0.64062 1.625,1.75 0.59375,1.09375 0.59375,2.5 0,1.42187 -0.59375,2.53125 -0.57812,1.09375 -1.625,1.73437 -1.04687,0.625 -2.39062,0.625 z m 0,-1.25 q 0.9375,0 1.625,-0.46875 0.6875,-0.46875 1.07812,-1.28125 0.39063,-0.82812 0.39063,-1.89062 0,-1.07813 -0.39063,-1.89063 -0.39062,-0.8125 -1.07812,-1.28125 -0.6875,-0.46875 -1.625,-0.46875 -0.90625,0 -1.60938,0.46875 -0.6875,0.46875 -1.07812,1.28125 -0.39063,0.8125 -0.39063,1.89063 0,1.0625 0.39063,1.89062 0.39062,0.8125 1.07812,1.28125 0.70313,0.46875 1.60938,0.46875 z m 15.19677,0.95313 h -1.4375 v -5.28125 q 0,-1.45313 -0.60937,-2.1875 -0.60938,-0.73438 -1.64063,-0.73438 -0.73437,0 -1.39062,0.42188 -0.65625,0.40625 -1.07813,1.3125 -0.40625,0.90625 -0.40625,2.34375 v 4.125 h -1.4375 v -9.17188 h 1.42188 v 1.875 q 0.45312,-1.1875 1.32812,-1.6875 0.875,-0.5 1.84375,-0.5 1.59375,0 2.5,1.04688 0.90625,1.03125 0.90625,2.98437 z m 1.91041,-1.42188 0.9375,-0.98437 q 0.59375,0.6875 1.35937,1.09375 0.78125,0.39062 1.75,0.39062 1.01563,0 1.64063,-0.45312 0.625,-0.46875 0.625,-1.21875 0,-0.60938 -0.53125,-0.96875 -0.53125,-0.375 -1.82813,-0.5625 -1.95312,-0.3125 -2.75,-0.90625 -0.78125,-0.60938 -0.78125,-1.67188 0,-1.26562 0.98438,-2.01562 0.98437,-0.76563 2.54687,-0.76563 1.15625,0 2.0625,0.45313 0.92188,0.45312 1.64063,1.26562 l -0.9375,1 q -0.51563,-0.70312 -1.20313,-1.09375 -0.6875,-0.40625 -1.5625,-0.40625 -0.90625,0 -1.48437,0.42188 -0.57813,0.42187 -0.57813,1.07812 0,0.51563 0.48438,0.82813 0.48437,0.29687 1.71875,0.48437 2.03125,0.29688 2.85937,0.96875 0.84375,0.65625 0.84375,1.875 0,0.85938 -0.48437,1.53125 -0.48438,0.65625 -1.32813,1.01563 -0.84375,0.35937 -1.9375,0.35937 -1.34375,0 -2.3125,-0.45312 -0.96875,-0.45313 -1.73437,-1.26563 z m 9.41326,3.82813 q 1.29688,-1.9375 1.92188,-3.95313 0.64062,-2.03125 0.64062,-4.125 0,-2.15625 -0.60937,-4.0625 -0.60938,-1.92187 -1.9375,-3.90625 h 1.375 q 1.29687,1.70313 1.9375,3.73438 0.64062,2.01562 0.64062,4.23437 0,2.25 -0.65625,4.3125 -0.65625,2.0625 -1.9375,3.76563 z"
       fill-rule="nonzero"
       id="path67"
       clip-path="url(#clipPath623)" />
    <path
       fill="#f0f6ff"
       d="M 464.25656,58.66341 H 600.09119 V 161.9063 H 464.25656 Z"
       fill-rule="evenodd"
       id="path69"
       clip-path="url(#clipPath617)" />
    <path
       stroke="#061827"
       stroke-width="1"
       stroke-linejoin="round"
       stroke-linecap="butt"
       d="M 464.25656,58.66341 H 600.09119 V 161.9063 H 464.25656 Z"
       fill-rule="evenodd"
       id="path71"
       clip-path="url(#clipPath611)" />
    <path
       fill="#f0f6ff"
       d="M 480.25656,75.203445 H 616.09119 V 178.44633 H 480.25656 Z"
       fill-rule="evenodd"
       id="path73"
       clip-path="url(#clipPath605)" />
    <path
       stroke="#061827"
       stroke-width="1"
       stroke-linejoin="round"
       stroke-linecap="butt"
       d="M 480.25656,75.203445 H 616.09119 V 178.44633 H 480.25656 Z"
       fill-rule="evenodd"
       id="path75"
       clip-path="url(#clipPath599)" />
    <path
       fill="#f0f6ff"
       d="m 496.25787,92.74584 h 200.07874 v 103.2429 H 496.25787 Z"
       fill-rule="evenodd"
       id="path77"
       clip-path="url(#clipPath593)" />
    <path
       stroke="#061827"
       stroke-width="1"
       stroke-linejoin="round"
       stroke-linecap="butt"
       d="m 496.25787,92.74584 h 200.07874 v 103.2429 H 496.25787 Z"
       fill-rule="evenodd"
       id="path79"
       clip-path="url(#clipPath587)" />
    <path
       fill="#000000"
       d="m 571.36145,104.94353 v 8.26563 q 0,2.5625 -1.21875,3.96875 -1.21875,1.40625 -3.48438,1.40625 -2.03125,0 -3.25,-1.15625 -1.20312,-1.15625 -1.40625,-3.25 l 1.4375,-0.1875 q 0.15625,1.64062 0.96875,2.45312 0.82813,0.79688 2.25,0.79688 1.65625,0 2.4375,-1.03125 0.78125,-1.03125 0.78125,-3 v -8.26563 z m 10.2807,10.71875 0.96875,0.92188 q -0.71875,1.01562 -1.70312,1.51562 -0.98438,0.48438 -2.15625,0.48438 -1.375,0 -2.4375,-0.625 -1.04688,-0.64063 -1.64063,-1.75 -0.59375,-1.10938 -0.59375,-2.51563 0,-1.39062 0.59375,-2.5 0.59375,-1.10937 1.60938,-1.75 1.01562,-0.64062 2.28125,-0.64062 1.25,0 2.20312,0.625 0.96875,0.60937 1.5,1.70312 0.54688,1.09375 0.54688,2.51563 v 0.5625 h -7.21875 q 0.15625,1.375 1.01562,2.25 0.875,0.875 2.23438,0.875 0.85937,0 1.54687,-0.40625 0.6875,-0.40625 1.25,-1.26563 z m -3.07812,-5.60937 q -1.15625,0 -1.96875,0.82812 -0.8125,0.82813 -0.98438,2.14063 h 5.71875 q -0.14062,-1.35938 -0.875,-2.15625 -0.73437,-0.8125 -1.89062,-0.8125 z m 11.24768,8.23437 h -2.04688 q -0.96875,0 -1.48437,-0.53125 -0.5,-0.53125 -0.5,-1.51562 v -5.90625 h -1.75 v -1.21875 h 1.75 v -2.6875 h 1.4375 v 2.6875 h 2.46875 v 1.21875 h -2.46875 v 5.76562 q 0,0.95313 0.90625,0.95313 h 1.6875 z m 8.20587,-12.65625 q 0,0.45313 -0.29688,0.75 -0.28125,0.28125 -0.70312,0.28125 -0.4375,0 -0.73438,-0.28125 -0.28125,-0.29687 -0.28125,-0.75 0,-0.4375 0.28125,-0.71875 0.29688,-0.29687 0.73438,-0.29687 0.42187,0 0.70312,0.29687 0.29688,0.28125 0.29688,0.71875 z m -3.35938,16.28125 v -1.20312 h 0.57813 q 0.5625,0 0.8125,-0.28125 0.25,-0.28125 0.25,-0.89063 v -10.42187 h 1.4375 v 10.54687 q 0,2.25 -2.14063,2.25 z m 10.26435,-3.32812 q -1.32813,0 -2.375,-0.625 -1.03125,-0.64063 -1.625,-1.73438 -0.59375,-1.10937 -0.59375,-2.53125 0,-1.40625 0.59375,-2.5 0.59375,-1.10937 1.625,-1.75 1.04687,-0.64062 2.375,-0.64062 1.34375,0 2.39062,0.64062 1.04688,0.64063 1.625,1.75 0.59375,1.09375 0.59375,2.5 0,1.42188 -0.59375,2.53125 -0.57812,1.09375 -1.625,1.73438 -1.04687,0.625 -2.39062,0.625 z m 0,-1.25 q 0.9375,0 1.625,-0.46875 0.6875,-0.46875 1.07812,-1.28125 0.39063,-0.82813 0.39063,-1.89063 0,-1.07812 -0.39063,-1.89062 -0.39062,-0.8125 -1.07812,-1.28125 -0.6875,-0.46875 -1.625,-0.46875 -0.90625,0 -1.60938,0.46875 -0.6875,0.46875 -1.07812,1.28125 -0.39063,0.8125 -0.39063,1.89062 0,1.0625 0.39063,1.89063 0.39062,0.8125 1.07812,1.28125 0.70313,0.46875 1.60938,0.46875 z m 8.61865,0.95312 h -1.42188 v -13.4375 h 1.4375 v 5.9375 q 0.46875,-0.89062 1.35938,-1.4375 0.90625,-0.54687 2,-0.54687 1.28125,0 2.25,0.64062 0.96875,0.64063 1.51562,1.75 0.5625,1.10938 0.5625,2.5 0,1.42188 -0.57812,2.53125 -0.57813,1.09375 -1.57813,1.73438 -0.98437,0.625 -2.28125,0.625 -1.07812,0 -1.9375,-0.46875 -0.85937,-0.48438 -1.32812,-1.28125 z m 0.0156,-4.32812 v 1.17187 q 0.34375,0.98438 1.15625,1.59375 0.82813,0.60938 1.89063,0.60938 0.9375,0 1.625,-0.46875 0.70312,-0.46875 1.10937,-1.28125 0.40625,-0.82813 0.40625,-1.89063 0,-1.0625 -0.39062,-1.875 -0.375,-0.82812 -1.0625,-1.29687 -0.67188,-0.46875 -1.57813,-0.46875 -0.90625,0 -1.625,0.5 -0.70312,0.5 -1.125,1.375 -0.40625,0.875 -0.40625,2.03125 z m 9.2005,2.90625 0.9375,-0.98438 q 0.59375,0.6875 1.35938,1.09375 0.78125,0.39063 1.75,0.39063 1.01562,0 1.64062,-0.45313 0.625,-0.46875 0.625,-1.21875 0,-0.60937 -0.53125,-0.96875 -0.53125,-0.375 -1.82812,-0.5625 -1.95313,-0.3125 -2.75,-0.90625 -0.78125,-0.60937 -0.78125,-1.67187 0,-1.26563 0.98437,-2.01563 0.98438,-0.76562 2.54688,-0.76562 1.15625,0 2.0625,0.45312 0.92187,0.45313 1.64062,1.26563 l -0.9375,1 q -0.51562,-0.70313 -1.20312,-1.09375 -0.6875,-0.40625 -1.5625,-0.40625 -0.90625,0 -1.48438,0.42187 -0.57812,0.42188 -0.57812,1.07813 0,0.51562 0.48437,0.82812 0.48438,0.29688 1.71875,0.48438 2.03125,0.29687 2.85938,0.96875 0.84375,0.65625 0.84375,1.875 0,0.85937 -0.48438,1.53125 -0.48437,0.65625 -1.32812,1.01562 -0.84375,0.35938 -1.9375,0.35938 -1.34375,0 -2.3125,-0.45313 -0.96875,-0.45312 -1.73438,-1.26562 z"
       fill-rule="nonzero"
       id="path81"
       clip-path="url(#clipPath581)" />
    <path
       fill="#000000"
       d="m 566.9742,137.02167 1.04687,1.03125 q -0.79687,1.17187 -2.14062,1.85937 -1.34375,0.67188 -2.79688,0.67188 -1.35937,0 -2.51562,-0.51563 -1.15625,-0.53125 -2.03125,-1.48437 -0.85938,-0.95313 -1.34375,-2.21875 -0.46875,-1.26563 -0.46875,-2.73438 0,-1.5 0.48437,-2.76562 0.48438,-1.26563 1.34375,-2.21875 0.85938,-0.95313 2.03125,-1.46876 1.17188,-0.53125 2.53125,-0.53125 1.53125,0 2.78125,0.65625 1.26563,0.65625 2.125,1.89063 l -1.04687,1.01563 q -1.375,-2.21876 -3.89063,-2.21876 -1.39062,0 -2.48437,0.73438 -1.07813,0.71875 -1.70313,2 -0.625,1.26563 -0.625,2.90625 0,1.59375 0.625,2.875 0.625,1.28125 1.70313,2.01563 1.09375,0.71875 2.48437,0.71875 1.23438,0 2.21875,-0.5625 1,-0.57813 1.67188,-1.65625 z m 7.53888,3.5625 q -1.32813,0 -2.375,-0.625 -1.03125,-0.64063 -1.625,-1.73438 -0.59375,-1.10937 -0.59375,-2.53125 0,-1.40625 0.59375,-2.5 0.59375,-1.10937 1.625,-1.75 1.04687,-0.64062 2.375,-0.64062 1.34375,0 2.39062,0.64062 1.04688,0.64063 1.625,1.75 0.59375,1.09375 0.59375,2.5 0,1.42188 -0.59375,2.53125 -0.57812,1.09375 -1.625,1.73438 -1.04687,0.625 -2.39062,0.625 z m 0,-1.25 q 0.9375,0 1.625,-0.46875 0.6875,-0.46875 1.07812,-1.28125 0.39063,-0.82813 0.39063,-1.89063 0,-1.07812 -0.39063,-1.89062 -0.39062,-0.8125 -1.07812,-1.28125 -0.6875,-0.46875 -1.625,-0.46875 -0.90625,0 -1.60938,0.46875 -0.6875,0.46875 -1.07812,1.28125 -0.39063,0.8125 -0.39063,1.89062 0,1.0625 0.39063,1.89063 0.39062,0.8125 1.07812,1.28125 0.70313,0.46875 1.60938,0.46875 z m 21.04053,0.95312 h -1.42188 v -5.29687 q 0,-1.375 -0.54687,-2.14063 -0.54688,-0.76562 -1.53125,-0.76562 -1.25,0 -1.98438,1.10937 -0.71875,1.09375 -0.71875,2.96875 v 4.125 h -1.4375 v -5.29687 q 0,-1.375 -0.54687,-2.14063 -0.53125,-0.76562 -1.53125,-0.76562 -1.21875,0 -1.95313,1.10937 -0.73437,1.09375 -0.73437,2.96875 v 4.125 h -1.4375 v -9.17187 h 1.42187 v 1.85937 q 0.375,-1.03125 1.14063,-1.59375 0.78125,-0.57812 1.85937,-0.57812 1.125,0 1.84375,0.60937 0.73438,0.60938 1.03125,1.75 0.375,-1.125 1.21875,-1.73437 0.85938,-0.625 2.03125,-0.625 1.59375,0 2.4375,1.04687 0.85938,1.04688 0.85938,2.98438 z m 4.44037,3.625 h -1.4375 v -12.79687 h 1.42187 v 1.70312 q 0.46875,-0.90625 1.375,-1.45312 0.90625,-0.5625 2,-0.5625 1.28125,0 2.25,0.64062 0.96875,0.64063 1.51563,1.75 0.5625,1.10938 0.5625,2.5 0,1.42188 -0.57813,2.53125 -0.57812,1.09375 -1.57812,1.73438 -0.98438,0.625 -2.28125,0.625 -1.09375,0 -1.9375,-0.45313 -0.84375,-0.45312 -1.3125,-1.25 z m 0,-7.95312 v 1.17187 q 0.34375,0.98438 1.15625,1.59375 0.82812,0.60938 1.89062,0.60938 0.9375,0 1.625,-0.46875 0.70313,-0.46875 1.10938,-1.28125 0.40625,-0.82813 0.40625,-1.89063 0,-1.0625 -0.39063,-1.875 -0.375,-0.82812 -1.0625,-1.29687 -0.67187,-0.46875 -1.57812,-0.46875 -0.90625,0 -1.625,0.5 -0.70313,0.5 -1.125,1.375 -0.40625,0.875 -0.40625,2.03125 z m 18.05987,4.32812 h -1.40625 v -1.45312 q -0.45312,0.79687 -1.26562,1.28125 -0.8125,0.46875 -1.85938,0.46875 -1.54687,0 -2.48437,-0.98438 -0.92188,-0.98437 -0.92188,-2.85937 v -5.625 h 1.4375 v 5.48437 q 0,1.34375 0.59375,2.04688 0.59375,0.6875 1.67188,0.6875 0.95312,0 1.71875,-0.57813 0.76562,-0.59375 1.07812,-1.57812 v -6.0625 h 1.4375 z m 7.95117,0 h -2.04687 q -0.96875,0 -1.48438,-0.53125 -0.5,-0.53125 -0.5,-1.51562 v -5.90625 h -1.75 v -1.21875 h 1.75 v -2.6875 h 1.4375 v 2.6875 h 2.46875 v 1.21875 h -2.46875 v 5.76562 q 0,0.95313 0.90625,0.95313 h 1.6875 z m 8.90052,-2.625 0.96875,0.92188 q -0.71875,1.01562 -1.70313,1.51562 -0.98437,0.48438 -2.15625,0.48438 -1.375,0 -2.4375,-0.625 -1.04687,-0.64063 -1.64062,-1.75 -0.59375,-1.10938 -0.59375,-2.51563 0,-1.39062 0.59375,-2.5 0.59375,-1.10937 1.60937,-1.75 1.01563,-0.64062 2.28125,-0.64062 1.25,0 2.20313,0.625 0.96875,0.60937 1.5,1.70312 0.54687,1.09375 0.54687,2.51563 v 0.5625 h -7.21875 q 0.15625,1.375 1.01563,2.25 0.875,0.875 2.23437,0.875 0.85938,0 1.54688,-0.40625 0.6875,-0.40625 1.25,-1.26563 z m -3.07813,-5.60937 q -1.15625,0 -1.96875,0.82812 -0.8125,0.82813 -0.98437,2.14063 h 5.71875 q -0.14063,-1.35938 -0.875,-2.15625 -0.73438,-0.8125 -1.89063,-0.8125 z"
       fill-rule="nonzero"
       id="path83"
       clip-path="url(#clipPath575)" />
    <path
       fill="#000000"
       d="m 518.01917,162.2873 h -1.40625 v -1.45313 q -0.45312,0.79688 -1.26562,1.28125 -0.8125,0.46875 -1.85938,0.46875 -1.54684,0 -2.48434,-0.98437 -0.92188,-0.98438 -0.92188,-2.85938 v -5.625 h 1.4375 v 5.48438 q 0,1.34375 0.59372,2.04687 0.59375,0.6875 1.67188,0.6875 0.95312,0 1.71875,-0.57812 0.76562,-0.59375 1.07812,-1.57813 v -6.0625 h 1.4375 z m 2.09186,-1.42188 0.9375,-0.98437 q 0.59375,0.6875 1.35937,1.09375 0.78125,0.39062 1.75,0.39062 1.01563,0 1.64063,-0.45312 0.625,-0.46875 0.625,-1.21875 0,-0.60938 -0.53125,-0.96875 -0.53125,-0.375 -1.82813,-0.5625 -1.95312,-0.3125 -2.75,-0.90625 -0.78125,-0.60938 -0.78125,-1.67188 0,-1.26562 0.98438,-2.01562 0.98437,-0.76563 2.54687,-0.76563 1.15625,0 2.0625,0.45313 0.92188,0.45312 1.64063,1.26562 l -0.9375,1 q -0.51563,-0.70312 -1.20313,-1.09375 -0.6875,-0.40625 -1.5625,-0.40625 -0.90625,0 -1.48437,0.42188 -0.57813,0.42187 -0.57813,1.07812 0,0.51563 0.48438,0.82813 0.48437,0.29687 1.71875,0.48437 2.03125,0.29688 2.85937,0.96875 0.84375,0.65625 0.84375,1.875 0,0.85938 -0.48437,1.53125 -0.48438,0.65625 -1.32813,1.01563 -0.84375,0.35937 -1.9375,0.35937 -1.34375,0 -2.3125,-0.45312 -0.96875,-0.45313 -1.73437,-1.26563 z m 17.24139,-1.20312 0.96875,0.92187 q -0.71875,1.01563 -1.70312,1.51563 -0.98438,0.48437 -2.15625,0.48437 -1.375,0 -2.4375,-0.625 -1.04688,-0.64062 -1.64063,-1.75 -0.59375,-1.10937 -0.59375,-2.51562 0,-1.39063 0.59375,-2.5 0.59375,-1.10938 1.60938,-1.75 1.01562,-0.64063 2.28125,-0.64063 1.25,0 2.20312,0.625 0.96875,0.60938 1.5,1.70313 0.54688,1.09375 0.54688,2.51562 v 0.5625 h -7.21875 q 0.15625,1.375 1.01562,2.25 0.875,0.875 2.23438,0.875 0.85937,0 1.54687,-0.40625 0.6875,-0.40625 1.25,-1.26562 z m -3.07812,-5.60938 q -1.15625,0 -1.96875,0.82813 -0.8125,0.82812 -0.98438,2.14062 h 5.71875 q -0.14062,-1.35937 -0.875,-2.15625 -0.73437,-0.8125 -1.89062,-0.8125 z m 11.82409,-1.09375 v 1.375 h -0.3125 q -0.85937,0 -1.59375,0.4375 -0.73437,0.4375 -1.1875,1.34375 -0.45312,0.90625 -0.45312,2.32813 v 3.84375 h -1.4375 v -9.17188 h 1.42187 v 2.04688 q 0.46875,-1.20313 1.375,-1.70313 0.92188,-0.5 1.89063,-0.5 z m 8.45563,11.73438 h -8.75 v -1.1875 h 8.75 z m 5.98578,-2.40625 h -2.04687 q -0.96875,0 -1.48438,-0.53125 -0.5,-0.53125 -0.5,-1.51563 v -5.90625 h -1.75 v -1.21875 h 1.75 v -2.6875 h 1.4375 v 2.6875 h 2.46875 v 1.21875 h -2.46875 v 5.76563 q 0,0.95312 0.90625,0.95312 h 1.6875 z m 7.27386,-9.32813 v 1.375 h -0.3125 q -0.85937,0 -1.59375,0.4375 -0.73437,0.4375 -1.1875,1.34375 -0.45312,0.90625 -0.45312,2.32813 v 3.84375 h -1.4375 v -9.17188 h 1.42187 v 2.04688 q 0.46875,-1.20313 1.375,-1.70313 0.92188,-0.5 1.89063,-0.5 z m 4.56165,9.625 q -0.96875,0 -1.71875,-0.375 -0.75,-0.375 -1.17187,-1.03125 -0.42188,-0.65625 -0.42188,-1.5 0,-1.40625 1.07813,-2.21875 1.07812,-0.82812 2.875,-0.82812 h 2.57812 v -0.0781 q 0,-1.15625 -0.70312,-1.82812 -0.6875,-0.6875 -1.90625,-0.6875 -1.57813,0 -2.6875,1.32812 l -0.9375,-0.90625 q 1.57812,-1.65625 3.71875,-1.65625 1.17187,0 2.04687,0.46875 0.89063,0.45313 1.375,1.28125 0.48438,0.82813 0.48438,1.95313 v 5.78125 h -1.375 v -1.25 q -0.51563,0.70312 -1.35938,1.125 -0.82812,0.42187 -1.875,0.42187 z m 0.20313,-1.1875 q 1.07812,0 1.875,-0.54687 0.8125,-0.5625 1.14062,-1.46875 v -1.59375 h -2.40625 q -1.25,0 -1.9375,0.48437 -0.6875,0.46875 -0.6875,1.34375 0,0.8125 0.54688,1.29688 0.54687,0.48437 1.46875,0.48437 z m 15.39593,0.89063 h -1.4375 v -5.28125 q 0,-1.45313 -0.60937,-2.1875 -0.60938,-0.73438 -1.64063,-0.73438 -0.73437,0 -1.39062,0.42188 -0.65625,0.40625 -1.07813,1.3125 -0.40625,0.90625 -0.40625,2.34375 v 4.125 h -1.4375 v -9.17188 h 1.42188 v 1.875 q 0.45312,-1.1875 1.32812,-1.6875 0.875,-0.5 1.84375,-0.5 1.59375,0 2.5,1.04688 0.90625,1.03125 0.90625,2.98437 z m 1.91046,-1.42188 0.9375,-0.98437 q 0.59375,0.6875 1.35938,1.09375 0.78125,0.39062 1.75,0.39062 1.01562,0 1.64062,-0.45312 0.625,-0.46875 0.625,-1.21875 0,-0.60938 -0.53125,-0.96875 -0.53125,-0.375 -1.82812,-0.5625 -1.95313,-0.3125 -2.75,-0.90625 -0.78125,-0.60938 -0.78125,-1.67188 0,-1.26562 0.98437,-2.01562 0.98438,-0.76563 2.54688,-0.76563 1.15625,0 2.0625,0.45313 0.92187,0.45312 1.64062,1.26562 l -0.9375,1 q -0.51562,-0.70312 -1.20312,-1.09375 -0.6875,-0.40625 -1.5625,-0.40625 -0.90625,0 -1.48438,0.42188 -0.57812,0.42187 -0.57812,1.07812 0,0.51563 0.48437,0.82813 0.48438,0.29687 1.71875,0.48437 2.03125,0.29688 2.85938,0.96875 0.84375,0.65625 0.84375,1.875 0,0.85938 -0.48438,1.53125 -0.48437,0.65625 -1.32812,1.01563 -0.84375,0.35937 -1.9375,0.35937 -1.34375,0 -2.3125,-0.45312 -0.96875,-0.45313 -1.73438,-1.26563 z m 12.78821,1.71875 q -0.96875,0 -1.71875,-0.375 -0.75,-0.375 -1.17188,-1.03125 -0.42187,-0.65625 -0.42187,-1.5 0,-1.40625 1.07812,-2.21875 1.07813,-0.82812 2.875,-0.82812 h 2.57813 v -0.0781 q 0,-1.15625 -0.70313,-1.82812 -0.6875,-0.6875 -1.90625,-0.6875 -1.57812,0 -2.6875,1.32812 l -0.9375,-0.90625 q 1.57813,-1.65625 3.71875,-1.65625 1.17188,0 2.04688,0.46875 0.89062,0.45313 1.375,1.28125 0.48437,0.82813 0.48437,1.95313 v 5.78125 h -1.375 v -1.25 q -0.51562,0.70312 -1.35937,1.125 -0.82813,0.42187 -1.875,0.42187 z m 0.20312,-1.1875 q 1.07813,0 1.875,-0.54687 0.8125,-0.5625 1.14063,-1.46875 v -1.59375 h -2.40625 q -1.25,0 -1.9375,0.48437 -0.6875,0.46875 -0.6875,1.34375 0,0.8125 0.54687,1.29688 0.54688,0.48437 1.46875,0.48437 z m 14.06788,-1.54687 1,0.9375 q -1.32813,1.79687 -3.65625,1.79687 -1.34375,0 -2.375,-0.625 -1.03125,-0.625 -1.625,-1.71875 -0.59375,-1.10937 -0.59375,-2.54687 0,-1.4375 0.59375,-2.53125 0.60937,-1.10938 1.65625,-1.73438 1.04687,-0.625 2.39062,-0.625 2.32813,0 3.625,1.79688 l -1.01562,0.95312 q -0.39063,-0.70312 -1.09375,-1.09375 -0.6875,-0.40625 -1.5625,-0.40625 -1.35938,0 -2.21875,1 -0.85938,0.98438 -0.85938,2.64063 0,1.64062 0.85938,2.64062 0.875,1 2.28125,1 1.67187,0 2.59375,-1.48437 z m 8.10913,2.4375 h -2.04688 q -0.96875,0 -1.48437,-0.53125 -0.5,-0.53125 -0.5,-1.51563 v -5.90625 h -1.75 v -1.21875 h 1.75 v -2.6875 h 1.4375 v 2.6875 h 2.46875 v 1.21875 h -2.46875 v 5.76563 q 0,0.95312 0.90625,0.95312 h 1.6875 z m 4.00824,-12.65625 q 0,0.45312 -0.29688,0.75 -0.28125,0.28125 -0.70312,0.28125 -0.4375,0 -0.73438,-0.28125 -0.28125,-0.29688 -0.28125,-0.75 0,-0.4375 0.28125,-0.71875 0.29688,-0.29688 0.73438,-0.29688 0.42187,0 0.70312,0.29688 0.29688,0.28125 0.29688,0.71875 z m -0.28125,12.65625 h -1.4375 v -9.17188 h 1.4375 z m 7.18621,0.29687 q -1.32812,0 -2.375,-0.625 -1.03125,-0.64062 -1.625,-1.73437 -0.59375,-1.10938 -0.59375,-2.53125 0,-1.40625 0.59375,-2.5 0.59375,-1.10938 1.625,-1.75 1.04688,-0.64063 2.375,-0.64063 1.34375,0 2.39063,0.64063 1.04687,0.64062 1.625,1.75 0.59375,1.09375 0.59375,2.5 0,1.42187 -0.59375,2.53125 -0.57813,1.09375 -1.625,1.73437 -1.04688,0.625 -2.39063,0.625 z m 0,-1.25 q 0.9375,0 1.625,-0.46875 0.6875,-0.46875 1.07813,-1.28125 0.39062,-0.82812 0.39062,-1.89062 0,-1.07813 -0.39062,-1.89063 -0.39063,-0.8125 -1.07813,-1.28125 -0.6875,-0.46875 -1.625,-0.46875 -0.90625,0 -1.60937,0.46875 -0.6875,0.46875 -1.07813,1.28125 -0.39062,0.8125 -0.39062,1.89063 0,1.0625 0.39062,1.89062 0.39063,0.8125 1.07813,1.28125 0.70312,0.46875 1.60937,0.46875 z m 15.19678,0.95313 h -1.4375 v -5.28125 q 0,-1.45313 -0.60937,-2.1875 -0.60938,-0.73438 -1.64063,-0.73438 -0.73437,0 -1.39062,0.42188 -0.65625,0.40625 -1.07813,1.3125 -0.40625,0.90625 -0.40625,2.34375 v 4.125 h -1.4375 v -9.17188 h 1.42188 v 1.875 q 0.45312,-1.1875 1.32812,-1.6875 0.875,-0.5 1.84375,-0.5 1.59375,0 2.5,1.04688 0.90625,1.03125 0.90625,2.98437 z m 10.1604,2.40625 h -8.75 v -1.1875 h 8.75 z m 9.71851,-15.75 v 1.25 l -6.32813,12.09375 h -1.54687 l 6.32812,-12.09375 h -7 v -1.25 z m 9.89526,13.34375 v -1.45313 q -0.46875,0.79688 -1.32812,1.28125 -0.85938,0.46875 -1.9375,0.46875 -1.29688,0 -2.29688,-0.625 -0.98437,-0.64062 -1.57812,-1.73437 -0.57813,-1.10938 -0.57813,-2.53125 0,-1.39063 0.5625,-2.5 0.57813,-1.10938 1.57813,-1.75 1,-0.64063 2.25,-0.64063 1.07812,0 1.95312,0.53125 0.89063,0.51563 1.34375,1.39063 v -5.875 h 1.4375 v 13.4375 z m -6.20312,-4.59375 q 0,1.0625 0.40625,1.89062 0.40625,0.8125 1.10937,1.28125 0.70313,0.46875 1.625,0.46875 1.0625,0 1.875,-0.60937 0.82813,-0.60938 1.15625,-1.59375 v -1.17188 q 0,-1.15625 -0.39062,-2.03125 -0.39063,-0.875 -1.09375,-1.375 -0.6875,-0.5 -1.60938,-0.5 -0.89062,0 -1.59375,0.46875 -0.70312,0.46875 -1.09375,1.29688 -0.39062,0.8125 -0.39062,1.875 z"
       fill-rule="nonzero"
       id="path85"
       clip-path="url(#clipPath569)" />
    <path
       fill="#000000"
       d="m 568.85144,184.2873 h -1.4375 v -7.95313 h -1.76562 v -1.21875 h 1.76562 v -2.01562 q 0,-2.25 2.125,-2.25 h 1.8125 v 1.20312 h -1.46875 q -0.54687,0 -0.79687,0.26563 -0.23438,0.26562 -0.23438,0.875 v 1.92187 h 2.5 v 1.21875 h -2.5 z m 10.98096,-2.625 0.96875,0.92187 q -0.71875,1.01563 -1.70313,1.51563 -0.98437,0.48437 -2.15625,0.48437 -1.375,0 -2.4375,-0.625 -1.04687,-0.64062 -1.64062,-1.75 -0.59375,-1.10937 -0.59375,-2.51562 0,-1.39063 0.59375,-2.5 0.59375,-1.10938 1.60937,-1.75 1.01563,-0.64063 2.28125,-0.64063 1.25,0 2.20313,0.625 0.96875,0.60938 1.5,1.70313 0.54687,1.09375 0.54687,2.51562 v 0.5625 h -7.21875 q 0.15625,1.375 1.01563,2.25 0.875,0.875 2.23437,0.875 0.85938,0 1.54688,-0.40625 0.6875,-0.40625 1.25,-1.26562 z m -3.07813,-5.60938 q -1.15625,0 -1.96875,0.82813 -0.8125,0.82812 -0.98437,2.14062 h 5.71875 q -0.14063,-1.35937 -0.875,-2.15625 -0.73438,-0.8125 -1.89063,-0.8125 z m 9.37097,8.53125 q -0.96875,0 -1.71875,-0.375 -0.75,-0.375 -1.17187,-1.03125 -0.42188,-0.65625 -0.42188,-1.5 0,-1.40625 1.07813,-2.21875 1.07812,-0.82812 2.875,-0.82812 h 2.57812 v -0.0781 q 0,-1.15625 -0.70312,-1.82812 -0.6875,-0.6875 -1.90625,-0.6875 -1.57813,0 -2.6875,1.32812 l -0.9375,-0.90625 q 1.57812,-1.65625 3.71875,-1.65625 1.17187,0 2.04687,0.46875 0.89063,0.45313 1.375,1.28125 0.48438,0.82813 0.48438,1.95313 v 5.78125 h -1.375 v -1.25 q -0.51563,0.70312 -1.35938,1.125 -0.82812,0.42187 -1.875,0.42187 z m 0.20313,-1.1875 q 1.07812,0 1.875,-0.54687 0.8125,-0.5625 1.14062,-1.46875 v -1.59375 h -2.40625 q -1.25,0 -1.9375,0.48437 -0.6875,0.46875 -0.6875,1.34375 0,0.8125 0.54688,1.29688 0.54687,0.48437 1.46875,0.48437 z m 12.17725,0.89063 h -2.04688 q -0.96875,0 -1.48437,-0.53125 -0.5,-0.53125 -0.5,-1.51563 v -5.90625 h -1.75 v -1.21875 h 1.75 v -2.6875 h 1.4375 v 2.6875 h 2.46875 v 1.21875 h -2.46875 v 5.76563 q 0,0.95312 0.90625,0.95312 h 1.6875 z m 10.07074,0 h -1.40625 v -1.45313 q -0.45313,0.79688 -1.26563,1.28125 -0.8125,0.46875 -1.85937,0.46875 -1.54688,0 -2.48438,-0.98437 -0.92187,-0.98438 -0.92187,-2.85938 v -5.625 h 1.4375 v 5.48438 q 0,1.34375 0.59375,2.04687 0.59375,0.6875 1.67187,0.6875 0.95313,0 1.71875,-0.57812 0.76563,-0.59375 1.07813,-1.57813 v -6.0625 h 1.4375 z m 8.15429,-9.32813 v 1.375 h -0.3125 q -0.85937,0 -1.59375,0.4375 -0.73437,0.4375 -1.1875,1.34375 -0.45312,0.90625 -0.45312,2.32813 v 3.84375 h -1.4375 v -9.17188 h 1.42187 v 2.04688 q 0.46875,-1.20313 1.375,-1.70313 0.92188,-0.5 1.89063,-0.5 z m 8.64142,6.70313 0.96875,0.92187 q -0.71875,1.01563 -1.70312,1.51563 -0.98438,0.48437 -2.15625,0.48437 -1.375,0 -2.4375,-0.625 -1.04688,-0.64062 -1.64063,-1.75 -0.59375,-1.10937 -0.59375,-2.51562 0,-1.39063 0.59375,-2.5 0.59375,-1.10938 1.60938,-1.75 1.01562,-0.64063 2.28125,-0.64063 1.25,0 2.20312,0.625 0.96875,0.60938 1.5,1.70313 0.54688,1.09375 0.54688,2.51562 v 0.5625 h -7.21875 q 0.15625,1.375 1.01562,2.25 0.875,0.875 2.23438,0.875 0.85937,0 1.54687,-0.40625 0.6875,-0.40625 1.25,-1.26562 z m -3.07812,-5.60938 q -1.15625,0 -1.96875,0.82813 -0.8125,0.82812 -0.98438,2.14062 h 5.71875 q -0.14062,-1.35937 -0.875,-2.15625 -0.73437,-0.8125 -1.89062,-0.8125 z"
       fill-rule="nonzero"
       id="path87"
       clip-path="url(#clipPath563)" />
    <path
       fill="#f0f6ff"
       d="m 466.49344,299.5538 v 0 c 0,-9.51205 7.71103,-17.22308 17.22308,-17.22308 h 128.89243 c 4.56781,0 8.94861,1.81457 12.17853,5.04452 3.22998,3.22995 5.04456,7.61072 5.04456,12.17856 v 68.8924 c 0,9.51205 -7.71106,17.22308 -17.22309,17.22308 H 483.71652 c -9.51205,0 -17.22308,-7.71103 -17.22308,-17.22308 z"
       fill-rule="evenodd"
       id="path89"
       clip-path="url(#clipPath557)" />
    <path
       stroke="#061827"
       stroke-width="1"
       stroke-linejoin="round"
       stroke-linecap="butt"
       d="m 466.49344,299.5538 v 0 c 0,-9.51205 7.71103,-17.22308 17.22308,-17.22308 h 128.89243 c 4.56781,0 8.94861,1.81457 12.17853,5.04452 3.22998,3.22995 5.04456,7.61072 5.04456,12.17856 v 68.8924 c 0,9.51205 -7.71106,17.22308 -17.22309,17.22308 H 483.71652 c -9.51205,0 -17.22308,-7.71103 -17.22308,-17.22308 z"
       fill-rule="evenodd"
       id="path91"
       clip-path="url(#clipPath551)" />
    <path
       fill="#000000"
       d="m 527.91016,340.91998 h -1.48437 v -13.34375 h 8 v 1.3125 h -6.51563 v 4.54687 h 6.17188 v 1.3125 h -6.17188 z m 15.41046,-2.625 0.96875,0.92187 q -0.71875,1.01563 -1.70312,1.51563 -0.98438,0.48437 -2.15625,0.48437 -1.375,0 -2.4375,-0.625 -1.04688,-0.64062 -1.64063,-1.75 -0.59375,-1.10937 -0.59375,-2.51562 0,-1.39063 0.59375,-2.5 0.59375,-1.10938 1.60938,-1.75 1.01562,-0.64063 2.28125,-0.64063 1.25,0 2.20312,0.625 0.96875,0.60938 1.5,1.70313 0.54688,1.09375 0.54688,2.51562 v 0.5625 h -7.21875 q 0.15625,1.375 1.01562,2.25 0.875,0.875 2.23438,0.875 0.85937,0 1.54687,-0.40625 0.6875,-0.40625 1.25,-1.26562 z m -3.07812,-5.60938 q -1.15625,0 -1.96875,0.82813 -0.8125,0.82812 -0.98438,2.14062 h 5.71875 q -0.14062,-1.35937 -0.875,-2.15625 -0.73437,-0.8125 -1.89062,-0.8125 z m 9.37097,8.53125 q -0.96875,0 -1.71875,-0.375 -0.75,-0.375 -1.17188,-1.03125 -0.42187,-0.65625 -0.42187,-1.5 0,-1.40625 1.07812,-2.21875 1.07813,-0.82812 2.875,-0.82812 h 2.57813 v -0.0781 q 0,-1.15625 -0.70313,-1.82812 -0.6875,-0.6875 -1.90625,-0.6875 -1.57812,0 -2.6875,1.32812 l -0.9375,-0.90625 q 1.57813,-1.65625 3.71875,-1.65625 1.17188,0 2.04688,0.46875 0.89062,0.45313 1.375,1.28125 0.48437,0.82813 0.48437,1.95313 v 5.78125 h -1.375 v -1.25 q -0.51562,0.70312 -1.35937,1.125 -0.82813,0.42187 -1.875,0.42187 z m 0.20312,-1.1875 q 1.07813,0 1.875,-0.54687 0.8125,-0.5625 1.14063,-1.46875 v -1.59375 h -2.40625 q -1.25,0 -1.9375,0.48437 -0.6875,0.46875 -0.6875,1.34375 0,0.8125 0.54687,1.29688 0.54688,0.48437 1.46875,0.48437 z m 6.31787,-0.53125 0.9375,-0.98437 q 0.59375,0.6875 1.35938,1.09375 0.78125,0.39062 1.75,0.39062 1.01562,0 1.64062,-0.45312 0.625,-0.46875 0.625,-1.21875 0,-0.60938 -0.53125,-0.96875 -0.53125,-0.375 -1.82812,-0.5625 -1.95313,-0.3125 -2.75,-0.90625 -0.78125,-0.60938 -0.78125,-1.67188 0,-1.26562 0.98437,-2.01562 0.98438,-0.76563 2.54688,-0.76563 1.15625,0 2.0625,0.45313 0.92187,0.45312 1.64062,1.26562 l -0.9375,1 q -0.51562,-0.70312 -1.20312,-1.09375 -0.6875,-0.40625 -1.5625,-0.40625 -0.90625,0 -1.48438,0.42188 -0.57812,0.42187 -0.57812,1.07812 0,0.51563 0.48437,0.82813 0.48438,0.29687 1.71875,0.48437 2.03125,0.29688 2.85938,0.96875 0.84375,0.65625 0.84375,1.875 0,0.85938 -0.48438,1.53125 -0.48437,0.65625 -1.32812,1.01563 -0.84375,0.35937 -1.9375,0.35937 -1.34375,0 -2.3125,-0.45312 -0.96875,-0.45313 -1.73438,-1.26563 z m 15.03827,1.42188 h -2.04687 q -0.96875,0 -1.48438,-0.53125 -0.5,-0.53125 -0.5,-1.51563 v -5.90625 h -1.75 v -1.21875 h 1.75 v -2.6875 h 1.4375 v 2.6875 h 2.46875 v 1.21875 h -2.46875 v 5.76563 q 0,0.95312 0.90625,0.95312 h 1.6875 z"
       fill-rule="nonzero"
       id="path93"
       clip-path="url(#clipPath545)" />
    <path
       fill="#000000"
       fill-opacity="0"
       d="m 596.29724,195.98874 v 25.92281 H 312.07678 v 25.9197"
       fill-rule="evenodd"
       id="path95"
       clip-path="url(#clipPath539)"
       style="stroke:#000000" />
    <path
       stroke="#d9d9d9"
       stroke-width="2"
       stroke-linejoin="round"
       stroke-linecap="butt"
       d="m 596.29724,195.98874 v 25.92282 H 312.07678 v 13.91971"
       fill-rule="evenodd"
       id="path97"
       clip-path="url(#clipPath533)"
       style="stroke:#000000" />
    <path
       fill="#d9d9d9"
       stroke="#d9d9d9"
       stroke-width="2"
       stroke-linecap="butt"
       d="m 308.77332,235.83127 3.30347,9.07619 3.30346,-9.07619 z"
       fill-rule="evenodd"
       id="path99"
       clip-path="url(#clipPath527)"
       style="fill:#000000;stroke:#000000" />
    <path
       fill="#000000"
       fill-opacity="0"
       d="m 376.66666,334.0013 h 44.91339 v 0.063 h 44.91339"
       fill-rule="evenodd"
       id="path101"
       clip-path="url(#clipPath521)" />
    <path
       stroke="#d9d9d9"
       stroke-width="2"
       stroke-linejoin="round"
       stroke-linecap="butt"
       d="m 376.66666,334.0013 h 44.91339 v 0.063 h 32.91339"
       fill-rule="evenodd"
       id="path103"
       clip-path="url(#clipPath515)"
       style="stroke:#000000" />
    <path
       fill="#d9d9d9"
       stroke="#d9d9d9"
       stroke-width="2"
       stroke-linecap="butt"
       d="m 454.49344,337.36777 9.0762,-3.30347 -9.0762,-3.30346 z"
       fill-rule="evenodd"
       id="path105"
       clip-path="url(#clipPath509)"
       style="fill:#000000;stroke:#000000" />
    <path
       fill="#000000"
       fill-opacity="0"
       d="m 629.83203,334 h 53.00787 v 0.063 h 53.00788"
       fill-rule="evenodd"
       id="path107"
       clip-path="url(#clipPath503)" />
    <path
       stroke="#d9d9d9"
       stroke-width="2"
       stroke-linejoin="round"
       stroke-linecap="butt"
       d="m 629.83203,334 h 53.00787 v 0.063 h 41.00788"
       fill-rule="evenodd"
       id="path109"
       clip-path="url(#clipPath497)"
       style="fill:#000000;stroke:#000000" />
    <path
       fill="#d9d9d9"
       stroke="#d9d9d9"
       stroke-width="2"
       stroke-linecap="butt"
       d="m 723.8478,337.36646 9.07617,-3.30347 -9.07617,-3.30346 z"
       fill-rule="evenodd"
       id="path111"
       clip-path="url(#clipPath491)"
       style="fill:#000000;stroke:#000000" />
    <path
       fill="#000000"
       fill-opacity="0"
       d="M 396.25723,269.33203 H 716.2572"
       fill-rule="evenodd"
       id="path113"
       clip-path="url(#clipPath485)" />
    <g
       id="g1097"
       style="fill:#0000ff;stroke:#0000ff">
      <path
         stroke="#00ff00"
         stroke-width="4"
         stroke-linejoin="round"
         stroke-linecap="butt"
         d="M 396.25723,269.33203 H 692.2572"
         fill-rule="evenodd"
         id="path115"
         clip-path="url(#clipPath479)"
         style="fill:#0000ff;stroke:#0000ff" />
      <path
         fill="#00ff00"
         stroke="#00ff00"
         stroke-width="4"
         stroke-linecap="butt"
         d="m 692.2572,275.93896 18.15241,-6.60693 -18.15241,-6.60694 z"
         fill-rule="evenodd"
         id="path117"
         clip-path="url(#clipPath473)"
         style="fill:#0000ff;stroke:#0000ff" />
    </g>
    <path
       fill="#000000"
       fill-opacity="0"
       d="m 548.1627,385.66928 v 25.91608 h 0.063 v 25.92645"
       fill-rule="evenodd"
       id="path119"
       clip-path="url(#clipPath467)" />
    <path
       stroke="#cccccc"
       stroke-width="2"
       stroke-linejoin="round"
       stroke-linecap="butt"
       d="m 548.1627,385.66928 v 25.91611 h 0.063 v 13.92642"
       fill-rule="evenodd"
       id="path121"
       clip-path="url(#clipPath461)"
       style="fill:#000000;stroke:#000000" />
    <path
       fill="#cccccc"
       stroke="#cccccc"
       stroke-width="2"
       stroke-linecap="butt"
       d="m 544.92224,425.5118 3.30347,9.0762 3.30346,-9.0762 z"
       fill-rule="evenodd"
       id="path123"
       clip-path="url(#clipPath455)"
       style="fill:#000000;stroke:#000000" />
    <path
       fill="#f0f6ff"
       d="m 504.36115,437.5013 h 87.60394 v 0 c 11.47632,0 20.77972,14.36383 20.77972,32.08252 0,17.71869 -9.3034,32.08252 -20.77972,32.08252 h -87.60394 v 0 c -11.47635,0 -20.77978,-14.36383 -20.77978,-32.08252 0,-17.71869 9.30343,-32.08252 20.77978,-32.08252 z"
       fill-rule="evenodd"
       id="path125"
       clip-path="url(#clipPath449)" />
    <path
       stroke="#061827"
       stroke-width="1"
       stroke-linejoin="round"
       stroke-linecap="butt"
       d="m 504.36115,437.5013 h 87.60394 v 0 c 11.47632,0 20.77972,14.36383 20.77972,32.08252 0,17.71869 -9.3034,32.08252 -20.77972,32.08252 h -87.60394 v 0 c -11.47635,0 -20.77978,-14.36383 -20.77978,-32.08252 0,-17.71869 9.30343,-32.08252 20.77978,-32.08252 z"
       fill-rule="evenodd"
       id="path127"
       clip-path="url(#clipPath443)" />
    <path
       fill="#000000"
       d="m 528.76495,465.80072 q -1.39063,0 -2.57813,-0.51563 -1.1875,-0.53125 -2.07812,-1.46875 -0.875,-0.9375 -1.35938,-2.21875 -0.48437,-1.28125 -0.48437,-2.76562 0,-1.5 0.48437,-2.76563 0.48438,-1.26562 1.35938,-2.20312 0.89062,-0.95313 2.07812,-1.46875 1.1875,-0.53125 2.57813,-0.53125 1.40625,0 2.59375,0.53125 1.20312,0.51562 2.07812,1.46875 0.89063,0.9375 1.375,2.20312 0.48438,1.26563 0.48438,2.76563 0,1.48437 -0.48438,2.75 -0.48437,1.26562 -1.35937,2.20312 l 1.40625,1.53125 -0.85938,0.875 -1.45312,-1.57812 q -0.79688,0.57812 -1.75,0.89062 -0.9375,0.29688 -2.03125,0.29688 z m 0,-1.34375 q 0.82812,0 1.53125,-0.21875 0.71875,-0.23438 1.29687,-0.65625 l -1.96875,-2.14063 0.85938,-0.90625 2,2.1875 q 0.60937,-0.71875 0.9375,-1.71875 0.32812,-1 0.32812,-2.17187 0,-1.65625 -0.64062,-2.90625 -0.625,-1.26563 -1.75,-1.98438 -1.10938,-0.73437 -2.59375,-0.73437 -1.45313,0 -2.57813,0.73437 -1.10937,0.71875 -1.75,1.98438 -0.625,1.25 -0.625,2.90625 0,1.60937 0.625,2.89062 0.64063,1.28125 1.75,2.01563 1.125,0.71875 2.57813,0.71875 z m 17.10669,1.04687 h -1.40625 v -1.45312 q -0.45313,0.79687 -1.26563,1.28125 -0.8125,0.46875 -1.85937,0.46875 -1.54688,0 -2.48438,-0.98438 -0.92187,-0.98437 -0.92187,-2.85937 v -5.625 h 1.4375 v 5.48437 q 0,1.34375 0.59375,2.04688 0.59375,0.6875 1.67187,0.6875 0.95313,0 1.71875,-0.57813 0.76563,-0.59375 1.07813,-1.57812 v -6.0625 h 1.4375 z m 10.15436,-2.625 0.96875,0.92188 q -0.71875,1.01562 -1.70313,1.51562 -0.98437,0.48438 -2.15625,0.48438 -1.375,0 -2.4375,-0.625 -1.04687,-0.64063 -1.64062,-1.75 -0.59375,-1.10938 -0.59375,-2.51563 0,-1.39062 0.59375,-2.5 0.59375,-1.10937 1.60937,-1.75 1.01563,-0.64062 2.28125,-0.64062 1.25,0 2.20313,0.625 0.96875,0.60937 1.5,1.70312 0.54687,1.09375 0.54687,2.51563 v 0.5625 h -7.21875 q 0.15625,1.375 1.01563,2.25 0.875,0.875 2.23437,0.875 0.85938,0 1.54688,-0.40625 0.6875,-0.40625 1.25,-1.26563 z m -3.07813,-5.60937 q -1.15625,0 -1.96875,0.82812 -0.8125,0.82813 -0.98437,2.14063 h 5.71875 q -0.14063,-1.35938 -0.875,-2.15625 -0.73438,-0.8125 -1.89063,-0.8125 z m 11.8241,-1.09375 v 1.375 h -0.3125 q -0.85938,0 -1.59375,0.4375 -0.73438,0.4375 -1.1875,1.34375 -0.45313,0.90625 -0.45313,2.32812 v 3.84375 h -1.4375 v -9.17187 h 1.42188 v 2.04687 q 0.46875,-1.20312 1.375,-1.70312 0.92187,-0.5 1.89062,-0.5 z m 8.43665,0.15625 h 1.45312 l -4.35937,10.79687 q -0.375,0.9375 -0.95313,1.46875 -0.5625,0.53125 -1.78125,0.53125 h -1.07812 v -1.23437 h 1.07812 q 0.64063,0 0.98438,-0.29688 0.35937,-0.29687 0.57812,-0.875 l 0.42188,-1.1875 -3.73438,-9.20312 h 1.53125 l 2.9375,7.67187 z"
       fill-rule="nonzero"
       id="path129"
       clip-path="url(#clipPath437)" />
    <path
       fill="#000000"
       d="m 513.7412,487.50385 h -1.48437 V 474.1601 h 8 v 1.3125 h -6.51563 v 4.54687 h 6.17188 v 1.3125 h -6.17188 z m 15.41046,-2.625 0.96875,0.92187 q -0.71875,1.01563 -1.70312,1.51563 -0.98438,0.48437 -2.15625,0.48437 -1.375,0 -2.4375,-0.625 -1.04688,-0.64062 -1.64063,-1.75 -0.59375,-1.10937 -0.59375,-2.51562 0,-1.39063 0.59375,-2.5 0.59375,-1.10938 1.60938,-1.75 1.01562,-0.64063 2.28125,-0.64063 1.25,0 2.20312,0.625 0.96875,0.60938 1.5,1.70313 0.54688,1.09375 0.54688,2.51562 v 0.5625 h -7.21875 q 0.15625,1.375 1.01562,2.25 0.875,0.875 2.23438,0.875 0.85937,0 1.54687,-0.40625 0.6875,-0.40625 1.25,-1.26562 z m -3.07812,-5.60938 q -1.15625,0 -1.96875,0.82813 -0.8125,0.82812 -0.98438,2.14062 h 5.71875 q -0.14062,-1.35937 -0.875,-2.15625 -0.73437,-0.8125 -1.89062,-0.8125 z m 9.37097,8.53125 q -0.96875,0 -1.71875,-0.375 -0.75,-0.375 -1.17188,-1.03125 -0.42187,-0.65625 -0.42187,-1.5 0,-1.40625 1.07812,-2.21875 1.07813,-0.82812 2.875,-0.82812 h 2.57813 v -0.0781 q 0,-1.15625 -0.70313,-1.82812 -0.6875,-0.6875 -1.90625,-0.6875 -1.57812,0 -2.6875,1.32812 l -0.9375,-0.90625 q 1.57813,-1.65625 3.71875,-1.65625 1.17188,0 2.04688,0.46875 0.89062,0.45313 1.375,1.28125 0.48437,0.82813 0.48437,1.95313 v 5.78125 h -1.375 v -1.25 q -0.51562,0.70312 -1.35937,1.125 -0.82813,0.42187 -1.875,0.42187 z m 0.20312,-1.1875 q 1.07813,0 1.875,-0.54687 0.8125,-0.5625 1.14063,-1.46875 v -1.59375 h -2.40625 q -1.25,0 -1.9375,0.48437 -0.6875,0.46875 -0.6875,1.34375 0,0.8125 0.54687,1.29688 0.54688,0.48437 1.46875,0.48437 z m 12.17725,0.89063 H 545.778 q -0.96875,0 -1.48437,-0.53125 -0.5,-0.53125 -0.5,-1.51563 v -5.90625 h -1.75 v -1.21875 h 1.75 v -2.6875 h 1.4375 v 2.6875 h 2.46875 v 1.21875 h -2.46875 v 5.76563 q 0,0.95312 0.90625,0.95312 h 1.6875 z m 10.07068,0 h -1.40625 v -1.45313 q -0.45313,0.79688 -1.26563,1.28125 -0.8125,0.46875 -1.85937,0.46875 -1.54688,0 -2.48438,-0.98437 -0.92187,-0.98438 -0.92187,-2.85938 v -5.625 h 1.4375 v 5.48438 q 0,1.34375 0.59375,2.04687 0.59375,0.6875 1.67187,0.6875 0.95313,0 1.71875,-0.57812 0.76563,-0.59375 1.07813,-1.57813 v -6.0625 h 1.4375 z m 8.15436,-9.32813 v 1.375 h -0.3125 q -0.85938,0 -1.59375,0.4375 -0.73438,0.4375 -1.1875,1.34375 -0.45313,0.90625 -0.45313,2.32813 v 3.84375 h -1.4375 v -9.17188 h 1.42188 v 2.04688 q 0.46875,-1.20313 1.375,-1.70313 0.92187,-0.5 1.89062,-0.5 z m 8.64141,6.70313 0.96875,0.92187 q -0.71875,1.01563 -1.70312,1.51563 -0.98438,0.48437 -2.15625,0.48437 -1.375,0 -2.4375,-0.625 -1.04688,-0.64062 -1.64063,-1.75 -0.59375,-1.10937 -0.59375,-2.51562 0,-1.39063 0.59375,-2.5 0.59375,-1.10938 1.60938,-1.75 1.01562,-0.64063 2.28125,-0.64063 1.25,0 2.20312,0.625 0.96875,0.60938 1.5,1.70313 0.54688,1.09375 0.54688,2.51562 v 0.5625 h -7.21875 q 0.15625,1.375 1.01562,2.25 0.875,0.875 2.23438,0.875 0.85937,0 1.54687,-0.40625 0.6875,-0.40625 1.25,-1.26562 z m -3.07812,-5.60938 q -1.15625,0 -1.96875,0.82813 -0.8125,0.82812 -0.98438,2.14062 h 5.71875 q -0.14062,-1.35937 -0.875,-2.15625 -0.73437,-0.8125 -1.89062,-0.8125 z m 5.76166,6.8125 0.9375,-0.98437 q 0.59375,0.6875 1.35937,1.09375 0.78125,0.39062 1.75,0.39062 1.01563,0 1.64063,-0.45312 0.625,-0.46875 0.625,-1.21875 0,-0.60938 -0.53125,-0.96875 -0.53125,-0.375 -1.82813,-0.5625 -1.95312,-0.3125 -2.75,-0.90625 -0.78125,-0.60938 -0.78125,-1.67188 0,-1.26562 0.98438,-2.01562 0.98437,-0.76563 2.54687,-0.76563 1.15625,0 2.0625,0.45313 0.92188,0.45312 1.64063,1.26562 l -0.9375,1 q -0.51563,-0.70312 -1.20313,-1.09375 -0.6875,-0.40625 -1.5625,-0.40625 -0.90625,0 -1.48437,0.42188 -0.57813,0.42187 -0.57813,1.07812 0,0.51563 0.48438,0.82813 0.48437,0.29687 1.71875,0.48437 2.03125,0.29688 2.85937,0.96875 0.84375,0.65625 0.84375,1.875 0,0.85938 -0.48437,1.53125 -0.48438,0.65625 -1.32813,1.01563 -0.84375,0.35937 -1.9375,0.35937 -1.34375,0 -2.3125,-0.45312 -0.96875,-0.45313 -1.73437,-1.26563 z"
       fill-rule="nonzero"
       id="path131"
       clip-path="url(#clipPath431)" />
    <path
       fill="#000000"
       fill-opacity="0"
       d="m 449.7848,229.57349 h 196.81891 v 45.25986 H 449.7848 Z"
       fill-rule="evenodd"
       id="path133"
       clip-path="url(#clipPath425)" />
    <path
       fill="#ffffff"
       d="m 485.1335,257.75662 h -1.26562 l -5.07813,-11.39063 v 12.6875 h -1.65625 v -15.25 h 2.17188 l 5.20312,11.79688 5.25,-11.79688 h 2.15625 v 15.25 h -1.67187 v -12.6875 z m 13.72391,1.64062 q -1.10938,0 -1.96875,-0.42187 -0.84375,-0.4375 -1.32813,-1.1875 -0.46875,-0.76563 -0.46875,-1.71875 0,-1.59375 1.21875,-2.53125 1.23438,-0.95313 3.29688,-0.95313 h 2.9375 v -0.0781 q 0,-1.32813 -0.79688,-2.09375 -0.79687,-0.78125 -2.1875,-0.78125 -1.8125,0 -3.0625,1.51562 l -1.0625,-1.04687 q 1.78125,-1.875 4.23438,-1.875 1.34375,0 2.34375,0.51562 1,0.51563 1.54687,1.46875 0.5625,0.95313 0.5625,2.23438 v 6.60937 h -1.54687 v -1.42187 q -0.59375,0.79687 -1.5625,1.28125 -0.95313,0.48437 -2.15625,0.48437 z m 0.23437,-1.375 q 1.23438,0 2.15625,-0.625 0.92188,-0.625 1.29688,-1.67187 v -1.8125 h -2.75 q -1.42188,0 -2.21875,0.54687 -0.78125,0.54688 -0.78125,1.54688 0,0.90625 0.625,1.46875 0.625,0.54687 1.67187,0.54687 z m 13.92499,1.03125 h -2.34378 q -1.10938,0 -1.6875,-0.60937 -0.5625,-0.60938 -0.5625,-1.73438 v -6.73437 h -2.01563 v -1.42188 h 2.01563 v -3.0625 h 1.64062 v 3.0625 h 2.81254 v 1.42188 h -2.81254 v 6.57812 q 0,1.09375 1.01563,1.09375 h 1.93753 z m 10.18793,-3 1.10937,1.0625 q -0.84375,1.14063 -1.96875,1.71875 -1.10937,0.5625 -2.45312,0.5625 -1.57813,0 -2.78125,-0.71875 -1.20313,-0.73437 -1.875,-2 -0.67188,-1.26562 -0.67188,-2.875 0,-1.59375 0.67188,-2.85937 0.67187,-1.28125 1.82812,-2 1.15625,-0.71875 2.60938,-0.71875 1.4375,0 2.53125,0.70312 1.09375,0.70313 1.71875,1.95313 0.625,1.23437 0.625,2.85937 v 0.64063 h -8.26563 q 0.17188,1.57812 1.15625,2.57812 1,1 2.5625,1 0.98438,0 1.76563,-0.46875 0.79687,-0.46875 1.4375,-1.4375 z m -3.53125,-6.40625 q -1.3125,0 -2.25,0.9375 -0.92188,0.9375 -1.10938,2.45313 h 6.51563 q -0.14063,-1.5625 -0.98438,-2.46875 -0.84375,-0.92188 -2.17187,-0.92188 z m 13.51947,-1.26562 v 1.59375 h -0.35938 q -0.98437,0 -1.82812,0.5 -0.82813,0.5 -1.34375,1.53125 -0.51563,1.03125 -0.51563,2.65625 v 4.39062 h -1.64062 v -10.5 h 1.625 v 2.35938 q 0.53125,-1.375 1.57812,-1.95313 1.04688,-0.57812 2.15625,-0.57812 z m 4.30066,-3.78125 q 0,0.5 -0.34375,0.84375 -0.32813,0.32812 -0.8125,0.32812 -0.48438,0 -0.82813,-0.32812 -0.32812,-0.34375 -0.32812,-0.84375 0,-0.51563 0.32812,-0.84375 0.34375,-0.34375 0.82813,-0.34375 0.48437,0 0.8125,0.34375 0.34375,0.32812 0.34375,0.84375 z m -0.32813,14.45312 h -1.64062 v -10.5 h 1.64062 z m 6.50244,0.34375 q -1.10937,0 -1.96875,-0.42187 -0.84375,-0.4375 -1.32812,-1.1875 -0.46875,-0.76563 -0.46875,-1.71875 0,-1.59375 1.21875,-2.53125 1.23437,-0.95313 3.29687,-0.95313 h 2.9375 v -0.0781 q 0,-1.32813 -0.79687,-2.09375 -0.79688,-0.78125 -2.1875,-0.78125 -1.8125,0 -3.0625,1.51562 l -1.0625,-1.04687 q 1.78125,-1.875 4.23437,-1.875 1.34375,0 2.34375,0.51562 1,0.51563 1.54688,1.46875 0.5625,0.95313 0.5625,2.23438 v 6.60937 h -1.54688 v -1.42187 q -0.59375,0.79687 -1.5625,1.28125 -0.95312,0.48437 -2.15625,0.48437 z m 0.23438,-1.375 q 1.23437,0 2.15625,-0.625 0.92187,-0.625 1.29687,-1.67187 v -1.8125 h -2.75 q -1.42187,0 -2.21875,0.54687 -0.78125,0.54688 -0.78125,1.54688 0,0.90625 0.625,1.46875 0.625,0.54687 1.67188,0.54687 z m 10.11242,1.03125 h -1.64062 v -15.35937 h 1.64062 z m 5.5962,-14.45312 q 0,0.5 -0.34375,0.84375 -0.32813,0.32812 -0.8125,0.32812 -0.48438,0 -0.82813,-0.32812 -0.32812,-0.34375 -0.32812,-0.84375 0,-0.51563 0.32812,-0.84375 0.34375,-0.34375 0.82813,-0.34375 0.48437,0 0.8125,0.34375 0.34375,0.32812 0.34375,0.84375 z m -0.32813,14.45312 h -1.64062 v -10.5 h 1.64062 z m 11.03369,0 h -8.29687 v -1.35937 l 6.14062,-7.75 h -5.95312 v -1.39063 h 7.90625 v 1.39063 l -6.15625,7.75 h 6.35937 z m 5.57837,0.34375 q -1.10937,0 -1.96875,-0.42187 -0.84375,-0.4375 -1.32812,-1.1875 -0.46875,-0.76563 -0.46875,-1.71875 0,-1.59375 1.21875,-2.53125 1.23437,-0.95313 3.29687,-0.95313 h 2.9375 v -0.0781 q 0,-1.32813 -0.79687,-2.09375 -0.79688,-0.78125 -2.1875,-0.78125 -1.8125,0 -3.0625,1.51562 l -1.0625,-1.04687 q 1.78125,-1.875 4.23437,-1.875 1.34375,0 2.34375,0.51562 1,0.51563 1.54688,1.46875 0.5625,0.95313 0.5625,2.23438 v 6.60937 h -1.54688 v -1.42187 q -0.59375,0.79687 -1.5625,1.28125 -0.95312,0.48437 -2.15625,0.48437 z m 0.23438,-1.375 q 1.23437,0 2.15625,-0.625 0.92187,-0.625 1.29687,-1.67187 v -1.8125 h -2.75 q -1.42187,0 -2.21875,0.54687 -0.78125,0.54688 -0.78125,1.54688 0,0.90625 0.625,1.46875 0.625,0.54687 1.67188,0.54687 z m 13.92492,1.03125 h -2.34375 q -1.10937,0 -1.6875,-0.60937 -0.5625,-0.60938 -0.5625,-1.73438 v -6.73437 h -2.01562 v -1.42188 h 2.01562 v -3.0625 h 1.64063 v 3.0625 h 2.8125 v 1.42188 h -2.8125 v 6.57812 q 0,1.09375 1.01562,1.09375 h 1.9375 z m 4.59906,-14.45312 q 0,0.5 -0.34375,0.84375 -0.32812,0.32812 -0.8125,0.32812 -0.48437,0 -0.82812,-0.32812 -0.32813,-0.34375 -0.32813,-0.84375 0,-0.51563 0.32813,-0.84375 0.34375,-0.34375 0.82812,-0.34375 0.48438,0 0.8125,0.34375 0.34375,0.32812 0.34375,0.84375 z m -0.32812,14.45312 h -1.64063 v -10.5 h 1.64063 z m 8.22119,0.34375 q -1.51563,0 -2.71875,-0.71875 -1.1875,-0.73437 -1.85938,-1.98437 -0.67187,-1.26563 -0.67187,-2.89063 0,-1.625 0.67187,-2.875 0.67188,-1.26562 1.85938,-1.98437 1.20312,-0.71875 2.71875,-0.71875 1.53125,0 2.71875,0.71875 1.20312,0.71875 1.875,1.98437 0.67187,1.25 0.67187,2.875 0,1.625 -0.67187,2.89063 -0.67188,1.25 -1.875,1.98437 -1.1875,0.71875 -2.71875,0.71875 z m 0,-1.4375 q 1.0625,0 1.84375,-0.53125 0.79687,-0.53125 1.23437,-1.46875 0.45313,-0.9375 0.45313,-2.15625 0,-1.23437 -0.45313,-2.15625 -0.4375,-0.9375 -1.23437,-1.46875 -0.78125,-0.53125 -1.84375,-0.53125 -1.04688,0 -1.84375,0.53125 -0.78125,0.53125 -1.23438,1.46875 -0.45312,0.92188 -0.45312,2.15625 0,1.21875 0.45312,2.15625 0.45313,0.9375 1.23438,1.46875 0.79687,0.53125 1.84375,0.53125 z m 17.34949,1.09375 h -1.64063 v -6.03125 q 0,-1.67187 -0.70312,-2.51562 -0.6875,-0.84375 -1.85938,-0.84375 -0.84375,0 -1.59375,0.48437 -0.75,0.48438 -1.21875,1.51563 -0.46875,1.03125 -0.46875,2.67187 v 4.71875 h -1.64062 v -10.5 h 1.625 v 2.15625 q 0.51562,-1.35937 1.51562,-1.92187 1,-0.5625 2.10938,-0.5625 1.8125,0 2.84375,1.1875 1.03125,1.17187 1.03125,3.40625 z"
       fill-rule="nonzero"
       id="path135"
       clip-path="url(#clipPath419)"
       style="fill:#000000" />
    <path
       fill="#000000"
       fill-opacity="0"
       d="m 382.92053,110.28486 h 40.66791 v 0.063 h 40.65494"
       fill-rule="evenodd"
       id="path141"
       clip-path="url(#clipPath401)"
       style="stroke:#000000" />
    <path
       stroke="#d9d9d9"
       stroke-width="2"
       stroke-linejoin="round"
       stroke-linecap="butt"
       d="m 382.92053,110.28486 h 40.66794 v 0.063 h 28.65488"
       fill-rule="evenodd"
       id="path143"
       clip-path="url(#clipPath395)"
       style="stroke:#000000" />
    <path
       fill="#d9d9d9"
       stroke="#d9d9d9"
       stroke-width="2"
       stroke-linecap="butt"
       d="m 452.24335,113.65131 9.0762,-3.30346 -9.0762,-3.30347 z"
       fill-rule="evenodd"
       id="path145"
       clip-path="url(#clipPath389)"
       style="fill:#000000;stroke:#000000" />
  </g>
</svg>
