<?xml version="1.0" encoding="UTF-8" standalone="no"?>
<svg
   version="1.1"
   viewBox="0 0 700 500"
   fill="none"
   stroke="none"
   stroke-linecap="square"
   stroke-miterlimit="10"
   id="svg1854"
   sodipodi:docname="feast_streaming.svg"
   width="700"
   height="500"
   inkscape:version="1.2.2 (b0a8486541, 2022-12-01)"
   xmlns:inkscape="http://www.inkscape.org/namespaces/inkscape"
   xmlns:sodipodi="http://sodipodi.sourceforge.net/DTD/sodipodi-0.dtd"
   xmlns="http://www.w3.org/2000/svg"
   xmlns:svg="http://www.w3.org/2000/svg">
  <defs
     id="defs1858">
    <defs
       id="defs1723">
      <linearGradient
         id="g2ff77852d21_0_0.1"
         gradientUnits="userSpaceOnUse"
         gradientTransform="scale(32.567769)"
         spreadMethod="pad"
         x1="-8.2904053"
         y1="8.2903757"
         x2="14.738443"
         y2="31.319307">
        <stop
           offset="0.0"
           stop-color="#1b2838"
           id="stop1716" />
        <stop
           offset="0.43"
           stop-color="#0e2631"
           id="stop1718" />
        <stop
           offset="1.0"
           stop-color="#0080a9"
           id="stop1720" />
      </linearGradient>
    </defs>
    <clipPath
       clipPathUnits="userSpaceOnUse"
       id="clipPath1933">
      <g
         id="g1937">
        <path
           d="M 0,0 H 960 V 540 H 0 Z"
           clip-rule="nonzero"
           id="path1935" />
      </g>
    </clipPath>
    <clipPath
       clipPathUnits="userSpaceOnUse"
       id="clipPath1939">
      <g
         id="g1943">
        <path
           d="M 0,0 H 960 V 540 H 0 Z"
           clip-rule="nonzero"
           id="path1941" />
      </g>
    </clipPath>
    <clipPath
       clipPathUnits="userSpaceOnUse"
       id="clipPath1945">
      <g
         id="g1949">
        <path
           d="M 0,0 H 960 V 540 H 0 Z"
           clip-rule="nonzero"
           id="path1947" />
      </g>
    </clipPath>
    <clipPath
       clipPathUnits="userSpaceOnUse"
       id="clipPath1951">
      <g
         id="g1955">
        <path
           d="M 0,0 H 960 V 540 H 0 Z"
           clip-rule="nonzero"
           id="path1953" />
      </g>
    </clipPath>
    <clipPath
       clipPathUnits="userSpaceOnUse"
       id="clipPath1957">
      <g
         id="g1961">
        <path
           d="M 0,0 H 960 V 540 H 0 Z"
           clip-rule="nonzero"
           id="path1959" />
      </g>
    </clipPath>
    <clipPath
       clipPathUnits="userSpaceOnUse"
       id="clipPath1963">
      <g
         id="g1967">
        <path
           d="M 0,0 H 960 V 540 H 0 Z"
           clip-rule="nonzero"
           id="path1965" />
      </g>
    </clipPath>
    <clipPath
       clipPathUnits="userSpaceOnUse"
       id="clipPath1969">
      <g
         id="g1973">
        <path
           d="M 0,0 H 960 V 540 H 0 Z"
           clip-rule="nonzero"
           id="path1971" />
      </g>
    </clipPath>
    <clipPath
       clipPathUnits="userSpaceOnUse"
       id="clipPath1975">
      <g
         id="g1979">
        <path
           d="M 0,0 H 960 V 540 H 0 Z"
           clip-rule="nonzero"
           id="path1977" />
      </g>
    </clipPath>
    <clipPath
       clipPathUnits="userSpaceOnUse"
       id="clipPath1981">
      <g
         id="g1985">
        <path
           d="M 0,0 H 960 V 540 H 0 Z"
           clip-rule="nonzero"
           id="path1983" />
      </g>
    </clipPath>
    <clipPath
       clipPathUnits="userSpaceOnUse"
       id="clipPath1987">
      <g
         id="g1991">
        <path
           d="M 0,0 H 960 V 540 H 0 Z"
           clip-rule="nonzero"
           id="path1989" />
      </g>
    </clipPath>
    <clipPath
       clipPathUnits="userSpaceOnUse"
       id="clipPath1993">
      <g
         id="g1997">
        <path
           d="M 0,0 H 960 V 540 H 0 Z"
           clip-rule="nonzero"
           id="path1995" />
      </g>
    </clipPath>
    <clipPath
       clipPathUnits="userSpaceOnUse"
       id="clipPath1999">
      <g
         id="g2003">
        <path
           d="M 0,0 H 960 V 540 H 0 Z"
           clip-rule="nonzero"
           id="path2001" />
      </g>
    </clipPath>
    <clipPath
       clipPathUnits="userSpaceOnUse"
       id="clipPath2005">
      <g
         id="g2009">
        <path
           d="M 0,0 H 960 V 540 H 0 Z"
           clip-rule="nonzero"
           id="path2007" />
      </g>
    </clipPath>
    <clipPath
       clipPathUnits="userSpaceOnUse"
       id="clipPath2011">
      <g
         id="g2015">
        <path
           d="M 0,0 H 960 V 540 H 0 Z"
           clip-rule="nonzero"
           id="path2013" />
      </g>
    </clipPath>
    <clipPath
       clipPathUnits="userSpaceOnUse"
       id="clipPath2017">
      <g
         id="g2021">
        <path
           d="M 0,0 H 960 V 540 H 0 Z"
           clip-rule="nonzero"
           id="path2019" />
      </g>
    </clipPath>
    <clipPath
       clipPathUnits="userSpaceOnUse"
       id="clipPath2023">
      <g
         id="g2027">
        <path
           d="M 0,0 H 960 V 540 H 0 Z"
           clip-rule="nonzero"
           id="path2025" />
      </g>
    </clipPath>
    <clipPath
       clipPathUnits="userSpaceOnUse"
       id="clipPath2029">
      <g
         id="g2033">
        <path
           d="M 0,0 H 960 V 540 H 0 Z"
           clip-rule="nonzero"
           id="path2031" />
      </g>
    </clipPath>
    <clipPath
       clipPathUnits="userSpaceOnUse"
       id="clipPath2035">
      <g
         id="g2039">
        <path
           d="M 0,0 H 960 V 540 H 0 Z"
           clip-rule="nonzero"
           id="path2037" />
      </g>
    </clipPath>
    <clipPath
       clipPathUnits="userSpaceOnUse"
       id="clipPath2041">
      <g
         id="g2045">
        <path
           d="M 0,0 H 960 V 540 H 0 Z"
           clip-rule="nonzero"
           id="path2043" />
      </g>
    </clipPath>
    <clipPath
       clipPathUnits="userSpaceOnUse"
       id="clipPath2047">
      <g
         id="g2051">
        <path
           d="M 0,0 H 960 V 540 H 0 Z"
           clip-rule="nonzero"
           id="path2049" />
      </g>
    </clipPath>
    <clipPath
       clipPathUnits="userSpaceOnUse"
       id="clipPath2053">
      <g
         id="g2057">
        <path
           d="M 0,0 H 960 V 540 H 0 Z"
           clip-rule="nonzero"
           id="path2055" />
      </g>
    </clipPath>
    <clipPath
       clipPathUnits="userSpaceOnUse"
       id="clipPath2059">
      <g
         id="g2063">
        <path
           d="M 0,0 H 960 V 540 H 0 Z"
           clip-rule="nonzero"
           id="path2061" />
      </g>
    </clipPath>
    <clipPath
       clipPathUnits="userSpaceOnUse"
       id="clipPath2065">
      <g
         id="g2069">
        <path
           d="M 0,0 H 960 V 540 H 0 Z"
           clip-rule="nonzero"
           id="path2067" />
      </g>
    </clipPath>
    <clipPath
       clipPathUnits="userSpaceOnUse"
       id="clipPath2071">
      <g
         id="g2075">
        <path
           d="M 0,0 H 960 V 540 H 0 Z"
           clip-rule="nonzero"
           id="path2073" />
      </g>
    </clipPath>
    <clipPath
       clipPathUnits="userSpaceOnUse"
       id="clipPath2077">
      <g
         id="g2081">
        <path
           d="M 0,0 H 960 V 540 H 0 Z"
           clip-rule="nonzero"
           id="path2079" />
      </g>
    </clipPath>
    <clipPath
       clipPathUnits="userSpaceOnUse"
       id="clipPath2083">
      <g
         id="g2087">
        <path
           d="M 0,0 H 960 V 540 H 0 Z"
           clip-rule="nonzero"
           id="path2085" />
      </g>
    </clipPath>
    <clipPath
       clipPathUnits="userSpaceOnUse"
       id="clipPath2089">
      <g
         id="g2093">
        <path
           d="M 0,0 H 960 V 540 H 0 Z"
           clip-rule="nonzero"
           id="path2091" />
      </g>
    </clipPath>
    <clipPath
       clipPathUnits="userSpaceOnUse"
       id="clipPath2095">
      <g
         id="g2099">
        <path
           d="M 0,0 H 960 V 540 H 0 Z"
           clip-rule="nonzero"
           id="path2097" />
      </g>
    </clipPath>
    <clipPath
       clipPathUnits="userSpaceOnUse"
       id="clipPath2101">
      <g
         id="g2105">
        <path
           d="M 0,0 H 960 V 540 H 0 Z"
           clip-rule="nonzero"
           id="path2103" />
      </g>
    </clipPath>
    <clipPath
       clipPathUnits="userSpaceOnUse"
       id="clipPath2107">
      <g
         id="g2111">
        <path
           d="M 0,0 H 960 V 540 H 0 Z"
           clip-rule="nonzero"
           id="path2109" />
      </g>
    </clipPath>
    <clipPath
       clipPathUnits="userSpaceOnUse"
       id="clipPath2113">
      <g
         id="g2117">
        <path
           d="M 0,0 H 960 V 540 H 0 Z"
           clip-rule="nonzero"
           id="path2115" />
      </g>
    </clipPath>
    <clipPath
       clipPathUnits="userSpaceOnUse"
       id="clipPath2119">
      <g
         id="g2123">
        <path
           d="M 0,0 H 960 V 540 H 0 Z"
           clip-rule="nonzero"
           id="path2121" />
      </g>
    </clipPath>
    <clipPath
       clipPathUnits="userSpaceOnUse"
       id="clipPath2125">
      <g
         id="g2129">
        <path
           d="M 0,0 H 960 V 540 H 0 Z"
           clip-rule="nonzero"
           id="path2127" />
      </g>
    </clipPath>
    <clipPath
       clipPathUnits="userSpaceOnUse"
       id="clipPath2131">
      <g
         id="g2135">
        <path
           d="M 0,0 H 960 V 540 H 0 Z"
           clip-rule="nonzero"
           id="path2133" />
      </g>
    </clipPath>
    <clipPath
       clipPathUnits="userSpaceOnUse"
       id="clipPath2137">
      <g
         id="g2141">
        <path
           d="M 0,0 H 960 V 540 H 0 Z"
           clip-rule="nonzero"
           id="path2139" />
      </g>
    </clipPath>
    <clipPath
       clipPathUnits="userSpaceOnUse"
       id="clipPath2143">
      <g
         id="g2147">
        <path
           d="M 0,0 H 960 V 540 H 0 Z"
           clip-rule="nonzero"
           id="path2145" />
      </g>
    </clipPath>
    <clipPath
       clipPathUnits="userSpaceOnUse"
       id="clipPath2149">
      <g
         id="g2153">
        <path
           d="M 0,0 H 960 V 540 H 0 Z"
           clip-rule="nonzero"
           id="path2151" />
      </g>
    </clipPath>
    <clipPath
       clipPathUnits="userSpaceOnUse"
       id="clipPath2155">
      <g
         id="g2159">
        <path
           d="M 0,0 H 960 V 540 H 0 Z"
           clip-rule="nonzero"
           id="path2157" />
      </g>
    </clipPath>
    <clipPath
       clipPathUnits="userSpaceOnUse"
       id="clipPath2161">
      <g
         id="g2165">
        <path
           d="M 0,0 H 960 V 540 H 0 Z"
           clip-rule="nonzero"
           id="path2163" />
      </g>
    </clipPath>
    <clipPath
       clipPathUnits="userSpaceOnUse"
       id="clipPath2167">
      <g
         id="g2171">
        <path
           d="M 0,0 H 960 V 540 H 0 Z"
           clip-rule="nonzero"
           id="path2169" />
      </g>
    </clipPath>
    <clipPath
       clipPathUnits="userSpaceOnUse"
       id="clipPath2173">
      <g
         id="g2177">
        <path
           d="M 0,0 H 960 V 540 H 0 Z"
           clip-rule="nonzero"
           id="path2175" />
      </g>
    </clipPath>
    <clipPath
       clipPathUnits="userSpaceOnUse"
       id="clipPath2179">
      <g
         id="g2183">
        <path
           d="M 0,0 H 960 V 540 H 0 Z"
           clip-rule="nonzero"
           id="path2181" />
      </g>
    </clipPath>
    <clipPath
       clipPathUnits="userSpaceOnUse"
       id="clipPath2185">
      <g
         id="g2189">
        <path
           d="M 0,0 H 960 V 540 H 0 Z"
           clip-rule="nonzero"
           id="path2187" />
      </g>
    </clipPath>
    <clipPath
       clipPathUnits="userSpaceOnUse"
       id="clipPath2191">
      <g
         id="g2195">
        <path
           d="M 0,0 H 960 V 540 H 0 Z"
           clip-rule="nonzero"
           id="path2193" />
      </g>
    </clipPath>
    <clipPath
       clipPathUnits="userSpaceOnUse"
       id="clipPath2197">
      <g
         id="g2201">
        <path
           d="M 0,0 H 960 V 540 H 0 Z"
           clip-rule="nonzero"
           id="path2199" />
      </g>
    </clipPath>
    <clipPath
       clipPathUnits="userSpaceOnUse"
       id="clipPath2203">
      <g
         id="g2207">
        <path
           d="M 0,0 H 960 V 540 H 0 Z"
           clip-rule="nonzero"
           id="path2205" />
      </g>
    </clipPath>
    <clipPath
       clipPathUnits="userSpaceOnUse"
       id="clipPath2209">
      <g
         id="g2213">
        <path
           d="M 0,0 H 960 V 540 H 0 Z"
           clip-rule="nonzero"
           id="path2211" />
      </g>
    </clipPath>
    <clipPath
       clipPathUnits="userSpaceOnUse"
       id="clipPath2215">
      <g
         id="g2219">
        <path
           d="M 0,0 H 960 V 540 H 0 Z"
           clip-rule="nonzero"
           id="path2217" />
      </g>
    </clipPath>
    <clipPath
       clipPathUnits="userSpaceOnUse"
       id="clipPath2221">
      <g
         id="g2225">
        <path
           d="M 0,0 H 960 V 540 H 0 Z"
           clip-rule="nonzero"
           id="path2223" />
      </g>
    </clipPath>
    <clipPath
       clipPathUnits="userSpaceOnUse"
       id="clipPath2227">
      <g
         id="g2231">
        <path
           d="M 0,0 H 960 V 540 H 0 Z"
           clip-rule="nonzero"
           id="path2229" />
      </g>
    </clipPath>
    <clipPath
       clipPathUnits="userSpaceOnUse"
       id="clipPath2233">
      <g
         id="g2237">
        <path
           d="M 0,0 H 960 V 540 H 0 Z"
           clip-rule="nonzero"
           id="path2235" />
      </g>
    </clipPath>
    <clipPath
       clipPathUnits="userSpaceOnUse"
       id="clipPath2239">
      <g
         id="g2243">
        <path
           d="M 0,0 H 960 V 540 H 0 Z"
           clip-rule="nonzero"
           id="path2241" />
      </g>
    </clipPath>
    <clipPath
       clipPathUnits="userSpaceOnUse"
       id="clipPath2245">
      <g
         id="g2249">
        <path
           d="M 0,0 H 960 V 540 H 0 Z"
           clip-rule="nonzero"
           id="path2247" />
      </g>
    </clipPath>
    <clipPath
       clipPathUnits="userSpaceOnUse"
       id="clipPath2251">
      <g
         id="g2255">
        <path
           d="M 0,0 H 960 V 540 H 0 Z"
           clip-rule="nonzero"
           id="path2253" />
      </g>
    </clipPath>
    <clipPath
       clipPathUnits="userSpaceOnUse"
       id="clipPath2257">
      <g
         id="g2261">
        <path
           d="M 0,0 H 960 V 540 H 0 Z"
           clip-rule="nonzero"
           id="path2259" />
      </g>
    </clipPath>
    <clipPath
       clipPathUnits="userSpaceOnUse"
       id="clipPath2263">
      <g
         id="g2267">
        <path
           d="M 0,0 H 960 V 540 H 0 Z"
           clip-rule="nonzero"
           id="path2265" />
      </g>
    </clipPath>
    <clipPath
       clipPathUnits="userSpaceOnUse"
       id="clipPath2269">
      <g
         id="g2273">
        <path
           d="M 0,0 H 960 V 540 H 0 Z"
           clip-rule="nonzero"
           id="path2271" />
      </g>
    </clipPath>
    <clipPath
       clipPathUnits="userSpaceOnUse"
       id="clipPath2275">
      <g
         id="g2279">
        <path
           d="M 0,0 H 960 V 540 H 0 Z"
           clip-rule="nonzero"
           id="path2277" />
      </g>
    </clipPath>
    <clipPath
       clipPathUnits="userSpaceOnUse"
       id="clipPath2281">
      <g
         id="g2285"
         transform="matrix(19.970017,0,0,20.192813,-17382.856,-10435.856)">
        <path
           d="M 0,0 H 960 V 540 H 0 Z"
           clip-rule="nonzero"
           id="path2283" />
      </g>
    </clipPath>
    <clipPath
       clipPathUnits="userSpaceOnUse"
       id="clipPath2287">
      <g
         id="g2291">
        <path
           d="M 0,0 H 960 V 540 H 0 Z"
           clip-rule="nonzero"
           id="path2289" />
      </g>
    </clipPath>
    <clipPath
       clipPathUnits="userSpaceOnUse"
       id="clipPath2293">
      <g
         id="g2297">
        <path
           d="M 0,0 H 960 V 540 H 0 Z"
           clip-rule="nonzero"
           id="path2295" />
      </g>
    </clipPath>
  </defs>
  <sodipodi:namedview
     id="namedview1856"
     pagecolor="#ffffff"
     bordercolor="#000000"
     borderopacity="0.25"
     inkscape:showpageshadow="2"
     inkscape:pageopacity="0.0"
     inkscape:pagecheckerboard="0"
     inkscape:deskcolor="#d1d1d1"
     showgrid="false"
     inkscape:zoom="1.3666667"
     inkscape:cx="480"
     inkscape:cy="270.36585"
     inkscape:window-width="1920"
     inkscape:window-height="1026"
     inkscape:window-x="0"
     inkscape:window-y="0"
     inkscape:window-maximized="1"
     inkscape:current-layer="svg1854" />
  <path
     fill="#000000"
     fill-opacity="0"
     d="m 40.97197,516.3631 h 358.83466 v 18.17322 H 40.97197 Z"
     fill-rule="evenodd"
     id="path1736"
     clip-path="url(#clipPath2275)" />
  <path
     fill="#000000"
     fill-opacity="0"
     d="M 11,13.666667 H 491 V 58.926509 H 11 Z"
     fill-rule="evenodd"
     id="path1844"
     clip-path="url(#clipPath1951)" />
  <g
     id="g2353"
     transform="translate(-199.4128,-35.328427)">
    <path
       fill="#f0f6ff"
       d="m 247.50131,268.55685 v 0 c 0,-15.86284 28.91464,-28.72221 64.58267,-28.72221 35.66803,0 64.58267,12.85937 64.58267,28.72221 v 114.88892 c 0,15.86282 -28.91464,28.72219 -64.58267,28.72219 -35.66803,0 -64.58267,-12.85937 -64.58267,-28.72219 z"
       fill-rule="evenodd"
       id="path1740"
       clip-path="url(#clipPath2263)" />
    <path
       fill="#000000"
       fill-opacity="0"
       d="m 376.66666,268.55685 v 0 c 0,15.86285 -28.91464,28.72223 -64.58267,28.72223 -35.66803,0 -64.58267,-12.85938 -64.58267,-28.72223"
       fill-rule="evenodd"
       id="path1742"
       clip-path="url(#clipPath2257)" />
    <path
       fill="#000000"
       fill-opacity="0"
       d="m 247.50131,268.55685 v 0 c 0,-15.86284 28.91464,-28.72221 64.58267,-28.72221 35.66803,0 64.58267,12.85937 64.58267,28.72221 v 114.88892 c 0,15.86282 -28.91464,28.72219 -64.58267,28.72219 -35.66803,0 -64.58267,-12.85937 -64.58267,-28.72219 z"
       fill-rule="evenodd"
       id="path1744"
       clip-path="url(#clipPath2251)" />
    <path
       stroke="#061827"
       stroke-width="1"
       stroke-linejoin="round"
       stroke-linecap="butt"
       d="m 376.66666,268.55685 v 0 c 0,15.86285 -28.91464,28.72223 -64.58267,28.72223 -35.66803,0 -64.58267,-12.85938 -64.58267,-28.72223"
       fill-rule="evenodd"
       id="path1746"
       clip-path="url(#clipPath2245)" />
    <path
       stroke="#061827"
       stroke-width="1"
       stroke-linejoin="round"
       stroke-linecap="butt"
       d="m 247.50131,268.55685 v 0 c 0,-15.86284 28.91464,-28.72221 64.58267,-28.72221 35.66803,0 64.58267,12.85937 64.58267,28.72221 v 114.88892 c 0,15.86282 -28.91464,28.72219 -64.58267,28.72219 -35.66803,0 -64.58267,-12.85937 -64.58267,-28.72219 z"
       fill-rule="evenodd"
       id="path1748"
       clip-path="url(#clipPath2239)" />
    <path
       fill="#000000"
       d="m 291.83142,325.2824 h -1.48438 v -13.34375 h 8 v 1.3125 h -6.51562 v 4.54687 h 6.17187 v 1.3125 h -6.17187 z m 15.41043,-2.625 0.96875,0.92187 q -0.71875,1.01563 -1.70312,1.51563 -0.98438,0.48437 -2.15625,0.48437 -1.375,0 -2.4375,-0.625 -1.04688,-0.64062 -1.64063,-1.75 -0.59375,-1.10937 -0.59375,-2.51562 0,-1.39063 0.59375,-2.5 0.59375,-1.10938 1.60938,-1.75 1.01562,-0.64063 2.28125,-0.64063 1.25,0 2.20312,0.625 0.96875,0.60938 1.5,1.70313 0.54688,1.09375 0.54688,2.51562 v 0.5625 h -7.21875 q 0.15625,1.375 1.01562,2.25 0.875,0.875 2.23438,0.875 0.85937,0 1.54687,-0.40625 0.6875,-0.40625 1.25,-1.26562 z m -3.07812,-5.60938 q -1.15625,0 -1.96875,0.82813 -0.8125,0.82812 -0.98438,2.14062 h 5.71875 q -0.14062,-1.35937 -0.875,-2.15625 -0.73437,-0.8125 -1.89062,-0.8125 z m 9.37103,8.53125 q -0.96875,0 -1.71875,-0.375 -0.75003,-0.375 -1.17191,-1.03125 -0.42187,-0.65625 -0.42187,-1.5 0,-1.40625 1.07812,-2.21875 1.07816,-0.82812 2.87503,-0.82812 h 2.57813 v -0.0781 q 0,-1.15625 -0.70313,-1.82812 -0.6875,-0.6875 -1.90625,-0.6875 -1.57812,0 -2.68753,1.32812 l -0.9375,-0.90625 q 1.57816,-1.65625 3.71878,-1.65625 1.17188,0 2.04688,0.46875 0.89062,0.45313 1.375,1.28125 0.48437,0.82813 0.48437,1.95313 v 5.78125 h -1.375 v -1.25 q -0.51562,0.70312 -1.35937,1.125 -0.82813,0.42187 -1.875,0.42187 z m 0.20312,-1.1875 q 1.07813,0 1.875,-0.54687 0.8125,-0.5625 1.14063,-1.46875 v -1.59375 h -2.40625 q -1.25,0 -1.9375,0.48437 -0.6875,0.46875 -0.6875,1.34375 0,0.8125 0.54687,1.29688 0.54688,0.48437 1.46875,0.48437 z m 6.31784,-0.53125 0.9375,-0.98437 q 0.59375,0.6875 1.35938,1.09375 0.78125,0.39062 1.75,0.39062 1.01562,0 1.64062,-0.45312 0.625,-0.46875 0.625,-1.21875 0,-0.60938 -0.53125,-0.96875 -0.53125,-0.375 -1.82812,-0.5625 -1.95313,-0.3125 -2.75,-0.90625 -0.78125,-0.60938 -0.78125,-1.67188 0,-1.26562 0.98437,-2.01562 0.98438,-0.76563 2.54688,-0.76563 1.15625,0 2.0625,0.45313 0.92187,0.45312 1.64062,1.26562 l -0.9375,1 q -0.51562,-0.70312 -1.20312,-1.09375 -0.6875,-0.40625 -1.5625,-0.40625 -0.90625,0 -1.48438,0.42188 -0.57812,0.42187 -0.57812,1.07812 0,0.51563 0.48437,0.82813 0.48438,0.29687 1.71875,0.48437 2.03125,0.29688 2.85938,0.96875 0.84375,0.65625 0.84375,1.875 0,0.85938 -0.48438,1.53125 -0.48437,0.65625 -1.32812,1.01563 -0.84375,0.35937 -1.9375,0.35937 -1.34375,0 -2.3125,-0.45312 -0.96875,-0.45313 -1.73438,-1.26563 z m 15.03824,1.42188 h -2.04687 q -0.96875,0 -1.48438,-0.53125 -0.5,-0.53125 -0.5,-1.51563 v -5.90625 h -1.75 v -1.21875 h 1.75 v -2.6875 h 1.4375 v 2.6875 h 2.46875 v 1.21875 h -2.46875 v 5.76563 q 0,0.95312 0.90625,0.95312 h 1.6875 z"
       fill-rule="nonzero"
       id="path1750"
       clip-path="url(#clipPath2233)" />
    <path
       fill="#000000"
       d="m 282.25153,347.2824 h -1.48438 v -13.34375 h 8 v 1.3125 h -6.51562 v 4.54687 h 6.17187 v 1.3125 h -6.17187 z m 15.41046,-2.625 0.96875,0.92187 q -0.71875,1.01563 -1.70312,1.51563 -0.98438,0.48437 -2.15625,0.48437 -1.375,0 -2.4375,-0.625 -1.04688,-0.64062 -1.64063,-1.75 -0.59375,-1.10937 -0.59375,-2.51562 0,-1.39063 0.59375,-2.5 0.59375,-1.10938 1.60938,-1.75 1.01562,-0.64063 2.28125,-0.64063 1.25,0 2.20312,0.625 0.96875,0.60938 1.5,1.70313 0.54688,1.09375 0.54688,2.51562 v 0.5625 h -7.21875 q 0.15625,1.375 1.01562,2.25 0.875,0.875 2.23438,0.875 0.85937,0 1.54687,-0.40625 0.6875,-0.40625 1.25,-1.26562 z m -3.07812,-5.60938 q -1.15625,0 -1.96875,0.82813 -0.8125,0.82812 -0.98438,2.14062 h 5.71875 q -0.14062,-1.35937 -0.875,-2.15625 -0.73437,-0.8125 -1.89062,-0.8125 z m 9.371,8.53125 q -0.96875,0 -1.71875,-0.375 -0.75,-0.375 -1.17188,-1.03125 -0.42187,-0.65625 -0.42187,-1.5 0,-1.40625 1.07812,-2.21875 1.07813,-0.82812 2.875,-0.82812 h 2.57813 v -0.0781 q 0,-1.15625 -0.70313,-1.82812 -0.6875,-0.6875 -1.90625,-0.6875 -1.57812,0 -2.6875,1.32812 l -0.9375,-0.90625 q 1.57813,-1.65625 3.71875,-1.65625 1.17188,0 2.04688,0.46875 0.89062,0.45313 1.375,1.28125 0.48437,0.82813 0.48437,1.95313 v 5.78125 h -1.375 v -1.25 q -0.51562,0.70312 -1.35937,1.125 -0.82813,0.42187 -1.875,0.42187 z m 0.20312,-1.1875 q 1.07813,0 1.875,-0.54687 0.8125,-0.5625 1.14063,-1.46875 v -1.59375 h -2.40625 q -1.25,0 -1.9375,0.48437 -0.6875,0.46875 -0.6875,1.34375 0,0.8125 0.54687,1.29688 0.54688,0.48437 1.46875,0.48437 z m 12.17722,0.89063 h -2.04688 q -0.96875,0 -1.48437,-0.53125 -0.5,-0.53125 -0.5,-1.51563 v -5.90625 h -1.75 v -1.21875 h 1.75 v -2.6875 h 1.4375 v 2.6875 h 2.46875 v 1.21875 h -2.46875 v 5.76563 q 0,0.95312 0.90625,0.95312 h 1.6875 z m 10.07074,0 h -1.40625 v -1.45313 q -0.45313,0.79688 -1.26563,1.28125 -0.8125,0.46875 -1.85937,0.46875 -1.54688,0 -2.48438,-0.98437 -0.92187,-0.98438 -0.92187,-2.85938 v -5.625 h 1.4375 v 5.48438 q 0,1.34375 0.59375,2.04687 0.59375,0.6875 1.67187,0.6875 0.95313,0 1.71875,-0.57812 0.76563,-0.59375 1.07813,-1.57813 v -6.0625 h 1.4375 z m 8.15433,-9.32813 v 1.375 h -0.3125 q -0.85938,0 -1.59375,0.4375 -0.73438,0.4375 -1.1875,1.34375 -0.45313,0.90625 -0.45313,2.32813 v 3.84375 h -1.4375 v -9.17188 h 1.42188 v 2.04688 q 0.46875,-1.20313 1.375,-1.70313 0.92187,-0.5 1.89062,-0.5 z m 8.64141,6.70313 0.96875,0.92187 q -0.71875,1.01563 -1.70312,1.51563 -0.98438,0.48437 -2.15625,0.48437 -1.375,0 -2.4375,-0.625 -1.04688,-0.64062 -1.64063,-1.75 -0.59375,-1.10937 -0.59375,-2.51562 0,-1.39063 0.59375,-2.5 0.59375,-1.10938 1.60938,-1.75 1.01562,-0.64063 2.28125,-0.64063 1.25,0 2.20312,0.625 0.96875,0.60938 1.5,1.70313 0.54688,1.09375 0.54688,2.51562 v 0.5625 h -7.21875 q 0.15625,1.375 1.01562,2.25 0.875,0.875 2.23438,0.875 0.85937,0 1.54687,-0.40625 0.6875,-0.40625 1.25,-1.26562 z m -3.07812,-5.60938 q -1.15625,0 -1.96875,0.82813 -0.8125,0.82812 -0.98438,2.14062 h 5.71875 q -0.14062,-1.35937 -0.875,-2.15625 -0.73437,-0.8125 -1.89062,-0.8125 z"
       fill-rule="nonzero"
       id="path1752"
       clip-path="url(#clipPath2227)" />
    <path
       fill="#000000"
       d="m 284.2161,367.14178 1.0625,-1.0625 q 1.78125,2.15625 4.29687,2.15625 1.5625,0 2.5,-0.71875 0.95313,-0.73438 0.95313,-1.95313 0,-1.03125 -0.8125,-1.59375 -0.8125,-0.57812 -2.75,-0.90625 -2.54688,-0.40625 -3.64063,-1.23437 -1.09375,-0.82813 -1.09375,-2.35938 0,-1.125 0.59375,-1.98437 0.60938,-0.85938 1.67188,-1.34375 1.07812,-0.5 2.45312,-0.5 3.03125,0 5.0625,2.3125 l -1.03125,1.04687 q -0.89062,-1.04687 -1.85937,-1.53125 -0.95313,-0.48437 -2.17188,-0.48437 -1.48437,0 -2.32812,0.65625 -0.84375,0.65625 -0.84375,1.8125 0,0.89062 0.76562,1.40625 0.76563,0.5 2.54688,0.76562 2.67187,0.42188 3.8125,1.32813 1.15625,0.90625 1.15625,2.59375 0,1.17187 -0.64063,2.09375 -0.625,0.90625 -1.76562,1.42187 -1.125,0.51563 -2.57813,0.51563 -3.23437,0 -5.35937,-2.4375 z m 20.00366,-0.48438 0.96875,0.92188 q -0.71875,1.01562 -1.70312,1.51562 -0.98438,0.48438 -2.15625,0.48438 -1.375,0 -2.4375,-0.625 -1.04688,-0.64063 -1.64063,-1.75 -0.59375,-1.10938 -0.59375,-2.51563 0,-1.39062 0.59375,-2.5 0.59375,-1.10937 1.60938,-1.75 1.01562,-0.64062 2.28125,-0.64062 1.25,0 2.20312,0.625 0.96875,0.60937 1.5,1.70312 0.54688,1.09375 0.54688,2.51563 v 0.5625 h -7.21875 q 0.15625,1.375 1.01562,2.25 0.875,0.875 2.23438,0.875 0.85937,0 1.54687,-0.40625 0.6875,-0.40625 1.25,-1.26563 z m -3.07812,-5.60937 q -1.15625,0 -1.96875,0.82812 -0.8125,0.82813 -0.98438,2.14063 h 5.71875 q -0.14062,-1.35938 -0.875,-2.15625 -0.73437,-0.8125 -1.89062,-0.8125 z m 11.82412,-1.09375 v 1.375 h -0.3125 q -0.85937,0 -1.59375,0.4375 -0.73437,0.4375 -1.1875,1.34375 -0.45312,0.90625 -0.45312,2.32812 v 3.84375 h -1.4375 v -9.17187 h 1.42187 v 2.04687 q 0.46875,-1.20312 1.375,-1.70312 0.92188,-0.5 1.89063,-0.5 z m 6.18665,9.32812 h -1.42188 l -3.71875,-9.17187 h 1.53125 l 2.9375,7.67187 2.92188,-7.67187 h 1.45312 z m 12.49185,-2.625 0.96875,0.92188 q -0.71875,1.01562 -1.70312,1.51562 -0.98438,0.48438 -2.15625,0.48438 -1.375,0 -2.4375,-0.625 -1.04688,-0.64063 -1.64063,-1.75 -0.59375,-1.10938 -0.59375,-2.51563 0,-1.39062 0.59375,-2.5 0.59375,-1.10937 1.60938,-1.75 1.01562,-0.64062 2.28125,-0.64062 1.25,0 2.20312,0.625 0.96875,0.60937 1.5,1.70312 0.54688,1.09375 0.54688,2.51563 v 0.5625 h -7.21875 q 0.15625,1.375 1.01562,2.25 0.875,0.875 2.23438,0.875 0.85937,0 1.54687,-0.40625 0.6875,-0.40625 1.25,-1.26563 z m -3.07812,-5.60937 q -1.15625,0 -1.96875,0.82812 -0.8125,0.82813 -0.98438,2.14063 h 5.71875 q -0.14062,-1.35938 -0.875,-2.15625 -0.73437,-0.8125 -1.89062,-0.8125 z m 11.82412,-1.09375 v 1.375 h -0.3125 q -0.85937,0 -1.59375,0.4375 -0.73437,0.4375 -1.1875,1.34375 -0.45312,0.90625 -0.45312,2.32812 v 3.84375 h -1.4375 v -9.17187 h 1.42187 v 2.04687 q 0.46875,-1.20312 1.375,-1.70312 0.92188,-0.5 1.89063,-0.5 z"
       fill-rule="nonzero"
       id="path1754"
       clip-path="url(#clipPath2221)" />
    <path
       fill="#f0f6ff"
       d="m 735.8478,268.55554 v 0 c 0,-15.86284 28.91406,-28.72221 64.58136,-28.72221 35.6673,0 64.58136,12.85937 64.58136,28.72221 v 114.88892 c 0,15.86282 -28.91406,28.72219 -64.58136,28.72219 -35.6673,0 -64.58136,-12.85937 -64.58136,-28.72219 z"
       fill-rule="evenodd"
       id="path1756"
       clip-path="url(#clipPath2215)" />
    <path
       fill="#000000"
       fill-opacity="0"
       d="m 865.0105,268.55554 v 0 c 0,15.86285 -28.91406,28.72223 -64.58136,28.72223 -35.6673,0 -64.58136,-12.85938 -64.58136,-28.72223"
       fill-rule="evenodd"
       id="path1758"
       clip-path="url(#clipPath2209)" />
    <path
       fill="#000000"
       fill-opacity="0"
       d="m 735.8478,268.55554 v 0 c 0,-15.86284 28.91406,-28.72221 64.58136,-28.72221 35.6673,0 64.58136,12.85937 64.58136,28.72221 v 114.88892 c 0,15.86282 -28.91406,28.72219 -64.58136,28.72219 -35.6673,0 -64.58136,-12.85937 -64.58136,-28.72219 z"
       fill-rule="evenodd"
       id="path1760"
       clip-path="url(#clipPath2203)" />
    <path
       stroke="#061827"
       stroke-width="1"
       stroke-linejoin="round"
       stroke-linecap="butt"
       d="m 865.0105,268.55554 v 0 c 0,15.86285 -28.91406,28.72223 -64.58136,28.72223 -35.6673,0 -64.58136,-12.85938 -64.58136,-28.72223"
       fill-rule="evenodd"
       id="path1762"
       clip-path="url(#clipPath2197)" />
    <path
       stroke="#061827"
       stroke-width="1"
       stroke-linejoin="round"
       stroke-linecap="butt"
       d="m 735.8478,268.55554 v 0 c 0,-15.86284 28.91406,-28.72221 64.58136,-28.72221 35.6673,0 64.58136,12.85937 64.58136,28.72221 v 114.88892 c 0,15.86282 -28.91406,28.72219 -64.58136,28.72219 -35.6673,0 -64.58136,-12.85937 -64.58136,-28.72219 z"
       fill-rule="evenodd"
       id="path1764"
       clip-path="url(#clipPath2191)" />
    <path
       fill="#000000"
       d="m 761.6976,325.2811 h -1.48438 v -13.34375 h 1.48438 v 5.75 h 7.125 v -5.75 h 1.5 v 13.34375 h -1.5 v -6.26563 h -7.125 z m 14.7074,0.29687 q -0.96875,0 -1.71875,-0.375 -0.75,-0.375 -1.17188,-1.03125 -0.42187,-0.65625 -0.42187,-1.5 0,-1.40625 1.07812,-2.21875 1.07813,-0.82812 2.875,-0.82812 h 2.57813 v -0.0781 q 0,-1.15625 -0.70313,-1.82812 -0.6875,-0.6875 -1.90625,-0.6875 -1.57812,0 -2.6875,1.32812 l -0.9375,-0.90625 q 1.57813,-1.65625 3.71875,-1.65625 1.17188,0 2.04688,0.46875 0.89062,0.45313 1.375,1.28125 0.48437,0.82813 0.48437,1.95313 v 5.78125 h -1.375 v -1.25 q -0.51562,0.70312 -1.35937,1.125 -0.82813,0.42187 -1.875,0.42187 z m 0.20312,-1.1875 q 1.07813,0 1.875,-0.54687 0.8125,-0.5625 1.14063,-1.46875 v -1.59375 h -2.40625 q -1.25,0 -1.9375,0.48437 -0.6875,0.46875 -0.6875,1.34375 0,0.8125 0.54687,1.29688 0.54688,0.48437 1.46875,0.48437 z m 13.88037,0.89063 h -7.26562 v -1.1875 l 5.375,-6.78125 h -5.20313 v -1.20313 h 6.92188 v 1.20313 l -5.39063,6.78125 h 5.5625 z m 8.96973,-2.625 0.96875,0.92187 q -0.71875,1.01563 -1.70313,1.51563 -0.98437,0.48437 -2.15625,0.48437 -1.375,0 -2.4375,-0.625 -1.04687,-0.64062 -1.64062,-1.75 -0.59375,-1.10937 -0.59375,-2.51562 0,-1.39063 0.59375,-2.5 0.59375,-1.10938 1.60937,-1.75 1.01563,-0.64063 2.28125,-0.64063 1.25,0 2.20313,0.625 0.96875,0.60938 1.5,1.70313 0.54687,1.09375 0.54687,2.51562 v 0.5625 h -7.21875 q 0.15625,1.375 1.01563,2.25 0.875,0.875 2.23437,0.875 0.85938,0 1.54688,-0.40625 0.6875,-0.40625 1.25,-1.26562 z m -3.07813,-5.60938 q -1.15625,0 -1.96875,0.82813 -0.8125,0.82812 -0.98437,2.14062 h 5.71875 q -0.14063,-1.35937 -0.875,-2.15625 -0.73438,-0.8125 -1.89063,-0.8125 z m 8.27723,8.23438 h -1.4375 v -13.4375 h 1.4375 z m 9.84247,-2.4375 1,0.9375 q -1.32813,1.79687 -3.65625,1.79687 -1.34375,0 -2.375,-0.625 -1.03125,-0.625 -1.625,-1.71875 -0.59375,-1.10937 -0.59375,-2.54687 0,-1.4375 0.59375,-2.53125 0.60937,-1.10938 1.65625,-1.73438 1.04687,-0.625 2.39062,-0.625 2.32813,0 3.625,1.79688 l -1.01562,0.95312 q -0.39063,-0.70312 -1.09375,-1.09375 -0.6875,-0.40625 -1.5625,-0.40625 -1.35938,0 -2.21875,1 -0.85938,0.98438 -0.85938,2.64063 0,1.64062 0.85938,2.64062 0.875,1 2.28125,1 1.67187,0 2.59375,-1.48437 z m 5.85913,2.73437 q -0.96875,0 -1.71875,-0.375 -0.75,-0.375 -1.17188,-1.03125 -0.42187,-0.65625 -0.42187,-1.5 0,-1.40625 1.07812,-2.21875 1.07813,-0.82812 2.875,-0.82812 h 2.57813 v -0.0781 q 0,-1.15625 -0.70313,-1.82812 -0.6875,-0.6875 -1.90625,-0.6875 -1.57812,0 -2.6875,1.32812 l -0.9375,-0.90625 q 1.57813,-1.65625 3.71875,-1.65625 1.17188,0 2.04688,0.46875 0.89062,0.45313 1.375,1.28125 0.48437,0.82813 0.48437,1.95313 v 5.78125 h -1.375 v -1.25 q -0.51562,0.70312 -1.35937,1.125 -0.82813,0.42187 -1.875,0.42187 z m 0.20312,-1.1875 q 1.07813,0 1.875,-0.54687 0.8125,-0.5625 1.14063,-1.46875 v -1.59375 h -2.40625 q -1.25,0 -1.9375,0.48437 -0.6875,0.46875 -0.6875,1.34375 0,0.8125 0.54687,1.29688 0.54688,0.48437 1.46875,0.48437 z m 6.31787,-0.53125 0.9375,-0.98437 q 0.59375,0.6875 1.35938,1.09375 0.78125,0.39062 1.75,0.39062 1.01562,0 1.64062,-0.45312 0.625,-0.46875 0.625,-1.21875 0,-0.60938 -0.53125,-0.96875 -0.53125,-0.375 -1.82812,-0.5625 -1.95313,-0.3125 -2.75,-0.90625 -0.78125,-0.60938 -0.78125,-1.67188 0,-1.26562 0.98437,-2.01562 0.98438,-0.76563 2.54688,-0.76563 1.15625,0 2.0625,0.45313 0.92187,0.45312 1.64062,1.26562 l -0.9375,1 q -0.51562,-0.70312 -1.20312,-1.09375 -0.6875,-0.40625 -1.5625,-0.40625 -0.90625,0 -1.48438,0.42188 -0.57812,0.42187 -0.57812,1.07812 0,0.51563 0.48437,0.82813 0.48438,0.29687 1.71875,0.48437 2.03125,0.29688 2.85938,0.96875 0.84375,0.65625 0.84375,1.875 0,0.85938 -0.48438,1.53125 -0.48437,0.65625 -1.32812,1.01563 -0.84375,0.35937 -1.9375,0.35937 -1.34375,0 -2.3125,-0.45312 -0.96875,-0.45313 -1.73438,-1.26563 z m 15.03827,1.42188 h -2.04687 q -0.96875,0 -1.48438,-0.53125 -0.5,-0.53125 -0.5,-1.51563 v -5.90625 h -1.75 v -1.21875 h 1.75 v -2.6875 h 1.4375 v 2.6875 h 2.46875 v 1.21875 h -2.46875 v 5.76563 q 0,0.95312 0.90625,0.95312 h 1.6875 z"
       fill-rule="nonzero"
       id="path1766"
       clip-path="url(#clipPath2185)" />
    <path
       fill="#000000"
       d="m 774.02295,349.68735 h -1.375 q -1.28125,-1.70313 -1.9375,-3.76563 -0.65625,-2.0625 -0.65625,-4.3125 0,-2.21875 0.64063,-4.23437 0.65625,-2.03125 1.9375,-3.73438 h 1.375 q -1.29688,1.98438 -1.92188,3.90625 -0.625,1.90625 -0.625,4.0625 0,2.09375 0.625,4.125 0.64063,2.01563 1.9375,3.95313 z m 8.45392,-2.10938 q -1.39063,0 -2.57813,-0.51562 -1.1875,-0.53125 -2.07812,-1.46875 -0.875,-0.9375 -1.35938,-2.21875 -0.48437,-1.28125 -0.48437,-2.76563 0,-1.5 0.48437,-2.76562 0.48438,-1.26563 1.35938,-2.20313 0.89062,-0.95312 2.07812,-1.46875 1.1875,-0.53125 2.57813,-0.53125 1.40625,0 2.59375,0.53125 1.20312,0.51563 2.07812,1.46875 0.89063,0.9375 1.375,2.20313 0.48438,1.26562 0.48438,2.76562 0,1.48438 -0.48438,2.76563 -0.48437,1.28125 -1.375,2.21875 -0.875,0.9375 -2.07812,1.46875 -1.1875,0.51562 -2.59375,0.51562 z m 0,-1.34375 q 1.48437,0 2.59375,-0.71875 1.125,-0.73437 1.75,-2.01562 0.64062,-1.28125 0.64062,-2.89063 0,-1.65625 -0.64062,-2.90625 -0.625,-1.26562 -1.75,-1.98437 -1.10938,-0.73438 -2.59375,-0.73438 -1.45313,0 -2.57813,0.73438 -1.10937,0.71875 -1.75,1.98437 -0.625,1.25 -0.625,2.90625 0,1.60938 0.625,2.89063 0.64063,1.28125 1.75,2.01562 1.125,0.71875 2.57813,0.71875 z m 17.32544,1.04688 h -1.4375 v -5.28125 q 0,-1.45313 -0.60938,-2.1875 -0.60937,-0.73438 -1.64062,-0.73438 -0.73438,0 -1.39063,0.42188 -0.65625,0.40625 -1.07812,1.3125 -0.40625,0.90625 -0.40625,2.34375 v 4.125 h -1.4375 v -9.17188 h 1.42187 v 1.875 q 0.45313,-1.1875 1.32813,-1.6875 0.875,-0.5 1.84375,-0.5 1.59375,0 2.5,1.04688 0.90625,1.03125 0.90625,2.98437 z m 4.42602,0 h -1.4375 v -13.4375 h 1.4375 z m 4.88935,-12.65625 q 0,0.45312 -0.29688,0.75 -0.28125,0.28125 -0.70312,0.28125 -0.4375,0 -0.73438,-0.28125 -0.28125,-0.29688 -0.28125,-0.75 0,-0.4375 0.28125,-0.71875 0.29688,-0.29688 0.73438,-0.29688 0.42187,0 0.70312,0.29688 0.29688,0.28125 0.29688,0.71875 z m -0.28125,12.65625 h -1.4375 v -9.17188 h 1.4375 z m 11.17059,0 h -1.4375 v -5.28125 q 0,-1.45313 -0.60938,-2.1875 -0.60937,-0.73438 -1.64062,-0.73438 -0.73438,0 -1.39063,0.42188 -0.65625,0.40625 -1.07812,1.3125 -0.40625,0.90625 -0.40625,2.34375 v 4.125 h -1.4375 v -9.17188 h 1.42187 v 1.875 q 0.45313,-1.1875 1.32813,-1.6875 0.875,-0.5 1.84375,-0.5 1.59375,0 2.5,1.04688 0.90625,1.03125 0.90625,2.98437 z m 9.9729,-2.625 0.96875,0.92187 q -0.71875,1.01563 -1.70313,1.51563 -0.98437,0.48437 -2.15625,0.48437 -1.375,0 -2.4375,-0.625 -1.04687,-0.64062 -1.64062,-1.75 -0.59375,-1.10937 -0.59375,-2.51562 0,-1.39063 0.59375,-2.5 0.59375,-1.10938 1.60937,-1.75 1.01563,-0.64063 2.28125,-0.64063 1.25,0 2.20313,0.625 0.96875,0.60938 1.5,1.70313 0.54687,1.09375 0.54687,2.51562 v 0.5625 h -7.21875 q 0.15625,1.375 1.01563,2.25 0.875,0.875 2.23437,0.875 0.85938,0 1.54688,-0.40625 0.6875,-0.40625 1.25,-1.26562 z m -3.07813,-5.60938 q -1.15625,0 -1.96875,0.82813 -0.8125,0.82812 -0.98437,2.14062 h 5.71875 q -0.14063,-1.35937 -0.875,-2.15625 -0.73438,-0.8125 -1.89063,-0.8125 z"
       fill-rule="nonzero"
       id="path1768"
       clip-path="url(#clipPath2179)" />
    <path
       fill="#000000"
       d="m 774.6603,367.14047 1.0625,-1.0625 q 1.78125,2.15625 4.29687,2.15625 1.5625,0 2.5,-0.71875 0.95313,-0.73438 0.95313,-1.95313 0,-1.03125 -0.8125,-1.59375 -0.8125,-0.57812 -2.75,-0.90625 -2.54688,-0.40625 -3.64063,-1.23437 -1.09375,-0.82813 -1.09375,-2.35938 0,-1.125 0.59375,-1.98437 0.60938,-0.85938 1.67188,-1.34375 1.07812,-0.5 2.45312,-0.5 3.03125,0 5.0625,2.3125 l -1.03125,1.04687 q -0.89062,-1.04687 -1.85937,-1.53125 -0.95313,-0.48437 -2.17188,-0.48437 -1.48437,0 -2.32812,0.65625 -0.84375,0.65625 -0.84375,1.8125 0,0.89062 0.76562,1.40625 0.76563,0.5 2.54688,0.76562 2.67187,0.42188 3.8125,1.32813 1.15625,0.90625 1.15625,2.59375 0,1.17187 -0.64063,2.09375 -0.625,0.90625 -1.76562,1.42187 -1.125,0.51563 -2.57813,0.51563 -3.23437,0 -5.35937,-2.4375 z m 17.42719,2.14062 h -2.04688 q -0.96875,0 -1.48437,-0.53125 -0.5,-0.53125 -0.5,-1.51562 v -5.90625 h -1.75 v -1.21875 h 1.75 v -2.6875 h 1.4375 v 2.6875 h 2.46875 v 1.21875 h -2.46875 v 5.76562 q 0,0.95313 0.90625,0.95313 h 1.6875 z m 5.93176,0.29688 q -1.32813,0 -2.375,-0.625 -1.03125,-0.64063 -1.625,-1.73438 -0.59375,-1.10937 -0.59375,-2.53125 0,-1.40625 0.59375,-2.5 0.59375,-1.10937 1.625,-1.75 1.04687,-0.64062 2.375,-0.64062 1.34375,0 2.39062,0.64062 1.04688,0.64063 1.625,1.75 0.59375,1.09375 0.59375,2.5 0,1.42188 -0.59375,2.53125 -0.57812,1.09375 -1.625,1.73438 -1.04687,0.625 -2.39062,0.625 z m 0,-1.25 q 0.9375,0 1.625,-0.46875 0.6875,-0.46875 1.07812,-1.28125 0.39063,-0.82813 0.39063,-1.89063 0,-1.07812 -0.39063,-1.89062 -0.39062,-0.8125 -1.07812,-1.28125 -0.6875,-0.46875 -1.625,-0.46875 -0.90625,0 -1.60938,0.46875 -0.6875,0.46875 -1.07812,1.28125 -0.39063,0.8125 -0.39063,1.89062 0,1.0625 0.39063,1.89063 0.39062,0.8125 1.07812,1.28125 0.70313,0.46875 1.60938,0.46875 z m 12.18115,-8.375 v 1.375 h -0.3125 q -0.85938,0 -1.59375,0.4375 -0.73438,0.4375 -1.1875,1.34375 -0.45313,0.90625 -0.45313,2.32812 v 3.84375 h -1.4375 v -9.17187 h 1.42188 v 2.04687 q 0.46875,-1.20312 1.375,-1.70312 0.92187,-0.5 1.89062,-0.5 z m 8.64142,6.70312 0.96875,0.92188 q -0.71875,1.01562 -1.70313,1.51562 -0.98437,0.48438 -2.15625,0.48438 -1.375,0 -2.4375,-0.625 -1.04687,-0.64063 -1.64062,-1.75 -0.59375,-1.10938 -0.59375,-2.51563 0,-1.39062 0.59375,-2.5 0.59375,-1.10937 1.60937,-1.75 1.01563,-0.64062 2.28125,-0.64062 1.25,0 2.20313,0.625 0.96875,0.60937 1.5,1.70312 0.54687,1.09375 0.54687,2.51563 v 0.5625 h -7.21875 q 0.15625,1.375 1.01563,2.25 0.875,0.875 2.23437,0.875 0.85938,0 1.54688,-0.40625 0.6875,-0.40625 1.25,-1.26563 z m -3.07813,-5.60937 q -1.15625,0 -1.96875,0.82812 -0.8125,0.82813 -0.98437,2.14063 h 5.71875 q -0.14063,-1.35938 -0.875,-2.15625 -0.73438,-0.8125 -1.89063,-0.8125 z m 5.99604,10.64062 q 1.29687,-1.9375 1.92187,-3.95312 0.64063,-2.03125 0.64063,-4.125 0,-2.15625 -0.60938,-4.0625 -0.60937,-1.92188 -1.9375,-3.90625 h 1.375 q 1.29688,1.70312 1.9375,3.73437 0.64063,2.01563 0.64063,4.23438 0,2.25 -0.65625,4.3125 -0.65625,2.0625 -1.9375,3.76562 z"
       fill-rule="nonzero"
       id="path1770"
       clip-path="url(#clipPath2173)" />
    <path
       fill="#f0f6ff"
       d="m 235.50131,61.247845 h 146.16568 v 83.536585 c -73.08286,0 -73.08286,31.82898 -146.16568,13.74433 z"
       fill-rule="evenodd"
       id="path1772"
       clip-path="url(#clipPath2167)" />
    <path
       stroke="#061827"
       stroke-width="1"
       stroke-linejoin="round"
       stroke-linecap="butt"
       d="m 235.50131,61.247845 h 146.16568 v 83.536585 c -73.08286,0 -73.08286,31.82898 -146.16568,13.74433 z"
       fill-rule="evenodd"
       id="path1774"
       clip-path="url(#clipPath2161)" />
    <path
       fill="#000000"
       d="m 287.7441,98.936134 h -1.48438 v -13.34375 h 1.48438 v 6.25 l 6.04687,-6.25 h 1.98438 l -6.39063,6.421875 7.10938,6.921875 h -2.21875 l -6.53125,-6.5 z m 13.08414,0.296875 q -0.96875,0 -1.71875,-0.375 -0.75,-0.375 -1.17188,-1.03125 -0.42187,-0.65625 -0.42187,-1.5 0,-1.40625 1.07812,-2.21875 1.07813,-0.828125 2.875,-0.828125 h 2.57813 v -0.07813 q 0,-1.15625 -0.70313,-1.828125 -0.6875,-0.6875 -1.90625,-0.6875 -1.57812,0 -2.6875,1.328125 l -0.9375,-0.90625 q 1.57813,-1.65625 3.71875,-1.65625 1.17188,0 2.04688,0.46875 0.89062,0.453125 1.375,1.28125 0.48437,0.828125 0.48437,1.953125 v 5.78125 h -1.375 v -1.25 q -0.51562,0.703125 -1.35937,1.125 -0.82813,0.421875 -1.875,0.421875 z m 0.20312,-1.1875 q 1.07813,0 1.875,-0.546875 0.8125,-0.5625 1.14063,-1.46875 v -1.59375 h -2.40625 q -1.25,0 -1.9375,0.484375 -0.6875,0.46875 -0.6875,1.34375 0,0.8125 0.54687,1.296875 0.54688,0.484375 1.46875,0.484375 z m 9.25702,0.890625 h -1.4375 v -7.953125 h -1.76562 v -1.21875 h 1.76562 v -2.015625 q 0,-2.25 2.125,-2.25 h 1.8125 v 1.203125 h -1.46875 q -0.54687,0 -0.79687,0.265625 -0.23438,0.265625 -0.23438,0.875 v 1.921875 h 2.5 v 1.21875 h -2.5 z m 5.80744,0 h -1.4375 v -13.4375 h 1.4375 v 8.421875 l 4.42187,-4.15625 h 1.92188 l -4.8125,4.421875 5.32812,4.75 h -2.07812 l -4.78125,-4.328125 z m 10.77612,0.296875 q -0.96875,0 -1.71875,-0.375 -0.75,-0.375 -1.17188,-1.03125 -0.42187,-0.65625 -0.42187,-1.5 0,-1.40625 1.07812,-2.21875 1.07813,-0.828125 2.875,-0.828125 h 2.57813 v -0.07813 q 0,-1.15625 -0.70313,-1.828125 -0.6875,-0.6875 -1.90625,-0.6875 -1.57812,0 -2.6875,1.328125 l -0.9375,-0.90625 q 1.57813,-1.65625 3.71875,-1.65625 1.17188,0 2.04688,0.46875 0.89062,0.453125 1.375,1.28125 0.48437,0.828125 0.48437,1.953125 v 5.78125 h -1.375 v -1.25 q -0.51562,0.703125 -1.35937,1.125 -0.82813,0.421875 -1.875,0.421875 z m 0.20312,-1.1875 q 1.07813,0 1.875,-0.546875 0.8125,-0.5625 1.14063,-1.46875 v -1.59375 h -2.40625 q -1.25,0 -1.9375,0.484375 -0.6875,0.46875 -0.6875,1.34375 0,0.8125 0.54687,1.296875 0.54688,0.484375 1.46875,0.484375 z"
       fill-rule="nonzero"
       id="path1776"
       clip-path="url(#clipPath2155)" />
    <path
       fill="#000000"
       d="m 252.74815,123.34238 h -1.375 q -1.28125,-1.70312 -1.9375,-3.76562 -0.65625,-2.0625 -0.65625,-4.3125 0,-2.21875 0.64062,-4.23438 0.65625,-2.03125 1.9375,-3.73437 h 1.375 q -1.29687,1.98437 -1.92187,3.90625 -0.625,1.90625 -0.625,4.0625 0,2.09375 0.625,4.125 0.64062,2.01562 1.9375,3.95312 z m 7.0789,-2.40625 h -1.5 v -12.01562 h -4.14062 v -1.32813 h 9.78125 v 1.32813 h -4.14063 z m 9.91919,-9.32812 v 1.375 h -0.3125 q -0.85937,0 -1.59375,0.4375 -0.73437,0.4375 -1.1875,1.34375 -0.45312,0.90625 -0.45312,2.32812 v 3.84375 h -1.4375 v -9.17187 h 1.42187 v 2.04687 q 0.46875,-1.20312 1.375,-1.70312 0.92188,-0.5 1.89063,-0.5 z m 4.56162,9.625 q -0.96875,0 -1.71875,-0.375 -0.75,-0.375 -1.17188,-1.03125 -0.42187,-0.65625 -0.42187,-1.5 0,-1.40625 1.07812,-2.21875 1.07813,-0.82813 2.875,-0.82813 h 2.57813 v -0.0781 q 0,-1.15625 -0.70313,-1.82813 -0.6875,-0.6875 -1.90625,-0.6875 -1.57812,0 -2.6875,1.32813 l -0.9375,-0.90625 q 1.57813,-1.65625 3.71875,-1.65625 1.17188,0 2.04688,0.46875 0.89062,0.45312 1.375,1.28125 0.48437,0.82812 0.48437,1.95312 v 5.78125 h -1.375 v -1.25 q -0.51562,0.70313 -1.35937,1.125 -0.82813,0.42188 -1.875,0.42188 z m 0.20312,-1.1875 q 1.07813,0 1.875,-0.54688 0.8125,-0.5625 1.14063,-1.46875 v -1.59375 h -2.40625 q -1.25,0 -1.9375,0.48438 -0.6875,0.46875 -0.6875,1.34375 0,0.8125 0.54687,1.29687 0.54688,0.48438 1.46875,0.48438 z m 15.39597,0.89062 h -1.4375 v -5.28125 q 0,-1.45312 -0.60938,-2.1875 -0.60937,-0.73437 -1.64062,-0.73437 -0.73438,0 -1.39063,0.42187 -0.65625,0.40625 -1.07812,1.3125 -0.40625,0.90625 -0.40625,2.34375 v 4.125 h -1.4375 v -9.17187 h 1.42187 v 1.875 q 0.45313,-1.1875 1.32813,-1.6875 0.875,-0.5 1.84375,-0.5 1.59375,0 2.5,1.04687 0.90625,1.03125 0.90625,2.98438 z m 1.91043,-1.42187 0.9375,-0.98438 q 0.59375,0.6875 1.35937,1.09375 0.78125,0.39063 1.75,0.39063 1.01563,0 1.64063,-0.45313 0.625,-0.46875 0.625,-1.21875 0,-0.60937 -0.53125,-0.96875 -0.53125,-0.375 -1.82813,-0.5625 -1.95312,-0.3125 -2.75,-0.90625 -0.78125,-0.60937 -0.78125,-1.67187 0,-1.26563 0.98438,-2.01563 0.98437,-0.76562 2.54687,-0.76562 1.15625,0 2.0625,0.45312 0.92188,0.45313 1.64063,1.26563 l -0.9375,1 q -0.51563,-0.70313 -1.20313,-1.09375 -0.6875,-0.40625 -1.5625,-0.40625 -0.90625,0 -1.48437,0.42187 -0.57813,0.42188 -0.57813,1.07813 0,0.51562 0.48438,0.82812 0.48437,0.29688 1.71875,0.48438 2.03125,0.29687 2.85937,0.96875 0.84375,0.65625 0.84375,1.875 0,0.85937 -0.48437,1.53125 -0.48438,0.65625 -1.32813,1.01562 -0.84375,0.35938 -1.9375,0.35938 -1.34375,0 -2.3125,-0.45313 -0.96875,-0.45312 -1.73437,-1.26562 z m 12.78824,1.71875 q -0.96875,0 -1.71875,-0.375 -0.75,-0.375 -1.17188,-1.03125 -0.42187,-0.65625 -0.42187,-1.5 0,-1.40625 1.07812,-2.21875 1.07813,-0.82813 2.875,-0.82813 h 2.57813 v -0.0781 q 0,-1.15625 -0.70313,-1.82813 -0.6875,-0.6875 -1.90625,-0.6875 -1.57812,0 -2.6875,1.32813 l -0.9375,-0.90625 q 1.57813,-1.65625 3.71875,-1.65625 1.17188,0 2.04688,0.46875 0.89062,0.45312 1.375,1.28125 0.48437,0.82812 0.48437,1.95312 v 5.78125 h -1.375 v -1.25 q -0.51562,0.70313 -1.35937,1.125 -0.82813,0.42188 -1.875,0.42188 z m 0.20312,-1.1875 q 1.07813,0 1.875,-0.54688 0.8125,-0.5625 1.14063,-1.46875 v -1.59375 h -2.40625 q -1.25,0 -1.9375,0.48438 -0.6875,0.46875 -0.6875,1.34375 0,0.8125 0.54687,1.29687 0.54688,0.48438 1.46875,0.48438 z m 14.06784,-1.54688 1,0.9375 q -1.32812,1.79688 -3.65625,1.79688 -1.34375,0 -2.375,-0.625 -1.03125,-0.625 -1.625,-1.71875 -0.59375,-1.10938 -0.59375,-2.54688 0,-1.4375 0.59375,-2.53125 0.60938,-1.10937 1.65625,-1.73437 1.04688,-0.625 2.39063,-0.625 2.32812,0 3.625,1.79687 l -1.01563,0.95313 q -0.39062,-0.70313 -1.09375,-1.09375 -0.6875,-0.40625 -1.5625,-0.40625 -1.35937,0 -2.21875,1 -0.85937,0.98437 -0.85937,2.64062 0,1.64063 0.85937,2.64063 0.875,1 2.28125,1 1.67188,0 2.59375,-1.48438 z m 8.10913,2.4375 h -2.04687 q -0.96875,0 -1.48438,-0.53125 -0.5,-0.53125 -0.5,-1.51562 v -5.90625 h -1.75 v -1.21875 h 1.75 v -2.6875 h 1.4375 v 2.6875 h 2.46875 v 1.21875 h -2.46875 v 5.76562 q 0,0.95313 0.90625,0.95313 h 1.6875 z m 4.00824,-12.65625 q 0,0.45313 -0.29687,0.75 -0.28125,0.28125 -0.70313,0.28125 -0.4375,0 -0.73437,-0.28125 -0.28125,-0.29687 -0.28125,-0.75 0,-0.4375 0.28125,-0.71875 0.29687,-0.29687 0.73437,-0.29687 0.42188,0 0.70313,0.29687 0.29687,0.28125 0.29687,0.71875 z m -0.28125,12.65625 h -1.4375 v -9.17187 h 1.4375 z m 7.18622,0.29688 q -1.32812,0 -2.375,-0.625 -1.03125,-0.64063 -1.625,-1.73438 -0.59375,-1.10937 -0.59375,-2.53125 0,-1.40625 0.59375,-2.5 0.59375,-1.10937 1.625,-1.75 1.04688,-0.64062 2.375,-0.64062 1.34375,0 2.39063,0.64062 1.04687,0.64063 1.625,1.75 0.59375,1.09375 0.59375,2.5 0,1.42188 -0.59375,2.53125 -0.57813,1.09375 -1.625,1.73438 -1.04688,0.625 -2.39063,0.625 z m 0,-1.25 q 0.9375,0 1.625,-0.46875 0.6875,-0.46875 1.07813,-1.28125 0.39062,-0.82813 0.39062,-1.89063 0,-1.07812 -0.39062,-1.89062 -0.39063,-0.8125 -1.07813,-1.28125 -0.6875,-0.46875 -1.625,-0.46875 -0.90625,0 -1.60937,0.46875 -0.6875,0.46875 -1.07813,1.28125 -0.39062,0.8125 -0.39062,1.89062 0,1.0625 0.39062,1.89063 0.39063,0.8125 1.07813,1.28125 0.70312,0.46875 1.60937,0.46875 z m 15.19678,0.95312 h -1.4375 v -5.28125 q 0,-1.45312 -0.60938,-2.1875 -0.60937,-0.73437 -1.64062,-0.73437 -0.73438,0 -1.39063,0.42187 -0.65625,0.40625 -1.07812,1.3125 -0.40625,0.90625 -0.40625,2.34375 v 4.125 h -1.4375 v -9.17187 h 1.42187 v 1.875 q 0.45313,-1.1875 1.32813,-1.6875 0.875,-0.5 1.84375,-0.5 1.59375,0 2.5,1.04687 0.90625,1.03125 0.90625,2.98438 z m 1.9104,-1.42187 0.9375,-0.98438 q 0.59375,0.6875 1.35938,1.09375 0.78125,0.39063 1.75,0.39063 1.01562,0 1.64062,-0.45313 0.625,-0.46875 0.625,-1.21875 0,-0.60937 -0.53125,-0.96875 -0.53125,-0.375 -1.82812,-0.5625 -1.95313,-0.3125 -2.75,-0.90625 -0.78125,-0.60937 -0.78125,-1.67187 0,-1.26563 0.98437,-2.01563 0.98438,-0.76562 2.54688,-0.76562 1.15625,0 2.0625,0.45312 0.92187,0.45313 1.64062,1.26563 l -0.9375,1 q -0.51562,-0.70313 -1.20312,-1.09375 -0.6875,-0.40625 -1.5625,-0.40625 -0.90625,0 -1.48438,0.42187 -0.57812,0.42188 -0.57812,1.07813 0,0.51562 0.48437,0.82812 0.48438,0.29688 1.71875,0.48438 2.03125,0.29687 2.85938,0.96875 0.84375,0.65625 0.84375,1.875 0,0.85937 -0.48438,1.53125 -0.48437,0.65625 -1.32812,1.01562 -0.84375,0.35938 -1.9375,0.35938 -1.34375,0 -2.3125,-0.45313 -0.96875,-0.45312 -1.73438,-1.26562 z m 9.41327,3.82812 q 1.29687,-1.9375 1.92187,-3.95312 0.64063,-2.03125 0.64063,-4.125 0,-2.15625 -0.60938,-4.0625 -0.60937,-1.92188 -1.9375,-3.90625 h 1.375 q 1.29688,1.70312 1.9375,3.73437 0.64063,2.01563 0.64063,4.23438 0,2.25 -0.65625,4.3125 -0.65625,2.0625 -1.9375,3.76562 z"
       fill-rule="nonzero"
       id="path1778"
       clip-path="url(#clipPath2149)" />
    <path
       fill="#f0f6ff"
       d="M 464.25656,61.710175 H 600.09119 V 164.95306 H 464.25656 Z"
       fill-rule="evenodd"
       id="path1780"
       clip-path="url(#clipPath2143)" />
    <path
       stroke="#061827"
       stroke-width="1"
       stroke-linejoin="round"
       stroke-linecap="butt"
       d="M 464.25656,61.710175 H 600.09119 V 164.95306 H 464.25656 Z"
       fill-rule="evenodd"
       id="path1782"
       clip-path="url(#clipPath2137)" />
    <path
       fill="#f0f6ff"
       d="M 480.25656,75.203445 H 616.09119 V 178.44633 H 480.25656 Z"
       fill-rule="evenodd"
       id="path1784"
       clip-path="url(#clipPath2131)" />
    <path
       stroke="#061827"
       stroke-width="1"
       stroke-linejoin="round"
       stroke-linecap="butt"
       d="M 480.25656,75.203445 H 616.09119 V 178.44633 H 480.25656 Z"
       fill-rule="evenodd"
       id="path1786"
       clip-path="url(#clipPath2125)" />
    <path
       fill="#f0f6ff"
       d="m 496.25787,92.74584 h 200.07874 v 103.2429 H 496.25787 Z"
       fill-rule="evenodd"
       id="path1788"
       clip-path="url(#clipPath2119)" />
    <path
       stroke="#061827"
       stroke-width="1"
       stroke-linejoin="round"
       stroke-linecap="butt"
       d="m 496.25787,92.74584 h 200.07874 v 103.2429 H 496.25787 Z"
       fill-rule="evenodd"
       id="path1790"
       clip-path="url(#clipPath2113)" />
    <path
       fill="#000000"
       d="m 575.95087,104.94353 v 8.26563 q 0,2.5625 -1.21875,3.96875 -1.21875,1.40625 -3.48438,1.40625 -2.03125,0 -3.25,-1.15625 -1.20312,-1.15625 -1.40625,-3.25 l 1.4375,-0.1875 q 0.15625,1.64062 0.96875,2.45312 0.82813,0.79688 2.25,0.79688 1.65625,0 2.4375,-1.03125 0.78125,-1.03125 0.78125,-3 v -8.26563 z m 10.2807,10.71875 0.96875,0.92188 q -0.71875,1.01562 -1.70312,1.51562 -0.98438,0.48438 -2.15625,0.48438 -1.375,0 -2.4375,-0.625 -1.04688,-0.64063 -1.64063,-1.75 -0.59375,-1.10938 -0.59375,-2.51563 0,-1.39062 0.59375,-2.5 0.59375,-1.10937 1.60938,-1.75 1.01562,-0.64062 2.28125,-0.64062 1.25,0 2.20312,0.625 0.96875,0.60937 1.5,1.70312 0.54688,1.09375 0.54688,2.51563 v 0.5625 h -7.21875 q 0.15625,1.375 1.01562,2.25 0.875,0.875 2.23438,0.875 0.85937,0 1.54687,-0.40625 0.6875,-0.40625 1.25,-1.26563 z m -3.07812,-5.60937 q -1.15625,0 -1.96875,0.82812 -0.8125,0.82813 -0.98438,2.14063 h 5.71875 q -0.14062,-1.35938 -0.875,-2.15625 -0.73437,-0.8125 -1.89062,-0.8125 z m 11.24768,8.23437 h -2.04688 q -0.96875,0 -1.48437,-0.53125 -0.5,-0.53125 -0.5,-1.51562 v -5.90625 h -1.75 v -1.21875 h 1.75 v -2.6875 h 1.4375 v 2.6875 h 2.46875 v 1.21875 h -2.46875 v 5.76562 q 0,0.95313 0.90625,0.95313 h 1.6875 z m 8.20587,-12.65625 q 0,0.45313 -0.29688,0.75 -0.28125,0.28125 -0.70312,0.28125 -0.4375,0 -0.73438,-0.28125 -0.28125,-0.29687 -0.28125,-0.75 0,-0.4375 0.28125,-0.71875 0.29688,-0.29687 0.73438,-0.29687 0.42187,0 0.70312,0.29687 0.29688,0.28125 0.29688,0.71875 z m -3.35938,16.28125 v -1.20312 h 0.57813 q 0.5625,0 0.8125,-0.28125 0.25,-0.28125 0.25,-0.89063 v -10.42187 h 1.4375 v 10.54687 q 0,2.25 -2.14063,2.25 z m 10.26435,-3.32812 q -1.32813,0 -2.375,-0.625 -1.03125,-0.64063 -1.625,-1.73438 -0.59375,-1.10937 -0.59375,-2.53125 0,-1.40625 0.59375,-2.5 0.59375,-1.10937 1.625,-1.75 1.04687,-0.64062 2.375,-0.64062 1.34375,0 2.39062,0.64062 1.04688,0.64063 1.625,1.75 0.59375,1.09375 0.59375,2.5 0,1.42188 -0.59375,2.53125 -0.57812,1.09375 -1.625,1.73438 -1.04687,0.625 -2.39062,0.625 z m 0,-1.25 q 0.9375,0 1.625,-0.46875 0.6875,-0.46875 1.07812,-1.28125 0.39063,-0.82813 0.39063,-1.89063 0,-1.07812 -0.39063,-1.89062 -0.39062,-0.8125 -1.07812,-1.28125 -0.6875,-0.46875 -1.625,-0.46875 -0.90625,0 -1.60938,0.46875 -0.6875,0.46875 -1.07812,1.28125 -0.39063,0.8125 -0.39063,1.89062 0,1.0625 0.39063,1.89063 0.39062,0.8125 1.07812,1.28125 0.70313,0.46875 1.60938,0.46875 z m 8.61865,0.95312 h -1.42188 v -13.4375 h 1.4375 v 5.9375 q 0.46875,-0.89062 1.35938,-1.4375 0.90625,-0.54687 2,-0.54687 1.28125,0 2.25,0.64062 0.96875,0.64063 1.51562,1.75 0.5625,1.10938 0.5625,2.5 0,1.42188 -0.57812,2.53125 -0.57813,1.09375 -1.57813,1.73438 -0.98437,0.625 -2.28125,0.625 -1.07812,0 -1.9375,-0.46875 -0.85937,-0.48438 -1.32812,-1.28125 z m 0.0156,-4.32812 v 1.17187 q 0.34375,0.98438 1.15625,1.59375 0.82813,0.60938 1.89063,0.60938 0.9375,0 1.625,-0.46875 0.70312,-0.46875 1.10937,-1.28125 0.40625,-0.82813 0.40625,-1.89063 0,-1.0625 -0.39062,-1.875 -0.375,-0.82812 -1.0625,-1.29687 -0.67188,-0.46875 -1.57813,-0.46875 -0.90625,0 -1.625,0.5 -0.70312,0.5 -1.125,1.375 -0.40625,0.875 -0.40625,2.03125 z"
       fill-rule="nonzero"
       id="path1792"
       clip-path="url(#clipPath2107)" />
    <path
       fill="#000000"
       d="m 566.9742,137.02167 1.04687,1.03125 q -0.79687,1.17187 -2.14062,1.85937 -1.34375,0.67188 -2.79688,0.67188 -1.35937,0 -2.51562,-0.51563 -1.15625,-0.53125 -2.03125,-1.48437 -0.85938,-0.95313 -1.34375,-2.21875 -0.46875,-1.26563 -0.46875,-2.73438 0,-1.5 0.48437,-2.76562 0.48438,-1.26563 1.34375,-2.21875 0.85938,-0.95313 2.03125,-1.46876 1.17188,-0.53125 2.53125,-0.53125 1.53125,0 2.78125,0.65625 1.26563,0.65625 2.125,1.89063 l -1.04687,1.01563 q -1.375,-2.21876 -3.89063,-2.21876 -1.39062,0 -2.48437,0.73438 -1.07813,0.71875 -1.70313,2 -0.625,1.26563 -0.625,2.90625 0,1.59375 0.625,2.875 0.625,1.28125 1.70313,2.01563 1.09375,0.71875 2.48437,0.71875 1.23438,0 2.21875,-0.5625 1,-0.57813 1.67188,-1.65625 z m 7.53888,3.5625 q -1.32813,0 -2.375,-0.625 -1.03125,-0.64063 -1.625,-1.73438 -0.59375,-1.10937 -0.59375,-2.53125 0,-1.40625 0.59375,-2.5 0.59375,-1.10937 1.625,-1.75 1.04687,-0.64062 2.375,-0.64062 1.34375,0 2.39062,0.64062 1.04688,0.64063 1.625,1.75 0.59375,1.09375 0.59375,2.5 0,1.42188 -0.59375,2.53125 -0.57812,1.09375 -1.625,1.73438 -1.04687,0.625 -2.39062,0.625 z m 0,-1.25 q 0.9375,0 1.625,-0.46875 0.6875,-0.46875 1.07812,-1.28125 0.39063,-0.82813 0.39063,-1.89063 0,-1.07812 -0.39063,-1.89062 -0.39062,-0.8125 -1.07812,-1.28125 -0.6875,-0.46875 -1.625,-0.46875 -0.90625,0 -1.60938,0.46875 -0.6875,0.46875 -1.07812,1.28125 -0.39063,0.8125 -0.39063,1.89062 0,1.0625 0.39063,1.89063 0.39062,0.8125 1.07812,1.28125 0.70313,0.46875 1.60938,0.46875 z m 21.04053,0.95312 h -1.42188 v -5.29687 q 0,-1.375 -0.54687,-2.14063 -0.54688,-0.76562 -1.53125,-0.76562 -1.25,0 -1.98438,1.10937 -0.71875,1.09375 -0.71875,2.96875 v 4.125 h -1.4375 v -5.29687 q 0,-1.375 -0.54687,-2.14063 -0.53125,-0.76562 -1.53125,-0.76562 -1.21875,0 -1.95313,1.10937 -0.73437,1.09375 -0.73437,2.96875 v 4.125 h -1.4375 v -9.17187 h 1.42187 v 1.85937 q 0.375,-1.03125 1.14063,-1.59375 0.78125,-0.57812 1.85937,-0.57812 1.125,0 1.84375,0.60937 0.73438,0.60938 1.03125,1.75 0.375,-1.125 1.21875,-1.73437 0.85938,-0.625 2.03125,-0.625 1.59375,0 2.4375,1.04687 0.85938,1.04688 0.85938,2.98438 z m 4.44037,3.625 h -1.4375 v -12.79687 h 1.42187 v 1.70312 q 0.46875,-0.90625 1.375,-1.45312 0.90625,-0.5625 2,-0.5625 1.28125,0 2.25,0.64062 0.96875,0.64063 1.51563,1.75 0.5625,1.10938 0.5625,2.5 0,1.42188 -0.57813,2.53125 -0.57812,1.09375 -1.57812,1.73438 -0.98438,0.625 -2.28125,0.625 -1.09375,0 -1.9375,-0.45313 -0.84375,-0.45312 -1.3125,-1.25 z m 0,-7.95312 v 1.17187 q 0.34375,0.98438 1.15625,1.59375 0.82812,0.60938 1.89062,0.60938 0.9375,0 1.625,-0.46875 0.70313,-0.46875 1.10938,-1.28125 0.40625,-0.82813 0.40625,-1.89063 0,-1.0625 -0.39063,-1.875 -0.375,-0.82812 -1.0625,-1.29687 -0.67187,-0.46875 -1.57812,-0.46875 -0.90625,0 -1.625,0.5 -0.70313,0.5 -1.125,1.375 -0.40625,0.875 -0.40625,2.03125 z m 18.05987,4.32812 h -1.40625 v -1.45312 q -0.45312,0.79687 -1.26562,1.28125 -0.8125,0.46875 -1.85938,0.46875 -1.54687,0 -2.48437,-0.98438 -0.92188,-0.98437 -0.92188,-2.85937 v -5.625 h 1.4375 v 5.48437 q 0,1.34375 0.59375,2.04688 0.59375,0.6875 1.67188,0.6875 0.95312,0 1.71875,-0.57813 0.76562,-0.59375 1.07812,-1.57812 v -6.0625 h 1.4375 z m 7.95117,0 h -2.04687 q -0.96875,0 -1.48438,-0.53125 -0.5,-0.53125 -0.5,-1.51562 v -5.90625 h -1.75 v -1.21875 h 1.75 v -2.6875 h 1.4375 v 2.6875 h 2.46875 v 1.21875 h -2.46875 v 5.76562 q 0,0.95313 0.90625,0.95313 h 1.6875 z m 8.90052,-2.625 0.96875,0.92188 q -0.71875,1.01562 -1.70313,1.51562 -0.98437,0.48438 -2.15625,0.48438 -1.375,0 -2.4375,-0.625 -1.04687,-0.64063 -1.64062,-1.75 -0.59375,-1.10938 -0.59375,-2.51563 0,-1.39062 0.59375,-2.5 0.59375,-1.10937 1.60937,-1.75 1.01563,-0.64062 2.28125,-0.64062 1.25,0 2.20313,0.625 0.96875,0.60937 1.5,1.70312 0.54687,1.09375 0.54687,2.51563 v 0.5625 h -7.21875 q 0.15625,1.375 1.01563,2.25 0.875,0.875 2.23437,0.875 0.85938,0 1.54688,-0.40625 0.6875,-0.40625 1.25,-1.26563 z m -3.07813,-5.60937 q -1.15625,0 -1.96875,0.82812 -0.8125,0.82813 -0.98437,2.14063 h 5.71875 q -0.14063,-1.35938 -0.875,-2.15625 -0.73438,-0.8125 -1.89063,-0.8125 z"
       fill-rule="nonzero"
       id="path1794"
       clip-path="url(#clipPath2101)" />
    <path
       fill="#000000"
       d="m 518.01917,162.2873 h -1.40625 v -1.45313 q -0.45312,0.79688 -1.26562,1.28125 -0.8125,0.46875 -1.85938,0.46875 -1.54684,0 -2.48434,-0.98437 -0.92188,-0.98438 -0.92188,-2.85938 v -5.625 h 1.4375 v 5.48438 q 0,1.34375 0.59372,2.04687 0.59375,0.6875 1.67188,0.6875 0.95312,0 1.71875,-0.57812 0.76562,-0.59375 1.07812,-1.57813 v -6.0625 h 1.4375 z m 2.09186,-1.42188 0.9375,-0.98437 q 0.59375,0.6875 1.35937,1.09375 0.78125,0.39062 1.75,0.39062 1.01563,0 1.64063,-0.45312 0.625,-0.46875 0.625,-1.21875 0,-0.60938 -0.53125,-0.96875 -0.53125,-0.375 -1.82813,-0.5625 -1.95312,-0.3125 -2.75,-0.90625 -0.78125,-0.60938 -0.78125,-1.67188 0,-1.26562 0.98438,-2.01562 0.98437,-0.76563 2.54687,-0.76563 1.15625,0 2.0625,0.45313 0.92188,0.45312 1.64063,1.26562 l -0.9375,1 q -0.51563,-0.70312 -1.20313,-1.09375 -0.6875,-0.40625 -1.5625,-0.40625 -0.90625,0 -1.48437,0.42188 -0.57813,0.42187 -0.57813,1.07812 0,0.51563 0.48438,0.82813 0.48437,0.29687 1.71875,0.48437 2.03125,0.29688 2.85937,0.96875 0.84375,0.65625 0.84375,1.875 0,0.85938 -0.48437,1.53125 -0.48438,0.65625 -1.32813,1.01563 -0.84375,0.35937 -1.9375,0.35937 -1.34375,0 -2.3125,-0.45312 -0.96875,-0.45313 -1.73437,-1.26563 z m 17.24139,-1.20312 0.96875,0.92187 q -0.71875,1.01563 -1.70312,1.51563 -0.98438,0.48437 -2.15625,0.48437 -1.375,0 -2.4375,-0.625 -1.04688,-0.64062 -1.64063,-1.75 -0.59375,-1.10937 -0.59375,-2.51562 0,-1.39063 0.59375,-2.5 0.59375,-1.10938 1.60938,-1.75 1.01562,-0.64063 2.28125,-0.64063 1.25,0 2.20312,0.625 0.96875,0.60938 1.5,1.70313 0.54688,1.09375 0.54688,2.51562 v 0.5625 h -7.21875 q 0.15625,1.375 1.01562,2.25 0.875,0.875 2.23438,0.875 0.85937,0 1.54687,-0.40625 0.6875,-0.40625 1.25,-1.26562 z m -3.07812,-5.60938 q -1.15625,0 -1.96875,0.82813 -0.8125,0.82812 -0.98438,2.14062 h 5.71875 q -0.14062,-1.35937 -0.875,-2.15625 -0.73437,-0.8125 -1.89062,-0.8125 z m 11.82409,-1.09375 v 1.375 h -0.3125 q -0.85937,0 -1.59375,0.4375 -0.73437,0.4375 -1.1875,1.34375 -0.45312,0.90625 -0.45312,2.32813 v 3.84375 h -1.4375 v -9.17188 h 1.42187 v 2.04688 q 0.46875,-1.20313 1.375,-1.70313 0.92188,-0.5 1.89063,-0.5 z m 8.45563,11.73438 h -8.75 v -1.1875 h 8.75 z m 5.98578,-2.40625 h -2.04687 q -0.96875,0 -1.48438,-0.53125 -0.5,-0.53125 -0.5,-1.51563 v -5.90625 h -1.75 v -1.21875 h 1.75 v -2.6875 h 1.4375 v 2.6875 h 2.46875 v 1.21875 h -2.46875 v 5.76563 q 0,0.95312 0.90625,0.95312 h 1.6875 z m 7.27386,-9.32813 v 1.375 h -0.3125 q -0.85937,0 -1.59375,0.4375 -0.73437,0.4375 -1.1875,1.34375 -0.45312,0.90625 -0.45312,2.32813 v 3.84375 h -1.4375 v -9.17188 h 1.42187 v 2.04688 q 0.46875,-1.20313 1.375,-1.70313 0.92188,-0.5 1.89063,-0.5 z m 4.56165,9.625 q -0.96875,0 -1.71875,-0.375 -0.75,-0.375 -1.17187,-1.03125 -0.42188,-0.65625 -0.42188,-1.5 0,-1.40625 1.07813,-2.21875 1.07812,-0.82812 2.875,-0.82812 h 2.57812 v -0.0781 q 0,-1.15625 -0.70312,-1.82812 -0.6875,-0.6875 -1.90625,-0.6875 -1.57813,0 -2.6875,1.32812 l -0.9375,-0.90625 q 1.57812,-1.65625 3.71875,-1.65625 1.17187,0 2.04687,0.46875 0.89063,0.45313 1.375,1.28125 0.48438,0.82813 0.48438,1.95313 v 5.78125 h -1.375 v -1.25 q -0.51563,0.70312 -1.35938,1.125 -0.82812,0.42187 -1.875,0.42187 z m 0.20313,-1.1875 q 1.07812,0 1.875,-0.54687 0.8125,-0.5625 1.14062,-1.46875 v -1.59375 h -2.40625 q -1.25,0 -1.9375,0.48437 -0.6875,0.46875 -0.6875,1.34375 0,0.8125 0.54688,1.29688 0.54687,0.48437 1.46875,0.48437 z m 15.39593,0.89063 h -1.4375 v -5.28125 q 0,-1.45313 -0.60937,-2.1875 -0.60938,-0.73438 -1.64063,-0.73438 -0.73437,0 -1.39062,0.42188 -0.65625,0.40625 -1.07813,1.3125 -0.40625,0.90625 -0.40625,2.34375 v 4.125 h -1.4375 v -9.17188 h 1.42188 v 1.875 q 0.45312,-1.1875 1.32812,-1.6875 0.875,-0.5 1.84375,-0.5 1.59375,0 2.5,1.04688 0.90625,1.03125 0.90625,2.98437 z m 1.91046,-1.42188 0.9375,-0.98437 q 0.59375,0.6875 1.35938,1.09375 0.78125,0.39062 1.75,0.39062 1.01562,0 1.64062,-0.45312 0.625,-0.46875 0.625,-1.21875 0,-0.60938 -0.53125,-0.96875 -0.53125,-0.375 -1.82812,-0.5625 -1.95313,-0.3125 -2.75,-0.90625 -0.78125,-0.60938 -0.78125,-1.67188 0,-1.26562 0.98437,-2.01562 0.98438,-0.76563 2.54688,-0.76563 1.15625,0 2.0625,0.45313 0.92187,0.45312 1.64062,1.26562 l -0.9375,1 q -0.51562,-0.70312 -1.20312,-1.09375 -0.6875,-0.40625 -1.5625,-0.40625 -0.90625,0 -1.48438,0.42188 -0.57812,0.42187 -0.57812,1.07812 0,0.51563 0.48437,0.82813 0.48438,0.29687 1.71875,0.48437 2.03125,0.29688 2.85938,0.96875 0.84375,0.65625 0.84375,1.875 0,0.85938 -0.48438,1.53125 -0.48437,0.65625 -1.32812,1.01563 -0.84375,0.35937 -1.9375,0.35937 -1.34375,0 -2.3125,-0.45312 -0.96875,-0.45313 -1.73438,-1.26563 z m 12.78821,1.71875 q -0.96875,0 -1.71875,-0.375 -0.75,-0.375 -1.17188,-1.03125 -0.42187,-0.65625 -0.42187,-1.5 0,-1.40625 1.07812,-2.21875 1.07813,-0.82812 2.875,-0.82812 h 2.57813 v -0.0781 q 0,-1.15625 -0.70313,-1.82812 -0.6875,-0.6875 -1.90625,-0.6875 -1.57812,0 -2.6875,1.32812 l -0.9375,-0.90625 q 1.57813,-1.65625 3.71875,-1.65625 1.17188,0 2.04688,0.46875 0.89062,0.45313 1.375,1.28125 0.48437,0.82813 0.48437,1.95313 v 5.78125 h -1.375 v -1.25 q -0.51562,0.70312 -1.35937,1.125 -0.82813,0.42187 -1.875,0.42187 z m 0.20312,-1.1875 q 1.07813,0 1.875,-0.54687 0.8125,-0.5625 1.14063,-1.46875 v -1.59375 h -2.40625 q -1.25,0 -1.9375,0.48437 -0.6875,0.46875 -0.6875,1.34375 0,0.8125 0.54687,1.29688 0.54688,0.48437 1.46875,0.48437 z m 14.06788,-1.54687 1,0.9375 q -1.32813,1.79687 -3.65625,1.79687 -1.34375,0 -2.375,-0.625 -1.03125,-0.625 -1.625,-1.71875 -0.59375,-1.10937 -0.59375,-2.54687 0,-1.4375 0.59375,-2.53125 0.60937,-1.10938 1.65625,-1.73438 1.04687,-0.625 2.39062,-0.625 2.32813,0 3.625,1.79688 l -1.01562,0.95312 q -0.39063,-0.70312 -1.09375,-1.09375 -0.6875,-0.40625 -1.5625,-0.40625 -1.35938,0 -2.21875,1 -0.85938,0.98438 -0.85938,2.64063 0,1.64062 0.85938,2.64062 0.875,1 2.28125,1 1.67187,0 2.59375,-1.48437 z m 8.10913,2.4375 h -2.04688 q -0.96875,0 -1.48437,-0.53125 -0.5,-0.53125 -0.5,-1.51563 v -5.90625 h -1.75 v -1.21875 h 1.75 v -2.6875 h 1.4375 v 2.6875 h 2.46875 v 1.21875 h -2.46875 v 5.76563 q 0,0.95312 0.90625,0.95312 h 1.6875 z m 4.00824,-12.65625 q 0,0.45312 -0.29688,0.75 -0.28125,0.28125 -0.70312,0.28125 -0.4375,0 -0.73438,-0.28125 -0.28125,-0.29688 -0.28125,-0.75 0,-0.4375 0.28125,-0.71875 0.29688,-0.29688 0.73438,-0.29688 0.42187,0 0.70312,0.29688 0.29688,0.28125 0.29688,0.71875 z m -0.28125,12.65625 h -1.4375 v -9.17188 h 1.4375 z m 7.18621,0.29687 q -1.32812,0 -2.375,-0.625 -1.03125,-0.64062 -1.625,-1.73437 -0.59375,-1.10938 -0.59375,-2.53125 0,-1.40625 0.59375,-2.5 0.59375,-1.10938 1.625,-1.75 1.04688,-0.64063 2.375,-0.64063 1.34375,0 2.39063,0.64063 1.04687,0.64062 1.625,1.75 0.59375,1.09375 0.59375,2.5 0,1.42187 -0.59375,2.53125 -0.57813,1.09375 -1.625,1.73437 -1.04688,0.625 -2.39063,0.625 z m 0,-1.25 q 0.9375,0 1.625,-0.46875 0.6875,-0.46875 1.07813,-1.28125 0.39062,-0.82812 0.39062,-1.89062 0,-1.07813 -0.39062,-1.89063 -0.39063,-0.8125 -1.07813,-1.28125 -0.6875,-0.46875 -1.625,-0.46875 -0.90625,0 -1.60937,0.46875 -0.6875,0.46875 -1.07813,1.28125 -0.39062,0.8125 -0.39062,1.89063 0,1.0625 0.39062,1.89062 0.39063,0.8125 1.07813,1.28125 0.70312,0.46875 1.60937,0.46875 z m 15.19678,0.95313 h -1.4375 v -5.28125 q 0,-1.45313 -0.60937,-2.1875 -0.60938,-0.73438 -1.64063,-0.73438 -0.73437,0 -1.39062,0.42188 -0.65625,0.40625 -1.07813,1.3125 -0.40625,0.90625 -0.40625,2.34375 v 4.125 h -1.4375 v -9.17188 h 1.42188 v 1.875 q 0.45312,-1.1875 1.32812,-1.6875 0.875,-0.5 1.84375,-0.5 1.59375,0 2.5,1.04688 0.90625,1.03125 0.90625,2.98437 z m 10.1604,2.40625 h -8.75 v -1.1875 h 8.75 z m 9.71851,-15.75 v 1.25 l -6.32813,12.09375 h -1.54687 l 6.32812,-12.09375 h -7 v -1.25 z m 9.89526,13.34375 v -1.45313 q -0.46875,0.79688 -1.32812,1.28125 -0.85938,0.46875 -1.9375,0.46875 -1.29688,0 -2.29688,-0.625 -0.98437,-0.64062 -1.57812,-1.73437 -0.57813,-1.10938 -0.57813,-2.53125 0,-1.39063 0.5625,-2.5 0.57813,-1.10938 1.57813,-1.75 1,-0.64063 2.25,-0.64063 1.07812,0 1.95312,0.53125 0.89063,0.51563 1.34375,1.39063 v -5.875 h 1.4375 v 13.4375 z m -6.20312,-4.59375 q 0,1.0625 0.40625,1.89062 0.40625,0.8125 1.10937,1.28125 0.70313,0.46875 1.625,0.46875 1.0625,0 1.875,-0.60937 0.82813,-0.60938 1.15625,-1.59375 v -1.17188 q 0,-1.15625 -0.39062,-2.03125 -0.39063,-0.875 -1.09375,-1.375 -0.6875,-0.5 -1.60938,-0.5 -0.89062,0 -1.59375,0.46875 -0.70312,0.46875 -1.09375,1.29688 -0.39062,0.8125 -0.39062,1.875 z"
       fill-rule="nonzero"
       id="path1796"
       clip-path="url(#clipPath2095)" />
    <path
       fill="#000000"
       d="m 568.85144,184.2873 h -1.4375 v -7.95313 h -1.76562 v -1.21875 h 1.76562 v -2.01562 q 0,-2.25 2.125,-2.25 h 1.8125 v 1.20312 h -1.46875 q -0.54687,0 -0.79687,0.26563 -0.23438,0.26562 -0.23438,0.875 v 1.92187 h 2.5 v 1.21875 h -2.5 z m 10.98096,-2.625 0.96875,0.92187 q -0.71875,1.01563 -1.70313,1.51563 -0.98437,0.48437 -2.15625,0.48437 -1.375,0 -2.4375,-0.625 -1.04687,-0.64062 -1.64062,-1.75 -0.59375,-1.10937 -0.59375,-2.51562 0,-1.39063 0.59375,-2.5 0.59375,-1.10938 1.60937,-1.75 1.01563,-0.64063 2.28125,-0.64063 1.25,0 2.20313,0.625 0.96875,0.60938 1.5,1.70313 0.54687,1.09375 0.54687,2.51562 v 0.5625 h -7.21875 q 0.15625,1.375 1.01563,2.25 0.875,0.875 2.23437,0.875 0.85938,0 1.54688,-0.40625 0.6875,-0.40625 1.25,-1.26562 z m -3.07813,-5.60938 q -1.15625,0 -1.96875,0.82813 -0.8125,0.82812 -0.98437,2.14062 h 5.71875 q -0.14063,-1.35937 -0.875,-2.15625 -0.73438,-0.8125 -1.89063,-0.8125 z m 9.37097,8.53125 q -0.96875,0 -1.71875,-0.375 -0.75,-0.375 -1.17187,-1.03125 -0.42188,-0.65625 -0.42188,-1.5 0,-1.40625 1.07813,-2.21875 1.07812,-0.82812 2.875,-0.82812 h 2.57812 v -0.0781 q 0,-1.15625 -0.70312,-1.82812 -0.6875,-0.6875 -1.90625,-0.6875 -1.57813,0 -2.6875,1.32812 l -0.9375,-0.90625 q 1.57812,-1.65625 3.71875,-1.65625 1.17187,0 2.04687,0.46875 0.89063,0.45313 1.375,1.28125 0.48438,0.82813 0.48438,1.95313 v 5.78125 h -1.375 v -1.25 q -0.51563,0.70312 -1.35938,1.125 -0.82812,0.42187 -1.875,0.42187 z m 0.20313,-1.1875 q 1.07812,0 1.875,-0.54687 0.8125,-0.5625 1.14062,-1.46875 v -1.59375 h -2.40625 q -1.25,0 -1.9375,0.48437 -0.6875,0.46875 -0.6875,1.34375 0,0.8125 0.54688,1.29688 0.54687,0.48437 1.46875,0.48437 z m 12.17725,0.89063 h -2.04688 q -0.96875,0 -1.48437,-0.53125 -0.5,-0.53125 -0.5,-1.51563 v -5.90625 h -1.75 v -1.21875 h 1.75 v -2.6875 h 1.4375 v 2.6875 h 2.46875 v 1.21875 h -2.46875 v 5.76563 q 0,0.95312 0.90625,0.95312 h 1.6875 z m 10.07074,0 h -1.40625 v -1.45313 q -0.45313,0.79688 -1.26563,1.28125 -0.8125,0.46875 -1.85937,0.46875 -1.54688,0 -2.48438,-0.98437 -0.92187,-0.98438 -0.92187,-2.85938 v -5.625 h 1.4375 v 5.48438 q 0,1.34375 0.59375,2.04687 0.59375,0.6875 1.67187,0.6875 0.95313,0 1.71875,-0.57812 0.76563,-0.59375 1.07813,-1.57813 v -6.0625 h 1.4375 z m 8.15429,-9.32813 v 1.375 h -0.3125 q -0.85937,0 -1.59375,0.4375 -0.73437,0.4375 -1.1875,1.34375 -0.45312,0.90625 -0.45312,2.32813 v 3.84375 h -1.4375 v -9.17188 h 1.42187 v 2.04688 q 0.46875,-1.20313 1.375,-1.70313 0.92188,-0.5 1.89063,-0.5 z m 8.64142,6.70313 0.96875,0.92187 q -0.71875,1.01563 -1.70312,1.51563 -0.98438,0.48437 -2.15625,0.48437 -1.375,0 -2.4375,-0.625 -1.04688,-0.64062 -1.64063,-1.75 -0.59375,-1.10937 -0.59375,-2.51562 0,-1.39063 0.59375,-2.5 0.59375,-1.10938 1.60938,-1.75 1.01562,-0.64063 2.28125,-0.64063 1.25,0 2.20312,0.625 0.96875,0.60938 1.5,1.70313 0.54688,1.09375 0.54688,2.51562 v 0.5625 h -7.21875 q 0.15625,1.375 1.01562,2.25 0.875,0.875 2.23438,0.875 0.85937,0 1.54687,-0.40625 0.6875,-0.40625 1.25,-1.26562 z m -3.07812,-5.60938 q -1.15625,0 -1.96875,0.82813 -0.8125,0.82812 -0.98438,2.14062 h 5.71875 q -0.14062,-1.35937 -0.875,-2.15625 -0.73437,-0.8125 -1.89062,-0.8125 z"
       fill-rule="nonzero"
       id="path1798"
       clip-path="url(#clipPath2089)" />
    <path
       fill="#f0f6ff"
       d="m 466.49344,291.5538 v 0 c 0,-9.51205 7.71103,-17.22308 17.22308,-17.22308 h 128.89243 c 4.56781,0 8.94861,1.81457 12.17853,5.04452 3.22998,3.22995 5.04456,7.61072 5.04456,12.17856 v 68.8924 c 0,9.51205 -7.71106,17.22308 -17.22309,17.22308 H 483.71652 c -9.51205,0 -17.22308,-7.71103 -17.22308,-17.22308 z"
       fill-rule="evenodd"
       id="path1800"
       clip-path="url(#clipPath2083)" />
    <path
       stroke="#061827"
       stroke-width="1"
       stroke-linejoin="round"
       stroke-linecap="butt"
       d="m 466.49344,291.5538 v 0 c 0,-9.51205 7.71103,-17.22308 17.22308,-17.22308 h 128.89243 c 4.56781,0 8.94861,1.81457 12.17853,5.04452 3.22998,3.22995 5.04456,7.61072 5.04456,12.17856 v 68.8924 c 0,9.51205 -7.71106,17.22308 -17.22309,17.22308 H 483.71652 c -9.51205,0 -17.22308,-7.71103 -17.22308,-17.22308 z"
       fill-rule="evenodd"
       id="path1802"
       clip-path="url(#clipPath2077)" />
    <path
       fill="#000000"
       d="m 527.91016,332.91998 h -1.48437 v -13.34375 h 8 v 1.3125 h -6.51563 v 4.54687 h 6.17188 v 1.3125 h -6.17188 z m 15.41046,-2.625 0.96875,0.92187 q -0.71875,1.01563 -1.70312,1.51563 -0.98438,0.48437 -2.15625,0.48437 -1.375,0 -2.4375,-0.625 -1.04688,-0.64062 -1.64063,-1.75 -0.59375,-1.10937 -0.59375,-2.51562 0,-1.39063 0.59375,-2.5 0.59375,-1.10938 1.60938,-1.75 1.01562,-0.64063 2.28125,-0.64063 1.25,0 2.20312,0.625 0.96875,0.60938 1.5,1.70313 0.54688,1.09375 0.54688,2.51562 v 0.5625 h -7.21875 q 0.15625,1.375 1.01562,2.25 0.875,0.875 2.23438,0.875 0.85937,0 1.54687,-0.40625 0.6875,-0.40625 1.25,-1.26562 z m -3.07812,-5.60938 q -1.15625,0 -1.96875,0.82813 -0.8125,0.82812 -0.98438,2.14062 h 5.71875 q -0.14062,-1.35937 -0.875,-2.15625 -0.73437,-0.8125 -1.89062,-0.8125 z m 9.37097,8.53125 q -0.96875,0 -1.71875,-0.375 -0.75,-0.375 -1.17188,-1.03125 -0.42187,-0.65625 -0.42187,-1.5 0,-1.40625 1.07812,-2.21875 1.07813,-0.82812 2.875,-0.82812 h 2.57813 v -0.0781 q 0,-1.15625 -0.70313,-1.82812 -0.6875,-0.6875 -1.90625,-0.6875 -1.57812,0 -2.6875,1.32812 l -0.9375,-0.90625 q 1.57813,-1.65625 3.71875,-1.65625 1.17188,0 2.04688,0.46875 0.89062,0.45313 1.375,1.28125 0.48437,0.82813 0.48437,1.95313 v 5.78125 h -1.375 v -1.25 q -0.51562,0.70312 -1.35937,1.125 -0.82813,0.42187 -1.875,0.42187 z m 0.20312,-1.1875 q 1.07813,0 1.875,-0.54687 0.8125,-0.5625 1.14063,-1.46875 v -1.59375 h -2.40625 q -1.25,0 -1.9375,0.48437 -0.6875,0.46875 -0.6875,1.34375 0,0.8125 0.54687,1.29688 0.54688,0.48437 1.46875,0.48437 z m 6.31787,-0.53125 0.9375,-0.98437 q 0.59375,0.6875 1.35938,1.09375 0.78125,0.39062 1.75,0.39062 1.01562,0 1.64062,-0.45312 0.625,-0.46875 0.625,-1.21875 0,-0.60938 -0.53125,-0.96875 -0.53125,-0.375 -1.82812,-0.5625 -1.95313,-0.3125 -2.75,-0.90625 -0.78125,-0.60938 -0.78125,-1.67188 0,-1.26562 0.98437,-2.01562 0.98438,-0.76563 2.54688,-0.76563 1.15625,0 2.0625,0.45313 0.92187,0.45312 1.64062,1.26562 l -0.9375,1 q -0.51562,-0.70312 -1.20312,-1.09375 -0.6875,-0.40625 -1.5625,-0.40625 -0.90625,0 -1.48438,0.42188 -0.57812,0.42187 -0.57812,1.07812 0,0.51563 0.48437,0.82813 0.48438,0.29687 1.71875,0.48437 2.03125,0.29688 2.85938,0.96875 0.84375,0.65625 0.84375,1.875 0,0.85938 -0.48438,1.53125 -0.48437,0.65625 -1.32812,1.01563 -0.84375,0.35937 -1.9375,0.35937 -1.34375,0 -2.3125,-0.45312 -0.96875,-0.45313 -1.73438,-1.26563 z m 15.03827,1.42188 h -2.04687 q -0.96875,0 -1.48438,-0.53125 -0.5,-0.53125 -0.5,-1.51563 v -5.90625 h -1.75 v -1.21875 h 1.75 v -2.6875 h 1.4375 v 2.6875 h 2.46875 v 1.21875 h -2.46875 v 5.76563 q 0,0.95312 0.90625,0.95312 h 1.6875 z"
       fill-rule="nonzero"
       id="path1804"
       clip-path="url(#clipPath2071)" />
    <path
       fill="#000000"
       fill-opacity="0"
       d="m 381.667,113.33163 h 41.29465 v 0.063 h 41.28802"
       fill-rule="evenodd"
       id="path1806"
       clip-path="url(#clipPath2065)" />
    <path
       stroke="#d9d9d9"
       stroke-width="2"
       stroke-linejoin="round"
       stroke-linecap="butt"
       d="m 381.667,113.33162 h 41.29462 v 0.063 h 29.28805"
       fill-rule="evenodd"
       id="path1808"
       clip-path="url(#clipPath2059)"
       style="fill:#000000;stroke:#000000" />
    <path
       fill="#d9d9d9"
       stroke="#d9d9d9"
       stroke-width="2"
       stroke-linecap="butt"
       d="m 452.24966,116.69807 9.0762,-3.30346 -9.0762,-3.30346 z"
       fill-rule="evenodd"
       id="path1810"
       clip-path="url(#clipPath2053)"
       style="fill:#000000;stroke:#000000" />
    <path
       fill="#000000"
       fill-opacity="0"
       d="m 596.29724,195.98874 v 21.92213 H 312.07678 v 21.92038"
       fill-rule="evenodd"
       id="path1812"
       clip-path="url(#clipPath2047)" />
    <path
       stroke="#d9d9d9"
       stroke-width="2"
       stroke-linejoin="round"
       stroke-linecap="butt"
       d="m 596.29724,195.98874 v 21.92212 H 312.07678 v 9.92041"
       fill-rule="evenodd"
       id="path1814"
       clip-path="url(#clipPath2041)"
       style="stroke:#000000" />
    <path
       fill="#d9d9d9"
       stroke="#d9d9d9"
       stroke-width="2"
       stroke-linecap="butt"
       d="m 308.77332,227.83127 3.30347,9.07619 3.30346,-9.07619 z"
       fill-rule="evenodd"
       id="path1816"
       clip-path="url(#clipPath2035)"
       style="fill:#000000;stroke:#000000" />
    <path
       fill="#000000"
       fill-opacity="0"
       d="m 376.66666,326.0013 h 44.91339 v 0.063 h 44.91339"
       fill-rule="evenodd"
       id="path1818"
       clip-path="url(#clipPath2029)" />
    <path
       stroke="#d9d9d9"
       stroke-width="2"
       stroke-linejoin="round"
       stroke-linecap="butt"
       d="m 376.66666,326.0013 h 44.91339 v 0.063 h 32.91339"
       fill-rule="evenodd"
       id="path1820"
       clip-path="url(#clipPath2023)"
       style="stroke:#000000" />
    <path
       fill="#d9d9d9"
       stroke="#d9d9d9"
       stroke-width="2"
       stroke-linecap="butt"
       d="m 454.49344,329.36777 9.0762,-3.30347 -9.0762,-3.30346 z"
       fill-rule="evenodd"
       id="path1822"
       clip-path="url(#clipPath2017)"
       style="fill:#000000;stroke:#000000" />
    <path
       fill="#000000"
       fill-opacity="0"
       d="m 629.83203,326 h 53.00787 v 0.063 h 53.00788"
       fill-rule="evenodd"
       id="path1824"
       clip-path="url(#clipPath2011)" />
    <path
       stroke="#d9d9d9"
       stroke-width="2"
       stroke-linejoin="round"
       stroke-linecap="butt"
       d="m 629.83203,326 h 53.00787 v 0.063 h 41.00788"
       fill-rule="evenodd"
       id="path1826"
       clip-path="url(#clipPath2005)"
       style="stroke:#000000" />
    <path
       fill="#d9d9d9"
       stroke="#d9d9d9"
       stroke-width="2"
       stroke-linecap="butt"
       d="m 723.8478,329.36646 9.07617,-3.30347 -9.07617,-3.30346 z"
       fill-rule="evenodd"
       id="path1828"
       clip-path="url(#clipPath1999)"
       style="fill:#000000;stroke:#000000" />
    <path
       fill="#f0f6ff"
       d="m 268.2811,445.4908 h 87.60391 v 0 c 11.47635,0 20.77975,14.36383 20.77975,32.08252 0,17.71869 -9.3034,32.08252 -20.77975,32.08252 H 268.2811 v 0 c -11.47638,0 -20.77979,-14.36383 -20.77979,-32.08252 0,-17.71869 9.30341,-32.08252 20.77979,-32.08252 z"
       fill-rule="evenodd"
       id="path1830"
       clip-path="url(#clipPath1993)" />
    <path
       stroke="#061827"
       stroke-width="1"
       stroke-linejoin="round"
       stroke-linecap="butt"
       d="m 268.2811,445.4908 h 87.60391 v 0 c 11.47635,0 20.77975,14.36383 20.77975,32.08252 0,17.71869 -9.3034,32.08252 -20.77975,32.08252 H 268.2811 v 0 c -11.47638,0 -20.77979,-14.36383 -20.77979,-32.08252 0,-17.71869 9.30341,-32.08252 20.77979,-32.08252 z"
       fill-rule="evenodd"
       id="path1832"
       clip-path="url(#clipPath1987)" />
    <path
       fill="#000000"
       d="m 292.68494,473.7902 q -1.39063,0 -2.57813,-0.51562 -1.1875,-0.53125 -2.07812,-1.46875 -0.875,-0.9375 -1.35938,-2.21875 -0.48437,-1.28125 -0.48437,-2.76563 0,-1.5 0.48437,-2.76562 0.48438,-1.26563 1.35938,-2.20313 0.89062,-0.95312 2.07812,-1.46875 1.1875,-0.53125 2.57813,-0.53125 1.40625,0 2.59375,0.53125 1.20312,0.51563 2.07812,1.46875 0.89063,0.9375 1.375,2.20313 0.48438,1.26562 0.48438,2.76562 0,1.48438 -0.48438,2.75 -0.48437,1.26563 -1.35937,2.20313 l 1.40625,1.53125 -0.85938,0.875 -1.45312,-1.57813 q -0.79688,0.57813 -1.75,0.89063 -0.9375,0.29687 -2.03125,0.29687 z m 0,-1.34375 q 0.82812,0 1.53125,-0.21875 0.71875,-0.23437 1.29687,-0.65625 l -1.96875,-2.14062 0.85938,-0.90625 2,2.1875 q 0.60937,-0.71875 0.9375,-1.71875 0.32812,-1 0.32812,-2.17188 0,-1.65625 -0.64062,-2.90625 -0.625,-1.26562 -1.75,-1.98437 -1.10938,-0.73438 -2.59375,-0.73438 -1.45313,0 -2.57813,0.73438 -1.10937,0.71875 -1.75,1.98437 -0.625,1.25 -0.625,2.90625 0,1.60938 0.625,2.89063 0.64063,1.28125 1.75,2.01562 1.125,0.71875 2.57813,0.71875 z m 17.10666,1.04688 h -1.40625 v -1.45313 q -0.45313,0.79688 -1.26563,1.28125 -0.8125,0.46875 -1.85937,0.46875 -1.54688,0 -2.48438,-0.98437 -0.92187,-0.98438 -0.92187,-2.85938 v -5.625 h 1.4375 v 5.48438 q 0,1.34375 0.59375,2.04687 0.59375,0.6875 1.67187,0.6875 0.95313,0 1.71875,-0.57812 0.76563,-0.59375 1.07813,-1.57813 v -6.0625 h 1.4375 z m 10.15433,-2.625 0.96875,0.92187 q -0.71875,1.01563 -1.70313,1.51563 -0.98437,0.48437 -2.15625,0.48437 -1.375,0 -2.4375,-0.625 -1.04687,-0.64062 -1.64062,-1.75 -0.59375,-1.10937 -0.59375,-2.51562 0,-1.39063 0.59375,-2.5 0.59375,-1.10938 1.60937,-1.75 1.01563,-0.64063 2.28125,-0.64063 1.25,0 2.20313,0.625 0.96875,0.60938 1.5,1.70313 0.54687,1.09375 0.54687,2.51562 v 0.5625 h -7.21875 q 0.15625,1.375 1.01563,2.25 0.875,0.875 2.23437,0.875 0.85938,0 1.54688,-0.40625 0.6875,-0.40625 1.25,-1.26562 z m -3.07813,-5.60938 q -1.15625,0 -1.96875,0.82813 -0.8125,0.82812 -0.98437,2.14062 h 5.71875 q -0.14063,-1.35937 -0.875,-2.15625 -0.73438,-0.8125 -1.89063,-0.8125 z m 11.82413,-1.09375 v 1.375 h -0.3125 q -0.85938,0 -1.59375,0.4375 -0.73438,0.4375 -1.1875,1.34375 -0.45313,0.90625 -0.45313,2.32813 v 3.84375 h -1.4375 v -9.17188 h 1.42188 v 2.04688 q 0.46875,-1.20313 1.375,-1.70313 0.92187,-0.5 1.89062,-0.5 z m 8.43664,0.15625 h 1.45313 l -4.35938,10.79688 q -0.375,0.9375 -0.95312,1.46875 -0.5625,0.53125 -1.78125,0.53125 h -1.07813 v -1.23438 h 1.07813 q 0.64062,0 0.98437,-0.29687 0.35938,-0.29688 0.57813,-0.875 l 0.42187,-1.1875 -3.73437,-9.20313 h 1.53125 l 2.9375,7.67188 z"
       fill-rule="nonzero"
       id="path1834"
       clip-path="url(#clipPath1981)" />
    <path
       fill="#000000"
       d="m 277.66116,495.49332 h -1.48438 v -13.34375 h 8 v 1.3125 h -6.51562 v 4.54687 h 6.17187 v 1.3125 h -6.17187 z m 15.41043,-2.625 0.96875,0.92187 q -0.71875,1.01563 -1.70312,1.51563 -0.98438,0.48437 -2.15625,0.48437 -1.375,0 -2.4375,-0.625 -1.04688,-0.64062 -1.64063,-1.75 -0.59375,-1.10937 -0.59375,-2.51562 0,-1.39063 0.59375,-2.5 0.59375,-1.10938 1.60938,-1.75 1.01562,-0.64063 2.28125,-0.64063 1.25,0 2.20312,0.625 0.96875,0.60938 1.5,1.70313 0.54688,1.09375 0.54688,2.51562 v 0.5625 h -7.21875 q 0.15625,1.375 1.01562,2.25 0.875,0.875 2.23438,0.875 0.85937,0 1.54687,-0.40625 0.6875,-0.40625 1.25,-1.26562 z m -3.07812,-5.60938 q -1.15625,0 -1.96875,0.82813 -0.8125,0.82812 -0.98438,2.14062 h 5.71875 q -0.14062,-1.35937 -0.875,-2.15625 -0.73437,-0.8125 -1.89062,-0.8125 z m 9.371,8.53125 q -0.96875,0 -1.71875,-0.375 -0.75,-0.375 -1.17188,-1.03125 -0.42187,-0.65625 -0.42187,-1.5 0,-1.40625 1.07812,-2.21875 1.07813,-0.82812 2.875,-0.82812 h 2.57813 v -0.0781 q 0,-1.15625 -0.70313,-1.82812 -0.6875,-0.6875 -1.90625,-0.6875 -1.57812,0 -2.6875,1.32812 l -0.9375,-0.90625 q 1.57813,-1.65625 3.71875,-1.65625 1.17188,0 2.04688,0.46875 0.89062,0.45313 1.375,1.28125 0.48437,0.82813 0.48437,1.95313 v 5.78125 h -1.375 v -1.25 q -0.51562,0.70312 -1.35937,1.125 -0.82813,0.42187 -1.875,0.42187 z m 0.20312,-1.1875 q 1.07813,0 1.875,-0.54687 0.8125,-0.5625 1.14063,-1.46875 v -1.59375 h -2.40625 q -1.25,0 -1.9375,0.48437 -0.6875,0.46875 -0.6875,1.34375 0,0.8125 0.54687,1.29688 0.54688,0.48437 1.46875,0.48437 z m 12.17722,0.89063 h -2.04688 q -0.96875,0 -1.48437,-0.53125 -0.5,-0.53125 -0.5,-1.51563 v -5.90625 h -1.75 v -1.21875 h 1.75 v -2.6875 h 1.4375 v 2.6875 h 2.46875 v 1.21875 h -2.46875 v 5.76563 q 0,0.95312 0.90625,0.95312 h 1.6875 z m 10.07074,0 h -1.40625 v -1.45313 q -0.45313,0.79688 -1.26563,1.28125 -0.8125,0.46875 -1.85937,0.46875 -1.54688,0 -2.48438,-0.98437 -0.92187,-0.98438 -0.92187,-2.85938 v -5.625 h 1.4375 v 5.48438 q 0,1.34375 0.59375,2.04687 0.59375,0.6875 1.67187,0.6875 0.95313,0 1.71875,-0.57812 0.76563,-0.59375 1.07813,-1.57813 v -6.0625 h 1.4375 z m 8.15433,-9.32813 v 1.375 h -0.3125 q -0.85938,0 -1.59375,0.4375 -0.73438,0.4375 -1.1875,1.34375 -0.45313,0.90625 -0.45313,2.32813 v 3.84375 h -1.4375 v -9.17188 h 1.42188 v 2.04688 q 0.46875,-1.20313 1.375,-1.70313 0.92187,-0.5 1.89062,-0.5 z m 8.64141,6.70313 0.96875,0.92187 q -0.71875,1.01563 -1.70312,1.51563 -0.98438,0.48437 -2.15625,0.48437 -1.375,0 -2.4375,-0.625 -1.04688,-0.64062 -1.64063,-1.75 -0.59375,-1.10937 -0.59375,-2.51562 0,-1.39063 0.59375,-2.5 0.59375,-1.10938 1.60938,-1.75 1.01562,-0.64063 2.28125,-0.64063 1.25,0 2.20312,0.625 0.96875,0.60938 1.5,1.70313 0.54688,1.09375 0.54688,2.51562 v 0.5625 h -7.21875 q 0.15625,1.375 1.01562,2.25 0.875,0.875 2.23438,0.875 0.85937,0 1.54687,-0.40625 0.6875,-0.40625 1.25,-1.26562 z m -3.07812,-5.60938 q -1.15625,0 -1.96875,0.82813 -0.8125,0.82812 -0.98438,2.14062 h 5.71875 q -0.14062,-1.35937 -0.875,-2.15625 -0.73437,-0.8125 -1.89062,-0.8125 z m 5.76163,6.8125 0.9375,-0.98437 q 0.59375,0.6875 1.35937,1.09375 0.78125,0.39062 1.75,0.39062 1.01563,0 1.64063,-0.45312 0.625,-0.46875 0.625,-1.21875 0,-0.60938 -0.53125,-0.96875 -0.53125,-0.375 -1.82813,-0.5625 -1.95312,-0.3125 -2.75,-0.90625 -0.78125,-0.60938 -0.78125,-1.67188 0,-1.26562 0.98438,-2.01562 0.98437,-0.76563 2.54687,-0.76563 1.15625,0 2.0625,0.45313 0.92188,0.45312 1.64063,1.26562 l -0.9375,1 q -0.51563,-0.70312 -1.20313,-1.09375 -0.6875,-0.40625 -1.5625,-0.40625 -0.90625,0 -1.48437,0.42188 -0.57813,0.42187 -0.57813,1.07812 0,0.51563 0.48438,0.82813 0.48437,0.29687 1.71875,0.48437 2.03125,0.29688 2.85937,0.96875 0.84375,0.65625 0.84375,1.875 0,0.85938 -0.48437,1.53125 -0.48438,0.65625 -1.32813,1.01563 -0.84375,0.35937 -1.9375,0.35937 -1.34375,0 -2.3125,-0.45312 -0.96875,-0.45313 -1.73437,-1.26563 z"
       fill-rule="nonzero"
       id="path1836"
       clip-path="url(#clipPath1975)" />
    <path
       fill="#000000"
       fill-opacity="0"
       d="m 312.08398,412.16797 v 16.66144 h 0.063 v 16.6614"
       fill-rule="evenodd"
       id="path1838"
       clip-path="url(#clipPath1969)" />
    <path
       stroke="#cccccc"
       stroke-width="2"
       stroke-linejoin="round"
       stroke-linecap="butt"
       d="m 312.08398,412.16797 v 16.66144 h 0.063 v 4.66141"
       fill-rule="evenodd"
       id="path1840"
       clip-path="url(#clipPath1963)"
       style="stroke:#000000" />
    <path
       fill="#cccccc"
       stroke="#cccccc"
       stroke-width="2"
       stroke-linecap="butt"
       d="m 308.8435,433.4908 3.30347,9.0762 3.30346,-9.0762 z"
       fill-rule="evenodd"
       id="path1842"
       clip-path="url(#clipPath1957)"
       style="fill:#000000;stroke:#000000" />
    <path
       fill="#000000"
       fill-opacity="0"
       d="m 323.1706,180.95407 h 196.81891 v 45.25984 H 323.1706 Z"
       fill-rule="evenodd"
       id="path1848"
       clip-path="url(#clipPath1939)" />
    <path
       fill="#ffffff"
       d="m 397.84348,210.43407 h -1.70313 v -15.25 h 1.70313 v 6.5625 h 8.14062 v -6.5625 h 1.71875 v 15.25 h -1.71875 v -7.17188 h -8.14062 z m 19.3627,0 h -1.70312 v -13.73438 h -4.73438 v -1.51562 h 11.17188 v 1.51562 h -4.73438 z m 12.79694,0 h -1.70313 v -13.73438 h -4.73437 v -1.51562 h 11.17187 v 1.51562 h -4.73437 z m 9.51565,0 h -1.70312 v -15.25 h 5.57812 q 1.4375,0 2.5,0.53125 1.0625,0.53125 1.65625,1.5 0.60938,0.95312 0.60938,2.25 0,1.28125 -0.60938,2.25 -0.59375,0.95312 -1.65625,1.5 -1.0625,0.54687 -2.5,0.54687 h -3.875 z m 3.875,-13.75 h -3.875 v 5.57812 h 3.875 q 1.40625,0 2.20313,-0.73437 0.8125,-0.75 0.8125,-2.0625 0,-1.3125 -0.8125,-2.04688 -0.79688,-0.73437 -2.20313,-0.73437 z"
       fill-rule="nonzero"
       id="path1850"
       clip-path="url(#clipPath1933)" />
  </g>
</svg>
