<svg version="1.1" id="Layer_1" xmlns="http://www.w3.org/2000/svg" xmlns:xlink="http://www.w3.org/1999/xlink" x="0" y="0" viewBox="0 0 2000 512" xml:space="preserve" enable-background="new 0 0 2000 512"><style type="text/css">.st0{opacity:.73;fill:#1d1d1b;stroke:#000;stroke-width:4;stroke-miterlimit:10}.st1{fill:none}.st1,.st2,.st3{stroke:#000;stroke-width:4;stroke-miterlimit:10}.st3{stroke:#00bac6;stroke-width:2}.st3,.st4{fill:none}.st5{fill:#fff}.st6{font-family:&apos;MyriadPro-Regular&apos;}.st7{font-size:59px}</style><rect x="19.2" y="172.4" class="st0" width="1971.6" height="144.8"/><path class="st1" d="M105.4,37.9c-16.1,0-29.1,13-29.1,29.1v369.8c0,16.1,13,29.1,29.1,29.1h396.5c16.1,0,29.1-12.9,29.1-29.1V67.1	c0-16.1-13-29.1-29.1-29.1L105.4,37.9z"/><rect x="76.2" y="176" class="st2" width="454.7" height="144.8"/><polyline class="st1" points="253.4,57.6 196.8,99.8 253.4,145.8"/><polyline class="st1" points="353.7,145.8 410.3,103.6 353.7,57.6"/><line class="st1" x1="310.7" y1="59.5" x2="277.5" y2="144"/><g id="Artwork_1_00000171717725631829211670000005186804564917815710_"><path class="st3" d="M122.6,213h-0.3c-4.1,0-8.4-4.2-8.4-8.2v-0.2h-0.6v0.2c0,4-4.3,8.2-8.4,8.2h-0.3v0.6h0.3 c4.1,0,8.4,4.2,8.4,8.2v0.2h0.6v-0.2c0-4,4.3-8.2,8.4-8.2h0.3L122.6,213L122.6,213z"/><path class="st3" d="M122.6,230.4h-0.3c-4.1,0-8.4-4.2-8.4-8.2V222h-0.6v0.2c0,4-4.3,8.2-8.4,8.2h-0.3v0.6h0.3 c4.1,0,8.4,4.2,8.4,8.2v0.2h0.6v-0.2c0-4,4.3-8.2,8.4-8.2h0.3L122.6,230.4L122.6,230.4z"/><path class="st3" d="M140.6,230.4h-0.3c-4.1,0-8.4-4.2-8.4-8.2V222h-0.6v0.2c0,4-4.3,8.2-8.4,8.2h-0.3v0.6h0.3 c4.1,0,8.4,4.2,8.4,8.2v0.2h0.6v-0.2c0-4,4.3-8.2,8.4-8.2h0.3V230.4z"/><path class="st3" d="M122.6,248.1h-0.3c-4.1,0-8.4-4.3-8.4-8.4v-0.3h-0.6v0.3c0,4.1-4.3,8.4-8.4,8.4h-0.3v0.6h0.3 c4.1,0,8.4,4.3,8.4,8.4v0.3h0.6v-0.3c0-4.1,4.3-8.4,8.4-8.4h0.3L122.6,248.1L122.6,248.1z"/><path class="st3" d="M140.6,248.1h-0.3c-4.1,0-8.4-4.3-8.4-8.4v-0.3h-0.6v0.3c0,4.1-4.3,8.4-8.4,8.4h-0.3v0.6h0.3 c4.1,0,8.4,4.3,8.4,8.4v0.3h0.6v-0.3c0-4.1,4.3-8.4,8.4-8.4h0.3V248.1z"/><path class="st3" d="M158.5,248.1h-0.3c-4.1,0-8.4-4.3-8.4-8.4v-0.3h-0.6v0.3c0,4.1-4.3,8.4-8.4,8.4h-0.3v0.6h0.3 c4.1,0,8.4,4.3,8.4,8.4v0.3h0.6v-0.3c0-4.1,4.3-8.4,8.4-8.4h0.3V248.1z"/><path class="st3" d="M122.6,265.8h-0.3c-4.1,0-8.4-4.2-8.4-8.2v-0.2h-0.6v0.2c0,4-4.3,8.2-8.4,8.2h-0.3v0.6h0.3 c4.1,0,8.4,4.2,8.4,8.2v0.2h0.6v-0.2c0-4,4.3-8.2,8.4-8.2h0.3L122.6,265.8L122.6,265.8z"/><path class="st3" d="M140.6,265.8h-0.3c-4.1,0-8.4-4.2-8.4-8.2v-0.2h-0.6v0.2c0,4-4.3,8.2-8.4,8.2h-0.3v0.6h0.3 c4.1,0,8.4,4.2,8.4,8.2v0.2h0.6v-0.2c0-4,4.3-8.2,8.4-8.2h0.3V265.8z"/><path class="st3" d="M175.9,230.4h-0.2c-4,0-8.2-4.2-8.2-8.2V222h-0.6v0.2c0,4-4.2,8.2-8.2,8.2h-0.2v0.6h0.2c4,0,8.2,4.2,8.2,8.2 v0.2h0.6v-0.2c0-4,4.2-8.2,8.2-8.2h0.2V230.4z"/><path class="st3" d="M175.9,248.1h-0.2c-4,0-8.2-4.3-8.2-8.4v-0.3h-0.6v0.3c0,4.1-4.2,8.4-8.2,8.4h-0.2v0.6h0.2 c4,0,8.2,4.3,8.2,8.4v0.3h0.6v-0.3c0-4.1,4.2-8.4,8.2-8.4h0.2V248.1z"/><path class="st3" d="M175.9,265.8h-0.2c-4,0-8.2-4.2-8.2-8.2v-0.2h-0.6v0.2c0,4-4.2,8.2-8.2,8.2h-0.2v0.6h0.2c4,0,8.2,4.2,8.2,8.2 v0.2h0.6v-0.2c0-4,4.2-8.2,8.2-8.2h0.2V265.8z"/><path class="st3" d="M193.9,230.4h-0.2c-4,0-8.2-4.2-8.2-8.2V222h-0.6v0.2c0,4-4.2,8.2-8.2,8.2h-0.2v0.6h0.2c4,0,8.2,4.2,8.2,8.2 v0.2h0.6v-0.2c0-4,4.2-8.2,8.2-8.2h0.2V230.4z"/><path class="st3" d="M193.9,213h-0.2c-4,0-8.2-4.2-8.2-8.2v-0.2h-0.6v0.2c0,4-4.2,8.2-8.2,8.2h-0.2v0.6h0.2c4,0,8.2,4.2,8.2,8.2 v0.2h0.6v-0.2c0-4,4.2-8.2,8.2-8.2h0.2V213z"/><path class="st3" d="M193.9,248.1h-0.2c-4,0-8.2-4.3-8.2-8.4v-0.3h-0.6v0.3c0,4.1-4.2,8.4-8.2,8.4h-0.2v0.6h0.2 c4,0,8.2,4.3,8.2,8.4v0.3h0.6v-0.3c0-4.1,4.2-8.4,8.2-8.4h0.2V248.1z"/><path class="st3" d="M193.9,283.2h-0.2c-4,0-8.2-4.2-8.2-8.2v-0.2h-0.6v0.2c0,4-4.2,8.2-8.2,8.2h-0.2v0.6h0.2c4,0,8.2,4.2,8.2,8.2 v0.2h0.6V292c0-4,4.2-8.2,8.2-8.2h0.2V283.2z"/><path class="st3" d="M122.6,283.2h-0.3c-4.1,0-8.4-4.2-8.4-8.2v-0.2h-0.6v0.2c0,4-4.3,8.2-8.4,8.2h-0.3v0.6h0.3 c4.1,0,8.4,4.2,8.4,8.2v0.2h0.6V292c0-4,4.3-8.2,8.4-8.2h0.3L122.6,283.2L122.6,283.2z"/><path class="st3" d="M193.9,265.8h-0.2c-4,0-8.2-4.2-8.2-8.2v-0.2h-0.6v0.2c0,4-4.2,8.2-8.2,8.2h-0.2v0.6h0.2c4,0,8.2,4.2,8.2,8.2 v0.2h0.6v-0.2c0-4,4.2-8.2,8.2-8.2h0.2V265.8z"/></g><rect x="185.2" y="204.4" class="st4" width="296.3" height="88"/><text transform="matrix(1 0 0 1 228.9813 269.3269)" class="st5 st6 st7">Member</text><rect x="84.9" y="331.5" class="st4" width="451.6" height="106.6"/><text transform="matrix(1 0 0 1 108.7556 405.7903)" class="st6 st7">Java Application</text><path class="st1" d="M671.4,37.6c-16.1,0-29.1,13-29.1,29.1v369.8c0,16.1,13,29.1,29.1,29.1h396.5c16.1,0,29.1-12.9,29.1-29.1V66.8	c0-16.1-13-29.1-29.1-29.1L671.4,37.6z"/><rect x="642.3" y="175.7" class="st2" width="454.7" height="144.8"/><polyline class="st1" points="819.4,57.3 762.9,99.6 819.4,145.6"/><polyline class="st1" points="919.7,145.6 976.3,103.3 919.7,57.3"/><line class="st1" x1="876.7" y1="59.2" x2="843.6" y2="143.7"/><g id="Artwork_1_00000119099236776396716530000015764886379287867573_"><path class="st3" d="M688.7,212.7h-0.3c-4.1,0-8.4-4.2-8.4-8.2v-0.2h-0.6v0.2c0,4-4.3,8.2-8.4,8.2h-0.3v0.6h0.3 c4.1,0,8.4,4.2,8.4,8.2v0.2h0.6v-0.2c0-4,4.3-8.2,8.4-8.2h0.3L688.7,212.7L688.7,212.7z"/><path class="st3" d="M688.7,230.1h-0.3c-4.1,0-8.4-4.2-8.4-8.2v-0.2h-0.6v0.2c0,4-4.3,8.2-8.4,8.2h-0.3v0.6h0.3 c4.1,0,8.4,4.2,8.4,8.2v0.2h0.6v-0.2c0-4,4.3-8.2,8.4-8.2h0.3L688.7,230.1L688.7,230.1z"/><path class="st3" d="M706.6,230.1h-0.3c-4.1,0-8.4-4.2-8.4-8.2v-0.2h-0.6v0.2c0,4-4.3,8.2-8.4,8.2h-0.3v0.6h0.3 c4.1,0,8.4,4.2,8.4,8.2v0.2h0.6v-0.2c0-4,4.3-8.2,8.4-8.2h0.3V230.1z"/><path class="st3" d="M688.7,247.8h-0.3c-4.1,0-8.4-4.3-8.4-8.4v-0.3h-0.6v0.3c0,4.1-4.3,8.4-8.4,8.4h-0.3v0.6h0.3 c4.1,0,8.4,4.3,8.4,8.4v0.3h0.6v-0.3c0-4.1,4.3-8.4,8.4-8.4h0.3L688.7,247.8L688.7,247.8z"/><path class="st3" d="M706.6,247.8h-0.3c-4.1,0-8.4-4.3-8.4-8.4v-0.3h-0.6v0.3c0,4.1-4.3,8.4-8.4,8.4h-0.3v0.6h0.3 c4.1,0,8.4,4.3,8.4,8.4v0.3h0.6v-0.3c0-4.1,4.3-8.4,8.4-8.4h0.3V247.8z"/><path class="st3" d="M724.5,247.8h-0.3c-4.1,0-8.4-4.3-8.4-8.4v-0.3h-0.6v0.3c0,4.1-4.3,8.4-8.4,8.4h-0.3v0.6h0.3 c4.1,0,8.4,4.3,8.4,8.4v0.3h0.6v-0.3c0-4.1,4.3-8.4,8.4-8.4h0.3V247.8z"/><path class="st3" d="M688.7,265.5h-0.3c-4.1,0-8.4-4.2-8.4-8.2v-0.2h-0.6v0.2c0,4-4.3,8.2-8.4,8.2h-0.3v0.6h0.3 c4.1,0,8.4,4.2,8.4,8.2v0.2h0.6v-0.2c0-4,4.3-8.2,8.4-8.2h0.3L688.7,265.5L688.7,265.5z"/><path class="st3" d="M706.6,265.5h-0.3c-4.1,0-8.4-4.2-8.4-8.2v-0.2h-0.6v0.2c0,4-4.3,8.2-8.4,8.2h-0.3v0.6h0.3 c4.1,0,8.4,4.2,8.4,8.2v0.2h0.6v-0.2c0-4,4.3-8.2,8.4-8.2h0.3V265.5z"/><path class="st3" d="M742,230.1h-0.2c-4,0-8.2-4.2-8.2-8.2v-0.2h-0.6v0.2c0,4-4.2,8.2-8.2,8.2h-0.2v0.6h0.2c4,0,8.2,4.2,8.2,8.2 v0.2h0.6v-0.2c0-4,4.2-8.2,8.2-8.2h0.2V230.1z"/><path class="st3" d="M742,247.8h-0.2c-4,0-8.2-4.3-8.2-8.4v-0.3h-0.6v0.3c0,4.1-4.2,8.4-8.2,8.4h-0.2v0.6h0.2c4,0,8.2,4.3,8.2,8.4 v0.3h0.6v-0.3c0-4.1,4.2-8.4,8.2-8.4h0.2V247.8z"/><path class="st3" d="M742,265.5h-0.2c-4,0-8.2-4.2-8.2-8.2v-0.2h-0.6v0.2c0,4-4.2,8.2-8.2,8.2h-0.2v0.6h0.2c4,0,8.2,4.2,8.2,8.2 v0.2h0.6v-0.2c0-4,4.2-8.2,8.2-8.2h0.2V265.5z"/><path class="st3" d="M759.9,230.1h-0.2c-4,0-8.2-4.2-8.2-8.2v-0.2h-0.6v0.2c0,4-4.2,8.2-8.2,8.2h-0.2v0.6h0.2c4,0,8.2,4.2,8.2,8.2 v0.2h0.6v-0.2c0-4,4.2-8.2,8.2-8.2h0.2V230.1z"/><path class="st3" d="M759.9,212.7h-0.2c-4,0-8.2-4.2-8.2-8.2v-0.2h-0.6v0.2c0,4-4.2,8.2-8.2,8.2h-0.2v0.6h0.2c4,0,8.2,4.2,8.2,8.2 v0.2h0.6v-0.2c0-4,4.2-8.2,8.2-8.2h0.2V212.7z"/><path class="st3" d="M759.9,247.8h-0.2c-4,0-8.2-4.3-8.2-8.4v-0.3h-0.6v0.3c0,4.1-4.2,8.4-8.2,8.4h-0.2v0.6h0.2 c4,0,8.2,4.3,8.2,8.4v0.3h0.6v-0.3c0-4.1,4.2-8.4,8.2-8.4h0.2V247.8z"/><path class="st3" d="M759.9,282.9h-0.2c-4,0-8.2-4.2-8.2-8.2v-0.2h-0.6v0.2c0,4-4.2,8.2-8.2,8.2h-0.2v0.6h0.2c4,0,8.2,4.2,8.2,8.2 v0.2h0.6v-0.2c0-4,4.2-8.2,8.2-8.2h0.2V282.9z"/><path class="st3" d="M688.7,282.9h-0.3c-4.1,0-8.4-4.2-8.4-8.2v-0.2h-0.6v0.2c0,4-4.3,8.2-8.4,8.2h-0.3v0.6h0.3 c4.1,0,8.4,4.2,8.4,8.2v0.2h0.6v-0.2c0-4,4.3-8.2,8.4-8.2h0.3L688.7,282.9L688.7,282.9z"/><path class="st3" d="M759.9,265.5h-0.2c-4,0-8.2-4.2-8.2-8.2v-0.2h-0.6v0.2c0,4-4.2,8.2-8.2,8.2h-0.2v0.6h0.2c4,0,8.2,4.2,8.2,8.2 v0.2h0.6v-0.2c0-4,4.2-8.2,8.2-8.2h0.2V265.5z"/></g><rect x="751.2" y="204.1" class="st4" width="296.3" height="88"/><text transform="matrix(1 0 0 1 795.0174 269.0561)" class="st5 st6 st7">Member</text><rect x="651" y="331.3" class="st4" width="451.6" height="106.6"/><text transform="matrix(1 0 0 1 674.7917 405.5195)" class="st6 st7">Java Application</text><path class="st1" d="M1241.8,38.4c-16.1,0-29.1,13-29.1,29.1v369.8c0,16.1,13,29.1,29.1,29.1h396.5c16.1,0,29.1-12.9,29.1-29.1V67.5	c0-16.1-13-29.1-29.1-29.1L1241.8,38.4z"/><rect x="1212.6" y="176.4" class="st2" width="454.7" height="144.8"/><polyline class="st1" points="1389.8,58.1 1333.3,100.3 1389.8,146.3"/><polyline class="st1" points="1490.1,146.3 1546.7,104.1 1490.1,58.1"/><line class="st1" x1="1447.1" y1="60" x2="1413.9" y2="144.4"/><g id="Artwork_1_00000157295013728701055330000014368576445678017432_"><path class="st3" d="M1259.1,213.4h-0.3c-4.1,0-8.4-4.2-8.4-8.2V205h-0.6v0.2c0,4-4.3,8.2-8.4,8.2h-0.3v0.6h0.3 c4.1,0,8.4,4.2,8.4,8.2v0.2h0.6v-0.2c0-4,4.3-8.2,8.4-8.2h0.3L1259.1,213.4L1259.1,213.4z"/><path class="st3" d="M1259.1,230.9h-0.3c-4.1,0-8.4-4.2-8.4-8.2v-0.2h-0.6v0.2c0,4-4.3,8.2-8.4,8.2h-0.3v0.6h0.3 c4.1,0,8.4,4.2,8.4,8.2v0.2h0.6v-0.2c0-4,4.3-8.2,8.4-8.2h0.3L1259.1,230.9L1259.1,230.9z"/><path class="st3" d="M1277,230.9h-0.3c-4.1,0-8.4-4.2-8.4-8.2v-0.2h-0.6v0.2c0,4-4.3,8.2-8.4,8.2h-0.3v0.6h0.3 c4.1,0,8.4,4.2,8.4,8.2v0.2h0.6v-0.2c0-4,4.3-8.2,8.4-8.2h0.3V230.9z"/><path class="st3" d="M1259.1,248.5h-0.3c-4.1,0-8.4-4.3-8.4-8.4v-0.3h-0.6v0.3c0,4.1-4.3,8.4-8.4,8.4h-0.3v0.6h0.3 c4.1,0,8.4,4.3,8.4,8.4v0.3h0.6v-0.3c0-4.1,4.3-8.4,8.4-8.4h0.3L1259.1,248.5L1259.1,248.5z"/><path class="st3" d="M1277,248.5h-0.3c-4.1,0-8.4-4.3-8.4-8.4v-0.3h-0.6v0.3c0,4.1-4.3,8.4-8.4,8.4h-0.3v0.6h0.3 c4.1,0,8.4,4.3,8.4,8.4v0.3h0.6v-0.3c0-4.1,4.3-8.4,8.4-8.4h0.3V248.5z"/><path class="st3" d="M1294.9,248.5h-0.3c-4.1,0-8.4-4.3-8.4-8.4v-0.3h-0.6v0.3c0,4.1-4.3,8.4-8.4,8.4h-0.3v0.6h0.3 c4.1,0,8.4,4.3,8.4,8.4v0.3h0.6v-0.3c0-4.1,4.3-8.4,8.4-8.4h0.3V248.5z"/><path class="st3" d="M1259.1,266.2h-0.3c-4.1,0-8.4-4.2-8.4-8.2v-0.2h-0.6v0.2c0,4-4.3,8.2-8.4,8.2h-0.3v0.6h0.3 c4.1,0,8.4,4.2,8.4,8.2v0.2h0.6V275c0-4,4.3-8.2,8.4-8.2h0.3L1259.1,266.2L1259.1,266.2z"/><path class="st3" d="M1277,266.2h-0.3c-4.1,0-8.4-4.2-8.4-8.2v-0.2h-0.6v0.2c0,4-4.3,8.2-8.4,8.2h-0.3v0.6h0.3 c4.1,0,8.4,4.2,8.4,8.2v0.2h0.6V275c0-4,4.3-8.2,8.4-8.2h0.3V266.2z"/><path class="st3" d="M1312.4,230.9h-0.2c-4,0-8.2-4.2-8.2-8.2v-0.2h-0.6v0.2c0,4-4.2,8.2-8.2,8.2h-0.2v0.6h0.2c4,0,8.2,4.2,8.2,8.2 v0.2h0.6v-0.2c0-4,4.2-8.2,8.2-8.2h0.2V230.9z"/><path class="st3" d="M1312.4,248.5h-0.2c-4,0-8.2-4.3-8.2-8.4v-0.3h-0.6v0.3c0,4.1-4.2,8.4-8.2,8.4h-0.2v0.6h0.2 c4,0,8.2,4.3,8.2,8.4v0.3h0.6v-0.3c0-4.1,4.2-8.4,8.2-8.4h0.2V248.5z"/><path class="st3" d="M1312.4,266.2h-0.2c-4,0-8.2-4.2-8.2-8.2v-0.2h-0.6v0.2c0,4-4.2,8.2-8.2,8.2h-0.2v0.6h0.2c4,0,8.2,4.2,8.2,8.2 v0.2h0.6V275c0-4,4.2-8.2,8.2-8.2h0.2V266.2z"/><path class="st3" d="M1330.3,230.9h-0.2c-4,0-8.2-4.2-8.2-8.2v-0.2h-0.6v0.2c0,4-4.2,8.2-8.2,8.2h-0.2v0.6h0.2c4,0,8.2,4.2,8.2,8.2 v0.2h0.6v-0.2c0-4,4.2-8.2,8.2-8.2h0.2V230.9z"/><path class="st3" d="M1330.3,213.4h-0.2c-4,0-8.2-4.2-8.2-8.2V205h-0.6v0.2c0,4-4.2,8.2-8.2,8.2h-0.2v0.6h0.2c4,0,8.2,4.2,8.2,8.2 v0.2h0.6v-0.2c0-4,4.2-8.2,8.2-8.2h0.2V213.4z"/><path class="st3" d="M1330.3,248.5h-0.2c-4,0-8.2-4.3-8.2-8.4v-0.3h-0.6v0.3c0,4.1-4.2,8.4-8.2,8.4h-0.2v0.6h0.2 c4,0,8.2,4.3,8.2,8.4v0.3h0.6v-0.3c0-4.1,4.2-8.4,8.2-8.4h0.2V248.5z"/><path class="st3" d="M1330.3,283.7h-0.2c-4,0-8.2-4.2-8.2-8.2v-0.2h-0.6v0.2c0,4-4.2,8.2-8.2,8.2h-0.2v0.6h0.2c4,0,8.2,4.2,8.2,8.2 v0.2h0.6v-0.2c0-4,4.2-8.2,8.2-8.2h0.2V283.7z"/><path class="st3" d="M1259.1,283.7h-0.3c-4.1,0-8.4-4.2-8.4-8.2v-0.2h-0.6v0.2c0,4-4.3,8.2-8.4,8.2h-0.3v0.6h0.3 c4.1,0,8.4,4.2,8.4,8.2v0.2h0.6v-0.2c0-4,4.3-8.2,8.4-8.2h0.3L1259.1,283.7L1259.1,283.7z"/><path class="st3" d="M1330.3,266.2h-0.2c-4,0-8.2-4.2-8.2-8.2v-0.2h-0.6v0.2c0,4-4.2,8.2-8.2,8.2h-0.2v0.6h0.2c4,0,8.2,4.2,8.2,8.2 v0.2h0.6V275c0-4,4.2-8.2,8.2-8.2h0.2V266.2z"/></g><rect x="1321.6" y="204.8" class="st4" width="296.3" height="88"/><text transform="matrix(1 0 0 1 1365.4047 269.7972)" class="st5 st6 st7">Member</text><rect x="1668.6" y="195.4" class="st4" width="296.3" height="88"/><text transform="matrix(1 0 0 1 1730.5156 260.3589)" class="st5 st6 st7">Cluster</text><rect x="1221.3" y="332" class="st4" width="451.6" height="106.6"/><text transform="matrix(1 0 0 1 1245.179 406.2606)" class="st6 st7">Java Application</text></svg>