<?xml version="1.0" encoding="utf-8"?>
<!-- Generator: Adobe Illustrator 26.0.3, SVG Export Plug-In . SVG Version: 6.00 Build 0)  -->
<svg version="1.1" id="Layer_1" xmlns="http://www.w3.org/2000/svg" xmlns:xlink="http://www.w3.org/1999/xlink" x="0px" y="0px"
	 viewBox="0 0 512 512" style="enable-background:new 0 0 512 512;" xml:space="preserve">
<style type="text/css">
	.st0{fill:none;stroke:#000000;stroke-width:4;stroke-miterlimit:10;}
	.st1{stroke:#000000;stroke-width:4;stroke-miterlimit:10;}
	.st2{fill:none;stroke:#00BAC6;stroke-width:2;stroke-miterlimit:10;}
	.st3{fill:none;}
	.st4{fill:#FFFFFF;}
	.st5{font-family:'MyriadPro-Regular';}
	.st6{font-size:59px;}
</style>
<path class="st0" d="M57.8,41.9c-16.1,0-29.1,13-29.1,29.1v369.8c0,16.1,13,29.1,29.1,29.1h396.5c16.1,0,29.1-12.9,29.1-29.1V71.1
	c0-16.1-13-29.1-29.1-29.1L57.8,41.9z"/>
<rect x="28.7" y="180" class="st1" width="454.7" height="144.8"/>
<polyline class="st0" points="205.8,61.6 149.3,103.9 205.8,149.9 "/>
<polyline class="st0" points="306.2,149.9 362.7,107.7 306.2,61.6 "/>
<line class="st0" x1="263.2" y1="63.5" x2="230" y2="148"/>
<g id="Artwork_1_00000171717725631829211670000005186804564917815710_">
	<path class="st2" d="M75.1,217h-0.3c-4.1,0-8.4-4.2-8.4-8.2v-0.2h-0.6v0.2c0,4-4.3,8.2-8.4,8.2h-0.3v0.6h0.3c4.1,0,8.4,4.2,8.4,8.2
		v0.2h0.6v-0.2c0-4,4.3-8.2,8.4-8.2h0.3L75.1,217L75.1,217z"/>
	<path class="st2" d="M75.1,234.4h-0.3c-4.1,0-8.4-4.2-8.4-8.2V226h-0.6v0.2c0,4-4.3,8.2-8.4,8.2h-0.3v0.6h0.3
		c4.1,0,8.4,4.2,8.4,8.2v0.2h0.6v-0.2c0-4,4.3-8.2,8.4-8.2h0.3L75.1,234.4L75.1,234.4z"/>
	<path class="st2" d="M93,234.4h-0.3c-4.1,0-8.4-4.2-8.4-8.2V226h-0.6v0.2c0,4-4.3,8.2-8.4,8.2h-0.3v0.6h0.3c4.1,0,8.4,4.2,8.4,8.2
		v0.2h0.6v-0.2c0-4,4.3-8.2,8.4-8.2H93V234.4z"/>
	<path class="st2" d="M75.1,252.1h-0.3c-4.1,0-8.4-4.3-8.4-8.4v-0.3h-0.6v0.3c0,4.1-4.3,8.4-8.4,8.4h-0.3v0.6h0.3
		c4.1,0,8.4,4.3,8.4,8.4v0.3h0.6v-0.3c0-4.1,4.3-8.4,8.4-8.4h0.3L75.1,252.1L75.1,252.1z"/>
	<path class="st2" d="M93,252.1h-0.3c-4.1,0-8.4-4.3-8.4-8.4v-0.3h-0.6v0.3c0,4.1-4.3,8.4-8.4,8.4h-0.3v0.6h0.3
		c4.1,0,8.4,4.3,8.4,8.4v0.3h0.6v-0.3c0-4.1,4.3-8.4,8.4-8.4H93V252.1z"/>
	<path class="st2" d="M111,252.1h-0.3c-4.1,0-8.4-4.3-8.4-8.4v-0.3h-0.6v0.3c0,4.1-4.3,8.4-8.4,8.4H93v0.6h0.3
		c4.1,0,8.4,4.3,8.4,8.4v0.3h0.6v-0.3c0-4.1,4.3-8.4,8.4-8.4h0.3V252.1z"/>
	<path class="st2" d="M75.1,269.8h-0.3c-4.1,0-8.4-4.2-8.4-8.2v-0.2h-0.6v0.2c0,4-4.3,8.2-8.4,8.2h-0.3v0.6h0.3
		c4.1,0,8.4,4.2,8.4,8.2v0.2h0.6v-0.2c0-4,4.3-8.2,8.4-8.2h0.3L75.1,269.8L75.1,269.8z"/>
	<path class="st2" d="M93,269.8h-0.3c-4.1,0-8.4-4.2-8.4-8.2v-0.2h-0.6v0.2c0,4-4.3,8.2-8.4,8.2h-0.3v0.6h0.3c4.1,0,8.4,4.2,8.4,8.2
		v0.2h0.6v-0.2c0-4,4.3-8.2,8.4-8.2H93V269.8z"/>
	<path class="st2" d="M128.4,234.4h-0.2c-4,0-8.2-4.2-8.2-8.2V226h-0.6v0.2c0,4-4.2,8.2-8.2,8.2H111v0.6h0.2c4,0,8.2,4.2,8.2,8.2
		v0.2h0.6v-0.2c0-4,4.2-8.2,8.2-8.2h0.2V234.4z"/>
	<path class="st2" d="M128.4,252.1h-0.2c-4,0-8.2-4.3-8.2-8.4v-0.3h-0.6v0.3c0,4.1-4.2,8.4-8.2,8.4H111v0.6h0.2c4,0,8.2,4.3,8.2,8.4
		v0.3h0.6v-0.3c0-4.1,4.2-8.4,8.2-8.4h0.2V252.1z"/>
	<path class="st2" d="M128.4,269.8h-0.2c-4,0-8.2-4.2-8.2-8.2v-0.2h-0.6v0.2c0,4-4.2,8.2-8.2,8.2H111v0.6h0.2c4,0,8.2,4.2,8.2,8.2
		v0.2h0.6v-0.2c0-4,4.2-8.2,8.2-8.2h0.2V269.8z"/>
	<path class="st2" d="M146.3,234.4h-0.2c-4,0-8.2-4.2-8.2-8.2V226h-0.6v0.2c0,4-4.2,8.2-8.2,8.2h-0.2v0.6h0.2c4,0,8.2,4.2,8.2,8.2
		v0.2h0.6v-0.2c0-4,4.2-8.2,8.2-8.2h0.2V234.4z"/>
	<path class="st2" d="M146.3,217h-0.2c-4,0-8.2-4.2-8.2-8.2v-0.2h-0.6v0.2c0,4-4.2,8.2-8.2,8.2h-0.2v0.6h0.2c4,0,8.2,4.2,8.2,8.2
		v0.2h0.6v-0.2c0-4,4.2-8.2,8.2-8.2h0.2V217z"/>
	<path class="st2" d="M146.3,252.1h-0.2c-4,0-8.2-4.3-8.2-8.4v-0.3h-0.6v0.3c0,4.1-4.2,8.4-8.2,8.4h-0.2v0.6h0.2
		c4,0,8.2,4.3,8.2,8.4v0.3h0.6v-0.3c0-4.1,4.2-8.4,8.2-8.4h0.2V252.1z"/>
	<path class="st2" d="M146.3,287.2h-0.2c-4,0-8.2-4.2-8.2-8.2v-0.2h-0.6v0.2c0,4-4.2,8.2-8.2,8.2h-0.2v0.6h0.2c4,0,8.2,4.2,8.2,8.2
		v0.2h0.6V296c0-4,4.2-8.2,8.2-8.2h0.2V287.2z"/>
	<path class="st2" d="M75.1,287.2h-0.3c-4.1,0-8.4-4.2-8.4-8.2v-0.2h-0.6v0.2c0,4-4.3,8.2-8.4,8.2h-0.3v0.6h0.3
		c4.1,0,8.4,4.2,8.4,8.2v0.2h0.6V296c0-4,4.3-8.2,8.4-8.2h0.3L75.1,287.2L75.1,287.2z"/>
	<path class="st2" d="M146.3,269.8h-0.2c-4,0-8.2-4.2-8.2-8.2v-0.2h-0.6v0.2c0,4-4.2,8.2-8.2,8.2h-0.2v0.6h0.2c4,0,8.2,4.2,8.2,8.2
		v0.2h0.6v-0.2c0-4,4.2-8.2,8.2-8.2h0.2V269.8z"/>
</g>
<rect x="137.6" y="208.4" class="st3" width="296.3" height="88"/>
<text transform="matrix(1 0 0 1 181.4341 273.3723)" class="st4 st5 st6">Member</text>
<rect x="37.4" y="335.6" class="st3" width="451.6" height="106.6"/>
<text transform="matrix(1 0 0 1 61.2085 409.8357)" class="st5 st6">Java Application</text>
</svg>
