<svg xmlns="http://www.w3.org/2000/svg" xmlns:xlink="http://www.w3.org/1999/xlink" xmlns:lucid="lucid" width="1638.67" height="1185"><g transform="translate(20 20)" lucid:page-tab-id="0_0"><path d="M0 0h1870.87v1322.83H0z" fill="#fff"/><path d="M158 0c17.67 0 32 17.9 32 40s-14.33 40-32 40H62c-17.67 0-32-17.9-32-40S44.33 0 62 0z" stroke="#5e5e5e" stroke-width="3" fill="#c7e8ac"/><use xlink:href="#a" transform="matrix(1,0,0,1,35.000000000000014,5) translate(21.07162326388889 29.366319444444443)"/><use xlink:href="#b" transform="matrix(1,0,0,1,35.000000000000014,5) translate(61.65322048611111 29.366319444444443)"/><use xlink:href="#c" transform="matrix(1,0,0,1,35.000000000000014,5) translate(42.39866319444444 55.40798611111111)"/><path d="M10 386c0-3.3 2.7-6 6-6h188c3.3 0 6 2.7 6 6v135c0 3.3-2.7 6-6 6H16c-3.3 0-6-2.7-6-6z" stroke="#5e5e5e" stroke-width="3" fill="#fff"/><use xlink:href="#d" transform="matrix(1,0,0,1,22.000000000000014,392) translate(15.403428819444457 28.303819444444443)"/><use xlink:href="#e" transform="matrix(1,0,0,1,22.000000000000014,392) translate(91.02191840277779 28.303819444444443)"/><use xlink:href="#f" transform="matrix(1,0,0,1,22.000000000000014,392) translate(17.090711805555557 54.34548611111111)"/><use xlink:href="#g" transform="matrix(1,0,0,1,22.000000000000014,392) translate(111.17708333333333 54.34548611111111)"/><use xlink:href="#h" transform="matrix(1,0,0,1,22.000000000000014,392) translate(39.43771701388889 80.38715277777777)"/><use xlink:href="#i" transform="matrix(1,0,0,1,22.000000000000014,392) translate(19.331380208333343 106.42881944444444)"/><use xlink:href="#j" transform="matrix(1,0,0,1,22.000000000000014,392) translate(107.68858506944444 106.42881944444444)"/><path d="M105.15 153.53c2.68-1.95 7.02-1.95 9.7 0l100.3 72.94c2.68 1.95 2.68 5.1 0 7.06l-100.3 72.94c-2.68 1.95-7.02 1.95-9.7 0L4.85 233.53c-2.68-1.95-2.68-5.1 0-7.06z" stroke="#5e5e5e" stroke-width="3" fill="#fff"/><use xlink:href="#k" transform="matrix(1,0,0,1,5.000000000000014,154.99999999999997) translate(96.25391493055557 58.11631944444444)"/><use xlink:href="#l" transform="matrix(1,0,0,1,5.000000000000014,154.99999999999997) translate(16.37110243055556 84.15798611111111)"/><use xlink:href="#m" transform="matrix(1,0,0,1,5.000000000000014,154.99999999999997) translate(117.55382812500001 84.15798611111111)"/><use xlink:href="#n" transform="matrix(1,0,0,1,5.000000000000014,154.99999999999997) translate(63.62587673611112 110.19965277777777)"/><path d="M391.66 231h-172.1v-2h172.1zm183.78 0h-154.6v-2h154.6z" fill="#5e5e5e"/><path d="M219.58 231h-1.03l.12-.28-.27-1.72h1.18zM590.7 230l-14.26 4.64v-9.28z" fill="#5e5e5e"/><path d="M593.94 230l-18.5 6v-12zm-16.5 3.26l10.03-3.26-10.03-3.26z" fill="#5e5e5e"/><use xlink:href="#o" transform="matrix(1,0,0,1,391.6634089499928,219.58333333333331) translate(0 16.493055555555557)"/><path d="M111 360h-2v-5.65h2zm0-26.48h-2v-23.15h2z" fill="#5e5e5e"/><path d="M111 309.4v1h-2v-1.04zM110 375.26L105.36 361h9.28z" fill="#5e5e5e"/><path d="M110 378.5l-6-18.5h12zm-3.26-16.5l3.26 10.03 3.26-10.03z" fill="#5e5e5e"/><use xlink:href="#p" transform="matrix(1,0,0,1,98.69791666666669,333.51943843724825) translate(0 16.493055555555557)"/><path d="M110 82.5v49.63" stroke="#5e5e5e" stroke-width="2" fill="none"/><path d="M111 82.53h-2V81.5h2z" fill="#5e5e5e"/><path d="M110 147.4l-4.64-14.27h9.28z" stroke="#5e5e5e" stroke-width="2" fill="#5e5e5e"/><path d="M682.3 158.73c2.6-2.06 6.8-2.06 9.4 0l84.93 67.54c2.6 2.06 2.6 5.4 0 7.46l-84.94 67.54c-2.6 2.06-6.8 2.06-9.4 0l-84.95-67.54c-2.6-2.06-2.6-5.4 0-7.46z" stroke="#5e5e5e" stroke-width="3" fill="#fff"/><use xlink:href="#q" transform="matrix(1,0,0,1,597.6537025120992,159.99999999999997) translate(20.31467881944445 73.11631944444444)"/><use xlink:href="#r" transform="matrix(1,0,0,1,597.6537025120992,159.99999999999997) translate(43.31815104166667 73.11631944444444)"/><use xlink:href="#s" transform="matrix(1,0,0,1,597.6537025120992,159.99999999999997) translate(111.56901909722221 73.11631944444444)"/><use xlink:href="#t" transform="matrix(1,0,0,1,597.6537025120992,159.99999999999997) translate(45.11480902777779 99.1579861111111)"/><path d="M692.33 390h-2v-23.2h2zM688 345.96h-2v-40.7h2z" fill="#5e5e5e"/><path d="M687.88 304.3l.1-.04v1.02h-2v-1.07zM691.33 405.26L686.7 391h9.26z" fill="#5e5e5e"/><path d="M691.33 408.5l-6-18.5h12zm-3.26-16.5l3.26 10.03L694.6 392z" fill="#5e5e5e"/><use xlink:href="#o" transform="matrix(1,0,0,1,674.570890458951,345.95840470664274) translate(0 16.493055555555557)"/><path d="M105.26 600.68c2.62-2.03 6.86-2.03 9.48 0l80.52 62.64c2.62 2.03 2.62 5.33 0 7.36l-80.52 62.64c-2.62 2.03-6.86 2.03-9.48 0l-80.52-62.64c-2.62-2.03-2.62-5.33 0-7.36z" stroke="#5e5e5e" stroke-width="3" fill="#fff"/><use xlink:href="#k" transform="matrix(1,0,0,1,25.000000000000014,602) translate(76.25391493055555 44.99131944444444)"/><use xlink:href="#i" transform="matrix(1,0,0,1,25.000000000000014,602) translate(16.336380208333345 71.03298611111111)"/><use xlink:href="#u" transform="matrix(1,0,0,1,25.000000000000014,602) translate(104.69358506944445 71.03298611111111)"/><use xlink:href="#v" transform="matrix(1,0,0,1,25.000000000000014,602) translate(56.75521701388889 97.07465277777777)"/><path d="M110 529.5v49.72" stroke="#5e5e5e" stroke-width="2" fill="none"/><path d="M111 529.53h-2v-1.03h2z" fill="#5e5e5e"/><path d="M110 594.48l-4.64-14.26h9.28z" stroke="#5e5e5e" stroke-width="2" fill="#5e5e5e"/><path d="M105.52 811c2.47-2.22 6.5-2.22 8.96 0l81.04 72c2.47 2.22 2.47 5.78 0 8l-81.04 72c-2.47 2.22-6.5 2.22-8.96 0l-81.04-72c-2.47-2.22-2.47-5.78 0-8z" stroke="#5e5e5e" stroke-width="3" fill="#fff"/><use xlink:href="#q" transform="matrix(1,0,0,1,25.000000000000014,812) translate(51.519756944444445 58.11631944444444)"/><use xlink:href="#w" transform="matrix(1,0,0,1,25.000000000000014,812) translate(74.52322916666667 58.11631944444444)"/><use xlink:href="#x" transform="matrix(1,0,0,1,25.000000000000014,812) translate(22.86849826388889 84.15798611111111)"/><use xlink:href="#m" transform="matrix(1,0,0,1,25.000000000000014,812) translate(71.05643229166667 84.15798611111111)"/><use xlink:href="#n" transform="matrix(1,0,0,1,25.000000000000014,812) translate(43.62587673611112 110.19965277777777)"/><path d="M351 881.13l-.92 3.42-2.53 2.53-3.42.92H199.9v-2h143.97l2.64-.7 1.8-1.8.7-2.63V522.5h2zM391.66 231h-35.53l-2.64.7-1.8 1.8-.7 2.63v265.53h-2v-265.8l.92-3.4 2.53-2.54 3.42-.92h35.8zm183.78 0h-154.6v-2h154.6z" fill="#5e5e5e"/><path d="M199.93 888h-1.24l.2-.98-.2-1.02h1.23zM590.7 230l-14.26 4.64v-9.28z" fill="#5e5e5e"/><path d="M593.94 230l-18.5 6v-12zm-16.5 3.26l10.03-3.26-10.03-3.26z" fill="#5e5e5e"/><use xlink:href="#o" transform="matrix(1,0,0,1,335.4123263888889,501.6596339789299) translate(0 16.493055555555557)"/><path d="M111 1040h-2v-17.28h2zm0-38.1h-2v-34.8h2z" fill="#5e5e5e"/><path d="M110.64 966.16l.36-.08v1.05h-2v-1.1zM110 1055.26l-4.64-14.26h9.28z" fill="#5e5e5e"/><path d="M110 1058.5l-6-18.5h12zm-3.26-16.5l3.26 10.03 3.26-10.03z" fill="#5e5e5e"/><use xlink:href="#p" transform="matrix(1,0,0,1,98.69791666666669,1001.887848471052) translate(0 16.493055555555557)"/><path d="M111 789.4h-2v-6.9h2zm0-27.73h-2v-24.4h2z" fill="#5e5e5e"/><path d="M110.94 736.3l.06 1h-2v-1.05zM110 804.65l-4.64-14.26h9.28z" fill="#5e5e5e"/><path d="M110 807.9l-6-18.5h12zm-3.26-16.5L110 801.4l3.26-10.03z" fill="#5e5e5e"/><use xlink:href="#o" transform="matrix(1,0,0,1,95.4123263888889,761.668642794399) translate(0 16.493055555555557)"/><path d="M461 661.13l-.92 3.42-2.53 2.53-3.42.92H199.67v-2h254.2l2.64-.7 1.8-1.8.7-2.63V522.6h2zM575.44 231h-109.3l-2.65.7-1.8 1.8-.7 2.63v265.65h-2v-265.9l.92-3.43 2.53-2.53 3.42-.92h109.57z" fill="#5e5e5e"/><path d="M199.7 668h-1.13l.2-.53-.28-1.47h1.2zM590.7 230l-14.26 4.64v-9.28z" fill="#5e5e5e"/><path d="M593.94 230l-18.5 6v-12zm-16.5 3.26l10.03-3.26-10.03-3.26z" fill="#5e5e5e"/><use xlink:href="#p" transform="matrix(1,0,0,1,448.69791666666674,501.77534460843077) translate(0 16.493055555555557)"/><path d="M1105 153.33c2.76-1.84 7.24-1.84 10 0l110 73.34c2.76 1.84 2.76 4.82 0 6.66l-110 73.34c-2.76 1.84-7.24 1.84-10 0l-110-73.34c-2.76-1.84-2.76-4.82 0-6.66z" stroke="#5e5e5e" stroke-width="3" fill="#fff"/><use xlink:href="#q" transform="matrix(1,0,0,1,995,154.99999999999997) translate(81.47635416666667 58.11631944444444)"/><use xlink:href="#y" transform="matrix(1,0,0,1,995,154.99999999999997) translate(104.47982638888888 58.11631944444444)"/><use xlink:href="#z" transform="matrix(1,0,0,1,995,154.99999999999997) translate(26.799704861111106 84.15798611111111)"/><use xlink:href="#A" transform="matrix(1,0,0,1,995,154.99999999999997) translate(105.77105902777778 84.15798611111111)"/><use xlink:href="#w" transform="matrix(1,0,0,1,995,154.99999999999997) translate(159.24328125 84.15798611111111)"/><use xlink:href="#t" transform="matrix(1,0,0,1,995,154.99999999999997) translate(70.6148090277778 110.19965277777777)"/><path d="M874.5 231h-93.46v-2h93.47zm98.58 0H897.1v-2h75.98z" fill="#5e5e5e"/><path d="M781.06 231h-1.15l.2-.6-.25-1.4h1.2zM988.35 230l-14.27 4.64v-9.28z" fill="#5e5e5e"/><path d="M991.58 230l-18.5 6v-12zm-16.5 3.26L985.1 230l-10.02-3.26z" fill="#5e5e5e"/><g><use xlink:href="#p" transform="matrix(1,0,0,1,874.5076842238734,219.58333333333331) translate(0 16.493055555555557)"/></g><path d="M1111 387.66h-2v-19.4h2zm0-40.25h-2v-36.9h2z" fill="#5e5e5e"/><path d="M1111 309.5v1.02h-2v-1.03zM1110 402.93l-4.64-14.27h9.28z" fill="#5e5e5e"/><path d="M1110 406.17l-6-18.5h12zm-3.26-16.5l3.26 10.02 3.26-10.04z" fill="#5e5e5e"/><g><use xlink:href="#o" transform="matrix(1,0,0,1,1095.412326388889,347.4142041575698) translate(0 16.493055555555557)"/></g><path d="M1566.67 190c17.68 0 32 17.9 32 40s-14.32 40-32 40h-96c-17.67 0-32-17.9-32-40s14.33-40 32-40z" stroke="#5e5e5e" stroke-width="3" fill="#cbdbff"/><g><use xlink:href="#d" transform="matrix(1,0,0,1,1443.6731487439504,194.99999999999997) translate(3.564027777777776 29.366319444444443)"/><use xlink:href="#B" transform="matrix(1,0,0,1,1443.6731487439504,194.99999999999997) translate(79.18251736111111 29.366319444444443)"/><use xlink:href="#C" transform="matrix(1,0,0,1,1443.6731487439504,194.99999999999997) translate(126.73026041666667 29.366319444444443)"/><use xlink:href="#D" transform="matrix(1,0,0,1,1443.6731487439504,194.99999999999997) translate(51.94184895833333 55.40798611111111)"/></g><path d="M1321.5 231h-92.08v-2h92.07zm97.17 0h-74.57v-2h74.57z" fill="#5e5e5e"/><path d="M1229.44 231h-.9l-.24-2h1.14zM1433.94 230l-14.27 4.64v-9.28z" fill="#5e5e5e"/><path d="M1437.17 230l-18.5 6v-12zm-16.5 3.26l10.03-3.26-10.03-3.26z" fill="#5e5e5e"/><g><use xlink:href="#p" transform="matrix(1,0,0,1,1321.4931194767112,219.58333333333331) translate(0 16.493055555555557)"/></g><path d="M1263 407.67c56.33 0 102 20.52 102 45.83 0 25.3-45.67 45.83-102 45.83H957c-56.33 0-102-20.52-102-45.83 0-25.3 45.67-45.83 102-45.83z" stroke="#5e5e5e" stroke-width="3" fill="#cbdbff"/><g><use xlink:href="#E" transform="matrix(1,0,0,1,860,412.66666666666674) translate(13.345928819444461 35.99131944444444)"/><use xlink:href="#F" transform="matrix(1,0,0,1,860,412.66666666666674) translate(101.25825520833334 35.99131944444444)"/><use xlink:href="#G" transform="matrix(1,0,0,1,860,412.66666666666674) translate(178.72136284722222 35.99131944444444)"/><use xlink:href="#H" transform="matrix(1,0,0,1,860,412.66666666666674) translate(208.3329079861111 35.99131944444444)"/><use xlink:href="#I" transform="matrix(1,0,0,1,860,412.66666666666674) translate(328.6020052083333 35.99131944444444)"/><use xlink:href="#J" transform="matrix(1,0,0,1,860,412.66666666666674) translate(388.725703125 35.99131944444444)"/><use xlink:href="#K" transform="matrix(1,0,0,1,860,412.66666666666674) translate(81.56424479166667 62.03298611111111)"/><use xlink:href="#L" transform="matrix(1,0,0,1,860,412.66666666666674) translate(99.15322048611111 62.03298611111111)"/><use xlink:href="#M" transform="matrix(1,0,0,1,860,412.66666666666674) translate(145.38802951388888 62.03298611111111)"/><use xlink:href="#N" transform="matrix(1,0,0,1,860,412.66666666666674) translate(200.3250954861111 62.03298611111111)"/><use xlink:href="#O" transform="matrix(1,0,0,1,860,412.66666666666674) translate(242.7079079861111 62.03298611111111)"/><use xlink:href="#P" transform="matrix(1,0,0,1,860,412.66666666666674) translate(314.3875954861111 62.03298611111111)"/><use xlink:href="#Q" transform="matrix(1,0,0,1,860,412.66666666666674) translate(351.16059895833337 62.03298611111111)"/></g><path d="M759.93 410c25.26 0 45.73 17.9 45.73 40s-20.47 40-45.73 40h-137.2c-25.26 0-45.74-17.9-45.74-40s20.47-40 45.72-40z" stroke="#5e5e5e" stroke-width="3" fill="#cbdbff"/><g><use xlink:href="#d" transform="matrix(1,0,0,1,581.9902768840744,415) translate(42.9034375 29.366319444444443)"/><use xlink:href="#R" transform="matrix(1,0,0,1,581.9902768840744,415) translate(118.52192708333334 29.366319444444443)"/><use xlink:href="#S" transform="matrix(1,0,0,1,581.9902768840744,415) translate(6.450529513888904 55.40798611111111)"/><use xlink:href="#T" transform="matrix(1,0,0,1,581.9902768840744,415) translate(85.72570312500001 55.40798611111111)"/><use xlink:href="#U" transform="matrix(1,0,0,1,581.9902768840744,415) translate(130.07249131944445 55.40798611111111)"/></g><path d="M176 1060c24.3 0 44 19.03 44 42.5s-19.7 42.5-44 42.5H44c-24.3 0-44-19.03-44-42.5s19.7-42.5 44-42.5z" stroke="#5e5e5e" stroke-width="3" fill="#cbdbff"/><g><use xlink:href="#d" transform="matrix(1,0,0,1,5,1065) translate(15.389114583333333 32.33506944444444)"/><use xlink:href="#V" transform="matrix(1,0,0,1,5,1065) translate(91.00760416666667 32.33506944444444)"/><use xlink:href="#w" transform="matrix(1,0,0,1,5,1065) translate(150.65387152777777 32.33506944444444)"/><use xlink:href="#W" transform="matrix(1,0,0,1,5,1065) translate(5.61263888888889 58.37673611111111)"/><use xlink:href="#X" transform="matrix(1,0,0,1,5,1065) translate(58.281909722222224 58.37673611111111)"/><use xlink:href="#N" transform="matrix(1,0,0,1,5,1065) translate(104.42991319444445 58.37673611111111)"/><use xlink:href="#Y" transform="matrix(1,0,0,1,5,1065) translate(146.81272569444445 58.37673611111111)"/></g><defs><path fill="#333" d="M972-643H361V0H169v-1456h902v158H361v498h611v157" id="Z"/><path fill="#333" d="M491 20c-241-1-355-148-355-398v-704h185v699c0 164 67 246 200 246 141 0 235-53 282-158v-787h185V0H812l-4-107C736-22 630 20 491 20" id="aa"/><path fill="#333" d="M341 0H156v-1536h185V0" id="ab"/><g id="a"><use transform="matrix(0.010850694444444444,0,0,0.010850694444444444,0,0)" xlink:href="#Z"/><use transform="matrix(0.010850694444444444,0,0,0.010850694444444444,12.044270833333332,0)" xlink:href="#aa"/><use transform="matrix(0.010850694444444444,0,0,0.010850694444444444,24.294704861111104,0)" xlink:href="#ab"/><use transform="matrix(0.010850694444444444,0,0,0.010850694444444444,29.687499999999993,0)" xlink:href="#ab"/></g><path fill="#333" d="M277-555c0 244 77 420 297 424 127 2 249-93 255-210h175C980-127 805 20 574 20 258 20 81-222 92-562c11-319 164-533 481-540 237-5 426 165 431 392H829c-7-133-115-242-256-240-209 4-296 166-296 395" id="ac"/><path fill="#333" d="M538-131c121 0 232-49 232-156 0-50-20-88-56-117-73-60-334-92-420-143-92-55-162-110-162-238 0-190 192-317 400-317 223 0 414 129 413 338H759c0-108-110-186-227-186-119 0-215 53-215 159 0 45 18 78 53 101 76 52 331 90 416 139 98 57 169 115 169 251C955-92 760 20 538 20c-176 0-314-68-386-174-38-55-57-115-57-179h185c6 129 116 202 258 202" id="ad"/><path fill="#333" d="M456 20C285 20 205-92 206-268v-671H9v-143h197v-262h185v262h202v143H391v671c-9 125 92 149 207 118V0c-49 13-96 20-142 20" id="ae"/><path fill="#333" d="M599-131c141 0 220-65 285-146l113 88C906-50 770 20 589 20 281 21 93-214 93-545c0-223 93-397 233-485 74-48 154-72 240-72 300 2 449 218 445 537v77H278c0 197 129 357 321 357zm227-509c-3-180-88-310-260-310-170 0-264 140-282 310h542" id="af"/><path fill="#333" d="M663-916c-163-27-288 18-338 148V0H140v-1082h180l3 125c61-97 147-145 258-145 36 0 63 5 82 14v172" id="ag"/><g id="b"><use transform="matrix(0.010850694444444444,0,0,0.010850694444444444,0,0)" xlink:href="#ac"/><use transform="matrix(0.010850694444444444,0,0,0.010850694444444444,11.631944444444445,0)" xlink:href="#ab"/><use transform="matrix(0.010850694444444444,0,0,0.010850694444444444,17.024739583333332,0)" xlink:href="#aa"/><use transform="matrix(0.010850694444444444,0,0,0.010850694444444444,29.275173611111104,0)" xlink:href="#ad"/><use transform="matrix(0.010850694444444444,0,0,0.010850694444444444,40.73350694444444,0)" xlink:href="#ae"/><use transform="matrix(0.010850694444444444,0,0,0.010850694444444444,47.99262152777778,0)" xlink:href="#af"/><use transform="matrix(0.010850694444444444,0,0,0.010850694444444444,59.765625,0)" xlink:href="#ag"/></g><path fill="#333" d="M561-1102c238-4 403 126 403 351v498c0 99 13 178 38 237V0H808c-11-21-19-59-26-114C696-25 593 20 474 20c-199 0-368-130-365-320 4-251 214-359 490-356h180v-85c-1-135-86-212-229-212-115 0-232 67-233 171H131c20-205 206-316 430-320zM294-326c0 117 90 185 207 185 122 0 239-75 278-162v-222H634c-227 0-340 66-340 199" id="ah"/><g id="c"><use transform="matrix(0.010850694444444444,0,0,0.010850694444444444,0,0)" xlink:href="#ag"/><use transform="matrix(0.010850694444444444,0,0,0.010850694444444444,7.313368055555555,0)" xlink:href="#af"/><use transform="matrix(0.010850694444444444,0,0,0.010850694444444444,19.08637152777778,0)" xlink:href="#ad"/><use transform="matrix(0.010850694444444444,0,0,0.010850694444444444,30.54470486111111,0)" xlink:href="#ae"/><use transform="matrix(0.010850694444444444,0,0,0.010850694444444444,37.80381944444444,0)" xlink:href="#ah"/><use transform="matrix(0.010850694444444444,0,0,0.010850694444444444,49.89149305555556,0)" xlink:href="#ag"/><use transform="matrix(0.010850694444444444,0,0,0.010850694444444444,57.95355902777778,0)" xlink:href="#ae"/></g><path fill="#333" d="M688-137c238 0 323-102 359-325h193c-32 297-228 482-552 482-361 0-569-299-569-680 0-197 8-360 73-497 88-186 257-317 513-319 316-2 509 195 535 488h-193c-31-212-118-330-342-330-272 0-397 224-393 523v141c-3 282 115 517 376 517" id="ai"/><g id="d"><use transform="matrix(0.010850694444444444,0,0,0.010850694444444444,0,0)" xlink:href="#ai"/><use transform="matrix(0.010850694444444444,0,0,0.010850694444444444,14.463975694444445,0)" xlink:href="#ab"/><use transform="matrix(0.010850694444444444,0,0,0.010850694444444444,19.856770833333332,0)" xlink:href="#aa"/><use transform="matrix(0.010850694444444444,0,0,0.010850694444444444,32.10720486111111,0)" xlink:href="#ad"/><use transform="matrix(0.010850694444444444,0,0,0.010850694444444444,43.56553819444444,0)" xlink:href="#ae"/><use transform="matrix(0.010850694444444444,0,0,0.010850694444444444,50.82465277777778,0)" xlink:href="#af"/><use transform="matrix(0.010850694444444444,0,0,0.010850694444444444,62.59765625,0)" xlink:href="#ag"/></g><path fill="#333" d="M1240-945c-141 0-250 95-250 227V0H804v-709c0-157-77-236-231-236-121 0-204 52-249 155V0H139v-1082h175l5 120c79-93 186-140 321-140 151 0 254 58 309 174 69-98 181-174 345-174 237 0 362 126 362 377V0h-185v-714c-2-159-67-231-231-231" id="aj"/><g id="e"><use transform="matrix(0.010850694444444444,0,0,0.010850694444444444,0,0)" xlink:href="#aj"/><use transform="matrix(0.010850694444444444,0,0,0.010850694444444444,19.47699652777778,0)" xlink:href="#ah"/><use transform="matrix(0.010850694444444444,0,0,0.010850694444444444,31.56467013888889,0)" xlink:href="#ad"/><use transform="matrix(0.010850694444444444,0,0,0.010850694444444444,43.02300347222222,0)" xlink:href="#ae"/><use transform="matrix(0.010850694444444444,0,0,0.010850694444444444,50.28211805555556,0)" xlink:href="#af"/><use transform="matrix(0.010850694444444444,0,0,0.010850694444444444,62.05512152777778,0)" xlink:href="#ag"/></g><path fill="#333" d="M497-251l268-831h189L566 0H425L33-1082h189" id="ak"/><path fill="#333" d="M341 0H156v-1082h185V0zm-91-1264c-68 0-108-42-109-105 0-62 41-107 109-107s110 44 110 107-42 105-110 105" id="al"/><path fill="#333" d="M520 20C244 20 95-247 95-550c0-298 151-550 427-552 127 0 227 43 301 130v-564h185V0H838l-9-116C755-25 652 20 520 20zm48-965c-210 0-288 177-288 416 0 218 87 392 286 392 117 0 203-53 257-158v-497c-55-102-140-153-255-153" id="am"/><g id="f"><use transform="matrix(0.010850694444444444,0,0,0.010850694444444444,0,0)" xlink:href="#ak"/><use transform="matrix(0.010850694444444444,0,0,0.010850694444444444,10.601128472222223,0)" xlink:href="#ah"/><use transform="matrix(0.010850694444444444,0,0,0.010850694444444444,22.688802083333336,0)" xlink:href="#ab"/><use transform="matrix(0.010850694444444444,0,0,0.010850694444444444,28.081597222222225,0)" xlink:href="#al"/><use transform="matrix(0.010850694444444444,0,0,0.010850694444444444,33.474392361111114,0)" xlink:href="#am"/><use transform="matrix(0.010850694444444444,0,0,0.010850694444444444,46.00694444444444,0)" xlink:href="#ah"/><use transform="matrix(0.010850694444444444,0,0,0.010850694444444444,58.09461805555555,0)" xlink:href="#ae"/><use transform="matrix(0.010850694444444444,0,0,0.010850694444444444,65.35373263888889,0)" xlink:href="#af"/><use transform="matrix(0.010850694444444444,0,0,0.010850694444444444,77.12673611111111,0)" xlink:href="#ad"/></g><path fill="#333" d="M589-945c-131 0-219 81-264 174V0H140v-1536h185v585c82-101 189-151 320-151 229 0 346 129 346 387V0H806v-716c-2-153-65-229-217-229" id="an"/><g id="g"><use transform="matrix(0.010850694444444444,0,0,0.010850694444444444,0,0)" xlink:href="#af"/><use transform="matrix(0.010850694444444444,0,0,0.010850694444444444,11.773003472222221,0)" xlink:href="#ah"/><use transform="matrix(0.010850694444444444,0,0,0.010850694444444444,23.860677083333332,0)" xlink:href="#ac"/><use transform="matrix(0.010850694444444444,0,0,0.010850694444444444,35.49262152777778,0)" xlink:href="#an"/></g><path fill="#333" d="M634-1102c292 0 422 254 422 573 0 298-143 547-420 549-137 0-242-48-317-145L310 0H140v-1536h185v573c75-93 178-139 309-139zm-44 965c207 0 281-175 281-413 0-224-79-395-283-395-122 0-210 57-263 170v468c57 113 145 170 265 170" id="ao"/><path fill="#333" d="M253-1536c2 169-14 319-21 479H103l1-479h149" id="ap"/><g id="h"><use transform="matrix(0.010850694444444444,0,0,0.010850694444444444,0,0)" xlink:href="#aj"/><use transform="matrix(0.010850694444444444,0,0,0.010850694444444444,19.47699652777778,0)" xlink:href="#af"/><use transform="matrix(0.010850694444444444,0,0,0.010850694444444444,31.25,0)" xlink:href="#aj"/><use transform="matrix(0.010850694444444444,0,0,0.010850694444444444,50.72699652777778,0)" xlink:href="#ao"/><use transform="matrix(0.010850694444444444,0,0,0.010850694444444444,63.19444444444444,0)" xlink:href="#af"/><use transform="matrix(0.010850694444444444,0,0,0.010850694444444444,74.96744791666666,0)" xlink:href="#ag"/><use transform="matrix(0.010850694444444444,0,0,0.010850694444444444,82.66059027777777,0)" xlink:href="#ap"/><use transform="matrix(0.010850694444444444,0,0,0.010850694444444444,85.66623263888889,0)" xlink:href="#ad"/></g><path fill="#333" d="M632-1102c291 0 422 251 422 573 0 297-141 548-419 549-131 0-235-42-310-125v521H140v-1498h169l9 120c75-93 180-140 314-140zm-53 971c207 0 290-180 290-419 0-218-92-395-292-395-112 0-196 50-252 149v517c55 99 140 148 254 148" id="aq"/><path fill="#333" d="M584 20C278 26 81-227 91-551c10-320 175-545 491-551 308-5 503 247 494 573-9 322-175 543-492 549zm-2-970c-208 0-305 185-305 421 0 216 106 398 307 398 211 0 307-186 307-420 0-214-109-399-309-399" id="ar"/><path fill="#333" d="M589-945c-131 0-219 81-264 174V0H140v-1082h175l6 136c83-104 191-156 324-156 229 0 346 129 346 387V0H806v-716c-2-153-65-229-217-229" id="as"/><g id="i"><use transform="matrix(0.010850694444444444,0,0,0.010850694444444444,0,0)" xlink:href="#aq"/><use transform="matrix(0.010850694444444444,0,0,0.010850694444444444,12.467447916666666,0)" xlink:href="#ah"/><use transform="matrix(0.010850694444444444,0,0,0.010850694444444444,24.55512152777778,0)" xlink:href="#ag"/><use transform="matrix(0.010850694444444444,0,0,0.010850694444444444,32.6171875,0)" xlink:href="#ae"/><use transform="matrix(0.010850694444444444,0,0,0.010850694444444444,39.876302083333336,0)" xlink:href="#al"/><use transform="matrix(0.010850694444444444,0,0,0.010850694444444444,45.26909722222222,0)" xlink:href="#ae"/><use transform="matrix(0.010850694444444444,0,0,0.010850694444444444,52.52821180555556,0)" xlink:href="#al"/><use transform="matrix(0.010850694444444444,0,0,0.010850694444444444,57.92100694444444,0)" xlink:href="#ar"/><use transform="matrix(0.010850694444444444,0,0,0.010850694444444444,70.59461805555556,0)" xlink:href="#as"/></g><g id="j"><use transform="matrix(0.010850694444444444,0,0,0.010850694444444444,0,0)" xlink:href="#ae"/><use transform="matrix(0.010850694444444444,0,0,0.010850694444444444,7.259114583333333,0)" xlink:href="#ah"/><use transform="matrix(0.010850694444444444,0,0,0.010850694444444444,19.346788194444443,0)" xlink:href="#ao"/><use transform="matrix(0.010850694444444444,0,0,0.010850694444444444,31.814236111111104,0)" xlink:href="#ab"/><use transform="matrix(0.010850694444444444,0,0,0.010850694444444444,37.20703124999999,0)" xlink:href="#af"/></g><path fill="#333" d="M375 0H183v-1456h192V0" id="at"/><g id="k"><use transform="matrix(0.010850694444444444,0,0,0.010850694444444444,0,0)" xlink:href="#at"/><use transform="matrix(0.010850694444444444,0,0,0.010850694444444444,6.043836805555555,0)" xlink:href="#ad"/></g><g id="l"><use transform="matrix(0.010850694444444444,0,0,0.010850694444444444,0,0)" xlink:href="#ak"/><use transform="matrix(0.010850694444444444,0,0,0.010850694444444444,10.601128472222223,0)" xlink:href="#ah"/><use transform="matrix(0.010850694444444444,0,0,0.010850694444444444,22.688802083333336,0)" xlink:href="#ab"/><use transform="matrix(0.010850694444444444,0,0,0.010850694444444444,28.081597222222225,0)" xlink:href="#al"/><use transform="matrix(0.010850694444444444,0,0,0.010850694444444444,33.474392361111114,0)" xlink:href="#am"/><use transform="matrix(0.010850694444444444,0,0,0.010850694444444444,46.00694444444444,0)" xlink:href="#ah"/><use transform="matrix(0.010850694444444444,0,0,0.010850694444444444,58.09461805555555,0)" xlink:href="#ae"/><use transform="matrix(0.010850694444444444,0,0,0.010850694444444444,65.35373263888889,0)" xlink:href="#al"/><use transform="matrix(0.010850694444444444,0,0,0.010850694444444444,70.74652777777777,0)" xlink:href="#ar"/><use transform="matrix(0.010850694444444444,0,0,0.010850694444444444,83.42013888888889,0)" xlink:href="#as"/></g><g id="m"><use transform="matrix(0.010850694444444444,0,0,0.010850694444444444,0,0)" xlink:href="#ae"/><use transform="matrix(0.010850694444444444,0,0,0.010850694444444444,7.259114583333333,0)" xlink:href="#al"/><use transform="matrix(0.010850694444444444,0,0,0.010850694444444444,12.651909722222221,0)" xlink:href="#aj"/><use transform="matrix(0.010850694444444444,0,0,0.010850694444444444,32.12890625,0)" xlink:href="#af"/><use transform="matrix(0.010850694444444444,0,0,0.010850694444444444,43.90190972222222,0)" xlink:href="#ar"/><use transform="matrix(0.010850694444444444,0,0,0.010850694444444444,56.57552083333333,0)" xlink:href="#aa"/><use transform="matrix(0.010850694444444444,0,0,0.010850694444444444,68.8259548611111,0)" xlink:href="#ae"/></g><path fill="#333" d="M503-687l240-395h216L605-547 970 0H756L506-405 256 0H41l365-547-354-535h214" id="au"/><path fill="#333" d="M486-1476c244 0 401 141 400 380 0 117-54 232-162 345L615-643c-49 54-73 132-73 233H357c6-184 32-232 129-341 78-87 215-190 215-339 0-139-76-224-215-224-128 0-227 74-226 199H75c0-220 182-361 411-361zM458 11c-68 0-108-41-109-104 0-63 41-106 109-106s110 43 110 106S526 11 458 11" id="av"/><g id="n"><use transform="matrix(0.010850694444444444,0,0,0.010850694444444444,0,0)" xlink:href="#af"/><use transform="matrix(0.010850694444444444,0,0,0.010850694444444444,11.773003472222221,0)" xlink:href="#au"/><use transform="matrix(0.010850694444444444,0,0,0.010850694444444444,22.786458333333332,0)" xlink:href="#aq"/><use transform="matrix(0.010850694444444444,0,0,0.010850694444444444,35.25390625,0)" xlink:href="#al"/><use transform="matrix(0.010850694444444444,0,0,0.010850694444444444,40.646701388888886,0)" xlink:href="#ag"/><use transform="matrix(0.010850694444444444,0,0,0.010850694444444444,47.96006944444444,0)" xlink:href="#af"/><use transform="matrix(0.010850694444444444,0,0,0.010850694444444444,59.733072916666664,0)" xlink:href="#am"/><use transform="matrix(0.010850694444444444,0,0,0.010850694444444444,72.265625,0)" xlink:href="#av"/></g><path fill="#333" d="M632-800l303-656h328L785-528V0H480v-528L2-1456h329" id="aw"/><path fill="#333" d="M1031-175C952-60 797 20 609 20 287 20 60-206 72-543c12-330 180-559 505-559 309 0 482 214 477 537v118H365c15 134 115 234 263 234 111 0 198-40 261-121zM770-644c5-139-62-226-194-224-130 1-191 97-208 224h402" id="ax"/><path fill="#333" d="M529-185c94 0 168-33 168-114 0-35-18-63-53-83s-91-39-168-55C219-491 90-600 90-765c0-208 203-337 432-337 246 0 451 124 453 349H686c-2-91-62-143-165-143-86 0-151 41-153 117 0 32 16 57 46 77 63 43 257 69 335 100 151 60 229 153 229 291C978-13 554 93 282-28 162-81 60-190 56-344h274c5 106 86 159 199 159" id="ay"/><g id="o"><use transform="matrix(0.008680555555555556,0,0,0.008680555555555556,0,0)" xlink:href="#aw"/><use transform="matrix(0.008680555555555556,0,0,0.008680555555555556,10.425347222222223,0)" xlink:href="#ax"/><use transform="matrix(0.008680555555555556,0,0,0.008680555555555556,20.03472222222222,0)" xlink:href="#ay"/></g><path fill="#333" d="M1314 0h-300L430-958V0H130v-1456h300l585 960v-960h299V0" id="az"/><path fill="#333" d="M579 20C257 20 58-214 66-551c8-331 182-551 511-551 324 0 514 231 514 572 0 319-198 550-512 550zm-2-888c-169 0-222 141-222 338 0 181 61 317 224 317 170 0 223-137 223-338 0-178-64-317-225-317" id="aA"/><g id="p"><use transform="matrix(0.008680555555555556,0,0,0.008680555555555556,0,0)" xlink:href="#az"/><use transform="matrix(0.008680555555555556,0,0,0.008680555555555556,12.552083333333334,0)" xlink:href="#aA"/></g><g id="q"><use transform="matrix(0.010850694444444444,0,0,0.010850694444444444,0,0)" xlink:href="#at"/><use transform="matrix(0.010850694444444444,0,0,0.010850694444444444,6.043836805555555,0)" xlink:href="#ad"/></g><g id="r"><use transform="matrix(0.010850694444444444,0,0,0.010850694444444444,0,0)" xlink:href="#aq"/><use transform="matrix(0.010850694444444444,0,0,0.010850694444444444,12.467447916666666,0)" xlink:href="#ah"/><use transform="matrix(0.010850694444444444,0,0,0.010850694444444444,24.55512152777778,0)" xlink:href="#ag"/><use transform="matrix(0.010850694444444444,0,0,0.010850694444444444,32.6171875,0)" xlink:href="#ae"/><use transform="matrix(0.010850694444444444,0,0,0.010850694444444444,39.876302083333336,0)" xlink:href="#al"/><use transform="matrix(0.010850694444444444,0,0,0.010850694444444444,45.26909722222222,0)" xlink:href="#ah"/><use transform="matrix(0.010850694444444444,0,0,0.010850694444444444,57.35677083333333,0)" xlink:href="#ab"/></g><g id="s"><use transform="matrix(0.010850694444444444,0,0,0.010850694444444444,0,0)" xlink:href="#ad"/><use transform="matrix(0.010850694444444444,0,0,0.010850694444444444,11.458333333333332,0)" xlink:href="#ae"/><use transform="matrix(0.010850694444444444,0,0,0.010850694444444444,18.717447916666664,0)" xlink:href="#ah"/><use transform="matrix(0.010850694444444444,0,0,0.010850694444444444,30.805121527777775,0)" xlink:href="#ag"/><use transform="matrix(0.010850694444444444,0,0,0.010850694444444444,38.8671875,0)" xlink:href="#ae"/></g><g id="t"><use transform="matrix(0.010850694444444444,0,0,0.010850694444444444,0,0)" xlink:href="#af"/><use transform="matrix(0.010850694444444444,0,0,0.010850694444444444,11.773003472222221,0)" xlink:href="#as"/><use transform="matrix(0.010850694444444444,0,0,0.010850694444444444,24.034288194444443,0)" xlink:href="#ah"/><use transform="matrix(0.010850694444444444,0,0,0.010850694444444444,36.12196180555556,0)" xlink:href="#ao"/><use transform="matrix(0.010850694444444444,0,0,0.010850694444444444,48.58940972222222,0)" xlink:href="#ab"/><use transform="matrix(0.010850694444444444,0,0,0.010850694444444444,53.98220486111111,0)" xlink:href="#af"/><use transform="matrix(0.010850694444444444,0,0,0.010850694444444444,65.75520833333333,0)" xlink:href="#am"/><use transform="matrix(0.010850694444444444,0,0,0.010850694444444444,78.28776041666666,0)" xlink:href="#av"/></g><g id="u"><use transform="matrix(0.010850694444444444,0,0,0.010850694444444444,0,0)" xlink:href="#ae"/><use transform="matrix(0.010850694444444444,0,0,0.010850694444444444,7.259114583333333,0)" xlink:href="#ah"/><use transform="matrix(0.010850694444444444,0,0,0.010850694444444444,19.346788194444443,0)" xlink:href="#ao"/><use transform="matrix(0.010850694444444444,0,0,0.010850694444444444,31.814236111111104,0)" xlink:href="#ab"/><use transform="matrix(0.010850694444444444,0,0,0.010850694444444444,37.20703124999999,0)" xlink:href="#af"/></g><g id="v"><use transform="matrix(0.010850694444444444,0,0,0.010850694444444444,0,0)" xlink:href="#ak"/><use transform="matrix(0.010850694444444444,0,0,0.010850694444444444,10.601128472222223,0)" xlink:href="#ah"/><use transform="matrix(0.010850694444444444,0,0,0.010850694444444444,22.688802083333336,0)" xlink:href="#ab"/><use transform="matrix(0.010850694444444444,0,0,0.010850694444444444,28.081597222222225,0)" xlink:href="#al"/><use transform="matrix(0.010850694444444444,0,0,0.010850694444444444,33.474392361111114,0)" xlink:href="#am"/><use transform="matrix(0.010850694444444444,0,0,0.010850694444444444,46.00694444444444,0)" xlink:href="#av"/></g><g id="w"><use transform="matrix(0.010850694444444444,0,0,0.010850694444444444,0,0)" xlink:href="#am"/><use transform="matrix(0.010850694444444444,0,0,0.010850694444444444,12.532552083333332,0)" xlink:href="#ah"/><use transform="matrix(0.010850694444444444,0,0,0.010850694444444444,24.620225694444443,0)" xlink:href="#ae"/><use transform="matrix(0.010850694444444444,0,0,0.010850694444444444,31.879340277777775,0)" xlink:href="#ah"/></g><g id="x"><use transform="matrix(0.010850694444444444,0,0,0.010850694444444444,0,0)" xlink:href="#ab"/><use transform="matrix(0.010850694444444444,0,0,0.010850694444444444,5.392795138888888,0)" xlink:href="#ar"/><use transform="matrix(0.010850694444444444,0,0,0.010850694444444444,18.06640625,0)" xlink:href="#ah"/><use transform="matrix(0.010850694444444444,0,0,0.010850694444444444,30.15407986111111,0)" xlink:href="#am"/></g><g id="y"><use transform="matrix(0.010850694444444444,0,0,0.010850694444444444,0,0)" xlink:href="#ah"/><use transform="matrix(0.010850694444444444,0,0,0.010850694444444444,12.08767361111111,0)" xlink:href="#aa"/><use transform="matrix(0.010850694444444444,0,0,0.010850694444444444,24.33810763888889,0)" xlink:href="#ae"/><use transform="matrix(0.010850694444444444,0,0,0.010850694444444444,31.38020833333333,0)" xlink:href="#ar"/></g><g id="z"><use transform="matrix(0.010850694444444444,0,0,0.010850694444444444,0,0)" xlink:href="#ag"/><use transform="matrix(0.010850694444444444,0,0,0.010850694444444444,7.313368055555555,0)" xlink:href="#af"/><use transform="matrix(0.010850694444444444,0,0,0.010850694444444444,19.08637152777778,0)" xlink:href="#aj"/><use transform="matrix(0.010850694444444444,0,0,0.010850694444444444,38.56336805555556,0)" xlink:href="#ar"/><use transform="matrix(0.010850694444444444,0,0,0.010850694444444444,51.07421875,0)" xlink:href="#ak"/><use transform="matrix(0.010850694444444444,0,0,0.010850694444444444,61.69704861111112,0)" xlink:href="#af"/></g><g id="A"><use transform="matrix(0.010850694444444444,0,0,0.010850694444444444,0,0)" xlink:href="#ad"/><use transform="matrix(0.010850694444444444,0,0,0.010850694444444444,11.458333333333332,0)" xlink:href="#ae"/><use transform="matrix(0.010850694444444444,0,0,0.010850694444444444,18.717447916666664,0)" xlink:href="#ah"/><use transform="matrix(0.010850694444444444,0,0,0.010850694444444444,30.805121527777775,0)" xlink:href="#ab"/><use transform="matrix(0.010850694444444444,0,0,0.010850694444444444,36.197916666666664,0)" xlink:href="#af"/></g><path fill="#333" d="M704-1390c-164-38-297 28-288 194v114h231v143H416V0H231v-939H60v-143h171v-111c-12-274 208-416 483-347" id="aB"/><g id="B"><use transform="matrix(0.010850694444444444,0,0,0.010850694444444444,0,0)" xlink:href="#aB"/><use transform="matrix(0.010850694444444444,0,0,0.010850694444444444,7.71484375,0)" xlink:href="#ah"/><use transform="matrix(0.010850694444444444,0,0,0.010850694444444444,19.80251736111111,0)" xlink:href="#al"/><use transform="matrix(0.010850694444444444,0,0,0.010850694444444444,25.1953125,0)" xlink:href="#ab"/><use transform="matrix(0.010850694444444444,0,0,0.010850694444444444,30.58810763888889,0)" xlink:href="#ad"/></g><g id="C"><use transform="matrix(0.010850694444444444,0,0,0.010850694444444444,0,0)" xlink:href="#ae"/><use transform="matrix(0.010850694444444444,0,0,0.010850694444444444,7.042100694444444,0)" xlink:href="#ar"/></g><g id="D"><use transform="matrix(0.010850694444444444,0,0,0.010850694444444444,0,0)" xlink:href="#ad"/><use transform="matrix(0.010850694444444444,0,0,0.010850694444444444,11.458333333333332,0)" xlink:href="#ae"/><use transform="matrix(0.010850694444444444,0,0,0.010850694444444444,18.717447916666664,0)" xlink:href="#ah"/><use transform="matrix(0.010850694444444444,0,0,0.010850694444444444,30.805121527777775,0)" xlink:href="#ag"/><use transform="matrix(0.010850694444444444,0,0,0.010850694444444444,38.8671875,0)" xlink:href="#ae"/></g><path fill="#333" d="M417-1456L893-268l476-1188h249V0h-192c-4-403 4-794 18-1179L966 0H819L342-1176c15 384 23 773 19 1176H169v-1456h248" id="aC"/><g id="E"><use transform="matrix(0.010850694444444444,0,0,0.010850694444444444,0,0)" xlink:href="#aC"/><use transform="matrix(0.010850694444444444,0,0,0.010850694444444444,19.401041666666664,0)" xlink:href="#af"/><use transform="matrix(0.010850694444444444,0,0,0.010850694444444444,31.17404513888889,0)" xlink:href="#aj"/><use transform="matrix(0.010850694444444444,0,0,0.010850694444444444,50.651041666666664,0)" xlink:href="#ao"/><use transform="matrix(0.010850694444444444,0,0,0.010850694444444444,63.11848958333333,0)" xlink:href="#af"/><use transform="matrix(0.010850694444444444,0,0,0.010850694444444444,74.89149305555554,0)" xlink:href="#ag"/></g><g id="F"><use transform="matrix(0.010850694444444444,0,0,0.010850694444444444,0,0)" xlink:href="#am"/><use transform="matrix(0.010850694444444444,0,0,0.010850694444444444,12.532552083333332,0)" xlink:href="#af"/><use transform="matrix(0.010850694444444444,0,0,0.010850694444444444,24.305555555555554,0)" xlink:href="#ab"/><use transform="matrix(0.010850694444444444,0,0,0.010850694444444444,29.698350694444443,0)" xlink:href="#af"/><use transform="matrix(0.010850694444444444,0,0,0.010850694444444444,41.471354166666664,0)" xlink:href="#ae"/><use transform="matrix(0.010850694444444444,0,0,0.010850694444444444,48.73046875,0)" xlink:href="#af"/><use transform="matrix(0.010850694444444444,0,0,0.010850694444444444,60.50347222222222,0)" xlink:href="#ad"/></g><g id="G"><use transform="matrix(0.010850694444444444,0,0,0.010850694444444444,0,0)" xlink:href="#al"/><use transform="matrix(0.010850694444444444,0,0,0.010850694444444444,5.392795138888888,0)" xlink:href="#ae"/><use transform="matrix(0.010850694444444444,0,0,0.010850694444444444,12.651909722222221,0)" xlink:href="#ad"/></g><g id="H"><use transform="matrix(0.010850694444444444,0,0,0.010850694444444444,0,0)" xlink:href="#aq"/><use transform="matrix(0.010850694444444444,0,0,0.010850694444444444,12.467447916666666,0)" xlink:href="#af"/><use transform="matrix(0.010850694444444444,0,0,0.010850694444444444,24.24045138888889,0)" xlink:href="#ag"/><use transform="matrix(0.010850694444444444,0,0,0.010850694444444444,31.75998263888889,0)" xlink:href="#ad"/><use transform="matrix(0.010850694444444444,0,0,0.010850694444444444,43.218315972222214,0)" xlink:href="#al"/><use transform="matrix(0.010850694444444444,0,0,0.010850694444444444,48.6111111111111,0)" xlink:href="#ad"/><use transform="matrix(0.010850694444444444,0,0,0.010850694444444444,60.069444444444436,0)" xlink:href="#ae"/><use transform="matrix(0.010850694444444444,0,0,0.010850694444444444,67.32855902777776,0)" xlink:href="#af"/><use transform="matrix(0.010850694444444444,0,0,0.010850694444444444,79.10156249999997,0)" xlink:href="#as"/><use transform="matrix(0.010850694444444444,0,0,0.010850694444444444,91.3628472222222,0)" xlink:href="#ac"/><use transform="matrix(0.010850694444444444,0,0,0.010850694444444444,102.99479166666664,0)" xlink:href="#af"/></g><path fill="#333" d="M134 290L29 218c97-132 105-239 98-437h181c1 144 5 239-50 347-34 67-74 121-124 162" id="aD"/><g id="I"><use transform="matrix(0.010850694444444444,0,0,0.010850694444444444,0,0)" xlink:href="#ad"/><use transform="matrix(0.010850694444444444,0,0,0.010850694444444444,11.458333333333332,0)" xlink:href="#ae"/><use transform="matrix(0.010850694444444444,0,0,0.010850694444444444,18.500434027777775,0)" xlink:href="#ar"/><use transform="matrix(0.010850694444444444,0,0,0.010850694444444444,31.17404513888889,0)" xlink:href="#ag"/><use transform="matrix(0.010850694444444444,0,0,0.010850694444444444,38.48741319444444,0)" xlink:href="#af"/><use transform="matrix(0.010850694444444444,0,0,0.010850694444444444,50.260416666666664,0)" xlink:href="#aD"/></g><path fill="#333" d="M521 20C240 20 96-239 96-550c0-303 147-552 427-552 132 0 235 47 309 140l9-120h169V-26c4 277-183 454-459 452-165-1-334-81-400-187l96-111c79 98 176 147 291 147 180 1 288-109 286-290v-93C750-23 649 20 521 20zm48-965c-209 0-287 178-287 416 0 217 86 392 285 392 117 0 202-53 257-159v-494c-57-103-142-155-255-155" id="aE"/><g id="J"><use transform="matrix(0.010850694444444444,0,0,0.010850694444444444,0,0)" xlink:href="#aE"/><use transform="matrix(0.010850694444444444,0,0,0.010850694444444444,12.467447916666666,0)" xlink:href="#af"/><use transform="matrix(0.010850694444444444,0,0,0.010850694444444444,24.24045138888889,0)" xlink:href="#as"/><use transform="matrix(0.010850694444444444,0,0,0.010850694444444444,36.50173611111111,0)" xlink:href="#af"/><use transform="matrix(0.010850694444444444,0,0,0.010850694444444444,48.27473958333333,0)" xlink:href="#ag"/><use transform="matrix(0.010850694444444444,0,0,0.010850694444444444,55.36024305555556,0)" xlink:href="#ah"/><use transform="matrix(0.010850694444444444,0,0,0.010850694444444444,67.44791666666666,0)" xlink:href="#ae"/><use transform="matrix(0.010850694444444444,0,0,0.010850694444444444,74.70703124999999,0)" xlink:href="#af"/><use transform="matrix(0.010850694444444444,0,0,0.010850694444444444,86.4800347222222,0)" xlink:href="#ad"/></g><use transform="matrix(0.010850694444444444,0,0,0.010850694444444444,0,0)" xlink:href="#ah" id="K"/><path fill="#333" d="M1098-255l208-827h185L1176 0h-150L763-820 507 0H357L43-1082h184l213 810 252-810h149" id="aF"/><g id="L"><use transform="matrix(0.010850694444444444,0,0,0.010850694444444444,0,0)" xlink:href="#as"/><use transform="matrix(0.010850694444444444,0,0,0.010850694444444444,12.261284722222221,0)" xlink:href="#af"/><use transform="matrix(0.010850694444444444,0,0,0.010850694444444444,24.034288194444443,0)" xlink:href="#aF"/></g><path fill="#333" d="M665-137c214 0 337-121 336-332v-987h193v990c-3 300-218 486-529 486-309 0-526-181-525-484v-992h190v986c-1 210 123 333 335 333" id="aG"/><path fill="#333" d="M1222-777c17 480-206 763-650 777H169v-1456h411c408 9 627 269 642 679zm-190 4c3-312-149-522-447-525H361v1141h202c308 0 473-209 469-531v-85" id="aH"/><g id="M"><use transform="matrix(0.010850694444444444,0,0,0.010850694444444444,0,0)" xlink:href="#aG"/><use transform="matrix(0.010850694444444444,0,0,0.010850694444444444,14.409722222222221,0)" xlink:href="#aG"/><use transform="matrix(0.010850694444444444,0,0,0.010850694444444444,28.819444444444443,0)" xlink:href="#at"/><use transform="matrix(0.010850694444444444,0,0,0.010850694444444444,34.86328125,0)" xlink:href="#aH"/></g><g id="N"><use transform="matrix(0.010850694444444444,0,0,0.010850694444444444,0,0)" xlink:href="#ah"/><use transform="matrix(0.010850694444444444,0,0,0.010850694444444444,12.08767361111111,0)" xlink:href="#as"/><use transform="matrix(0.010850694444444444,0,0,0.010850694444444444,24.348958333333332,0)" xlink:href="#am"/></g><path fill="#333" d="M19 279c92 0 127-48 127-150v-1211h185V125c0 208-94 312-283 312-41 0-78-6-113-18V271c21 5 49 8 84 8zm216-1543c-68 0-107-42-108-105 0-61 42-107 108-107 68 0 110 44 110 107s-42 105-110 105" id="aI"/><g id="O"><use transform="matrix(0.010850694444444444,0,0,0.010850694444444444,0,0)" xlink:href="#ag"/><use transform="matrix(0.010850694444444444,0,0,0.010850694444444444,7.313368055555555,0)" xlink:href="#af"/><use transform="matrix(0.010850694444444444,0,0,0.010850694444444444,19.08637152777778,0)" xlink:href="#aI"/><use transform="matrix(0.010850694444444444,0,0,0.010850694444444444,24.39236111111111,0)" xlink:href="#ar"/><use transform="matrix(0.010850694444444444,0,0,0.010850694444444444,37.06597222222222,0)" xlink:href="#al"/><use transform="matrix(0.010850694444444444,0,0,0.010850694444444444,42.45876736111111,0)" xlink:href="#as"/><use transform="matrix(0.010850694444444444,0,0,0.010850694444444444,54.72005208333333,0)" xlink:href="#ad"/></g><g id="P"><use transform="matrix(0.010850694444444444,0,0,0.010850694444444444,0,0)" xlink:href="#ae"/><use transform="matrix(0.010850694444444444,0,0,0.010850694444444444,7.259114583333333,0)" xlink:href="#an"/><use transform="matrix(0.010850694444444444,0,0,0.010850694444444444,19.498697916666664,0)" xlink:href="#af"/></g><g id="Q"><use transform="matrix(0.010850694444444444,0,0,0.010850694444444444,0,0)" xlink:href="#ac"/><use transform="matrix(0.010850694444444444,0,0,0.010850694444444444,11.631944444444445,0)" xlink:href="#ab"/><use transform="matrix(0.010850694444444444,0,0,0.010850694444444444,17.024739583333332,0)" xlink:href="#aa"/><use transform="matrix(0.010850694444444444,0,0,0.010850694444444444,29.275173611111104,0)" xlink:href="#ad"/><use transform="matrix(0.010850694444444444,0,0,0.010850694444444444,40.73350694444444,0)" xlink:href="#ae"/><use transform="matrix(0.010850694444444444,0,0,0.010850694444444444,47.99262152777778,0)" xlink:href="#af"/><use transform="matrix(0.010850694444444444,0,0,0.010850694444444444,59.765625,0)" xlink:href="#ag"/></g><g id="R"><use transform="matrix(0.010850694444444444,0,0,0.010850694444444444,0,0)" xlink:href="#ad"/><use transform="matrix(0.010850694444444444,0,0,0.010850694444444444,11.458333333333332,0)" xlink:href="#ae"/><use transform="matrix(0.010850694444444444,0,0,0.010850694444444444,18.717447916666664,0)" xlink:href="#ah"/><use transform="matrix(0.010850694444444444,0,0,0.010850694444444444,30.805121527777775,0)" xlink:href="#ag"/><use transform="matrix(0.010850694444444444,0,0,0.010850694444444444,38.8671875,0)" xlink:href="#ae"/><use transform="matrix(0.010850694444444444,0,0,0.010850694444444444,46.12630208333333,0)" xlink:href="#ad"/></g><g id="S"><use transform="matrix(0.010850694444444444,0,0,0.010850694444444444,0,0)" xlink:href="#aF"/><use transform="matrix(0.010850694444444444,0,0,0.010850694444444444,16.69921875,0)" xlink:href="#al"/><use transform="matrix(0.010850694444444444,0,0,0.010850694444444444,22.09201388888889,0)" xlink:href="#ae"/><use transform="matrix(0.010850694444444444,0,0,0.010850694444444444,29.35112847222222,0)" xlink:href="#an"/><use transform="matrix(0.010850694444444444,0,0,0.010850694444444444,41.59071180555556,0)" xlink:href="#ar"/><use transform="matrix(0.010850694444444444,0,0,0.010850694444444444,54.26432291666667,0)" xlink:href="#aa"/><use transform="matrix(0.010850694444444444,0,0,0.010850694444444444,66.51475694444444,0)" xlink:href="#ae"/></g><g id="T"><use transform="matrix(0.010850694444444444,0,0,0.010850694444444444,0,0)" xlink:href="#ae"/><use transform="matrix(0.010850694444444444,0,0,0.010850694444444444,7.259114583333333,0)" xlink:href="#an"/><use transform="matrix(0.010850694444444444,0,0,0.010850694444444444,19.498697916666664,0)" xlink:href="#ah"/><use transform="matrix(0.010850694444444444,0,0,0.010850694444444444,31.586371527777775,0)" xlink:href="#ae"/></g><g id="U"><use transform="matrix(0.010850694444444444,0,0,0.010850694444444444,0,0)" xlink:href="#aj"/><use transform="matrix(0.010850694444444444,0,0,0.010850694444444444,19.47699652777778,0)" xlink:href="#af"/><use transform="matrix(0.010850694444444444,0,0,0.010850694444444444,31.25,0)" xlink:href="#aj"/><use transform="matrix(0.010850694444444444,0,0,0.010850694444444444,50.72699652777778,0)" xlink:href="#ao"/><use transform="matrix(0.010850694444444444,0,0,0.010850694444444444,63.19444444444444,0)" xlink:href="#af"/><use transform="matrix(0.010850694444444444,0,0,0.010850694444444444,74.96744791666666,0)" xlink:href="#ag"/></g><g id="V"><use transform="matrix(0.010850694444444444,0,0,0.010850694444444444,0,0)" xlink:href="#ab"/><use transform="matrix(0.010850694444444444,0,0,0.010850694444444444,5.392795138888888,0)" xlink:href="#ar"/><use transform="matrix(0.010850694444444444,0,0,0.010850694444444444,18.06640625,0)" xlink:href="#ah"/><use transform="matrix(0.010850694444444444,0,0,0.010850694444444444,30.15407986111111,0)" xlink:href="#am"/><use transform="matrix(0.010850694444444444,0,0,0.010850694444444444,42.68663194444444,0)" xlink:href="#ad"/></g><g id="W"><use transform="matrix(0.010850694444444444,0,0,0.010850694444444444,0,0)" xlink:href="#aB"/><use transform="matrix(0.010850694444444444,0,0,0.010850694444444444,7.71484375,0)" xlink:href="#ag"/><use transform="matrix(0.010850694444444444,0,0,0.010850694444444444,15.01736111111111,0)" xlink:href="#ar"/><use transform="matrix(0.010850694444444444,0,0,0.010850694444444444,27.69097222222222,0)" xlink:href="#aj"/></g><path fill="#333" d="M442-501L326-380V0H141v-1536h185v929c135-169 291-317 436-475h225L566-630 1036 0H819" id="aJ"/><g id="X"><use transform="matrix(0.010850694444444444,0,0,0.010850694444444444,0,0)" xlink:href="#am"/><use transform="matrix(0.010850694444444444,0,0,0.010850694444444444,12.532552083333332,0)" xlink:href="#al"/><use transform="matrix(0.010850694444444444,0,0,0.010850694444444444,17.92534722222222,0)" xlink:href="#ad"/><use transform="matrix(0.010850694444444444,0,0,0.010850694444444444,29.383680555555554,0)" xlink:href="#aJ"/></g><g id="Y"><use transform="matrix(0.010850694444444444,0,0,0.010850694444444444,0,0)" xlink:href="#ad"/><use transform="matrix(0.010850694444444444,0,0,0.010850694444444444,11.458333333333332,0)" xlink:href="#ae"/><use transform="matrix(0.010850694444444444,0,0,0.010850694444444444,18.717447916666664,0)" xlink:href="#ah"/><use transform="matrix(0.010850694444444444,0,0,0.010850694444444444,30.805121527777775,0)" xlink:href="#ag"/><use transform="matrix(0.010850694444444444,0,0,0.010850694444444444,38.8671875,0)" xlink:href="#ae"/><use transform="matrix(0.010850694444444444,0,0,0.010850694444444444,46.12630208333333,0)" xlink:href="#ad"/></g></defs></g></svg>