<svg height="1187.5" width="1290" xmlns="http://www.w3.org/2000/svg" xmlns:xlink="http://www.w3.org/1999/xlink"><defs><path id="a" d="m341 0h-185v-1082h185zm-91-1264c-68 0-108-42-109-105 0-62 41-107 109-107s110 44 110 107-42 105-110 105" fill="#333"/><path id="b" d="m589-945c-131 0-219 81-264 174v771h-185v-1082h175l6 136c83-104 191-156 324-156 229 0 346 129 346 387v715h-185v-716c-2-153-65-229-217-229" fill="#333"/><path id="c" d="m521 20c-281 0-425-259-425-570 0-303 147-552 427-552 132 0 235 47 309 140l9-120h169v1056c4 277-183 454-459 452-165-1-334-81-400-187l96-111c79 98 176 147 291 147 180 1 288-109 286-290v-93c-74 85-175 128-303 128zm48-965c-209 0-287 178-287 416 0 217 86 392 285 392 117 0 202-53 257-159v-494c-57-103-142-155-255-155" fill="#333"/><path id="d" d="m341 0h-185v-1536h185z" fill="#333"/><path id="e" d="m599-131c141 0 220-65 285-146l113 88c-91 139-227 209-408 209-308 1-496-234-496-565 0-223 93-397 233-485 74-48 154-72 240-72 300 2 449 218 445 537v77h-733c0 197 129 357 321 357zm227-509c-3-180-88-310-260-310-170 0-264 140-282 310z" fill="#333"/><path id="f" d="m1240-945c-141 0-250 95-250 227v718h-186v-709c0-157-77-236-231-236-121 0-204 52-249 155v790h-185v-1082h175l5 120c79-93 186-140 321-140 151 0 254 58 309 174 69-98 181-174 345-174 237 0 362 126 362 377v725h-185v-714c-2-159-67-231-231-231" fill="#333"/><path id="g" d="m634-1102c292 0 422 254 422 573 0 298-143 547-420 549-137 0-242-48-317-145l-9 125h-170v-1536h185v573c75-93 178-139 309-139zm-44 965c207 0 281-175 281-413 0-224-79-395-283-395-122 0-210 57-263 170v468c57 113 145 170 265 170" fill="#333"/><path id="h" d="m663-916c-163-27-288 18-338 148v768h-185v-1082h180l3 125c61-97 147-145 258-145 36 0 63 5 82 14z" fill="#333"/><path id="i" d="m561-1102c238-4 403 126 403 351v498c0 99 13 178 38 237v16h-194c-11-21-19-59-26-114-86 89-189 134-308 134-199 0-368-130-365-320 4-251 214-359 490-356h180v-85c-1-135-86-212-229-212-115 0-232 67-233 171h-186c20-205 206-316 430-320zm-267 776c0 117 90 185 207 185 122 0 239-75 278-162v-222h-145c-227 0-340 66-340 199" fill="#333"/><path id="j" d="m491 20c-241-1-355-148-355-398v-704h185v699c0 164 67 246 200 246 141 0 235-53 282-158v-787h185v1082h-176l-4-107c-72 85-178 127-317 127" fill="#333"/><path id="k" d="m538-131c121 0 232-49 232-156 0-50-20-88-56-117-73-60-334-92-420-143-92-55-162-110-162-238 0-190 192-317 400-317 223 0 414 129 413 338h-186c0-108-110-186-227-186-119 0-215 53-215 159 0 45 18 78 53 101 76 52 331 90 416 139 98 57 169 115 169 251 0 208-195 320-417 320-176 0-314-68-386-174-38-55-57-115-57-179h185c6 129 116 202 258 202" fill="#333"/><path id="l" d="m456 20c-171 0-251-112-250-288v-671h-197v-143h197v-262h185v262h202v143h-202v671c-9 125 92 149 207 118v150c-49 13-96 20-142 20" fill="#333"/><path id="m" d="m497-251 268-831h189l-388 1082h-141l-392-1082h189" fill="#333"/><path id="n" d="m520 20c-276 0-425-267-425-570 0-298 151-550 427-552 127 0 227 43 301 130v-564h185v1536h-170l-9-116c-74 91-177 136-309 136zm48-965c-210 0-288 177-288 416 0 218 87 392 286 392 117 0 203-53 257-158v-497c-55-102-140-153-255-153" fill="#333"/><path id="o" d="m589-945c-131 0-219 81-264 174v771h-185v-1536h185v585c82-101 189-151 320-151 229 0 346 129 346 387v715h-185v-716c-2-153-65-229-217-229" fill="#333"/><path id="p" d="m632-1102c291 0 422 251 422 573 0 297-141 548-419 549-131 0-235-42-310-125v521h-185v-1498h169l9 120c75-93 180-140 314-140zm-53 971c207 0 290-180 290-419 0-218-92-395-292-395-112 0-196 50-252 149v517c55 99 140 148 254 148" fill="#333"/><path id="q" d="m584 20c-306 6-503-247-493-571 10-320 175-545 491-551 308-5 503 247 494 573-9 322-175 543-492 549zm-2-970c-208 0-305 185-305 421 0 216 106 398 307 398 211 0 307-186 307-420 0-214-109-399-309-399" fill="#333"/><path id="r" d="m375 0h-192v-1456h192z" fill="#333"/><g id="s"><use transform="scale(.01085069)" xlink:href="#r"/><use transform="matrix(.01085069 0 0 .01085069 6.043837 0)" xlink:href="#k"/></g><g id="t"><use transform="scale(.01085069)" xlink:href="#l"/><use transform="matrix(.01085069 0 0 .01085069 7.259115 0)" xlink:href="#a"/><use transform="matrix(.01085069 0 0 .01085069 12.65191 0)" xlink:href="#f"/><use transform="matrix(.01085069 0 0 .01085069 32.128906 0)" xlink:href="#e"/><use transform="matrix(.01085069 0 0 .01085069 43.90191 0)" xlink:href="#q"/><use transform="matrix(.01085069 0 0 .01085069 56.575521 0)" xlink:href="#j"/><use transform="matrix(.01085069 0 0 .01085069 68.825955 0)" xlink:href="#l"/></g><path id="u" d="m486-1476c244 0 401 141 400 380 0 117-54 232-162 345l-109 108c-49 54-73 132-73 233h-185c6-184 32-232 129-341 78-87 215-190 215-339 0-139-76-224-215-224-128 0-227 74-226 199h-185c0-220 182-361 411-361zm-28 1487c-68 0-108-41-109-104 0-63 41-106 109-106s110 43 110 106-42 104-110 104" fill="#333"/><g id="v"><use transform="scale(.01085069)" xlink:href="#e"/><path d="m503-687 240-395h216l-354 535 365 547h-214l-250-405-250 405h-215l365-547-354-535h214" fill="#333" transform="matrix(.01085069 0 0 .01085069 11.773003 0)"/><use transform="matrix(.01085069 0 0 .01085069 22.786458 0)" xlink:href="#p"/><use transform="matrix(.01085069 0 0 .01085069 35.253906 0)" xlink:href="#a"/><use transform="matrix(.01085069 0 0 .01085069 40.646701 0)" xlink:href="#h"/><use transform="matrix(.01085069 0 0 .01085069 47.960069 0)" xlink:href="#e"/><use transform="matrix(.01085069 0 0 .01085069 59.733073 0)" xlink:href="#n"/><use transform="matrix(.01085069 0 0 .01085069 72.265625 0)" xlink:href="#u"/></g><path id="w" d="m632-800 303-656h328l-478 928v528h-305v-528l-478-928h329" fill="#333"/><path id="x" d="m1031-175c-79 115-234 195-422 195-322 0-549-226-537-563 12-330 180-559 505-559 309 0 482 214 477 537v118h-689c15 134 115 234 263 234 111 0 198-40 261-121zm-261-469c5-139-62-226-194-224-130 1-191 97-208 224z" fill="#333"/><path id="y" d="m529-185c94 0 168-33 168-114 0-35-18-63-53-83s-91-39-168-55c-257-54-386-163-386-328 0-208 203-337 432-337 246 0 451 124 453 349h-289c-2-91-62-143-165-143-86 0-151 41-153 117 0 32 16 57 46 77 63 43 257 69 335 100 151 60 229 153 229 291 0 298-424 404-696 283-120-53-222-162-226-316h274c5 106 86 159 199 159" fill="#333"/><g id="z"><use transform="scale(.00868056)" xlink:href="#w"/><use transform="matrix(.00868056 0 0 .00868056 10.425347 0)" xlink:href="#x"/><use transform="matrix(.00868056 0 0 .00868056 20.034722 0)" xlink:href="#y"/></g><path id="A" d="m1314 0h-300l-584-958v958h-300v-1456h300l585 960v-960h299z" fill="#333"/><path id="B" d="m579 20c-322 0-521-234-513-571 8-331 182-551 511-551 324 0 514 231 514 572 0 319-198 550-512 550zm-2-888c-169 0-222 141-222 338 0 181 61 317 224 317 170 0 223-137 223-338 0-178-64-317-225-317" fill="#333"/><g id="C"><use transform="scale(.00868056)" xlink:href="#A"/><use transform="matrix(.00868056 0 0 .00868056 12.552083 0)" xlink:href="#B"/></g><g id="D"><use transform="scale(.01085069)" xlink:href="#r"/><use transform="matrix(.01085069 0 0 .01085069 6.043837 0)" xlink:href="#k"/></g><g id="E"><use transform="scale(.01085069)" xlink:href="#n"/><use transform="matrix(.01085069 0 0 .01085069 12.532552 0)" xlink:href="#i"/><use transform="matrix(.01085069 0 0 .01085069 24.620226 0)" xlink:href="#l"/><use transform="matrix(.01085069 0 0 .01085069 31.87934 0)" xlink:href="#i"/></g><g id="F"><use transform="scale(.00868056)" xlink:href="#w"/><use transform="matrix(.00868056 0 0 .00868056 10.425347 0)" xlink:href="#x"/><use transform="matrix(.00868056 0 0 .00868056 20.034722 0)" xlink:href="#y"/></g><path id="G" d="m100-194c63 0 86 42 84 106h-135c0 40 14 67 53 68 26 1 43-12 49-29l28 8c-11 28-37 45-77 45-58 0-88-37-87-100 1-61 26-98 85-98zm52 81c6-60-76-77-97-28-3 7-6 17-6 28z" fill="#333"/><path id="H" d="m210-169c-67 3-38 105-44 169h-31v-121c0-29-5-50-35-48-66 4-38 104-44 169h-31l-1-190h30c1 10-1 24 2 32 10-44 99-50 107 0 11-21 27-35 58-36 85-2 47 119 55 194h-31v-121c0-29-5-49-35-48" fill="#333"/><path id="I" d="m114-163c-78-16-53 91-57 163h-32l-1-190h30c1 12-1 29 2 39 6-27 23-49 58-41z" fill="#333"/><g id="J"><path d="m240 0 2-218c-23 76-54 145-80 218h-23l-81-218 1 218h-29v-248h44l77 211c21-75 51-140 76-211h43v248z" fill="#333" transform="scale(.0617284)"/><use transform="matrix(.0617284 0 0 .0617284 18.45679 0)" xlink:href="#G"/><use transform="matrix(.0617284 0 0 .0617284 30.802469 0)" xlink:href="#H"/><path d="m115-194c53 0 69 39 70 98 0 66-23 100-70 100-31-1-49-11-59-34l-2 30h-31l1-261h32v101c10-23 28-34 59-34zm-8 174c40 0 45-34 45-75 0-40-5-75-45-74-42 0-51 32-51 76 0 43 10 73 51 73" fill="#333" transform="matrix(.0617284 0 0 .0617284 49.259259 0)"/><use transform="matrix(.0617284 0 0 .0617284 61.604938 0)" xlink:href="#G"/><use transform="matrix(.0617284 0 0 .0617284 73.950617 0)" xlink:href="#I"/></g><path id="K" d="m101-234c-31-9-42 10-38 44h38v23h-38v167h-31v-167h-27v-23h27c-7-52 17-82 69-68z" fill="#333"/><path id="L" d="m141-36c-15 21-31 41-68 40-36-1-58-21-58-57-1-64 63-63 125-63 3-35-9-54-41-54-24 1-41 7-42 31l-33-3c5-37 33-52 76-52 45 0 72 20 72 64v82c-1 20 7 32 28 27v20c-31 9-61-2-59-35zm-93-17c0 20 12 33 32 33 41-3 63-29 60-74-43 2-92-5-92 41" fill="#333"/><path id="M" d="m24-231v-30h32v30zm0 231v-190h32v190z" fill="#333"/><path id="N" d="m24 0v-261h32v261z" fill="#333"/><path id="O" d="m135-143c-3-34-86-38-87 0 15 53 115 12 119 90s-150 74-157 8l28-5c4 36 97 45 98 0-10-56-113-15-118-90-4-57 82-63 122-42 12 7 21 19 24 35" fill="#333"/><path id="P" d="m59-47c-2 24 18 29 38 22v24c-33 10-70 5-70-39v-127h-22v-23h24l9-43h21v43h35v23h-35z" fill="#333"/><path id="Q" d="m100-194c62-1 85 37 85 99 1 63-27 99-86 99s-83-39-84-99c0-66 28-99 85-99zm-1 174c44 1 53-31 53-75 0-43-8-75-51-75s-53 32-53 75 10 74 51 75" fill="#333"/><path id="R" d="m24-231v-30h32v30zm-33 280c24 4 33-6 33-30v-209h32v214c2 40-23 58-65 49z" fill="#333"/><path id="S" d="m117-194c89-4 53 116 60 194h-32v-121c0-31-8-49-39-48-72 2-44 102-49 169h-32l-1-190h30c1 10-1 24 2 32 11-22 29-35 61-36" fill="#333"/><path id="T" d="m106-169c-72 0-44 102-49 169h-32v-261h32l-1 103c12-21 28-36 61-36 89 0 53 116 60 194h-32v-121c2-32-8-49-39-48" fill="#333"/><g id="U"><path d="m96-169c-40 0-48 33-48 73s9 75 48 75c24 0 41-14 43-38l32 2c-6 37-31 61-74 61-59 0-76-41-82-99-10-93 101-131 147-64 4 7 5 14 7 22l-32 3c-4-21-16-35-41-35" fill="#333" transform="scale(.0617284)"/><use transform="matrix(.0617284 0 0 .0617284 11.111111 0)" xlink:href="#N"/><path d="m84 4c-89 4-54-116-61-194h32v120c0 31 7 50 39 49 72-2 45-101 50-169h31l1 190h-30c-1-10 1-25-2-33-11 22-28 36-60 37" fill="#333" transform="matrix(.0617284 0 0 .0617284 15.987654 0)"/><use transform="matrix(.0617284 0 0 .0617284 28.333333 0)" xlink:href="#O"/><use transform="matrix(.0617284 0 0 .0617284 39.444444 0)" xlink:href="#P"/><use transform="matrix(.0617284 0 0 .0617284 45.617284 0)" xlink:href="#G"/><use transform="matrix(.0617284 0 0 .0617284 57.962963 0)" xlink:href="#I"/></g><path id="V" d="m277-555c0 244 77 420 297 424 127 2 249-93 255-210h175c-24 214-199 361-430 361-316 0-493-242-482-582 11-319 164-533 481-540 237-5 426 165 431 392h-175c-7-133-115-242-256-240-209 4-296 166-296 395" fill="#333"/><use id="W" transform="scale(.01085069)" xlink:href="#i"/><path id="X" d="m665-137c214 0 337-121 336-332v-987h193v990c-3 300-218 486-529 486-309 0-526-181-525-484v-992h190v986c-1 210 123 333 335 333" fill="#333"/><path id="Y" d="m85-194c31 0 48 13 60 33l-1-100h32l1 261h-30c-2-10 0-23-3-31-10 23-28 35-59 35-53 0-69-39-70-98 0-66 23-100 70-100zm9 24c-40 0-46 34-46 75 0 40 6 74 45 74 42 0 51-32 51-76 0-42-9-74-50-73" fill="#333"/></defs><g transform="translate(20 1260)"><path d="m0-1258.83h1870.87v1322.83h-1870.87z" fill="#fff"/><path d="m158-1240c17.67 0 32 17.9 32 40s-14.33 40-32 40h-96c-17.67 0-32-17.9-32-40s14.33-40 32-40z" fill="#c7e8ac" stroke="#5e5e5e" stroke-width="3"/><g transform="translate(35.455729 -1202.373681)"><path d="m631-137c179 0 314-70 314-231 0-71-25-127-75-166s-141-77-272-115c-165-47-285-106-360-175s-112-154-112-255c0-245 231-397 495-397 206 0 369 89 449 218 43 68 65 142 65 223h-193c0-184-129-283-321-283-172 0-299 76-301 236 0 59 26 109 76 150s135 78 256 113c205 59 345 116 436 256 35 53 50 119 50 193-2 256-231 398-507 390-298-8-541-149-551-442h193c0 187 160 285 358 285" fill="#333" transform="scale(.01085069)"/><use transform="matrix(.01085069 0 0 .01085069 13.183594 0)" xlink:href="#a"/><use transform="matrix(.01085069 0 0 .01085069 18.576389 0)" xlink:href="#b"/><use transform="matrix(.01085069 0 0 .01085069 30.837674 0)" xlink:href="#c"/><use transform="matrix(.01085069 0 0 .01085069 43.305122 0)" xlink:href="#d"/><use transform="matrix(.01085069 0 0 .01085069 48.697917 0)" xlink:href="#e"/><path d="m525-543h-488v-151h488z" fill="#333" transform="matrix(.01085069 0 0 .01085069 60.47092 0)"/><use transform="matrix(.01085069 0 0 .01085069 66.601563 0)" xlink:href="#f"/><use transform="matrix(.01085069 0 0 .01085069 86.078559 0)" xlink:href="#e"/><use transform="matrix(.01085069 0 0 .01085069 97.851563 0)" xlink:href="#f"/><use transform="matrix(.01085069 0 0 .01085069 117.328559 0)" xlink:href="#g"/><use transform="matrix(.01085069 0 0 .01085069 129.796007 0)" xlink:href="#e"/><use transform="matrix(.01085069 0 0 .01085069 141.56901 0)" xlink:href="#h"/></g><g transform="translate(79.042543 -1176.332014)"><path d="m704-1390c-164-38-297 28-288 194v114h231v143h-231v939h-185v-939h-171v-143h171v-111c-12-274 208-416 483-347" fill="#333" transform="scale(.01085069)"/><use transform="matrix(.01085069 0 0 .01085069 7.714844 0)" xlink:href="#i"/><use transform="matrix(.01085069 0 0 .01085069 19.802517 0)" xlink:href="#a"/><use transform="matrix(.01085069 0 0 .01085069 25.195313 0)" xlink:href="#d"/><use transform="matrix(.01085069 0 0 .01085069 30.588108 0)" xlink:href="#j"/><use transform="matrix(.01085069 0 0 .01085069 42.838542 0)" xlink:href="#h"/><use transform="matrix(.01085069 0 0 .01085069 50.15191 0)" xlink:href="#e"/></g><path d="m10-854c0-3.3 2.7-6 6-6h188c3.3 0 6 2.7 6 6v135c0 3.3-2.7 6-6 6h-188c-3.3 0-6-2.7-6-6z" fill="#fff" stroke="#5e5e5e" stroke-width="3"/><g transform="translate(37.403429 -819.696181)"><path d="m688-137c238 0 323-102 359-325h193c-32 297-228 482-552 482-361 0-569-299-569-680 0-197 8-360 73-497 88-186 257-317 513-319 316-2 509 195 535 488h-193c-31-212-118-330-342-330-272 0-397 224-393 523v141c-3 282 115 517 376 517" fill="#333" transform="scale(.01085069)"/><use transform="matrix(.01085069 0 0 .01085069 14.463976 0)" xlink:href="#d"/><use transform="matrix(.01085069 0 0 .01085069 19.856771 0)" xlink:href="#j"/><use transform="matrix(.01085069 0 0 .01085069 32.107205 0)" xlink:href="#k"/><use transform="matrix(.01085069 0 0 .01085069 43.565538 0)" xlink:href="#l"/><use transform="matrix(.01085069 0 0 .01085069 50.824653 0)" xlink:href="#e"/><use transform="matrix(.01085069 0 0 .01085069 62.597656 0)" xlink:href="#h"/></g><g transform="translate(113.021918 -819.696181)"><use transform="scale(.01085069)" xlink:href="#f"/><use transform="matrix(.01085069 0 0 .01085069 19.476997 0)" xlink:href="#i"/><use transform="matrix(.01085069 0 0 .01085069 31.56467 0)" xlink:href="#k"/><use transform="matrix(.01085069 0 0 .01085069 43.023003 0)" xlink:href="#l"/><use transform="matrix(.01085069 0 0 .01085069 50.282118 0)" xlink:href="#e"/><use transform="matrix(.01085069 0 0 .01085069 62.055122 0)" xlink:href="#h"/></g><g transform="translate(47.320964 -793.654514)"><use transform="scale(.01085069)" xlink:href="#m"/><use transform="matrix(.01085069 0 0 .01085069 10.601128 0)" xlink:href="#i"/><use transform="matrix(.01085069 0 0 .01085069 22.688802 0)" xlink:href="#d"/><use transform="matrix(.01085069 0 0 .01085069 28.081597 0)" xlink:href="#a"/><use transform="matrix(.01085069 0 0 .01085069 33.474392 0)" xlink:href="#n"/><use transform="matrix(.01085069 0 0 .01085069 46.006944 0)" xlink:href="#i"/><use transform="matrix(.01085069 0 0 .01085069 58.094618 0)" xlink:href="#l"/><use transform="matrix(.01085069 0 0 .01085069 65.353733 0)" xlink:href="#e"/><use transform="matrix(.01085069 0 0 .01085069 77.126736 0)" xlink:href="#k"/></g><g transform="translate(141.407335 -793.654514)"><use transform="scale(.01085069)" xlink:href="#l"/><use transform="matrix(.01085069 0 0 .01085069 7.259115 0)" xlink:href="#o"/><use transform="matrix(.01085069 0 0 .01085069 19.498698 0)" xlink:href="#e"/></g><g transform="translate(61.437717 -767.612847)"><use transform="scale(.01085069)" xlink:href="#f"/><use transform="matrix(.01085069 0 0 .01085069 19.476997 0)" xlink:href="#e"/><use transform="matrix(.01085069 0 0 .01085069 31.25 0)" xlink:href="#f"/><use transform="matrix(.01085069 0 0 .01085069 50.726997 0)" xlink:href="#g"/><use transform="matrix(.01085069 0 0 .01085069 63.194444 0)" xlink:href="#e"/><use transform="matrix(.01085069 0 0 .01085069 74.967448 0)" xlink:href="#h"/><path d="m253-1536c2 169-14 319-21 479h-129l1-479z" fill="#333" transform="matrix(.01085069 0 0 .01085069 82.66059 0)"/><use transform="matrix(.01085069 0 0 .01085069 85.666233 0)" xlink:href="#k"/></g><g transform="translate(41.33138 -741.571181)"><use transform="scale(.01085069)" xlink:href="#p"/><use transform="matrix(.01085069 0 0 .01085069 12.467448 0)" xlink:href="#i"/><use transform="matrix(.01085069 0 0 .01085069 24.555122 0)" xlink:href="#h"/><use transform="matrix(.01085069 0 0 .01085069 32.617188 0)" xlink:href="#l"/><use transform="matrix(.01085069 0 0 .01085069 39.876302 0)" xlink:href="#a"/><use transform="matrix(.01085069 0 0 .01085069 45.269097 0)" xlink:href="#l"/><use transform="matrix(.01085069 0 0 .01085069 52.528212 0)" xlink:href="#a"/><use transform="matrix(.01085069 0 0 .01085069 57.921007 0)" xlink:href="#q"/><use transform="matrix(.01085069 0 0 .01085069 70.594618 0)" xlink:href="#b"/></g><g transform="translate(129.688585 -741.571181)"><use transform="scale(.01085069)" xlink:href="#l"/><use transform="matrix(.01085069 0 0 .01085069 7.259115 0)" xlink:href="#i"/><use transform="matrix(.01085069 0 0 .01085069 19.346788 0)" xlink:href="#g"/><use transform="matrix(.01085069 0 0 .01085069 31.814236 0)" xlink:href="#d"/><use transform="matrix(.01085069 0 0 .01085069 37.207031 0)" xlink:href="#e"/></g><path d="m105.15-1086.47c2.68-1.95 7.02-1.95 9.7 0l100.3 72.94c2.68 1.95 2.68 5.1 0 7.06l-100.3 72.94c-2.68 1.95-7.02 1.95-9.7 0l-100.3-72.94c-2.68-1.95-2.68-5.1 0-7.06z" fill="#fff" stroke="#5e5e5e" stroke-width="3"/><use transform="translate(101.253915 -1026.883681)" xlink:href="#s"/><g transform="translate(21.371102 -1000.842014)"><use transform="scale(.01085069)" xlink:href="#m"/><use transform="matrix(.01085069 0 0 .01085069 10.601128 0)" xlink:href="#i"/><use transform="matrix(.01085069 0 0 .01085069 22.688802 0)" xlink:href="#d"/><use transform="matrix(.01085069 0 0 .01085069 28.081597 0)" xlink:href="#a"/><use transform="matrix(.01085069 0 0 .01085069 33.474392 0)" xlink:href="#n"/><use transform="matrix(.01085069 0 0 .01085069 46.006944 0)" xlink:href="#i"/><use transform="matrix(.01085069 0 0 .01085069 58.094618 0)" xlink:href="#l"/><use transform="matrix(.01085069 0 0 .01085069 65.353733 0)" xlink:href="#a"/><use transform="matrix(.01085069 0 0 .01085069 70.746528 0)" xlink:href="#q"/><use transform="matrix(.01085069 0 0 .01085069 83.420139 0)" xlink:href="#b"/></g><use transform="translate(122.553828 -1000.842014)" xlink:href="#t"/><use transform="translate(68.625877 -974.800347)" xlink:href="#v"/><g fill="#5e5e5e"><path d="m272.7-1009h-53.14v-2h53.13zm425.38 0h-396.22v-2h396.22z"/><path d="m219.58-1009h-1.03l.12-.28-.27-1.72h1.18zm493.77-1-14.27 4.64v-9.28z"/><path d="m716.58-1010-18.5 6v-12zm-16.5 3.26 10.03-3.26-10.02-3.26z"/></g><use transform="translate(272.688936 -1003.923611)" xlink:href="#z"/><path d="m111-880h-2v-5.65h2zm0-26.48h-2v-23.15h2z" fill="#5e5e5e"/><path d="m111-930.6v1h-2v-1.04zm-1 65.86-4.64-14.26h9.28z" fill="#5e5e5e"/><path d="m110-861.5-6-18.5h12zm-3.26-16.5 3.26 10.03 3.26-10.03z" fill="#5e5e5e"/><use transform="translate(98.697917 -889.987506)" xlink:href="#C"/><path d="m110-1157.5v49.63" fill="none" stroke="#5e5e5e" stroke-width="2"/><path d="m111-1157.47h-2v-1.03h2z" fill="#5e5e5e"/><path d="m110-1092.6-4.64-14.27h9.28z" fill="#5e5e5e" stroke="#5e5e5e" stroke-width="2"/><path d="m105.26-639.32c2.62-2.03 6.86-2.03 9.48 0l80.52 62.64c2.62 2.03 2.62 5.33 0 7.36l-80.52 62.64c-2.62 2.03-6.86 2.03-9.48 0l-80.52-62.64c-2.62-2.03-2.62-5.33 0-7.36z" fill="#fff" stroke="#5e5e5e" stroke-width="3"/><use transform="translate(101.253915 -593.008681)" xlink:href="#s"/><g transform="translate(41.33638 -566.967014)"><use transform="scale(.01085069)" xlink:href="#p"/><use transform="matrix(.01085069 0 0 .01085069 12.467448 0)" xlink:href="#i"/><use transform="matrix(.01085069 0 0 .01085069 24.555122 0)" xlink:href="#h"/><use transform="matrix(.01085069 0 0 .01085069 32.617188 0)" xlink:href="#l"/><use transform="matrix(.01085069 0 0 .01085069 39.876302 0)" xlink:href="#a"/><use transform="matrix(.01085069 0 0 .01085069 45.269097 0)" xlink:href="#l"/><use transform="matrix(.01085069 0 0 .01085069 52.528212 0)" xlink:href="#a"/><use transform="matrix(.01085069 0 0 .01085069 57.921007 0)" xlink:href="#q"/><use transform="matrix(.01085069 0 0 .01085069 70.594618 0)" xlink:href="#b"/></g><g transform="translate(129.693585 -566.967014)"><use transform="scale(.01085069)" xlink:href="#l"/><use transform="matrix(.01085069 0 0 .01085069 7.259115 0)" xlink:href="#i"/><use transform="matrix(.01085069 0 0 .01085069 19.346788 0)" xlink:href="#g"/><use transform="matrix(.01085069 0 0 .01085069 31.814236 0)" xlink:href="#d"/><use transform="matrix(.01085069 0 0 .01085069 37.207031 0)" xlink:href="#e"/></g><g transform="translate(81.755217 -540.925347)"><use transform="scale(.01085069)" xlink:href="#m"/><use transform="matrix(.01085069 0 0 .01085069 10.601128 0)" xlink:href="#i"/><use transform="matrix(.01085069 0 0 .01085069 22.688802 0)" xlink:href="#d"/><use transform="matrix(.01085069 0 0 .01085069 28.081597 0)" xlink:href="#a"/><use transform="matrix(.01085069 0 0 .01085069 33.474392 0)" xlink:href="#n"/><use transform="matrix(.01085069 0 0 .01085069 46.006944 0)" xlink:href="#u"/></g><path d="m110-710.5v49.72" fill="none" stroke="#5e5e5e" stroke-width="2"/><path d="m111-710.47h-2v-1.03h2z" fill="#5e5e5e"/><path d="m110-645.52-4.64-14.26h9.28z" fill="#5e5e5e" stroke="#5e5e5e" stroke-width="2"/><path d="m105.52-429c2.47-2.22 6.5-2.22 8.96 0l81.04 72c2.47 2.22 2.47 5.78 0 8l-81.04 72c-2.47 2.22-6.5 2.22-8.96 0l-81.04-72c-2.47-2.22-2.47-5.78 0-8z" fill="#fff" stroke="#5e5e5e" stroke-width="3"/><use transform="translate(76.519757 -369.883681)" xlink:href="#D"/><use transform="translate(99.523229 -369.883681)" xlink:href="#E"/><g transform="translate(47.868498 -343.842014)"><use transform="scale(.01085069)" xlink:href="#d"/><use transform="matrix(.01085069 0 0 .01085069 5.392795 0)" xlink:href="#q"/><use transform="matrix(.01085069 0 0 .01085069 18.066406 0)" xlink:href="#i"/><use transform="matrix(.01085069 0 0 .01085069 30.15408 0)" xlink:href="#n"/></g><use transform="translate(96.056432 -343.842014)" xlink:href="#t"/><use transform="translate(68.625877 -317.800347)" xlink:href="#v"/><path d="m461-358.87-.92 3.42-2.53 2.53-3.42.92h-254.23v-2h253.97l2.64-.7 1.8-1.8.7-2.63v-415.47h2zm237.08-650.13h-231.95l-2.64.7-1.8 1.8-.7 2.63v208.44h-2v-208.7l.92-3.42 2.53-2.53 3.42-.92h232.2z" fill="#5e5e5e"/><path d="m199.93-352h-1.24l.2-.98-.2-1.02h1.23zm513.42-658-14.27 4.64v-9.28z" fill="#5e5e5e"/><path d="m716.58-1010-18.5 6v-12zm-16.5 3.26 10.03-3.26-10.02-3.26z" fill="#5e5e5e"/><use transform="translate(445.412326 -778.938395)" xlink:href="#z"/><path d="m111-202.5h-2v-16.03h2zm0-36.86h-2v-33.53h2z" fill="#5e5e5e"/><path d="m110.64-273.84.36-.08v1.05h-2v-1.1zm-.64 86.6-4.64-14.26h9.28z" fill="#5e5e5e"/><path d="m110-184-6-18.5h12zm-3.26-16.5 3.26 10.03 3.26-10.03z" fill="#5e5e5e"/><use transform="translate(98.697917 -222.869096)" xlink:href="#C"/><path d="m111-450.6h-2v-6.9h2zm0-27.73h-2v-24.4h2z" fill="#5e5e5e"/><path d="m110.94-503.7.06 1h-2v-1.05zm-.94 68.35-4.64-14.26h9.28z" fill="#5e5e5e"/><path d="m110-432.1-6-18.5h12zm-3.26-16.5 3.26 10 3.26-10.03z" fill="#5e5e5e"/><use transform="translate(95.412326 -461.838302)" xlink:href="#F"/><path d="m331-578.87-.92 3.42-2.53 2.53-3.42.92h-124.46v-2h124.2l2.64-.7 1.8-1.8.7-2.63v-195.47h2zm390.32-397-.92 3.42-2.53 2.53-3.4.92h-378.35l-2.64.7-1.8 1.8-.7 2.63v168.44h-2v-168.7l.92-3.42 2.53-2.53 3.42-.92h378.35l2.63-.7 1.78-1.8.72-2.63v-10.02h2z" fill="#5e5e5e"/><path d="m199.7-572h-1.13l.2-.53-.28-1.47h1.2zm525.26-415.15h-9.27l4.62-14.26z" fill="#5e5e5e"/><path d="m726.33-986.15h-12.03l6.02-18.5zm-9.27-2h6.52l-3.26-10.03z" fill="#5e5e5e"/><g transform="translate(318.697917 -778.938395)"><use transform="scale(.00868056)" xlink:href="#A"/><use transform="matrix(.00868056 0 0 .00868056 12.552083 0)" xlink:href="#B"/></g><path d="m830-1086.67c2.76-1.84 7.24-1.84 10 0l110 73.34c2.76 1.84 2.76 4.82 0 6.66l-110 73.34c-2.76 1.84-7.24 1.84-10 0l-110-73.34c-2.76-1.84-2.76-4.82 0-6.66z" fill="#fff" stroke="#5e5e5e" stroke-width="3"/><use transform="translate(801.476354 -1026.883681)" xlink:href="#D"/><g transform="translate(824.479826 -1026.883681)"><use transform="scale(.01085069)" xlink:href="#i"/><use transform="matrix(.01085069 0 0 .01085069 12.087674 0)" xlink:href="#j"/><use transform="matrix(.01085069 0 0 .01085069 24.338108 0)" xlink:href="#l"/><use transform="matrix(.01085069 0 0 .01085069 31.380208 0)" xlink:href="#q"/></g><g transform="translate(746.799705 -1000.842014)"><use transform="scale(.01085069)" xlink:href="#h"/><use transform="matrix(.01085069 0 0 .01085069 7.313368 0)" xlink:href="#e"/><use transform="matrix(.01085069 0 0 .01085069 19.086372 0)" xlink:href="#f"/><use transform="matrix(.01085069 0 0 .01085069 38.563368 0)" xlink:href="#q"/><use transform="matrix(.01085069 0 0 .01085069 51.074219 0)" xlink:href="#m"/><use transform="matrix(.01085069 0 0 .01085069 61.697049 0)" xlink:href="#e"/></g><g transform="translate(825.771059 -1000.842014)"><use transform="scale(.01085069)" xlink:href="#k"/><use transform="matrix(.01085069 0 0 .01085069 11.458333 0)" xlink:href="#l"/><use transform="matrix(.01085069 0 0 .01085069 18.717448 0)" xlink:href="#i"/><use transform="matrix(.01085069 0 0 .01085069 30.805122 0)" xlink:href="#d"/><use transform="matrix(.01085069 0 0 .01085069 36.197917 0)" xlink:href="#e"/></g><use transform="translate(879.243281 -1000.842014)" xlink:href="#E"/><g transform="translate(790.614809 -974.800347)"><use transform="scale(.01085069)" xlink:href="#e"/><use transform="matrix(.01085069 0 0 .01085069 11.773003 0)" xlink:href="#b"/><use transform="matrix(.01085069 0 0 .01085069 24.034288 0)" xlink:href="#i"/><use transform="matrix(.01085069 0 0 .01085069 36.121962 0)" xlink:href="#g"/><use transform="matrix(.01085069 0 0 .01085069 48.58941 0)" xlink:href="#d"/><use transform="matrix(.01085069 0 0 .01085069 53.982205 0)" xlink:href="#e"/><use transform="matrix(.01085069 0 0 .01085069 65.755208 0)" xlink:href="#n"/><use transform="matrix(.01085069 0 0 .01085069 78.28776 0)" xlink:href="#u"/></g><path d="m836-852.34h-2v-19.4h2zm0-40.25h-2v-36.9h2z" fill="#5e5e5e"/><path d="m836-930.5v1.02h-2v-1.03zm-1 93.43-4.64-14.27h9.28z" fill="#5e5e5e"/><path d="m835-833.83-6-18.5h12zm-3.26-16.5 3.26 10.02 3.26-10.04z" fill="#5e5e5e"/><use transform="translate(820.412326 -876.09274)" xlink:href="#F"/><path d="m1218-1055c17.67 0 32 20.15 32 45s-14.33 45-32 45h-96c-17.67 0-32-20.15-32-45s14.33-45 32-45z" fill="#cbdbff" stroke="#5e5e5e" stroke-width="3"/><use transform="translate(1106.579074 -1032.222222)" xlink:href="#J"/><g transform="translate(1194.04821 -1032.222222)"><use transform="scale(.0617284)" xlink:href="#K"/><use transform="matrix(.0617284 0 0 .0617284 6.17284 0)" xlink:href="#L"/><use transform="matrix(.0617284 0 0 .0617284 18.518519 0)" xlink:href="#M"/><use transform="matrix(.0617284 0 0 .0617284 23.395062 0)" xlink:href="#N"/><use transform="matrix(.0617284 0 0 .0617284 28.271605 0)" xlink:href="#O"/></g><g transform="translate(1112.067901 -1005.555556)"><use transform="scale(.0617284)" xlink:href="#P"/><use transform="matrix(.0617284 0 0 .0617284 6.17284 0)" xlink:href="#Q"/></g><g transform="translate(1136.759259 -1005.555556)"><use transform="scale(.0617284)" xlink:href="#I"/><use transform="matrix(.0617284 0 0 .0617284 7.345679 0)" xlink:href="#G"/><use transform="matrix(.0617284 0 0 .0617284 19.691358 0)" xlink:href="#R"/><use transform="matrix(.0617284 0 0 .0617284 24.567901 0)" xlink:href="#Q"/><use transform="matrix(.0617284 0 0 .0617284 36.91358 0)" xlink:href="#M"/><use transform="matrix(.0617284 0 0 .0617284 41.790123 0)" xlink:href="#S"/></g><g transform="translate(1197.067901 -1005.555556)"><use transform="scale(.0617284)" xlink:href="#P"/><use transform="matrix(.0617284 0 0 .0617284 6.17284 0)" xlink:href="#T"/><use transform="matrix(.0617284 0 0 .0617284 18.518519 0)" xlink:href="#G"/></g><use transform="translate(1137.350679 -978.888889)" xlink:href="#U"/><path d="m1009.66-1009h-55.24v-2h55.24zm60.34 0h-37.74v-2h37.74z" fill="#5e5e5e"/><path d="m954.44-1009h-.9l-.24-2h1.14zm130.82-1-14.26 4.64v-9.28z" fill="#5e5e5e"/><path d="m1088.5-1010-18.5 6v-12zm-16.5 3.26 10.03-3.26-10.03-3.26z" fill="#5e5e5e"/><use transform="translate(1009.65699 -1003.923611)" xlink:href="#C"/><path d="m988-832.33c56.33 0 102 20.52 102 45.83 0 25.3-45.67 45.83-102 45.83h-306c-56.33 0-102-20.52-102-45.83 0-25.3 45.67-45.83 102-45.83z" fill="#cbdbff" stroke="#5e5e5e" stroke-width="3"/><g transform="translate(598.345929 -791.342014)"><path d="m417-1456 476 1188 476-1188h249v1456h-192c-4-403 4-794 18-1179l-478 1179h-147l-477-1176c15 384 23 773 19 1176h-192v-1456z" fill="#333" transform="scale(.01085069)"/><use transform="matrix(.01085069 0 0 .01085069 19.401042 0)" xlink:href="#e"/><use transform="matrix(.01085069 0 0 .01085069 31.174045 0)" xlink:href="#f"/><use transform="matrix(.01085069 0 0 .01085069 50.651042 0)" xlink:href="#g"/><use transform="matrix(.01085069 0 0 .01085069 63.11849 0)" xlink:href="#e"/><use transform="matrix(.01085069 0 0 .01085069 74.891493 0)" xlink:href="#h"/></g><g transform="translate(686.258255 -791.342014)"><use transform="scale(.01085069)" xlink:href="#n"/><use transform="matrix(.01085069 0 0 .01085069 12.532552 0)" xlink:href="#e"/><use transform="matrix(.01085069 0 0 .01085069 24.305556 0)" xlink:href="#d"/><use transform="matrix(.01085069 0 0 .01085069 29.698351 0)" xlink:href="#e"/><use transform="matrix(.01085069 0 0 .01085069 41.471354 0)" xlink:href="#l"/><use transform="matrix(.01085069 0 0 .01085069 48.730469 0)" xlink:href="#e"/><use transform="matrix(.01085069 0 0 .01085069 60.503472 0)" xlink:href="#k"/></g><g transform="translate(763.721363 -791.342014)"><use transform="scale(.01085069)" xlink:href="#a"/><use transform="matrix(.01085069 0 0 .01085069 5.392795 0)" xlink:href="#l"/><use transform="matrix(.01085069 0 0 .01085069 12.65191 0)" xlink:href="#k"/></g><g transform="translate(793.332908 -791.342014)"><use transform="scale(.01085069)" xlink:href="#p"/><use transform="matrix(.01085069 0 0 .01085069 12.467448 0)" xlink:href="#e"/><use transform="matrix(.01085069 0 0 .01085069 24.240451 0)" xlink:href="#h"/><use transform="matrix(.01085069 0 0 .01085069 31.759983 0)" xlink:href="#k"/><use transform="matrix(.01085069 0 0 .01085069 43.218316 0)" xlink:href="#a"/><use transform="matrix(.01085069 0 0 .01085069 48.611111 0)" xlink:href="#k"/><use transform="matrix(.01085069 0 0 .01085069 60.069444 0)" xlink:href="#l"/><use transform="matrix(.01085069 0 0 .01085069 67.328559 0)" xlink:href="#e"/><use transform="matrix(.01085069 0 0 .01085069 79.101562 0)" xlink:href="#b"/><use transform="matrix(.01085069 0 0 .01085069 91.362847 0)" xlink:href="#V"/><use transform="matrix(.01085069 0 0 .01085069 102.994792 0)" xlink:href="#e"/></g><g transform="translate(913.602005 -791.342014)"><use transform="scale(.01085069)" xlink:href="#k"/><use transform="matrix(.01085069 0 0 .01085069 11.458333 0)" xlink:href="#l"/><use transform="matrix(.01085069 0 0 .01085069 18.500434 0)" xlink:href="#q"/><use transform="matrix(.01085069 0 0 .01085069 31.174045 0)" xlink:href="#h"/><use transform="matrix(.01085069 0 0 .01085069 38.487413 0)" xlink:href="#e"/><path d="m134 290-105-72c97-132 105-239 98-437h181c1 144 5 239-50 347-34 67-74 121-124 162" fill="#333" transform="matrix(.01085069 0 0 .01085069 50.260417 0)"/></g><g transform="translate(973.725703 -791.342014)"><use transform="scale(.01085069)" xlink:href="#c"/><use transform="matrix(.01085069 0 0 .01085069 12.467448 0)" xlink:href="#e"/><use transform="matrix(.01085069 0 0 .01085069 24.240451 0)" xlink:href="#b"/><use transform="matrix(.01085069 0 0 .01085069 36.501736 0)" xlink:href="#e"/><use transform="matrix(.01085069 0 0 .01085069 48.27474 0)" xlink:href="#h"/><use transform="matrix(.01085069 0 0 .01085069 55.360243 0)" xlink:href="#i"/><use transform="matrix(.01085069 0 0 .01085069 67.447917 0)" xlink:href="#l"/><use transform="matrix(.01085069 0 0 .01085069 74.707031 0)" xlink:href="#e"/><use transform="matrix(.01085069 0 0 .01085069 86.480035 0)" xlink:href="#k"/></g><use transform="translate(666.564245 -765.300347)" xlink:href="#W"/><g transform="translate(684.15322 -765.300347)"><use transform="scale(.01085069)" xlink:href="#b"/><use transform="matrix(.01085069 0 0 .01085069 12.261285 0)" xlink:href="#e"/><path d="m1098-255 208-827h185l-315 1082h-150l-263-820-256 820h-150l-314-1082h184l213 810 252-810h149" fill="#333" transform="matrix(.01085069 0 0 .01085069 24.034288 0)"/></g><g transform="translate(730.38803 -765.300347)"><use transform="scale(.01085069)" xlink:href="#X"/><use transform="matrix(.01085069 0 0 .01085069 14.409722 0)" xlink:href="#X"/><use transform="matrix(.01085069 0 0 .01085069 28.819444 0)" xlink:href="#r"/><path d="m1222-777c17 480-206 763-650 777h-403v-1456h411c408 9 627 269 642 679zm-190 4c3-312-149-522-447-525h-224v1141h202c308 0 473-209 469-531z" fill="#333" transform="matrix(.01085069 0 0 .01085069 34.863281 0)"/></g><g transform="translate(785.325095 -765.300347)"><use transform="scale(.01085069)" xlink:href="#i"/><use transform="matrix(.01085069 0 0 .01085069 12.087674 0)" xlink:href="#b"/><use transform="matrix(.01085069 0 0 .01085069 24.348958 0)" xlink:href="#n"/></g><g transform="translate(827.707908 -765.300347)"><use transform="scale(.01085069)" xlink:href="#h"/><use transform="matrix(.01085069 0 0 .01085069 7.313368 0)" xlink:href="#e"/><path d="m19 279c92 0 127-48 127-150v-1211h185v1207c0 208-94 312-283 312-41 0-78-6-113-18v-148c21 5 49 8 84 8zm216-1543c-68 0-107-42-108-105 0-61 42-107 108-107 68 0 110 44 110 107s-42 105-110 105" fill="#333" transform="matrix(.01085069 0 0 .01085069 19.086372 0)"/><use transform="matrix(.01085069 0 0 .01085069 24.392361 0)" xlink:href="#q"/><use transform="matrix(.01085069 0 0 .01085069 37.065972 0)" xlink:href="#a"/><use transform="matrix(.01085069 0 0 .01085069 42.458767 0)" xlink:href="#b"/><use transform="matrix(.01085069 0 0 .01085069 54.720052 0)" xlink:href="#k"/></g><g transform="translate(899.387595 -765.300347)"><use transform="scale(.01085069)" xlink:href="#l"/><use transform="matrix(.01085069 0 0 .01085069 7.259115 0)" xlink:href="#o"/><use transform="matrix(.01085069 0 0 .01085069 19.498698 0)" xlink:href="#e"/></g><g transform="translate(936.160599 -765.300347)"><use transform="scale(.01085069)" xlink:href="#V"/><use transform="matrix(.01085069 0 0 .01085069 11.631944 0)" xlink:href="#d"/><use transform="matrix(.01085069 0 0 .01085069 17.02474 0)" xlink:href="#j"/><use transform="matrix(.01085069 0 0 .01085069 29.275174 0)" xlink:href="#k"/><use transform="matrix(.01085069 0 0 .01085069 40.733507 0)" xlink:href="#l"/><use transform="matrix(.01085069 0 0 .01085069 47.992622 0)" xlink:href="#e"/><use transform="matrix(.01085069 0 0 .01085069 59.765625 0)" xlink:href="#h"/></g><path d="m176-182.5c24.3 0 44 20.15 44 45s-19.7 45-44 45h-132c-24.3 0-44-20.15-44-45s19.7-45 44-45z" fill="#cbdbff" stroke="#5e5e5e" stroke-width="3"/><use transform="translate(39.758086 -159.722222)" xlink:href="#J"/><g transform="translate(127.227222 -159.722222)"><use transform="scale(.0617284)" xlink:href="#N"/><use transform="matrix(.0617284 0 0 .0617284 4.876543 0)" xlink:href="#Q"/><use transform="matrix(.0617284 0 0 .0617284 17.222222 0)" xlink:href="#L"/><use transform="matrix(.0617284 0 0 .0617284 29.567901 0)" xlink:href="#Y"/><use transform="matrix(.0617284 0 0 .0617284 41.91358 0)" xlink:href="#O"/></g><g transform="translate(18.734568 -133.055556)"><use transform="scale(.0617284)" xlink:href="#Y"/><use transform="matrix(.0617284 0 0 .0617284 12.345679 0)" xlink:href="#L"/><use transform="matrix(.0617284 0 0 .0617284 24.691358 0)" xlink:href="#P"/><use transform="matrix(.0617284 0 0 .0617284 30.864198 0)" xlink:href="#L"/></g><g transform="translate(68.117284 -133.055556)"><use transform="scale(.0617284)" xlink:href="#K"/><use transform="matrix(.0617284 0 0 .0617284 6.17284 0)" xlink:href="#I"/><use transform="matrix(.0617284 0 0 .0617284 13.518519 0)" xlink:href="#Q"/><use transform="matrix(.0617284 0 0 .0617284 25.864198 0)" xlink:href="#H"/></g><g transform="translate(118.611111 -133.055556)"><use transform="scale(.0617284)" xlink:href="#Y"/><use transform="matrix(.0617284 0 0 .0617284 12.345679 0)" xlink:href="#M"/><use transform="matrix(.0617284 0 0 .0617284 17.222222 0)" xlink:href="#O"/><path d="m143 0-64-87-23 19v68h-32v-261h32v163l83-92h37l-77 82 82 108z" fill="#333" transform="matrix(.0617284 0 0 .0617284 28.333333 0)"/></g><g transform="translate(164.228395 -133.055556)"><use transform="scale(.0617284)" xlink:href="#L"/><use transform="matrix(.0617284 0 0 .0617284 12.345679 0)" xlink:href="#S"/><use transform="matrix(.0617284 0 0 .0617284 24.691358 0)" xlink:href="#Y"/></g><g transform="translate(23.122284 -106.388889)"><use transform="scale(.0617284)" xlink:href="#I"/><use transform="matrix(.0617284 0 0 .0617284 7.345679 0)" xlink:href="#G"/><use transform="matrix(.0617284 0 0 .0617284 19.691358 0)" xlink:href="#R"/><use transform="matrix(.0617284 0 0 .0617284 24.567901 0)" xlink:href="#Q"/><use transform="matrix(.0617284 0 0 .0617284 36.91358 0)" xlink:href="#M"/><use transform="matrix(.0617284 0 0 .0617284 41.790123 0)" xlink:href="#S"/><use transform="matrix(.0617284 0 0 .0617284 54.135802 0)" xlink:href="#O"/></g><g transform="translate(94.542037 -106.388889)"><use transform="scale(.0617284)" xlink:href="#P"/><use transform="matrix(.0617284 0 0 .0617284 6.17284 0)" xlink:href="#T"/><use transform="matrix(.0617284 0 0 .0617284 18.518519 0)" xlink:href="#G"/></g><use transform="translate(131.579074 -106.388889)" xlink:href="#U"/></g></svg>